%TF.GenerationSoftware,KiCad,Pcbnew,9.0.0*%
%TF.CreationDate,2025-04-09T17:10:58+10:00*%
%TF.ProjectId,ngmarquee.kicad_pcb_to220_usb_switch_1.1_m3,6e676d61-7271-4756-9565-2e6b69636164,rev?*%
%TF.SameCoordinates,Original*%
%TF.FileFunction,Copper,L1,Top*%
%TF.FilePolarity,Positive*%
%FSLAX46Y46*%
G04 Gerber Fmt 4.6, Leading zero omitted, Abs format (unit mm)*
G04 Created by KiCad (PCBNEW 9.0.0) date 2025-04-09 17:10:58*
%MOMM*%
%LPD*%
G01*
G04 APERTURE LIST*
%TA.AperFunction,ComponentPad*%
%ADD10C,1.400000*%
%TD*%
%TA.AperFunction,ComponentPad*%
%ADD11O,1.400000X1.400000*%
%TD*%
%TA.AperFunction,ComponentPad*%
%ADD12R,1.600000X1.500000*%
%TD*%
%TA.AperFunction,ComponentPad*%
%ADD13C,1.600000*%
%TD*%
%TA.AperFunction,ComponentPad*%
%ADD14C,3.000000*%
%TD*%
%TA.AperFunction,ComponentPad*%
%ADD15R,1.500000X1.600000*%
%TD*%
%TA.AperFunction,ComponentPad*%
%ADD16C,2.000000*%
%TD*%
%TA.AperFunction,ComponentPad*%
%ADD17R,1.800000X1.800000*%
%TD*%
%TA.AperFunction,ComponentPad*%
%ADD18C,1.800000*%
%TD*%
%TA.AperFunction,ComponentPad*%
%ADD19C,6.400000*%
%TD*%
%TA.AperFunction,ComponentPad*%
%ADD20R,1.905000X2.000000*%
%TD*%
%TA.AperFunction,ComponentPad*%
%ADD21O,1.905000X2.000000*%
%TD*%
%TA.AperFunction,ComponentPad*%
%ADD22R,1.600000X1.600000*%
%TD*%
%TA.AperFunction,ComponentPad*%
%ADD23O,1.600000X1.600000*%
%TD*%
%TA.AperFunction,ComponentPad*%
%ADD24R,1.700000X1.700000*%
%TD*%
%TA.AperFunction,ComponentPad*%
%ADD25O,1.700000X1.700000*%
%TD*%
%TA.AperFunction,Conductor*%
%ADD26C,0.200000*%
%TD*%
%TA.AperFunction,Conductor*%
%ADD27C,0.250000*%
%TD*%
G04 APERTURE END LIST*
D10*
%TO.P,R7,1*%
%TO.N,N/C*%
X141540000Y-92090000D03*
D11*
%TO.P,R7,2*%
X146620000Y-92090000D03*
%TD*%
D10*
%TO.P,R3,1*%
%TO.N,N/C*%
X91500000Y-92090000D03*
D11*
%TO.P,R3,2*%
X96580000Y-92090000D03*
%TD*%
D12*
%TO.P,CN4,1*%
%TO.N,N/C*%
X133880000Y-100230000D03*
D13*
%TO.P,CN4,2*%
X136380000Y-100230000D03*
%TO.P,CN4,3*%
X138380000Y-100230000D03*
%TO.P,CN4,4*%
X140880000Y-100230000D03*
D14*
%TO.P,CN4,5*%
X130810000Y-102940000D03*
X143950000Y-102940000D03*
%TD*%
D15*
%TO.P,CN6,1*%
%TO.N,N/C*%
X166200000Y-107860000D03*
D13*
%TO.P,CN6,2*%
X166200000Y-105360000D03*
%TO.P,CN6,3*%
X166200000Y-103360000D03*
%TO.P,CN6,4*%
X166200000Y-100860000D03*
D14*
%TO.P,CN6,5*%
X168910000Y-110930000D03*
X168910000Y-97790000D03*
%TD*%
D16*
%TO.P,REF\u002A\u002A,1*%
%TO.N,N/C*%
X88040000Y-71090000D03*
X94540000Y-71090000D03*
%TO.P,REF\u002A\u002A,2*%
X88040000Y-75590000D03*
X94540000Y-75590000D03*
%TD*%
D10*
%TO.P,R2,1*%
%TO.N,N/C*%
X155230000Y-75590000D03*
D11*
%TO.P,R2,2*%
X162850000Y-75590000D03*
%TD*%
D17*
%TO.P,D1,1*%
%TO.N,N/C*%
X99000000Y-93590000D03*
D18*
%TO.P,D1,2*%
X101540000Y-93590000D03*
%TD*%
D19*
%TO.P,REF\u002A\u002A,1*%
%TO.N,N/C*%
X85540000Y-62590000D03*
%TD*%
D17*
%TO.P,D6,1*%
%TO.N,N/C*%
X161540000Y-93590000D03*
D18*
%TO.P,D6,2*%
X164080000Y-93590000D03*
%TD*%
D17*
%TO.P,D5,1*%
%TO.N,N/C*%
X149040000Y-93590000D03*
D18*
%TO.P,D5,2*%
X151580000Y-93590000D03*
%TD*%
D12*
%TO.P,CN3,1*%
%TO.N,N/C*%
X116040000Y-100230000D03*
D13*
%TO.P,CN3,2*%
X118540000Y-100230000D03*
%TO.P,CN3,3*%
X120540000Y-100230000D03*
%TO.P,CN3,4*%
X123040000Y-100230000D03*
D14*
%TO.P,CN3,5*%
X112970000Y-102940000D03*
X126110000Y-102940000D03*
%TD*%
D20*
%TO.P,Q6,1*%
%TO.N,N/C*%
X154940000Y-87630000D03*
D21*
%TO.P,Q6,2*%
X157480000Y-87630000D03*
%TO.P,Q6,3*%
X160020000Y-87630000D03*
%TD*%
D22*
%TO.P,C1,1*%
%TO.N,N/C*%
X100040000Y-64090000D03*
D13*
%TO.P,C1,2*%
X100040000Y-66590000D03*
%TD*%
D19*
%TO.P,REF\u002A\u002A,1*%
%TO.N,N/C*%
X174040000Y-93090000D03*
%TD*%
D15*
%TO.P,CN1,1*%
%TO.N,N/C*%
X90450000Y-100420000D03*
D13*
%TO.P,CN1,2*%
X90450000Y-102920000D03*
%TO.P,CN1,3*%
X90450000Y-104920000D03*
%TO.P,CN1,4*%
X90450000Y-107420000D03*
D14*
%TO.P,CN1,5*%
X87740000Y-97350000D03*
X87740000Y-110490000D03*
%TD*%
D20*
%TO.P,Q2,1*%
%TO.N,N/C*%
X109220000Y-87630000D03*
D21*
%TO.P,Q2,2*%
X111760000Y-87630000D03*
%TO.P,Q2,3*%
X114300000Y-87630000D03*
%TD*%
D10*
%TO.P,R4,1*%
%TO.N,N/C*%
X104040000Y-92090000D03*
D11*
%TO.P,R4,2*%
X109120000Y-92090000D03*
%TD*%
D10*
%TO.P,R8,1*%
%TO.N,N/C*%
X154040000Y-92090000D03*
D11*
%TO.P,R8,2*%
X159120000Y-92090000D03*
%TD*%
D17*
%TO.P,D4,1*%
%TO.N,N/C*%
X136540000Y-93590000D03*
D18*
%TO.P,D4,2*%
X139080000Y-93590000D03*
%TD*%
D17*
%TO.P,D3,1*%
%TO.N,N/C*%
X124000000Y-93590000D03*
D18*
%TO.P,D3,2*%
X126540000Y-93590000D03*
%TD*%
D20*
%TO.P,Q5,1*%
%TO.N,N/C*%
X143510000Y-87630000D03*
D21*
%TO.P,Q5,2*%
X146050000Y-87630000D03*
%TO.P,Q5,3*%
X148590000Y-87630000D03*
%TD*%
D19*
%TO.P,REF\u002A\u002A,1*%
%TO.N,N/C*%
X174040000Y-62090000D03*
%TD*%
D10*
%TO.P,R1,1*%
%TO.N,N/C*%
X88040000Y-80090000D03*
D11*
%TO.P,R1,2*%
X95660000Y-80090000D03*
%TD*%
D10*
%TO.P,R5,1*%
%TO.N,N/C*%
X116500000Y-92090000D03*
D11*
%TO.P,R5,2*%
X121580000Y-92090000D03*
%TD*%
D20*
%TO.P,Q4,1*%
%TO.N,N/C*%
X132080000Y-87630000D03*
D21*
%TO.P,Q4,2*%
X134620000Y-87630000D03*
%TO.P,Q4,3*%
X137160000Y-87630000D03*
%TD*%
D12*
%TO.P,CN2,1*%
%TO.N,N/C*%
X98320000Y-100230000D03*
D13*
%TO.P,CN2,2*%
X100820000Y-100230000D03*
%TO.P,CN2,3*%
X102820000Y-100230000D03*
%TO.P,CN2,4*%
X105320000Y-100230000D03*
D14*
%TO.P,CN2,5*%
X95250000Y-102940000D03*
X108390000Y-102940000D03*
%TD*%
D12*
%TO.P,CN5,1*%
%TO.N,N/C*%
X151220000Y-100230000D03*
D13*
%TO.P,CN5,2*%
X153720000Y-100230000D03*
%TO.P,CN5,3*%
X155720000Y-100230000D03*
%TO.P,CN5,4*%
X158220000Y-100230000D03*
D14*
%TO.P,CN5,5*%
X148150000Y-102940000D03*
X161290000Y-102940000D03*
%TD*%
D20*
%TO.P,Q3,1*%
%TO.N,N/C*%
X120650000Y-87630000D03*
D21*
%TO.P,Q3,2*%
X123190000Y-87630000D03*
%TO.P,Q3,3*%
X125730000Y-87630000D03*
%TD*%
D19*
%TO.P,REF\u002A\u002A,1*%
%TO.N,N/C*%
X85540000Y-91590000D03*
%TD*%
D20*
%TO.P,Q1,1*%
%TO.N,N/C*%
X97790000Y-87630000D03*
D21*
%TO.P,Q1,2*%
X100330000Y-87630000D03*
%TO.P,Q1,3*%
X102870000Y-87630000D03*
%TD*%
D23*
%TO.P,A1,3V3 Out*%
%TO.N,N/C*%
X143510000Y-66040000D03*
%TO.P,A1,5V Out*%
X118110000Y-66040000D03*
%TO.P,A1,A0*%
X138430000Y-66040000D03*
%TO.P,A1,A1*%
X135890000Y-66040000D03*
%TO.P,A1,A2*%
X133350000Y-66040000D03*
%TO.P,A1,A3*%
X130810000Y-66040000D03*
%TO.P,A1,A4*%
X128270000Y-66040000D03*
%TO.P,A1,A5*%
X125730000Y-66040000D03*
%TO.P,A1,A6*%
X123190000Y-66040000D03*
%TO.P,A1,A7*%
X120650000Y-66040000D03*
%TO.P,A1,D2*%
X120650000Y-81280000D03*
%TO.P,A1,D3*%
X123190000Y-81280000D03*
%TO.P,A1,D4*%
X125730000Y-81280000D03*
%TO.P,A1,D5*%
X128270000Y-81280000D03*
%TO.P,A1,D6*%
X130810000Y-81280000D03*
%TO.P,A1,D7*%
X133350000Y-81280000D03*
%TO.P,A1,D8*%
X135890000Y-81280000D03*
%TO.P,A1,D9*%
X138430000Y-81280000D03*
%TO.P,A1,D10*%
X140970000Y-81280000D03*
%TO.P,A1,D11*%
X143510000Y-81280000D03*
%TO.P,A1,D12*%
X146050000Y-81280000D03*
%TO.P,A1,D13*%
X146050000Y-66040000D03*
%TO.P,A1,GND*%
X118110000Y-81280000D03*
X113030000Y-66040000D03*
%TO.P,A1,REF*%
X140970000Y-66040000D03*
%TO.P,A1,RST*%
X115570000Y-81280000D03*
X115570000Y-66040000D03*
%TO.P,A1,RX0*%
X113030000Y-81280000D03*
D22*
%TO.P,A1,TX1*%
X110490000Y-81280000D03*
D23*
%TO.P,A1,Vin*%
X110490000Y-66040000D03*
%TD*%
D10*
%TO.P,R6,1*%
%TO.N,N/C*%
X129000000Y-92090000D03*
D11*
%TO.P,R6,2*%
X134080000Y-92090000D03*
%TD*%
D24*
%TO.P,REF\u002A\u002A,1*%
%TO.N,N/C*%
X168540000Y-73090000D03*
D25*
%TO.P,REF\u002A\u002A,2*%
X168540000Y-75630000D03*
%TD*%
D24*
%TO.P,J1,1*%
%TO.N,N/C*%
X119380000Y-62230000D03*
D25*
%TO.P,J1,2*%
X121920000Y-62230000D03*
%TO.P,J1,3*%
X124460000Y-62230000D03*
%TO.P,J1,4*%
X127000000Y-62230000D03*
%TO.P,J1,5*%
X129540000Y-62230000D03*
%TO.P,J1,6*%
X132080000Y-62230000D03*
%TO.P,J1,7*%
X134620000Y-62230000D03*
%TO.P,J1,8*%
X137160000Y-62230000D03*
%TD*%
D17*
%TO.P,D2,1*%
%TO.N,N/C*%
X111500000Y-93590000D03*
D18*
%TO.P,D2,2*%
X114040000Y-93590000D03*
%TD*%
D26*
%TO.N,*%
X143540000Y-83090000D02*
X154540000Y-83090000D01*
X126540000Y-96890000D02*
X123100000Y-100330000D01*
D27*
X133350000Y-81280000D02*
X133350000Y-83820000D01*
D26*
X146050000Y-76100000D02*
X146050000Y-81280000D01*
X138430000Y-85200000D02*
X138040000Y-85590000D01*
X164040000Y-93590000D02*
X164040000Y-98700000D01*
D27*
X143510000Y-84120000D02*
X143510000Y-87630000D01*
D26*
X114040000Y-93590000D02*
X114040000Y-97090000D01*
X146050000Y-90580000D02*
X146040000Y-90590000D01*
X164040000Y-98700000D02*
X166200000Y-100860000D01*
D27*
X140970000Y-83820000D02*
X143270000Y-83820000D01*
D26*
X110390000Y-72490000D02*
X110490000Y-72590000D01*
X158220000Y-97270000D02*
X158220000Y-100160000D01*
D27*
X92040000Y-97590000D02*
X92040000Y-107590000D01*
X97790000Y-82840000D02*
X97790000Y-87630000D01*
D26*
X151540000Y-97090000D02*
X158040000Y-97090000D01*
D27*
X130810000Y-81280000D02*
X130810000Y-82550000D01*
X101540000Y-93590000D02*
X101540000Y-97590000D01*
X90620000Y-107590000D02*
X90450000Y-107420000D01*
X135890000Y-85090000D02*
X135890000Y-81280000D01*
D26*
X168540000Y-73090000D02*
X110540000Y-73090000D01*
D27*
X101540000Y-97590000D02*
X92040000Y-97590000D01*
D26*
X126540000Y-93590000D02*
X126540000Y-96890000D01*
X138040000Y-85590000D02*
X132040000Y-85590000D01*
X146050000Y-87630000D02*
X146050000Y-90580000D01*
X114040000Y-97090000D02*
X106040000Y-97090000D01*
X143510000Y-81280000D02*
X143510000Y-83060000D01*
X111760000Y-91310000D02*
X114040000Y-93590000D01*
X158040000Y-97090000D02*
X158220000Y-97270000D01*
D27*
X98080000Y-82550000D02*
X97790000Y-82840000D01*
D26*
X132040000Y-85590000D02*
X132080000Y-85630000D01*
D27*
X92040000Y-107590000D02*
X90620000Y-107590000D01*
D26*
X134620000Y-89170000D02*
X139040000Y-93590000D01*
X157480000Y-87630000D02*
X157480000Y-90530000D01*
X110490000Y-73040000D02*
X110490000Y-72590000D01*
D27*
X120650000Y-85480000D02*
X120650000Y-87630000D01*
X109220000Y-84410000D02*
X109220000Y-87630000D01*
D26*
X134620000Y-87630000D02*
X134620000Y-89170000D01*
X157480000Y-90530000D02*
X157540000Y-90590000D01*
X157540000Y-90590000D02*
X164040000Y-90590000D01*
X168540000Y-75630000D02*
X162890000Y-75630000D01*
X164040000Y-90590000D02*
X164040000Y-93590000D01*
X154540000Y-83090000D02*
X154940000Y-83490000D01*
D27*
X109810000Y-83820000D02*
X109220000Y-84410000D01*
X143270000Y-83820000D02*
X143540000Y-84090000D01*
D26*
X110540000Y-73090000D02*
X110490000Y-73040000D01*
X123190000Y-87630000D02*
X123190000Y-90240000D01*
X111760000Y-87630000D02*
X111760000Y-91310000D01*
X145540000Y-75590000D02*
X146050000Y-76100000D01*
X132080000Y-85630000D02*
X132080000Y-87630000D01*
D27*
X100330000Y-87630000D02*
X100330000Y-92380000D01*
X140970000Y-81280000D02*
X140970000Y-83820000D01*
X90980000Y-107950000D02*
X90450000Y-107420000D01*
X135890000Y-85090000D02*
X121040000Y-85090000D01*
X100330000Y-92380000D02*
X101540000Y-93590000D01*
D26*
X110490000Y-72590000D02*
X110490000Y-66040000D01*
X139040000Y-98320000D02*
X140880000Y-100160000D01*
X151540000Y-90590000D02*
X151540000Y-93590000D01*
D27*
X143540000Y-84090000D02*
X143510000Y-84120000D01*
D26*
X106040000Y-97090000D02*
X105320000Y-97810000D01*
D27*
X100040000Y-87920000D02*
X100330000Y-87630000D01*
X137160000Y-93980000D02*
X137160000Y-93710000D01*
D26*
X94540000Y-75590000D02*
X145540000Y-75590000D01*
D27*
X130810000Y-82550000D02*
X98080000Y-82550000D01*
D26*
X151540000Y-93590000D02*
X151540000Y-97090000D01*
D27*
X133350000Y-83820000D02*
X109810000Y-83820000D01*
D26*
X138430000Y-81280000D02*
X138430000Y-85200000D01*
X146560000Y-75590000D02*
X146050000Y-76100000D01*
X146040000Y-90590000D02*
X151540000Y-90590000D01*
X143510000Y-83060000D02*
X143540000Y-83090000D01*
X154940000Y-83490000D02*
X154940000Y-87630000D01*
X162890000Y-75630000D02*
X162850000Y-75590000D01*
X139040000Y-93590000D02*
X139040000Y-98320000D01*
D27*
X121040000Y-85090000D02*
X120650000Y-85480000D01*
D26*
X105320000Y-97810000D02*
X105320000Y-100330000D01*
X123190000Y-90240000D02*
X126540000Y-93590000D01*
X155230000Y-75590000D02*
X146560000Y-75590000D01*
%TD*%
M02*
