%TF.GenerationSoftware,KiCad,Pcbnew,9.0.0*%
%TF.CreationDate,2025-04-09T17:10:58+10:00*%
%TF.ProjectId,ngmarquee.kicad_pcb_to220_usb_switch_1.1_m3,6e676d61-7271-4756-9565-2e6b69636164,rev?*%
%TF.SameCoordinates,Original*%
%TF.FileFunction,Legend,Top*%
%TF.FilePolarity,Positive*%
%FSLAX46Y46*%
G04 Gerber Fmt 4.6, Leading zero omitted, Abs format (unit mm)*
G04 Created by KiCad (PCBNEW 9.0.0) date 2025-04-09 17:10:58*
%MOMM*%
%LPD*%
G01*
G04 APERTURE LIST*
%ADD10C,0.150000*%
%ADD11C,0.300000*%
%ADD12C,0.120000*%
%ADD13C,0.200000*%
%ADD14C,0.100000*%
G04 APERTURE END LIST*
D10*
X136876779Y-90959819D02*
X136876779Y-89959819D01*
X136876779Y-89959819D02*
X137114874Y-89959819D01*
X137114874Y-89959819D02*
X137257731Y-90007438D01*
X137257731Y-90007438D02*
X137352969Y-90102676D01*
X137352969Y-90102676D02*
X137400588Y-90197914D01*
X137400588Y-90197914D02*
X137448207Y-90388390D01*
X137448207Y-90388390D02*
X137448207Y-90531247D01*
X137448207Y-90531247D02*
X137400588Y-90721723D01*
X137400588Y-90721723D02*
X137352969Y-90816961D01*
X137352969Y-90816961D02*
X137257731Y-90912200D01*
X137257731Y-90912200D02*
X137114874Y-90959819D01*
X137114874Y-90959819D02*
X136876779Y-90959819D01*
X138305350Y-90293152D02*
X138305350Y-90959819D01*
X138067255Y-89912200D02*
X137829160Y-90626485D01*
X137829160Y-90626485D02*
X138448207Y-90626485D01*
X149376779Y-90959819D02*
X149376779Y-89959819D01*
X149376779Y-89959819D02*
X149614874Y-89959819D01*
X149614874Y-89959819D02*
X149757731Y-90007438D01*
X149757731Y-90007438D02*
X149852969Y-90102676D01*
X149852969Y-90102676D02*
X149900588Y-90197914D01*
X149900588Y-90197914D02*
X149948207Y-90388390D01*
X149948207Y-90388390D02*
X149948207Y-90531247D01*
X149948207Y-90531247D02*
X149900588Y-90721723D01*
X149900588Y-90721723D02*
X149852969Y-90816961D01*
X149852969Y-90816961D02*
X149757731Y-90912200D01*
X149757731Y-90912200D02*
X149614874Y-90959819D01*
X149614874Y-90959819D02*
X149376779Y-90959819D01*
X150852969Y-89959819D02*
X150376779Y-89959819D01*
X150376779Y-89959819D02*
X150329160Y-90436009D01*
X150329160Y-90436009D02*
X150376779Y-90388390D01*
X150376779Y-90388390D02*
X150472017Y-90340771D01*
X150472017Y-90340771D02*
X150710112Y-90340771D01*
X150710112Y-90340771D02*
X150805350Y-90388390D01*
X150805350Y-90388390D02*
X150852969Y-90436009D01*
X150852969Y-90436009D02*
X150900588Y-90531247D01*
X150900588Y-90531247D02*
X150900588Y-90769342D01*
X150900588Y-90769342D02*
X150852969Y-90864580D01*
X150852969Y-90864580D02*
X150805350Y-90912200D01*
X150805350Y-90912200D02*
X150710112Y-90959819D01*
X150710112Y-90959819D02*
X150472017Y-90959819D01*
X150472017Y-90959819D02*
X150376779Y-90912200D01*
X150376779Y-90912200D02*
X150329160Y-90864580D01*
D11*
X171094510Y-72819400D02*
X172237368Y-72819400D01*
X171665939Y-73390828D02*
X171665939Y-72247971D01*
X96594510Y-93819400D02*
X97737368Y-93819400D01*
X97165939Y-94390828D02*
X97165939Y-93247971D01*
D12*
X155271327Y-93762045D02*
X155309423Y-93723950D01*
X155309423Y-93723950D02*
X155385613Y-93685855D01*
X155385613Y-93685855D02*
X155576089Y-93685855D01*
X155576089Y-93685855D02*
X155652280Y-93723950D01*
X155652280Y-93723950D02*
X155690375Y-93762045D01*
X155690375Y-93762045D02*
X155728470Y-93838236D01*
X155728470Y-93838236D02*
X155728470Y-93914426D01*
X155728470Y-93914426D02*
X155690375Y-94028712D01*
X155690375Y-94028712D02*
X155233232Y-94485855D01*
X155233232Y-94485855D02*
X155728470Y-94485855D01*
X156223709Y-93685855D02*
X156299899Y-93685855D01*
X156299899Y-93685855D02*
X156376090Y-93723950D01*
X156376090Y-93723950D02*
X156414185Y-93762045D01*
X156414185Y-93762045D02*
X156452280Y-93838236D01*
X156452280Y-93838236D02*
X156490375Y-93990617D01*
X156490375Y-93990617D02*
X156490375Y-94181093D01*
X156490375Y-94181093D02*
X156452280Y-94333474D01*
X156452280Y-94333474D02*
X156414185Y-94409664D01*
X156414185Y-94409664D02*
X156376090Y-94447760D01*
X156376090Y-94447760D02*
X156299899Y-94485855D01*
X156299899Y-94485855D02*
X156223709Y-94485855D01*
X156223709Y-94485855D02*
X156147518Y-94447760D01*
X156147518Y-94447760D02*
X156109423Y-94409664D01*
X156109423Y-94409664D02*
X156071328Y-94333474D01*
X156071328Y-94333474D02*
X156033232Y-94181093D01*
X156033232Y-94181093D02*
X156033232Y-93990617D01*
X156033232Y-93990617D02*
X156071328Y-93838236D01*
X156071328Y-93838236D02*
X156109423Y-93762045D01*
X156109423Y-93762045D02*
X156147518Y-93723950D01*
X156147518Y-93723950D02*
X156223709Y-93685855D01*
X156985614Y-93685855D02*
X157061804Y-93685855D01*
X157061804Y-93685855D02*
X157137995Y-93723950D01*
X157137995Y-93723950D02*
X157176090Y-93762045D01*
X157176090Y-93762045D02*
X157214185Y-93838236D01*
X157214185Y-93838236D02*
X157252280Y-93990617D01*
X157252280Y-93990617D02*
X157252280Y-94181093D01*
X157252280Y-94181093D02*
X157214185Y-94333474D01*
X157214185Y-94333474D02*
X157176090Y-94409664D01*
X157176090Y-94409664D02*
X157137995Y-94447760D01*
X157137995Y-94447760D02*
X157061804Y-94485855D01*
X157061804Y-94485855D02*
X156985614Y-94485855D01*
X156985614Y-94485855D02*
X156909423Y-94447760D01*
X156909423Y-94447760D02*
X156871328Y-94409664D01*
X156871328Y-94409664D02*
X156833233Y-94333474D01*
X156833233Y-94333474D02*
X156795137Y-94181093D01*
X156795137Y-94181093D02*
X156795137Y-93990617D01*
X156795137Y-93990617D02*
X156833233Y-93838236D01*
X156833233Y-93838236D02*
X156871328Y-93762045D01*
X156871328Y-93762045D02*
X156909423Y-93723950D01*
X156909423Y-93723950D02*
X156985614Y-93685855D01*
X158052281Y-94485855D02*
X157785614Y-94104902D01*
X157595138Y-94485855D02*
X157595138Y-93685855D01*
X157595138Y-93685855D02*
X157899900Y-93685855D01*
X157899900Y-93685855D02*
X157976090Y-93723950D01*
X157976090Y-93723950D02*
X158014185Y-93762045D01*
X158014185Y-93762045D02*
X158052281Y-93838236D01*
X158052281Y-93838236D02*
X158052281Y-93952521D01*
X158052281Y-93952521D02*
X158014185Y-94028712D01*
X158014185Y-94028712D02*
X157976090Y-94066807D01*
X157976090Y-94066807D02*
X157899900Y-94104902D01*
X157899900Y-94104902D02*
X157595138Y-94104902D01*
D11*
X121594510Y-93819400D02*
X122737368Y-93819400D01*
X122165939Y-94390828D02*
X122165939Y-93247971D01*
D12*
X142771327Y-93762045D02*
X142809423Y-93723950D01*
X142809423Y-93723950D02*
X142885613Y-93685855D01*
X142885613Y-93685855D02*
X143076089Y-93685855D01*
X143076089Y-93685855D02*
X143152280Y-93723950D01*
X143152280Y-93723950D02*
X143190375Y-93762045D01*
X143190375Y-93762045D02*
X143228470Y-93838236D01*
X143228470Y-93838236D02*
X143228470Y-93914426D01*
X143228470Y-93914426D02*
X143190375Y-94028712D01*
X143190375Y-94028712D02*
X142733232Y-94485855D01*
X142733232Y-94485855D02*
X143228470Y-94485855D01*
X143723709Y-93685855D02*
X143799899Y-93685855D01*
X143799899Y-93685855D02*
X143876090Y-93723950D01*
X143876090Y-93723950D02*
X143914185Y-93762045D01*
X143914185Y-93762045D02*
X143952280Y-93838236D01*
X143952280Y-93838236D02*
X143990375Y-93990617D01*
X143990375Y-93990617D02*
X143990375Y-94181093D01*
X143990375Y-94181093D02*
X143952280Y-94333474D01*
X143952280Y-94333474D02*
X143914185Y-94409664D01*
X143914185Y-94409664D02*
X143876090Y-94447760D01*
X143876090Y-94447760D02*
X143799899Y-94485855D01*
X143799899Y-94485855D02*
X143723709Y-94485855D01*
X143723709Y-94485855D02*
X143647518Y-94447760D01*
X143647518Y-94447760D02*
X143609423Y-94409664D01*
X143609423Y-94409664D02*
X143571328Y-94333474D01*
X143571328Y-94333474D02*
X143533232Y-94181093D01*
X143533232Y-94181093D02*
X143533232Y-93990617D01*
X143533232Y-93990617D02*
X143571328Y-93838236D01*
X143571328Y-93838236D02*
X143609423Y-93762045D01*
X143609423Y-93762045D02*
X143647518Y-93723950D01*
X143647518Y-93723950D02*
X143723709Y-93685855D01*
X144485614Y-93685855D02*
X144561804Y-93685855D01*
X144561804Y-93685855D02*
X144637995Y-93723950D01*
X144637995Y-93723950D02*
X144676090Y-93762045D01*
X144676090Y-93762045D02*
X144714185Y-93838236D01*
X144714185Y-93838236D02*
X144752280Y-93990617D01*
X144752280Y-93990617D02*
X144752280Y-94181093D01*
X144752280Y-94181093D02*
X144714185Y-94333474D01*
X144714185Y-94333474D02*
X144676090Y-94409664D01*
X144676090Y-94409664D02*
X144637995Y-94447760D01*
X144637995Y-94447760D02*
X144561804Y-94485855D01*
X144561804Y-94485855D02*
X144485614Y-94485855D01*
X144485614Y-94485855D02*
X144409423Y-94447760D01*
X144409423Y-94447760D02*
X144371328Y-94409664D01*
X144371328Y-94409664D02*
X144333233Y-94333474D01*
X144333233Y-94333474D02*
X144295137Y-94181093D01*
X144295137Y-94181093D02*
X144295137Y-93990617D01*
X144295137Y-93990617D02*
X144333233Y-93838236D01*
X144333233Y-93838236D02*
X144371328Y-93762045D01*
X144371328Y-93762045D02*
X144409423Y-93723950D01*
X144409423Y-93723950D02*
X144485614Y-93685855D01*
X145552281Y-94485855D02*
X145285614Y-94104902D01*
X145095138Y-94485855D02*
X145095138Y-93685855D01*
X145095138Y-93685855D02*
X145399900Y-93685855D01*
X145399900Y-93685855D02*
X145476090Y-93723950D01*
X145476090Y-93723950D02*
X145514185Y-93762045D01*
X145514185Y-93762045D02*
X145552281Y-93838236D01*
X145552281Y-93838236D02*
X145552281Y-93952521D01*
X145552281Y-93952521D02*
X145514185Y-94028712D01*
X145514185Y-94028712D02*
X145476090Y-94066807D01*
X145476090Y-94066807D02*
X145399900Y-94104902D01*
X145399900Y-94104902D02*
X145095138Y-94104902D01*
D10*
X86376779Y-67959819D02*
X86376779Y-66959819D01*
X86376779Y-66959819D02*
X86710112Y-67674104D01*
X86710112Y-67674104D02*
X87043445Y-66959819D01*
X87043445Y-66959819D02*
X87043445Y-67959819D01*
X87948207Y-67959819D02*
X87948207Y-67436009D01*
X87948207Y-67436009D02*
X87900588Y-67340771D01*
X87900588Y-67340771D02*
X87805350Y-67293152D01*
X87805350Y-67293152D02*
X87614874Y-67293152D01*
X87614874Y-67293152D02*
X87519636Y-67340771D01*
X87948207Y-67912200D02*
X87852969Y-67959819D01*
X87852969Y-67959819D02*
X87614874Y-67959819D01*
X87614874Y-67959819D02*
X87519636Y-67912200D01*
X87519636Y-67912200D02*
X87472017Y-67816961D01*
X87472017Y-67816961D02*
X87472017Y-67721723D01*
X87472017Y-67721723D02*
X87519636Y-67626485D01*
X87519636Y-67626485D02*
X87614874Y-67578866D01*
X87614874Y-67578866D02*
X87852969Y-67578866D01*
X87852969Y-67578866D02*
X87948207Y-67531247D01*
X88424398Y-67293152D02*
X88424398Y-67959819D01*
X88424398Y-67388390D02*
X88472017Y-67340771D01*
X88472017Y-67340771D02*
X88567255Y-67293152D01*
X88567255Y-67293152D02*
X88710112Y-67293152D01*
X88710112Y-67293152D02*
X88805350Y-67340771D01*
X88805350Y-67340771D02*
X88852969Y-67436009D01*
X88852969Y-67436009D02*
X88852969Y-67959819D01*
X89757731Y-67293152D02*
X89757731Y-67959819D01*
X89329160Y-67293152D02*
X89329160Y-67816961D01*
X89329160Y-67816961D02*
X89376779Y-67912200D01*
X89376779Y-67912200D02*
X89472017Y-67959819D01*
X89472017Y-67959819D02*
X89614874Y-67959819D01*
X89614874Y-67959819D02*
X89710112Y-67912200D01*
X89710112Y-67912200D02*
X89757731Y-67864580D01*
X90662493Y-67959819D02*
X90662493Y-67436009D01*
X90662493Y-67436009D02*
X90614874Y-67340771D01*
X90614874Y-67340771D02*
X90519636Y-67293152D01*
X90519636Y-67293152D02*
X90329160Y-67293152D01*
X90329160Y-67293152D02*
X90233922Y-67340771D01*
X90662493Y-67912200D02*
X90567255Y-67959819D01*
X90567255Y-67959819D02*
X90329160Y-67959819D01*
X90329160Y-67959819D02*
X90233922Y-67912200D01*
X90233922Y-67912200D02*
X90186303Y-67816961D01*
X90186303Y-67816961D02*
X90186303Y-67721723D01*
X90186303Y-67721723D02*
X90233922Y-67626485D01*
X90233922Y-67626485D02*
X90329160Y-67578866D01*
X90329160Y-67578866D02*
X90567255Y-67578866D01*
X90567255Y-67578866D02*
X90662493Y-67531247D01*
X91281541Y-67959819D02*
X91186303Y-67912200D01*
X91186303Y-67912200D02*
X91138684Y-67816961D01*
X91138684Y-67816961D02*
X91138684Y-66959819D01*
X92376780Y-67912200D02*
X92519637Y-67959819D01*
X92519637Y-67959819D02*
X92757732Y-67959819D01*
X92757732Y-67959819D02*
X92852970Y-67912200D01*
X92852970Y-67912200D02*
X92900589Y-67864580D01*
X92900589Y-67864580D02*
X92948208Y-67769342D01*
X92948208Y-67769342D02*
X92948208Y-67674104D01*
X92948208Y-67674104D02*
X92900589Y-67578866D01*
X92900589Y-67578866D02*
X92852970Y-67531247D01*
X92852970Y-67531247D02*
X92757732Y-67483628D01*
X92757732Y-67483628D02*
X92567256Y-67436009D01*
X92567256Y-67436009D02*
X92472018Y-67388390D01*
X92472018Y-67388390D02*
X92424399Y-67340771D01*
X92424399Y-67340771D02*
X92376780Y-67245533D01*
X92376780Y-67245533D02*
X92376780Y-67150295D01*
X92376780Y-67150295D02*
X92424399Y-67055057D01*
X92424399Y-67055057D02*
X92472018Y-67007438D01*
X92472018Y-67007438D02*
X92567256Y-66959819D01*
X92567256Y-66959819D02*
X92805351Y-66959819D01*
X92805351Y-66959819D02*
X92948208Y-67007438D01*
X93281542Y-67293152D02*
X93472018Y-67959819D01*
X93472018Y-67959819D02*
X93662494Y-67483628D01*
X93662494Y-67483628D02*
X93852970Y-67959819D01*
X93852970Y-67959819D02*
X94043446Y-67293152D01*
X94424399Y-67959819D02*
X94424399Y-67293152D01*
X94424399Y-66959819D02*
X94376780Y-67007438D01*
X94376780Y-67007438D02*
X94424399Y-67055057D01*
X94424399Y-67055057D02*
X94472018Y-67007438D01*
X94472018Y-67007438D02*
X94424399Y-66959819D01*
X94424399Y-66959819D02*
X94424399Y-67055057D01*
X94757732Y-67293152D02*
X95138684Y-67293152D01*
X94900589Y-66959819D02*
X94900589Y-67816961D01*
X94900589Y-67816961D02*
X94948208Y-67912200D01*
X94948208Y-67912200D02*
X95043446Y-67959819D01*
X95043446Y-67959819D02*
X95138684Y-67959819D01*
X95900589Y-67912200D02*
X95805351Y-67959819D01*
X95805351Y-67959819D02*
X95614875Y-67959819D01*
X95614875Y-67959819D02*
X95519637Y-67912200D01*
X95519637Y-67912200D02*
X95472018Y-67864580D01*
X95472018Y-67864580D02*
X95424399Y-67769342D01*
X95424399Y-67769342D02*
X95424399Y-67483628D01*
X95424399Y-67483628D02*
X95472018Y-67388390D01*
X95472018Y-67388390D02*
X95519637Y-67340771D01*
X95519637Y-67340771D02*
X95614875Y-67293152D01*
X95614875Y-67293152D02*
X95805351Y-67293152D01*
X95805351Y-67293152D02*
X95900589Y-67340771D01*
X96329161Y-67959819D02*
X96329161Y-66959819D01*
X96757732Y-67959819D02*
X96757732Y-67436009D01*
X96757732Y-67436009D02*
X96710113Y-67340771D01*
X96710113Y-67340771D02*
X96614875Y-67293152D01*
X96614875Y-67293152D02*
X96472018Y-67293152D01*
X96472018Y-67293152D02*
X96376780Y-67340771D01*
X96376780Y-67340771D02*
X96329161Y-67388390D01*
X99376779Y-90959819D02*
X99376779Y-89959819D01*
X99376779Y-89959819D02*
X99614874Y-89959819D01*
X99614874Y-89959819D02*
X99757731Y-90007438D01*
X99757731Y-90007438D02*
X99852969Y-90102676D01*
X99852969Y-90102676D02*
X99900588Y-90197914D01*
X99900588Y-90197914D02*
X99948207Y-90388390D01*
X99948207Y-90388390D02*
X99948207Y-90531247D01*
X99948207Y-90531247D02*
X99900588Y-90721723D01*
X99900588Y-90721723D02*
X99852969Y-90816961D01*
X99852969Y-90816961D02*
X99757731Y-90912200D01*
X99757731Y-90912200D02*
X99614874Y-90959819D01*
X99614874Y-90959819D02*
X99376779Y-90959819D01*
X100900588Y-90959819D02*
X100329160Y-90959819D01*
X100614874Y-90959819D02*
X100614874Y-89959819D01*
X100614874Y-89959819D02*
X100519636Y-90102676D01*
X100519636Y-90102676D02*
X100424398Y-90197914D01*
X100424398Y-90197914D02*
X100329160Y-90245533D01*
D13*
X90862054Y-81552457D02*
X90909673Y-81504838D01*
X90909673Y-81504838D02*
X91004911Y-81457219D01*
X91004911Y-81457219D02*
X91243006Y-81457219D01*
X91243006Y-81457219D02*
X91338244Y-81504838D01*
X91338244Y-81504838D02*
X91385863Y-81552457D01*
X91385863Y-81552457D02*
X91433482Y-81647695D01*
X91433482Y-81647695D02*
X91433482Y-81742933D01*
X91433482Y-81742933D02*
X91385863Y-81885790D01*
X91385863Y-81885790D02*
X90814435Y-82457219D01*
X90814435Y-82457219D02*
X91433482Y-82457219D01*
X92052530Y-81457219D02*
X92147768Y-81457219D01*
X92147768Y-81457219D02*
X92243006Y-81504838D01*
X92243006Y-81504838D02*
X92290625Y-81552457D01*
X92290625Y-81552457D02*
X92338244Y-81647695D01*
X92338244Y-81647695D02*
X92385863Y-81838171D01*
X92385863Y-81838171D02*
X92385863Y-82076266D01*
X92385863Y-82076266D02*
X92338244Y-82266742D01*
X92338244Y-82266742D02*
X92290625Y-82361980D01*
X92290625Y-82361980D02*
X92243006Y-82409600D01*
X92243006Y-82409600D02*
X92147768Y-82457219D01*
X92147768Y-82457219D02*
X92052530Y-82457219D01*
X92052530Y-82457219D02*
X91957292Y-82409600D01*
X91957292Y-82409600D02*
X91909673Y-82361980D01*
X91909673Y-82361980D02*
X91862054Y-82266742D01*
X91862054Y-82266742D02*
X91814435Y-82076266D01*
X91814435Y-82076266D02*
X91814435Y-81838171D01*
X91814435Y-81838171D02*
X91862054Y-81647695D01*
X91862054Y-81647695D02*
X91909673Y-81552457D01*
X91909673Y-81552457D02*
X91957292Y-81504838D01*
X91957292Y-81504838D02*
X92052530Y-81457219D01*
X92814435Y-82457219D02*
X92814435Y-81457219D01*
X92909673Y-82076266D02*
X93195387Y-82457219D01*
X93195387Y-81790552D02*
X92814435Y-82171504D01*
D12*
X117771327Y-93762045D02*
X117809423Y-93723950D01*
X117809423Y-93723950D02*
X117885613Y-93685855D01*
X117885613Y-93685855D02*
X118076089Y-93685855D01*
X118076089Y-93685855D02*
X118152280Y-93723950D01*
X118152280Y-93723950D02*
X118190375Y-93762045D01*
X118190375Y-93762045D02*
X118228470Y-93838236D01*
X118228470Y-93838236D02*
X118228470Y-93914426D01*
X118228470Y-93914426D02*
X118190375Y-94028712D01*
X118190375Y-94028712D02*
X117733232Y-94485855D01*
X117733232Y-94485855D02*
X118228470Y-94485855D01*
X118723709Y-93685855D02*
X118799899Y-93685855D01*
X118799899Y-93685855D02*
X118876090Y-93723950D01*
X118876090Y-93723950D02*
X118914185Y-93762045D01*
X118914185Y-93762045D02*
X118952280Y-93838236D01*
X118952280Y-93838236D02*
X118990375Y-93990617D01*
X118990375Y-93990617D02*
X118990375Y-94181093D01*
X118990375Y-94181093D02*
X118952280Y-94333474D01*
X118952280Y-94333474D02*
X118914185Y-94409664D01*
X118914185Y-94409664D02*
X118876090Y-94447760D01*
X118876090Y-94447760D02*
X118799899Y-94485855D01*
X118799899Y-94485855D02*
X118723709Y-94485855D01*
X118723709Y-94485855D02*
X118647518Y-94447760D01*
X118647518Y-94447760D02*
X118609423Y-94409664D01*
X118609423Y-94409664D02*
X118571328Y-94333474D01*
X118571328Y-94333474D02*
X118533232Y-94181093D01*
X118533232Y-94181093D02*
X118533232Y-93990617D01*
X118533232Y-93990617D02*
X118571328Y-93838236D01*
X118571328Y-93838236D02*
X118609423Y-93762045D01*
X118609423Y-93762045D02*
X118647518Y-93723950D01*
X118647518Y-93723950D02*
X118723709Y-93685855D01*
X119485614Y-93685855D02*
X119561804Y-93685855D01*
X119561804Y-93685855D02*
X119637995Y-93723950D01*
X119637995Y-93723950D02*
X119676090Y-93762045D01*
X119676090Y-93762045D02*
X119714185Y-93838236D01*
X119714185Y-93838236D02*
X119752280Y-93990617D01*
X119752280Y-93990617D02*
X119752280Y-94181093D01*
X119752280Y-94181093D02*
X119714185Y-94333474D01*
X119714185Y-94333474D02*
X119676090Y-94409664D01*
X119676090Y-94409664D02*
X119637995Y-94447760D01*
X119637995Y-94447760D02*
X119561804Y-94485855D01*
X119561804Y-94485855D02*
X119485614Y-94485855D01*
X119485614Y-94485855D02*
X119409423Y-94447760D01*
X119409423Y-94447760D02*
X119371328Y-94409664D01*
X119371328Y-94409664D02*
X119333233Y-94333474D01*
X119333233Y-94333474D02*
X119295137Y-94181093D01*
X119295137Y-94181093D02*
X119295137Y-93990617D01*
X119295137Y-93990617D02*
X119333233Y-93838236D01*
X119333233Y-93838236D02*
X119371328Y-93762045D01*
X119371328Y-93762045D02*
X119409423Y-93723950D01*
X119409423Y-93723950D02*
X119485614Y-93685855D01*
X120552281Y-94485855D02*
X120285614Y-94104902D01*
X120095138Y-94485855D02*
X120095138Y-93685855D01*
X120095138Y-93685855D02*
X120399900Y-93685855D01*
X120399900Y-93685855D02*
X120476090Y-93723950D01*
X120476090Y-93723950D02*
X120514185Y-93762045D01*
X120514185Y-93762045D02*
X120552281Y-93838236D01*
X120552281Y-93838236D02*
X120552281Y-93952521D01*
X120552281Y-93952521D02*
X120514185Y-94028712D01*
X120514185Y-94028712D02*
X120476090Y-94066807D01*
X120476090Y-94066807D02*
X120399900Y-94104902D01*
X120399900Y-94104902D02*
X120095138Y-94104902D01*
D11*
X141524510Y-62030828D02*
X141524510Y-60530828D01*
X141524510Y-60530828D02*
X142095939Y-60530828D01*
X142095939Y-60530828D02*
X142238796Y-60602257D01*
X142238796Y-60602257D02*
X142310225Y-60673685D01*
X142310225Y-60673685D02*
X142381653Y-60816542D01*
X142381653Y-60816542D02*
X142381653Y-61030828D01*
X142381653Y-61030828D02*
X142310225Y-61173685D01*
X142310225Y-61173685D02*
X142238796Y-61245114D01*
X142238796Y-61245114D02*
X142095939Y-61316542D01*
X142095939Y-61316542D02*
X141524510Y-61316542D01*
X143238796Y-61173685D02*
X143095939Y-61102257D01*
X143095939Y-61102257D02*
X143024510Y-61030828D01*
X143024510Y-61030828D02*
X142953082Y-60887971D01*
X142953082Y-60887971D02*
X142953082Y-60816542D01*
X142953082Y-60816542D02*
X143024510Y-60673685D01*
X143024510Y-60673685D02*
X143095939Y-60602257D01*
X143095939Y-60602257D02*
X143238796Y-60530828D01*
X143238796Y-60530828D02*
X143524510Y-60530828D01*
X143524510Y-60530828D02*
X143667368Y-60602257D01*
X143667368Y-60602257D02*
X143738796Y-60673685D01*
X143738796Y-60673685D02*
X143810225Y-60816542D01*
X143810225Y-60816542D02*
X143810225Y-60887971D01*
X143810225Y-60887971D02*
X143738796Y-61030828D01*
X143738796Y-61030828D02*
X143667368Y-61102257D01*
X143667368Y-61102257D02*
X143524510Y-61173685D01*
X143524510Y-61173685D02*
X143238796Y-61173685D01*
X143238796Y-61173685D02*
X143095939Y-61245114D01*
X143095939Y-61245114D02*
X143024510Y-61316542D01*
X143024510Y-61316542D02*
X142953082Y-61459400D01*
X142953082Y-61459400D02*
X142953082Y-61745114D01*
X142953082Y-61745114D02*
X143024510Y-61887971D01*
X143024510Y-61887971D02*
X143095939Y-61959400D01*
X143095939Y-61959400D02*
X143238796Y-62030828D01*
X143238796Y-62030828D02*
X143524510Y-62030828D01*
X143524510Y-62030828D02*
X143667368Y-61959400D01*
X143667368Y-61959400D02*
X143738796Y-61887971D01*
X143738796Y-61887971D02*
X143810225Y-61745114D01*
X143810225Y-61745114D02*
X143810225Y-61459400D01*
X143810225Y-61459400D02*
X143738796Y-61316542D01*
X143738796Y-61316542D02*
X143667368Y-61245114D01*
X143667368Y-61245114D02*
X143524510Y-61173685D01*
D12*
X105271327Y-93762045D02*
X105309423Y-93723950D01*
X105309423Y-93723950D02*
X105385613Y-93685855D01*
X105385613Y-93685855D02*
X105576089Y-93685855D01*
X105576089Y-93685855D02*
X105652280Y-93723950D01*
X105652280Y-93723950D02*
X105690375Y-93762045D01*
X105690375Y-93762045D02*
X105728470Y-93838236D01*
X105728470Y-93838236D02*
X105728470Y-93914426D01*
X105728470Y-93914426D02*
X105690375Y-94028712D01*
X105690375Y-94028712D02*
X105233232Y-94485855D01*
X105233232Y-94485855D02*
X105728470Y-94485855D01*
X106223709Y-93685855D02*
X106299899Y-93685855D01*
X106299899Y-93685855D02*
X106376090Y-93723950D01*
X106376090Y-93723950D02*
X106414185Y-93762045D01*
X106414185Y-93762045D02*
X106452280Y-93838236D01*
X106452280Y-93838236D02*
X106490375Y-93990617D01*
X106490375Y-93990617D02*
X106490375Y-94181093D01*
X106490375Y-94181093D02*
X106452280Y-94333474D01*
X106452280Y-94333474D02*
X106414185Y-94409664D01*
X106414185Y-94409664D02*
X106376090Y-94447760D01*
X106376090Y-94447760D02*
X106299899Y-94485855D01*
X106299899Y-94485855D02*
X106223709Y-94485855D01*
X106223709Y-94485855D02*
X106147518Y-94447760D01*
X106147518Y-94447760D02*
X106109423Y-94409664D01*
X106109423Y-94409664D02*
X106071328Y-94333474D01*
X106071328Y-94333474D02*
X106033232Y-94181093D01*
X106033232Y-94181093D02*
X106033232Y-93990617D01*
X106033232Y-93990617D02*
X106071328Y-93838236D01*
X106071328Y-93838236D02*
X106109423Y-93762045D01*
X106109423Y-93762045D02*
X106147518Y-93723950D01*
X106147518Y-93723950D02*
X106223709Y-93685855D01*
X106985614Y-93685855D02*
X107061804Y-93685855D01*
X107061804Y-93685855D02*
X107137995Y-93723950D01*
X107137995Y-93723950D02*
X107176090Y-93762045D01*
X107176090Y-93762045D02*
X107214185Y-93838236D01*
X107214185Y-93838236D02*
X107252280Y-93990617D01*
X107252280Y-93990617D02*
X107252280Y-94181093D01*
X107252280Y-94181093D02*
X107214185Y-94333474D01*
X107214185Y-94333474D02*
X107176090Y-94409664D01*
X107176090Y-94409664D02*
X107137995Y-94447760D01*
X107137995Y-94447760D02*
X107061804Y-94485855D01*
X107061804Y-94485855D02*
X106985614Y-94485855D01*
X106985614Y-94485855D02*
X106909423Y-94447760D01*
X106909423Y-94447760D02*
X106871328Y-94409664D01*
X106871328Y-94409664D02*
X106833233Y-94333474D01*
X106833233Y-94333474D02*
X106795137Y-94181093D01*
X106795137Y-94181093D02*
X106795137Y-93990617D01*
X106795137Y-93990617D02*
X106833233Y-93838236D01*
X106833233Y-93838236D02*
X106871328Y-93762045D01*
X106871328Y-93762045D02*
X106909423Y-93723950D01*
X106909423Y-93723950D02*
X106985614Y-93685855D01*
X108052281Y-94485855D02*
X107785614Y-94104902D01*
X107595138Y-94485855D02*
X107595138Y-93685855D01*
X107595138Y-93685855D02*
X107899900Y-93685855D01*
X107899900Y-93685855D02*
X107976090Y-93723950D01*
X107976090Y-93723950D02*
X108014185Y-93762045D01*
X108014185Y-93762045D02*
X108052281Y-93838236D01*
X108052281Y-93838236D02*
X108052281Y-93952521D01*
X108052281Y-93952521D02*
X108014185Y-94028712D01*
X108014185Y-94028712D02*
X107976090Y-94066807D01*
X107976090Y-94066807D02*
X107899900Y-94104902D01*
X107899900Y-94104902D02*
X107595138Y-94104902D01*
D13*
X157862054Y-77052457D02*
X157909673Y-77004838D01*
X157909673Y-77004838D02*
X158004911Y-76957219D01*
X158004911Y-76957219D02*
X158243006Y-76957219D01*
X158243006Y-76957219D02*
X158338244Y-77004838D01*
X158338244Y-77004838D02*
X158385863Y-77052457D01*
X158385863Y-77052457D02*
X158433482Y-77147695D01*
X158433482Y-77147695D02*
X158433482Y-77242933D01*
X158433482Y-77242933D02*
X158385863Y-77385790D01*
X158385863Y-77385790D02*
X157814435Y-77957219D01*
X157814435Y-77957219D02*
X158433482Y-77957219D01*
X159052530Y-76957219D02*
X159147768Y-76957219D01*
X159147768Y-76957219D02*
X159243006Y-77004838D01*
X159243006Y-77004838D02*
X159290625Y-77052457D01*
X159290625Y-77052457D02*
X159338244Y-77147695D01*
X159338244Y-77147695D02*
X159385863Y-77338171D01*
X159385863Y-77338171D02*
X159385863Y-77576266D01*
X159385863Y-77576266D02*
X159338244Y-77766742D01*
X159338244Y-77766742D02*
X159290625Y-77861980D01*
X159290625Y-77861980D02*
X159243006Y-77909600D01*
X159243006Y-77909600D02*
X159147768Y-77957219D01*
X159147768Y-77957219D02*
X159052530Y-77957219D01*
X159052530Y-77957219D02*
X158957292Y-77909600D01*
X158957292Y-77909600D02*
X158909673Y-77861980D01*
X158909673Y-77861980D02*
X158862054Y-77766742D01*
X158862054Y-77766742D02*
X158814435Y-77576266D01*
X158814435Y-77576266D02*
X158814435Y-77338171D01*
X158814435Y-77338171D02*
X158862054Y-77147695D01*
X158862054Y-77147695D02*
X158909673Y-77052457D01*
X158909673Y-77052457D02*
X158957292Y-77004838D01*
X158957292Y-77004838D02*
X159052530Y-76957219D01*
X159814435Y-77957219D02*
X159814435Y-76957219D01*
X159909673Y-77576266D02*
X160195387Y-77957219D01*
X160195387Y-77290552D02*
X159814435Y-77671504D01*
D11*
X109094510Y-93819400D02*
X110237368Y-93819400D01*
X109665939Y-94390828D02*
X109665939Y-93247971D01*
X141380225Y-62462257D02*
X141237368Y-62390828D01*
X141237368Y-62390828D02*
X141023082Y-62390828D01*
X141023082Y-62390828D02*
X140808796Y-62462257D01*
X140808796Y-62462257D02*
X140665939Y-62605114D01*
X140665939Y-62605114D02*
X140594510Y-62747971D01*
X140594510Y-62747971D02*
X140523082Y-63033685D01*
X140523082Y-63033685D02*
X140523082Y-63247971D01*
X140523082Y-63247971D02*
X140594510Y-63533685D01*
X140594510Y-63533685D02*
X140665939Y-63676542D01*
X140665939Y-63676542D02*
X140808796Y-63819400D01*
X140808796Y-63819400D02*
X141023082Y-63890828D01*
X141023082Y-63890828D02*
X141165939Y-63890828D01*
X141165939Y-63890828D02*
X141380225Y-63819400D01*
X141380225Y-63819400D02*
X141451653Y-63747971D01*
X141451653Y-63747971D02*
X141451653Y-63247971D01*
X141451653Y-63247971D02*
X141165939Y-63247971D01*
X142094510Y-63890828D02*
X142094510Y-62390828D01*
X142094510Y-62390828D02*
X142951653Y-63890828D01*
X142951653Y-63890828D02*
X142951653Y-62390828D01*
X143665939Y-63890828D02*
X143665939Y-62390828D01*
X143665939Y-62390828D02*
X144023082Y-62390828D01*
X144023082Y-62390828D02*
X144237368Y-62462257D01*
X144237368Y-62462257D02*
X144380225Y-62605114D01*
X144380225Y-62605114D02*
X144451654Y-62747971D01*
X144451654Y-62747971D02*
X144523082Y-63033685D01*
X144523082Y-63033685D02*
X144523082Y-63247971D01*
X144523082Y-63247971D02*
X144451654Y-63533685D01*
X144451654Y-63533685D02*
X144380225Y-63676542D01*
X144380225Y-63676542D02*
X144237368Y-63819400D01*
X144237368Y-63819400D02*
X144023082Y-63890828D01*
X144023082Y-63890828D02*
X143665939Y-63890828D01*
D10*
X124376779Y-90959819D02*
X124376779Y-89959819D01*
X124376779Y-89959819D02*
X124614874Y-89959819D01*
X124614874Y-89959819D02*
X124757731Y-90007438D01*
X124757731Y-90007438D02*
X124852969Y-90102676D01*
X124852969Y-90102676D02*
X124900588Y-90197914D01*
X124900588Y-90197914D02*
X124948207Y-90388390D01*
X124948207Y-90388390D02*
X124948207Y-90531247D01*
X124948207Y-90531247D02*
X124900588Y-90721723D01*
X124900588Y-90721723D02*
X124852969Y-90816961D01*
X124852969Y-90816961D02*
X124757731Y-90912200D01*
X124757731Y-90912200D02*
X124614874Y-90959819D01*
X124614874Y-90959819D02*
X124376779Y-90959819D01*
X125281541Y-89959819D02*
X125900588Y-89959819D01*
X125900588Y-89959819D02*
X125567255Y-90340771D01*
X125567255Y-90340771D02*
X125710112Y-90340771D01*
X125710112Y-90340771D02*
X125805350Y-90388390D01*
X125805350Y-90388390D02*
X125852969Y-90436009D01*
X125852969Y-90436009D02*
X125900588Y-90531247D01*
X125900588Y-90531247D02*
X125900588Y-90769342D01*
X125900588Y-90769342D02*
X125852969Y-90864580D01*
X125852969Y-90864580D02*
X125805350Y-90912200D01*
X125805350Y-90912200D02*
X125710112Y-90959819D01*
X125710112Y-90959819D02*
X125424398Y-90959819D01*
X125424398Y-90959819D02*
X125329160Y-90912200D01*
X125329160Y-90912200D02*
X125281541Y-90864580D01*
D11*
X112880225Y-62390828D02*
X113380225Y-63890828D01*
X113380225Y-63890828D02*
X113880225Y-62390828D01*
X115023082Y-63819400D02*
X114880224Y-63890828D01*
X114880224Y-63890828D02*
X114594510Y-63890828D01*
X114594510Y-63890828D02*
X114451653Y-63819400D01*
X114451653Y-63819400D02*
X114380224Y-63747971D01*
X114380224Y-63747971D02*
X114308796Y-63605114D01*
X114308796Y-63605114D02*
X114308796Y-63176542D01*
X114308796Y-63176542D02*
X114380224Y-63033685D01*
X114380224Y-63033685D02*
X114451653Y-62962257D01*
X114451653Y-62962257D02*
X114594510Y-62890828D01*
X114594510Y-62890828D02*
X114880224Y-62890828D01*
X114880224Y-62890828D02*
X115023082Y-62962257D01*
X116308796Y-63819400D02*
X116165938Y-63890828D01*
X116165938Y-63890828D02*
X115880224Y-63890828D01*
X115880224Y-63890828D02*
X115737367Y-63819400D01*
X115737367Y-63819400D02*
X115665938Y-63747971D01*
X115665938Y-63747971D02*
X115594510Y-63605114D01*
X115594510Y-63605114D02*
X115594510Y-63176542D01*
X115594510Y-63176542D02*
X115665938Y-63033685D01*
X115665938Y-63033685D02*
X115737367Y-62962257D01*
X115737367Y-62962257D02*
X115880224Y-62890828D01*
X115880224Y-62890828D02*
X116165938Y-62890828D01*
X116165938Y-62890828D02*
X116308796Y-62962257D01*
D14*
X175343884Y-71362979D02*
X175343884Y-72172502D01*
X175343884Y-72172502D02*
X175391503Y-72267740D01*
X175391503Y-72267740D02*
X175439122Y-72315360D01*
X175439122Y-72315360D02*
X175534360Y-72362979D01*
X175534360Y-72362979D02*
X175724836Y-72362979D01*
X175724836Y-72362979D02*
X175820074Y-72315360D01*
X175820074Y-72315360D02*
X175867693Y-72267740D01*
X175867693Y-72267740D02*
X175915312Y-72172502D01*
X175915312Y-72172502D02*
X175915312Y-71362979D01*
X175296265Y-73925304D02*
X175439122Y-73972923D01*
X175439122Y-73972923D02*
X175677217Y-73972923D01*
X175677217Y-73972923D02*
X175772455Y-73925304D01*
X175772455Y-73925304D02*
X175820074Y-73877684D01*
X175820074Y-73877684D02*
X175867693Y-73782446D01*
X175867693Y-73782446D02*
X175867693Y-73687208D01*
X175867693Y-73687208D02*
X175820074Y-73591970D01*
X175820074Y-73591970D02*
X175772455Y-73544351D01*
X175772455Y-73544351D02*
X175677217Y-73496732D01*
X175677217Y-73496732D02*
X175486741Y-73449113D01*
X175486741Y-73449113D02*
X175391503Y-73401494D01*
X175391503Y-73401494D02*
X175343884Y-73353875D01*
X175343884Y-73353875D02*
X175296265Y-73258637D01*
X175296265Y-73258637D02*
X175296265Y-73163399D01*
X175296265Y-73163399D02*
X175343884Y-73068161D01*
X175343884Y-73068161D02*
X175391503Y-73020542D01*
X175391503Y-73020542D02*
X175486741Y-72972923D01*
X175486741Y-72972923D02*
X175724836Y-72972923D01*
X175724836Y-72972923D02*
X175867693Y-73020542D01*
X175677217Y-75059057D02*
X175820074Y-75106676D01*
X175820074Y-75106676D02*
X175867693Y-75154295D01*
X175867693Y-75154295D02*
X175915312Y-75249533D01*
X175915312Y-75249533D02*
X175915312Y-75392390D01*
X175915312Y-75392390D02*
X175867693Y-75487628D01*
X175867693Y-75487628D02*
X175820074Y-75535248D01*
X175820074Y-75535248D02*
X175724836Y-75582867D01*
X175724836Y-75582867D02*
X175343884Y-75582867D01*
X175343884Y-75582867D02*
X175343884Y-74582867D01*
X175343884Y-74582867D02*
X175677217Y-74582867D01*
X175677217Y-74582867D02*
X175772455Y-74630486D01*
X175772455Y-74630486D02*
X175820074Y-74678105D01*
X175820074Y-74678105D02*
X175867693Y-74773343D01*
X175867693Y-74773343D02*
X175867693Y-74868581D01*
X175867693Y-74868581D02*
X175820074Y-74963819D01*
X175820074Y-74963819D02*
X175772455Y-75011438D01*
X175772455Y-75011438D02*
X175677217Y-75059057D01*
X175677217Y-75059057D02*
X175343884Y-75059057D01*
X175915312Y-78802755D02*
X175581979Y-78326564D01*
X175343884Y-78802755D02*
X175343884Y-77802755D01*
X175343884Y-77802755D02*
X175724836Y-77802755D01*
X175724836Y-77802755D02*
X175820074Y-77850374D01*
X175820074Y-77850374D02*
X175867693Y-77897993D01*
X175867693Y-77897993D02*
X175915312Y-77993231D01*
X175915312Y-77993231D02*
X175915312Y-78136088D01*
X175915312Y-78136088D02*
X175867693Y-78231326D01*
X175867693Y-78231326D02*
X175820074Y-78278945D01*
X175820074Y-78278945D02*
X175724836Y-78326564D01*
X175724836Y-78326564D02*
X175343884Y-78326564D01*
X175724836Y-80365080D02*
X175629598Y-80412699D01*
X175629598Y-80412699D02*
X175439122Y-80412699D01*
X175439122Y-80412699D02*
X175343884Y-80365080D01*
X175343884Y-80365080D02*
X175296265Y-80269841D01*
X175296265Y-80269841D02*
X175296265Y-79888889D01*
X175296265Y-79888889D02*
X175343884Y-79793651D01*
X175343884Y-79793651D02*
X175439122Y-79746032D01*
X175439122Y-79746032D02*
X175629598Y-79746032D01*
X175629598Y-79746032D02*
X175724836Y-79793651D01*
X175724836Y-79793651D02*
X175772455Y-79888889D01*
X175772455Y-79888889D02*
X175772455Y-79984127D01*
X175772455Y-79984127D02*
X175296265Y-80079365D01*
X175248646Y-81355976D02*
X175486741Y-82022643D01*
X175486741Y-82022643D02*
X175724836Y-81355976D01*
X175867693Y-85242531D02*
X175296265Y-85242531D01*
X175581979Y-85242531D02*
X175581979Y-84242531D01*
X175581979Y-84242531D02*
X175486741Y-84385388D01*
X175486741Y-84385388D02*
X175391503Y-84480626D01*
X175391503Y-84480626D02*
X175296265Y-84528245D01*
X175343884Y-86757236D02*
X175391503Y-86804856D01*
X175391503Y-86804856D02*
X175343884Y-86852475D01*
X175343884Y-86852475D02*
X175296265Y-86804856D01*
X175296265Y-86804856D02*
X175343884Y-86757236D01*
X175343884Y-86757236D02*
X175343884Y-86852475D01*
X175867693Y-88462419D02*
X175296265Y-88462419D01*
X175581979Y-88462419D02*
X175581979Y-87462419D01*
X175581979Y-87462419D02*
X175486741Y-87605276D01*
X175486741Y-87605276D02*
X175391503Y-87700514D01*
X175391503Y-87700514D02*
X175296265Y-87748133D01*
D11*
X113584510Y-62030828D02*
X113584510Y-60530828D01*
X113584510Y-60530828D02*
X114155939Y-60530828D01*
X114155939Y-60530828D02*
X114298796Y-60602257D01*
X114298796Y-60602257D02*
X114370225Y-60673685D01*
X114370225Y-60673685D02*
X114441653Y-60816542D01*
X114441653Y-60816542D02*
X114441653Y-61030828D01*
X114441653Y-61030828D02*
X114370225Y-61173685D01*
X114370225Y-61173685D02*
X114298796Y-61245114D01*
X114298796Y-61245114D02*
X114155939Y-61316542D01*
X114155939Y-61316542D02*
X113584510Y-61316542D01*
X115870225Y-62030828D02*
X115013082Y-62030828D01*
X115441653Y-62030828D02*
X115441653Y-60530828D01*
X115441653Y-60530828D02*
X115298796Y-60745114D01*
X115298796Y-60745114D02*
X115155939Y-60887971D01*
X115155939Y-60887971D02*
X115013082Y-60959400D01*
D12*
X92771327Y-93762045D02*
X92809423Y-93723950D01*
X92809423Y-93723950D02*
X92885613Y-93685855D01*
X92885613Y-93685855D02*
X93076089Y-93685855D01*
X93076089Y-93685855D02*
X93152280Y-93723950D01*
X93152280Y-93723950D02*
X93190375Y-93762045D01*
X93190375Y-93762045D02*
X93228470Y-93838236D01*
X93228470Y-93838236D02*
X93228470Y-93914426D01*
X93228470Y-93914426D02*
X93190375Y-94028712D01*
X93190375Y-94028712D02*
X92733232Y-94485855D01*
X92733232Y-94485855D02*
X93228470Y-94485855D01*
X93723709Y-93685855D02*
X93799899Y-93685855D01*
X93799899Y-93685855D02*
X93876090Y-93723950D01*
X93876090Y-93723950D02*
X93914185Y-93762045D01*
X93914185Y-93762045D02*
X93952280Y-93838236D01*
X93952280Y-93838236D02*
X93990375Y-93990617D01*
X93990375Y-93990617D02*
X93990375Y-94181093D01*
X93990375Y-94181093D02*
X93952280Y-94333474D01*
X93952280Y-94333474D02*
X93914185Y-94409664D01*
X93914185Y-94409664D02*
X93876090Y-94447760D01*
X93876090Y-94447760D02*
X93799899Y-94485855D01*
X93799899Y-94485855D02*
X93723709Y-94485855D01*
X93723709Y-94485855D02*
X93647518Y-94447760D01*
X93647518Y-94447760D02*
X93609423Y-94409664D01*
X93609423Y-94409664D02*
X93571328Y-94333474D01*
X93571328Y-94333474D02*
X93533232Y-94181093D01*
X93533232Y-94181093D02*
X93533232Y-93990617D01*
X93533232Y-93990617D02*
X93571328Y-93838236D01*
X93571328Y-93838236D02*
X93609423Y-93762045D01*
X93609423Y-93762045D02*
X93647518Y-93723950D01*
X93647518Y-93723950D02*
X93723709Y-93685855D01*
X94485614Y-93685855D02*
X94561804Y-93685855D01*
X94561804Y-93685855D02*
X94637995Y-93723950D01*
X94637995Y-93723950D02*
X94676090Y-93762045D01*
X94676090Y-93762045D02*
X94714185Y-93838236D01*
X94714185Y-93838236D02*
X94752280Y-93990617D01*
X94752280Y-93990617D02*
X94752280Y-94181093D01*
X94752280Y-94181093D02*
X94714185Y-94333474D01*
X94714185Y-94333474D02*
X94676090Y-94409664D01*
X94676090Y-94409664D02*
X94637995Y-94447760D01*
X94637995Y-94447760D02*
X94561804Y-94485855D01*
X94561804Y-94485855D02*
X94485614Y-94485855D01*
X94485614Y-94485855D02*
X94409423Y-94447760D01*
X94409423Y-94447760D02*
X94371328Y-94409664D01*
X94371328Y-94409664D02*
X94333233Y-94333474D01*
X94333233Y-94333474D02*
X94295137Y-94181093D01*
X94295137Y-94181093D02*
X94295137Y-93990617D01*
X94295137Y-93990617D02*
X94333233Y-93838236D01*
X94333233Y-93838236D02*
X94371328Y-93762045D01*
X94371328Y-93762045D02*
X94409423Y-93723950D01*
X94409423Y-93723950D02*
X94485614Y-93685855D01*
X95552281Y-94485855D02*
X95285614Y-94104902D01*
X95095138Y-94485855D02*
X95095138Y-93685855D01*
X95095138Y-93685855D02*
X95399900Y-93685855D01*
X95399900Y-93685855D02*
X95476090Y-93723950D01*
X95476090Y-93723950D02*
X95514185Y-93762045D01*
X95514185Y-93762045D02*
X95552281Y-93838236D01*
X95552281Y-93838236D02*
X95552281Y-93952521D01*
X95552281Y-93952521D02*
X95514185Y-94028712D01*
X95514185Y-94028712D02*
X95476090Y-94066807D01*
X95476090Y-94066807D02*
X95399900Y-94104902D01*
X95399900Y-94104902D02*
X95095138Y-94104902D01*
D10*
X163710112Y-69936009D02*
X163852969Y-69983628D01*
X163852969Y-69983628D02*
X163900588Y-70031247D01*
X163900588Y-70031247D02*
X163948207Y-70126485D01*
X163948207Y-70126485D02*
X163948207Y-70269342D01*
X163948207Y-70269342D02*
X163900588Y-70364580D01*
X163900588Y-70364580D02*
X163852969Y-70412200D01*
X163852969Y-70412200D02*
X163757731Y-70459819D01*
X163757731Y-70459819D02*
X163376779Y-70459819D01*
X163376779Y-70459819D02*
X163376779Y-69459819D01*
X163376779Y-69459819D02*
X163710112Y-69459819D01*
X163710112Y-69459819D02*
X163805350Y-69507438D01*
X163805350Y-69507438D02*
X163852969Y-69555057D01*
X163852969Y-69555057D02*
X163900588Y-69650295D01*
X163900588Y-69650295D02*
X163900588Y-69745533D01*
X163900588Y-69745533D02*
X163852969Y-69840771D01*
X163852969Y-69840771D02*
X163805350Y-69888390D01*
X163805350Y-69888390D02*
X163710112Y-69936009D01*
X163710112Y-69936009D02*
X163376779Y-69936009D01*
X164805350Y-69793152D02*
X164805350Y-70459819D01*
X164376779Y-69793152D02*
X164376779Y-70316961D01*
X164376779Y-70316961D02*
X164424398Y-70412200D01*
X164424398Y-70412200D02*
X164519636Y-70459819D01*
X164519636Y-70459819D02*
X164662493Y-70459819D01*
X164662493Y-70459819D02*
X164757731Y-70412200D01*
X164757731Y-70412200D02*
X164805350Y-70364580D01*
X165138684Y-69793152D02*
X165519636Y-69793152D01*
X165281541Y-69459819D02*
X165281541Y-70316961D01*
X165281541Y-70316961D02*
X165329160Y-70412200D01*
X165329160Y-70412200D02*
X165424398Y-70459819D01*
X165424398Y-70459819D02*
X165519636Y-70459819D01*
X165710113Y-69793152D02*
X166091065Y-69793152D01*
X165852970Y-69459819D02*
X165852970Y-70316961D01*
X165852970Y-70316961D02*
X165900589Y-70412200D01*
X165900589Y-70412200D02*
X165995827Y-70459819D01*
X165995827Y-70459819D02*
X166091065Y-70459819D01*
X166567256Y-70459819D02*
X166472018Y-70412200D01*
X166472018Y-70412200D02*
X166424399Y-70364580D01*
X166424399Y-70364580D02*
X166376780Y-70269342D01*
X166376780Y-70269342D02*
X166376780Y-69983628D01*
X166376780Y-69983628D02*
X166424399Y-69888390D01*
X166424399Y-69888390D02*
X166472018Y-69840771D01*
X166472018Y-69840771D02*
X166567256Y-69793152D01*
X166567256Y-69793152D02*
X166710113Y-69793152D01*
X166710113Y-69793152D02*
X166805351Y-69840771D01*
X166805351Y-69840771D02*
X166852970Y-69888390D01*
X166852970Y-69888390D02*
X166900589Y-69983628D01*
X166900589Y-69983628D02*
X166900589Y-70269342D01*
X166900589Y-70269342D02*
X166852970Y-70364580D01*
X166852970Y-70364580D02*
X166805351Y-70412200D01*
X166805351Y-70412200D02*
X166710113Y-70459819D01*
X166710113Y-70459819D02*
X166567256Y-70459819D01*
X167329161Y-69793152D02*
X167329161Y-70459819D01*
X167329161Y-69888390D02*
X167376780Y-69840771D01*
X167376780Y-69840771D02*
X167472018Y-69793152D01*
X167472018Y-69793152D02*
X167614875Y-69793152D01*
X167614875Y-69793152D02*
X167710113Y-69840771D01*
X167710113Y-69840771D02*
X167757732Y-69936009D01*
X167757732Y-69936009D02*
X167757732Y-70459819D01*
X168995828Y-70459819D02*
X168995828Y-69459819D01*
X168995828Y-69936009D02*
X169567256Y-69936009D01*
X169567256Y-70459819D02*
X169567256Y-69459819D01*
X170424399Y-70412200D02*
X170329161Y-70459819D01*
X170329161Y-70459819D02*
X170138685Y-70459819D01*
X170138685Y-70459819D02*
X170043447Y-70412200D01*
X170043447Y-70412200D02*
X169995828Y-70316961D01*
X169995828Y-70316961D02*
X169995828Y-69936009D01*
X169995828Y-69936009D02*
X170043447Y-69840771D01*
X170043447Y-69840771D02*
X170138685Y-69793152D01*
X170138685Y-69793152D02*
X170329161Y-69793152D01*
X170329161Y-69793152D02*
X170424399Y-69840771D01*
X170424399Y-69840771D02*
X170472018Y-69936009D01*
X170472018Y-69936009D02*
X170472018Y-70031247D01*
X170472018Y-70031247D02*
X169995828Y-70126485D01*
X171329161Y-70459819D02*
X171329161Y-69936009D01*
X171329161Y-69936009D02*
X171281542Y-69840771D01*
X171281542Y-69840771D02*
X171186304Y-69793152D01*
X171186304Y-69793152D02*
X170995828Y-69793152D01*
X170995828Y-69793152D02*
X170900590Y-69840771D01*
X171329161Y-70412200D02*
X171233923Y-70459819D01*
X171233923Y-70459819D02*
X170995828Y-70459819D01*
X170995828Y-70459819D02*
X170900590Y-70412200D01*
X170900590Y-70412200D02*
X170852971Y-70316961D01*
X170852971Y-70316961D02*
X170852971Y-70221723D01*
X170852971Y-70221723D02*
X170900590Y-70126485D01*
X170900590Y-70126485D02*
X170995828Y-70078866D01*
X170995828Y-70078866D02*
X171233923Y-70078866D01*
X171233923Y-70078866D02*
X171329161Y-70031247D01*
X172233923Y-70459819D02*
X172233923Y-69459819D01*
X172233923Y-70412200D02*
X172138685Y-70459819D01*
X172138685Y-70459819D02*
X171948209Y-70459819D01*
X171948209Y-70459819D02*
X171852971Y-70412200D01*
X171852971Y-70412200D02*
X171805352Y-70364580D01*
X171805352Y-70364580D02*
X171757733Y-70269342D01*
X171757733Y-70269342D02*
X171757733Y-69983628D01*
X171757733Y-69983628D02*
X171805352Y-69888390D01*
X171805352Y-69888390D02*
X171852971Y-69840771D01*
X171852971Y-69840771D02*
X171948209Y-69793152D01*
X171948209Y-69793152D02*
X172138685Y-69793152D01*
X172138685Y-69793152D02*
X172233923Y-69840771D01*
X173091066Y-70412200D02*
X172995828Y-70459819D01*
X172995828Y-70459819D02*
X172805352Y-70459819D01*
X172805352Y-70459819D02*
X172710114Y-70412200D01*
X172710114Y-70412200D02*
X172662495Y-70316961D01*
X172662495Y-70316961D02*
X172662495Y-69936009D01*
X172662495Y-69936009D02*
X172710114Y-69840771D01*
X172710114Y-69840771D02*
X172805352Y-69793152D01*
X172805352Y-69793152D02*
X172995828Y-69793152D01*
X172995828Y-69793152D02*
X173091066Y-69840771D01*
X173091066Y-69840771D02*
X173138685Y-69936009D01*
X173138685Y-69936009D02*
X173138685Y-70031247D01*
X173138685Y-70031247D02*
X172662495Y-70126485D01*
X173567257Y-70459819D02*
X173567257Y-69793152D01*
X173567257Y-69983628D02*
X173614876Y-69888390D01*
X173614876Y-69888390D02*
X173662495Y-69840771D01*
X173662495Y-69840771D02*
X173757733Y-69793152D01*
X173757733Y-69793152D02*
X173852971Y-69793152D01*
D11*
X159094510Y-93819400D02*
X160237368Y-93819400D01*
X159665939Y-94390828D02*
X159665939Y-93247971D01*
X125014510Y-64570828D02*
X125014510Y-63070828D01*
X125728796Y-63570828D02*
X125728796Y-64570828D01*
X125728796Y-63713685D02*
X125800225Y-63642257D01*
X125800225Y-63642257D02*
X125943082Y-63570828D01*
X125943082Y-63570828D02*
X126157368Y-63570828D01*
X126157368Y-63570828D02*
X126300225Y-63642257D01*
X126300225Y-63642257D02*
X126371654Y-63785114D01*
X126371654Y-63785114D02*
X126371654Y-64570828D01*
X127085939Y-63570828D02*
X127085939Y-65070828D01*
X127085939Y-63642257D02*
X127228797Y-63570828D01*
X127228797Y-63570828D02*
X127514511Y-63570828D01*
X127514511Y-63570828D02*
X127657368Y-63642257D01*
X127657368Y-63642257D02*
X127728797Y-63713685D01*
X127728797Y-63713685D02*
X127800225Y-63856542D01*
X127800225Y-63856542D02*
X127800225Y-64285114D01*
X127800225Y-64285114D02*
X127728797Y-64427971D01*
X127728797Y-64427971D02*
X127657368Y-64499400D01*
X127657368Y-64499400D02*
X127514511Y-64570828D01*
X127514511Y-64570828D02*
X127228797Y-64570828D01*
X127228797Y-64570828D02*
X127085939Y-64499400D01*
X129085940Y-63570828D02*
X129085940Y-64570828D01*
X128443082Y-63570828D02*
X128443082Y-64356542D01*
X128443082Y-64356542D02*
X128514511Y-64499400D01*
X128514511Y-64499400D02*
X128657368Y-64570828D01*
X128657368Y-64570828D02*
X128871654Y-64570828D01*
X128871654Y-64570828D02*
X129014511Y-64499400D01*
X129014511Y-64499400D02*
X129085940Y-64427971D01*
X129585940Y-63570828D02*
X130157368Y-63570828D01*
X129800225Y-63070828D02*
X129800225Y-64356542D01*
X129800225Y-64356542D02*
X129871654Y-64499400D01*
X129871654Y-64499400D02*
X130014511Y-64570828D01*
X130014511Y-64570828D02*
X130157368Y-64570828D01*
X146594510Y-93819400D02*
X147737368Y-93819400D01*
X147165939Y-94390828D02*
X147165939Y-93247971D01*
D10*
X161876779Y-90959819D02*
X161876779Y-89959819D01*
X161876779Y-89959819D02*
X162114874Y-89959819D01*
X162114874Y-89959819D02*
X162257731Y-90007438D01*
X162257731Y-90007438D02*
X162352969Y-90102676D01*
X162352969Y-90102676D02*
X162400588Y-90197914D01*
X162400588Y-90197914D02*
X162448207Y-90388390D01*
X162448207Y-90388390D02*
X162448207Y-90531247D01*
X162448207Y-90531247D02*
X162400588Y-90721723D01*
X162400588Y-90721723D02*
X162352969Y-90816961D01*
X162352969Y-90816961D02*
X162257731Y-90912200D01*
X162257731Y-90912200D02*
X162114874Y-90959819D01*
X162114874Y-90959819D02*
X161876779Y-90959819D01*
X163305350Y-89959819D02*
X163114874Y-89959819D01*
X163114874Y-89959819D02*
X163019636Y-90007438D01*
X163019636Y-90007438D02*
X162972017Y-90055057D01*
X162972017Y-90055057D02*
X162876779Y-90197914D01*
X162876779Y-90197914D02*
X162829160Y-90388390D01*
X162829160Y-90388390D02*
X162829160Y-90769342D01*
X162829160Y-90769342D02*
X162876779Y-90864580D01*
X162876779Y-90864580D02*
X162924398Y-90912200D01*
X162924398Y-90912200D02*
X163019636Y-90959819D01*
X163019636Y-90959819D02*
X163210112Y-90959819D01*
X163210112Y-90959819D02*
X163305350Y-90912200D01*
X163305350Y-90912200D02*
X163352969Y-90864580D01*
X163352969Y-90864580D02*
X163400588Y-90769342D01*
X163400588Y-90769342D02*
X163400588Y-90531247D01*
X163400588Y-90531247D02*
X163352969Y-90436009D01*
X163352969Y-90436009D02*
X163305350Y-90388390D01*
X163305350Y-90388390D02*
X163210112Y-90340771D01*
X163210112Y-90340771D02*
X163019636Y-90340771D01*
X163019636Y-90340771D02*
X162924398Y-90388390D01*
X162924398Y-90388390D02*
X162876779Y-90436009D01*
X162876779Y-90436009D02*
X162829160Y-90531247D01*
D11*
X134094510Y-93819400D02*
X135237368Y-93819400D01*
X134665939Y-94390828D02*
X134665939Y-93247971D01*
D14*
X80343884Y-61653595D02*
X80343884Y-60653595D01*
X80343884Y-60653595D02*
X80915312Y-61653595D01*
X80915312Y-61653595D02*
X80915312Y-60653595D01*
X80724836Y-63215920D02*
X80629598Y-63263539D01*
X80629598Y-63263539D02*
X80439122Y-63263539D01*
X80439122Y-63263539D02*
X80343884Y-63215920D01*
X80343884Y-63215920D02*
X80296265Y-63120681D01*
X80296265Y-63120681D02*
X80296265Y-62739729D01*
X80296265Y-62739729D02*
X80343884Y-62644491D01*
X80343884Y-62644491D02*
X80439122Y-62596872D01*
X80439122Y-62596872D02*
X80629598Y-62596872D01*
X80629598Y-62596872D02*
X80724836Y-62644491D01*
X80724836Y-62644491D02*
X80772455Y-62739729D01*
X80772455Y-62739729D02*
X80772455Y-62834967D01*
X80772455Y-62834967D02*
X80296265Y-62930205D01*
X80486741Y-64873483D02*
X80391503Y-64825864D01*
X80391503Y-64825864D02*
X80343884Y-64778244D01*
X80343884Y-64778244D02*
X80296265Y-64683006D01*
X80296265Y-64683006D02*
X80296265Y-64397292D01*
X80296265Y-64397292D02*
X80343884Y-64302054D01*
X80343884Y-64302054D02*
X80391503Y-64254435D01*
X80391503Y-64254435D02*
X80486741Y-64206816D01*
X80486741Y-64206816D02*
X80629598Y-64206816D01*
X80629598Y-64206816D02*
X80724836Y-64254435D01*
X80724836Y-64254435D02*
X80772455Y-64302054D01*
X80772455Y-64302054D02*
X80820074Y-64397292D01*
X80820074Y-64397292D02*
X80820074Y-64683006D01*
X80820074Y-64683006D02*
X80772455Y-64778244D01*
X80772455Y-64778244D02*
X80724836Y-64825864D01*
X80724836Y-64825864D02*
X80629598Y-64873483D01*
X80629598Y-64873483D02*
X80486741Y-64873483D01*
X80867693Y-67140990D02*
X80772455Y-67093371D01*
X80772455Y-67093371D02*
X80629598Y-67093371D01*
X80629598Y-67093371D02*
X80486741Y-67140990D01*
X80486741Y-67140990D02*
X80391503Y-67236228D01*
X80391503Y-67236228D02*
X80343884Y-67331466D01*
X80343884Y-67331466D02*
X80296265Y-67521942D01*
X80296265Y-67521942D02*
X80296265Y-67664799D01*
X80296265Y-67664799D02*
X80343884Y-67855275D01*
X80343884Y-67855275D02*
X80391503Y-67950513D01*
X80391503Y-67950513D02*
X80486741Y-68045752D01*
X80486741Y-68045752D02*
X80629598Y-68093371D01*
X80629598Y-68093371D02*
X80724836Y-68093371D01*
X80724836Y-68093371D02*
X80867693Y-68045752D01*
X80867693Y-68045752D02*
X80915312Y-67998132D01*
X80915312Y-67998132D02*
X80915312Y-67664799D01*
X80915312Y-67664799D02*
X80724836Y-67664799D01*
X80724836Y-69655696D02*
X80629598Y-69703315D01*
X80629598Y-69703315D02*
X80439122Y-69703315D01*
X80439122Y-69703315D02*
X80343884Y-69655696D01*
X80343884Y-69655696D02*
X80296265Y-69560457D01*
X80296265Y-69560457D02*
X80296265Y-69179505D01*
X80296265Y-69179505D02*
X80343884Y-69084267D01*
X80343884Y-69084267D02*
X80439122Y-69036648D01*
X80439122Y-69036648D02*
X80629598Y-69036648D01*
X80629598Y-69036648D02*
X80724836Y-69084267D01*
X80724836Y-69084267D02*
X80772455Y-69179505D01*
X80772455Y-69179505D02*
X80772455Y-69274743D01*
X80772455Y-69274743D02*
X80296265Y-69369981D01*
X80486741Y-71313259D02*
X80391503Y-71265640D01*
X80391503Y-71265640D02*
X80343884Y-71218020D01*
X80343884Y-71218020D02*
X80296265Y-71122782D01*
X80296265Y-71122782D02*
X80296265Y-70837068D01*
X80296265Y-70837068D02*
X80343884Y-70741830D01*
X80343884Y-70741830D02*
X80391503Y-70694211D01*
X80391503Y-70694211D02*
X80486741Y-70646592D01*
X80486741Y-70646592D02*
X80629598Y-70646592D01*
X80629598Y-70646592D02*
X80724836Y-70694211D01*
X80724836Y-70694211D02*
X80772455Y-70741830D01*
X80772455Y-70741830D02*
X80820074Y-70837068D01*
X80820074Y-70837068D02*
X80820074Y-71122782D01*
X80820074Y-71122782D02*
X80772455Y-71218020D01*
X80772455Y-71218020D02*
X80724836Y-71265640D01*
X80724836Y-71265640D02*
X80629598Y-71313259D01*
X80629598Y-71313259D02*
X80486741Y-71313259D01*
X80343884Y-74533147D02*
X80343884Y-73533147D01*
X80343884Y-73533147D02*
X80677217Y-74247432D01*
X80677217Y-74247432D02*
X81010550Y-73533147D01*
X81010550Y-73533147D02*
X81010550Y-74533147D01*
X80772455Y-76143091D02*
X80772455Y-75619281D01*
X80772455Y-75619281D02*
X80724836Y-75524043D01*
X80724836Y-75524043D02*
X80629598Y-75476424D01*
X80629598Y-75476424D02*
X80439122Y-75476424D01*
X80439122Y-75476424D02*
X80343884Y-75524043D01*
X80772455Y-76095472D02*
X80677217Y-76143091D01*
X80677217Y-76143091D02*
X80439122Y-76143091D01*
X80439122Y-76143091D02*
X80343884Y-76095472D01*
X80343884Y-76095472D02*
X80296265Y-76000233D01*
X80296265Y-76000233D02*
X80296265Y-75904995D01*
X80296265Y-75904995D02*
X80343884Y-75809757D01*
X80343884Y-75809757D02*
X80439122Y-75762138D01*
X80439122Y-75762138D02*
X80677217Y-75762138D01*
X80677217Y-75762138D02*
X80772455Y-75714519D01*
X80343884Y-77753035D02*
X80343884Y-77086368D01*
X80343884Y-77276844D02*
X80391503Y-77181606D01*
X80391503Y-77181606D02*
X80439122Y-77133987D01*
X80439122Y-77133987D02*
X80534360Y-77086368D01*
X80534360Y-77086368D02*
X80629598Y-77086368D01*
X80772455Y-78696312D02*
X80772455Y-79696312D01*
X80772455Y-79315360D02*
X80677217Y-79362979D01*
X80677217Y-79362979D02*
X80486741Y-79362979D01*
X80486741Y-79362979D02*
X80391503Y-79315360D01*
X80391503Y-79315360D02*
X80343884Y-79267740D01*
X80343884Y-79267740D02*
X80296265Y-79172502D01*
X80296265Y-79172502D02*
X80296265Y-78886788D01*
X80296265Y-78886788D02*
X80343884Y-78791550D01*
X80343884Y-78791550D02*
X80391503Y-78743931D01*
X80391503Y-78743931D02*
X80486741Y-78696312D01*
X80486741Y-78696312D02*
X80677217Y-78696312D01*
X80677217Y-78696312D02*
X80772455Y-78743931D01*
X80772455Y-80306256D02*
X80772455Y-80972923D01*
X80343884Y-80306256D02*
X80343884Y-80830065D01*
X80343884Y-80830065D02*
X80391503Y-80925304D01*
X80391503Y-80925304D02*
X80486741Y-80972923D01*
X80486741Y-80972923D02*
X80629598Y-80972923D01*
X80629598Y-80972923D02*
X80724836Y-80925304D01*
X80724836Y-80925304D02*
X80772455Y-80877684D01*
X80724836Y-82535248D02*
X80629598Y-82582867D01*
X80629598Y-82582867D02*
X80439122Y-82582867D01*
X80439122Y-82582867D02*
X80343884Y-82535248D01*
X80343884Y-82535248D02*
X80296265Y-82440009D01*
X80296265Y-82440009D02*
X80296265Y-82059057D01*
X80296265Y-82059057D02*
X80343884Y-81963819D01*
X80343884Y-81963819D02*
X80439122Y-81916200D01*
X80439122Y-81916200D02*
X80629598Y-81916200D01*
X80629598Y-81916200D02*
X80724836Y-81963819D01*
X80724836Y-81963819D02*
X80772455Y-82059057D01*
X80772455Y-82059057D02*
X80772455Y-82154295D01*
X80772455Y-82154295D02*
X80296265Y-82249533D01*
X80724836Y-84145192D02*
X80629598Y-84192811D01*
X80629598Y-84192811D02*
X80439122Y-84192811D01*
X80439122Y-84192811D02*
X80343884Y-84145192D01*
X80343884Y-84145192D02*
X80296265Y-84049953D01*
X80296265Y-84049953D02*
X80296265Y-83669001D01*
X80296265Y-83669001D02*
X80343884Y-83573763D01*
X80343884Y-83573763D02*
X80439122Y-83526144D01*
X80439122Y-83526144D02*
X80629598Y-83526144D01*
X80629598Y-83526144D02*
X80724836Y-83573763D01*
X80724836Y-83573763D02*
X80772455Y-83669001D01*
X80772455Y-83669001D02*
X80772455Y-83764239D01*
X80772455Y-83764239D02*
X80296265Y-83859477D01*
X80343884Y-87412699D02*
X80343884Y-86412699D01*
X80343884Y-86412699D02*
X80581979Y-86412699D01*
X80581979Y-86412699D02*
X80724836Y-86460318D01*
X80724836Y-86460318D02*
X80820074Y-86555556D01*
X80820074Y-86555556D02*
X80867693Y-86650794D01*
X80867693Y-86650794D02*
X80915312Y-86841270D01*
X80915312Y-86841270D02*
X80915312Y-86984127D01*
X80915312Y-86984127D02*
X80867693Y-87174603D01*
X80867693Y-87174603D02*
X80820074Y-87269841D01*
X80820074Y-87269841D02*
X80724836Y-87365080D01*
X80724836Y-87365080D02*
X80581979Y-87412699D01*
X80581979Y-87412699D02*
X80343884Y-87412699D01*
X80343884Y-89022643D02*
X80343884Y-88355976D01*
X80343884Y-88546452D02*
X80391503Y-88451214D01*
X80391503Y-88451214D02*
X80439122Y-88403595D01*
X80439122Y-88403595D02*
X80534360Y-88355976D01*
X80534360Y-88355976D02*
X80629598Y-88355976D01*
X80343884Y-90632587D02*
X80343884Y-89965920D01*
X80343884Y-89632587D02*
X80296265Y-89680206D01*
X80296265Y-89680206D02*
X80343884Y-89727825D01*
X80343884Y-89727825D02*
X80391503Y-89680206D01*
X80391503Y-89680206D02*
X80343884Y-89632587D01*
X80343884Y-89632587D02*
X80343884Y-89727825D01*
X80248646Y-91575864D02*
X80486741Y-92242531D01*
X80486741Y-92242531D02*
X80724836Y-91575864D01*
X80724836Y-93804856D02*
X80629598Y-93852475D01*
X80629598Y-93852475D02*
X80439122Y-93852475D01*
X80439122Y-93852475D02*
X80343884Y-93804856D01*
X80343884Y-93804856D02*
X80296265Y-93709617D01*
X80296265Y-93709617D02*
X80296265Y-93328665D01*
X80296265Y-93328665D02*
X80343884Y-93233427D01*
X80343884Y-93233427D02*
X80439122Y-93185808D01*
X80439122Y-93185808D02*
X80629598Y-93185808D01*
X80629598Y-93185808D02*
X80724836Y-93233427D01*
X80724836Y-93233427D02*
X80772455Y-93328665D01*
X80772455Y-93328665D02*
X80772455Y-93423903D01*
X80772455Y-93423903D02*
X80296265Y-93519141D01*
X80343884Y-95462419D02*
X80343884Y-94795752D01*
X80343884Y-94986228D02*
X80391503Y-94890990D01*
X80391503Y-94890990D02*
X80439122Y-94843371D01*
X80439122Y-94843371D02*
X80534360Y-94795752D01*
X80534360Y-94795752D02*
X80629598Y-94795752D01*
D12*
X130271327Y-93762045D02*
X130309423Y-93723950D01*
X130309423Y-93723950D02*
X130385613Y-93685855D01*
X130385613Y-93685855D02*
X130576089Y-93685855D01*
X130576089Y-93685855D02*
X130652280Y-93723950D01*
X130652280Y-93723950D02*
X130690375Y-93762045D01*
X130690375Y-93762045D02*
X130728470Y-93838236D01*
X130728470Y-93838236D02*
X130728470Y-93914426D01*
X130728470Y-93914426D02*
X130690375Y-94028712D01*
X130690375Y-94028712D02*
X130233232Y-94485855D01*
X130233232Y-94485855D02*
X130728470Y-94485855D01*
X131223709Y-93685855D02*
X131299899Y-93685855D01*
X131299899Y-93685855D02*
X131376090Y-93723950D01*
X131376090Y-93723950D02*
X131414185Y-93762045D01*
X131414185Y-93762045D02*
X131452280Y-93838236D01*
X131452280Y-93838236D02*
X131490375Y-93990617D01*
X131490375Y-93990617D02*
X131490375Y-94181093D01*
X131490375Y-94181093D02*
X131452280Y-94333474D01*
X131452280Y-94333474D02*
X131414185Y-94409664D01*
X131414185Y-94409664D02*
X131376090Y-94447760D01*
X131376090Y-94447760D02*
X131299899Y-94485855D01*
X131299899Y-94485855D02*
X131223709Y-94485855D01*
X131223709Y-94485855D02*
X131147518Y-94447760D01*
X131147518Y-94447760D02*
X131109423Y-94409664D01*
X131109423Y-94409664D02*
X131071328Y-94333474D01*
X131071328Y-94333474D02*
X131033232Y-94181093D01*
X131033232Y-94181093D02*
X131033232Y-93990617D01*
X131033232Y-93990617D02*
X131071328Y-93838236D01*
X131071328Y-93838236D02*
X131109423Y-93762045D01*
X131109423Y-93762045D02*
X131147518Y-93723950D01*
X131147518Y-93723950D02*
X131223709Y-93685855D01*
X131985614Y-93685855D02*
X132061804Y-93685855D01*
X132061804Y-93685855D02*
X132137995Y-93723950D01*
X132137995Y-93723950D02*
X132176090Y-93762045D01*
X132176090Y-93762045D02*
X132214185Y-93838236D01*
X132214185Y-93838236D02*
X132252280Y-93990617D01*
X132252280Y-93990617D02*
X132252280Y-94181093D01*
X132252280Y-94181093D02*
X132214185Y-94333474D01*
X132214185Y-94333474D02*
X132176090Y-94409664D01*
X132176090Y-94409664D02*
X132137995Y-94447760D01*
X132137995Y-94447760D02*
X132061804Y-94485855D01*
X132061804Y-94485855D02*
X131985614Y-94485855D01*
X131985614Y-94485855D02*
X131909423Y-94447760D01*
X131909423Y-94447760D02*
X131871328Y-94409664D01*
X131871328Y-94409664D02*
X131833233Y-94333474D01*
X131833233Y-94333474D02*
X131795137Y-94181093D01*
X131795137Y-94181093D02*
X131795137Y-93990617D01*
X131795137Y-93990617D02*
X131833233Y-93838236D01*
X131833233Y-93838236D02*
X131871328Y-93762045D01*
X131871328Y-93762045D02*
X131909423Y-93723950D01*
X131909423Y-93723950D02*
X131985614Y-93685855D01*
X133052281Y-94485855D02*
X132785614Y-94104902D01*
X132595138Y-94485855D02*
X132595138Y-93685855D01*
X132595138Y-93685855D02*
X132899900Y-93685855D01*
X132899900Y-93685855D02*
X132976090Y-93723950D01*
X132976090Y-93723950D02*
X133014185Y-93762045D01*
X133014185Y-93762045D02*
X133052281Y-93838236D01*
X133052281Y-93838236D02*
X133052281Y-93952521D01*
X133052281Y-93952521D02*
X133014185Y-94028712D01*
X133014185Y-94028712D02*
X132976090Y-94066807D01*
X132976090Y-94066807D02*
X132899900Y-94104902D01*
X132899900Y-94104902D02*
X132595138Y-94104902D01*
D10*
X111876779Y-90959819D02*
X111876779Y-89959819D01*
X111876779Y-89959819D02*
X112114874Y-89959819D01*
X112114874Y-89959819D02*
X112257731Y-90007438D01*
X112257731Y-90007438D02*
X112352969Y-90102676D01*
X112352969Y-90102676D02*
X112400588Y-90197914D01*
X112400588Y-90197914D02*
X112448207Y-90388390D01*
X112448207Y-90388390D02*
X112448207Y-90531247D01*
X112448207Y-90531247D02*
X112400588Y-90721723D01*
X112400588Y-90721723D02*
X112352969Y-90816961D01*
X112352969Y-90816961D02*
X112257731Y-90912200D01*
X112257731Y-90912200D02*
X112114874Y-90959819D01*
X112114874Y-90959819D02*
X111876779Y-90959819D01*
X112829160Y-90055057D02*
X112876779Y-90007438D01*
X112876779Y-90007438D02*
X112972017Y-89959819D01*
X112972017Y-89959819D02*
X113210112Y-89959819D01*
X113210112Y-89959819D02*
X113305350Y-90007438D01*
X113305350Y-90007438D02*
X113352969Y-90055057D01*
X113352969Y-90055057D02*
X113400588Y-90150295D01*
X113400588Y-90150295D02*
X113400588Y-90245533D01*
X113400588Y-90245533D02*
X113352969Y-90388390D01*
X113352969Y-90388390D02*
X112781541Y-90959819D01*
X112781541Y-90959819D02*
X113400588Y-90959819D01*
X143913333Y-90624819D02*
X143580000Y-90148628D01*
X143341905Y-90624819D02*
X143341905Y-89624819D01*
X143341905Y-89624819D02*
X143722857Y-89624819D01*
X143722857Y-89624819D02*
X143818095Y-89672438D01*
X143818095Y-89672438D02*
X143865714Y-89720057D01*
X143865714Y-89720057D02*
X143913333Y-89815295D01*
X143913333Y-89815295D02*
X143913333Y-89958152D01*
X143913333Y-89958152D02*
X143865714Y-90053390D01*
X143865714Y-90053390D02*
X143818095Y-90101009D01*
X143818095Y-90101009D02*
X143722857Y-90148628D01*
X143722857Y-90148628D02*
X143341905Y-90148628D01*
X144246667Y-89624819D02*
X144913333Y-89624819D01*
X144913333Y-89624819D02*
X144484762Y-90624819D01*
X93873333Y-90624819D02*
X93540000Y-90148628D01*
X93301905Y-90624819D02*
X93301905Y-89624819D01*
X93301905Y-89624819D02*
X93682857Y-89624819D01*
X93682857Y-89624819D02*
X93778095Y-89672438D01*
X93778095Y-89672438D02*
X93825714Y-89720057D01*
X93825714Y-89720057D02*
X93873333Y-89815295D01*
X93873333Y-89815295D02*
X93873333Y-89958152D01*
X93873333Y-89958152D02*
X93825714Y-90053390D01*
X93825714Y-90053390D02*
X93778095Y-90101009D01*
X93778095Y-90101009D02*
X93682857Y-90148628D01*
X93682857Y-90148628D02*
X93301905Y-90148628D01*
X94206667Y-89624819D02*
X94825714Y-89624819D01*
X94825714Y-89624819D02*
X94492381Y-90005771D01*
X94492381Y-90005771D02*
X94635238Y-90005771D01*
X94635238Y-90005771D02*
X94730476Y-90053390D01*
X94730476Y-90053390D02*
X94778095Y-90101009D01*
X94778095Y-90101009D02*
X94825714Y-90196247D01*
X94825714Y-90196247D02*
X94825714Y-90434342D01*
X94825714Y-90434342D02*
X94778095Y-90529580D01*
X94778095Y-90529580D02*
X94730476Y-90577200D01*
X94730476Y-90577200D02*
X94635238Y-90624819D01*
X94635238Y-90624819D02*
X94349524Y-90624819D01*
X94349524Y-90624819D02*
X94254286Y-90577200D01*
X94254286Y-90577200D02*
X94206667Y-90529580D01*
X136689523Y-97399580D02*
X136641904Y-97447200D01*
X136641904Y-97447200D02*
X136499047Y-97494819D01*
X136499047Y-97494819D02*
X136403809Y-97494819D01*
X136403809Y-97494819D02*
X136260952Y-97447200D01*
X136260952Y-97447200D02*
X136165714Y-97351961D01*
X136165714Y-97351961D02*
X136118095Y-97256723D01*
X136118095Y-97256723D02*
X136070476Y-97066247D01*
X136070476Y-97066247D02*
X136070476Y-96923390D01*
X136070476Y-96923390D02*
X136118095Y-96732914D01*
X136118095Y-96732914D02*
X136165714Y-96637676D01*
X136165714Y-96637676D02*
X136260952Y-96542438D01*
X136260952Y-96542438D02*
X136403809Y-96494819D01*
X136403809Y-96494819D02*
X136499047Y-96494819D01*
X136499047Y-96494819D02*
X136641904Y-96542438D01*
X136641904Y-96542438D02*
X136689523Y-96590057D01*
X137118095Y-97494819D02*
X137118095Y-96494819D01*
X137118095Y-96494819D02*
X137689523Y-97494819D01*
X137689523Y-97494819D02*
X137689523Y-96494819D01*
X138594285Y-96828152D02*
X138594285Y-97494819D01*
X138356190Y-96447200D02*
X138118095Y-97161485D01*
X138118095Y-97161485D02*
X138737142Y-97161485D01*
X163369580Y-105050476D02*
X163417200Y-105098095D01*
X163417200Y-105098095D02*
X163464819Y-105240952D01*
X163464819Y-105240952D02*
X163464819Y-105336190D01*
X163464819Y-105336190D02*
X163417200Y-105479047D01*
X163417200Y-105479047D02*
X163321961Y-105574285D01*
X163321961Y-105574285D02*
X163226723Y-105621904D01*
X163226723Y-105621904D02*
X163036247Y-105669523D01*
X163036247Y-105669523D02*
X162893390Y-105669523D01*
X162893390Y-105669523D02*
X162702914Y-105621904D01*
X162702914Y-105621904D02*
X162607676Y-105574285D01*
X162607676Y-105574285D02*
X162512438Y-105479047D01*
X162512438Y-105479047D02*
X162464819Y-105336190D01*
X162464819Y-105336190D02*
X162464819Y-105240952D01*
X162464819Y-105240952D02*
X162512438Y-105098095D01*
X162512438Y-105098095D02*
X162560057Y-105050476D01*
X163464819Y-104621904D02*
X162464819Y-104621904D01*
X162464819Y-104621904D02*
X163464819Y-104050476D01*
X163464819Y-104050476D02*
X162464819Y-104050476D01*
X162464819Y-103145714D02*
X162464819Y-103336190D01*
X162464819Y-103336190D02*
X162512438Y-103431428D01*
X162512438Y-103431428D02*
X162560057Y-103479047D01*
X162560057Y-103479047D02*
X162702914Y-103574285D01*
X162702914Y-103574285D02*
X162893390Y-103621904D01*
X162893390Y-103621904D02*
X163274342Y-103621904D01*
X163274342Y-103621904D02*
X163369580Y-103574285D01*
X163369580Y-103574285D02*
X163417200Y-103526666D01*
X163417200Y-103526666D02*
X163464819Y-103431428D01*
X163464819Y-103431428D02*
X163464819Y-103240952D01*
X163464819Y-103240952D02*
X163417200Y-103145714D01*
X163417200Y-103145714D02*
X163369580Y-103098095D01*
X163369580Y-103098095D02*
X163274342Y-103050476D01*
X163274342Y-103050476D02*
X163036247Y-103050476D01*
X163036247Y-103050476D02*
X162941009Y-103098095D01*
X162941009Y-103098095D02*
X162893390Y-103145714D01*
X162893390Y-103145714D02*
X162845771Y-103240952D01*
X162845771Y-103240952D02*
X162845771Y-103431428D01*
X162845771Y-103431428D02*
X162893390Y-103526666D01*
X162893390Y-103526666D02*
X162941009Y-103574285D01*
X162941009Y-103574285D02*
X163036247Y-103621904D01*
X158873333Y-74124819D02*
X158540000Y-73648628D01*
X158301905Y-74124819D02*
X158301905Y-73124819D01*
X158301905Y-73124819D02*
X158682857Y-73124819D01*
X158682857Y-73124819D02*
X158778095Y-73172438D01*
X158778095Y-73172438D02*
X158825714Y-73220057D01*
X158825714Y-73220057D02*
X158873333Y-73315295D01*
X158873333Y-73315295D02*
X158873333Y-73458152D01*
X158873333Y-73458152D02*
X158825714Y-73553390D01*
X158825714Y-73553390D02*
X158778095Y-73601009D01*
X158778095Y-73601009D02*
X158682857Y-73648628D01*
X158682857Y-73648628D02*
X158301905Y-73648628D01*
X159254286Y-73220057D02*
X159301905Y-73172438D01*
X159301905Y-73172438D02*
X159397143Y-73124819D01*
X159397143Y-73124819D02*
X159635238Y-73124819D01*
X159635238Y-73124819D02*
X159730476Y-73172438D01*
X159730476Y-73172438D02*
X159778095Y-73220057D01*
X159778095Y-73220057D02*
X159825714Y-73315295D01*
X159825714Y-73315295D02*
X159825714Y-73410533D01*
X159825714Y-73410533D02*
X159778095Y-73553390D01*
X159778095Y-73553390D02*
X159206667Y-74124819D01*
X159206667Y-74124819D02*
X159825714Y-74124819D01*
X118849523Y-97399580D02*
X118801904Y-97447200D01*
X118801904Y-97447200D02*
X118659047Y-97494819D01*
X118659047Y-97494819D02*
X118563809Y-97494819D01*
X118563809Y-97494819D02*
X118420952Y-97447200D01*
X118420952Y-97447200D02*
X118325714Y-97351961D01*
X118325714Y-97351961D02*
X118278095Y-97256723D01*
X118278095Y-97256723D02*
X118230476Y-97066247D01*
X118230476Y-97066247D02*
X118230476Y-96923390D01*
X118230476Y-96923390D02*
X118278095Y-96732914D01*
X118278095Y-96732914D02*
X118325714Y-96637676D01*
X118325714Y-96637676D02*
X118420952Y-96542438D01*
X118420952Y-96542438D02*
X118563809Y-96494819D01*
X118563809Y-96494819D02*
X118659047Y-96494819D01*
X118659047Y-96494819D02*
X118801904Y-96542438D01*
X118801904Y-96542438D02*
X118849523Y-96590057D01*
X119278095Y-97494819D02*
X119278095Y-96494819D01*
X119278095Y-96494819D02*
X119849523Y-97494819D01*
X119849523Y-97494819D02*
X119849523Y-96494819D01*
X120230476Y-96494819D02*
X120849523Y-96494819D01*
X120849523Y-96494819D02*
X120516190Y-96875771D01*
X120516190Y-96875771D02*
X120659047Y-96875771D01*
X120659047Y-96875771D02*
X120754285Y-96923390D01*
X120754285Y-96923390D02*
X120801904Y-96971009D01*
X120801904Y-96971009D02*
X120849523Y-97066247D01*
X120849523Y-97066247D02*
X120849523Y-97304342D01*
X120849523Y-97304342D02*
X120801904Y-97399580D01*
X120801904Y-97399580D02*
X120754285Y-97447200D01*
X120754285Y-97447200D02*
X120659047Y-97494819D01*
X120659047Y-97494819D02*
X120373333Y-97494819D01*
X120373333Y-97494819D02*
X120278095Y-97447200D01*
X120278095Y-97447200D02*
X120230476Y-97399580D01*
X157384761Y-83910057D02*
X157289523Y-83862438D01*
X157289523Y-83862438D02*
X157194285Y-83767200D01*
X157194285Y-83767200D02*
X157051428Y-83624342D01*
X157051428Y-83624342D02*
X156956190Y-83576723D01*
X156956190Y-83576723D02*
X156860952Y-83576723D01*
X156908571Y-83814819D02*
X156813333Y-83767200D01*
X156813333Y-83767200D02*
X156718095Y-83671961D01*
X156718095Y-83671961D02*
X156670476Y-83481485D01*
X156670476Y-83481485D02*
X156670476Y-83148152D01*
X156670476Y-83148152D02*
X156718095Y-82957676D01*
X156718095Y-82957676D02*
X156813333Y-82862438D01*
X156813333Y-82862438D02*
X156908571Y-82814819D01*
X156908571Y-82814819D02*
X157099047Y-82814819D01*
X157099047Y-82814819D02*
X157194285Y-82862438D01*
X157194285Y-82862438D02*
X157289523Y-82957676D01*
X157289523Y-82957676D02*
X157337142Y-83148152D01*
X157337142Y-83148152D02*
X157337142Y-83481485D01*
X157337142Y-83481485D02*
X157289523Y-83671961D01*
X157289523Y-83671961D02*
X157194285Y-83767200D01*
X157194285Y-83767200D02*
X157099047Y-83814819D01*
X157099047Y-83814819D02*
X156908571Y-83814819D01*
X158194285Y-82814819D02*
X158003809Y-82814819D01*
X158003809Y-82814819D02*
X157908571Y-82862438D01*
X157908571Y-82862438D02*
X157860952Y-82910057D01*
X157860952Y-82910057D02*
X157765714Y-83052914D01*
X157765714Y-83052914D02*
X157718095Y-83243390D01*
X157718095Y-83243390D02*
X157718095Y-83624342D01*
X157718095Y-83624342D02*
X157765714Y-83719580D01*
X157765714Y-83719580D02*
X157813333Y-83767200D01*
X157813333Y-83767200D02*
X157908571Y-83814819D01*
X157908571Y-83814819D02*
X158099047Y-83814819D01*
X158099047Y-83814819D02*
X158194285Y-83767200D01*
X158194285Y-83767200D02*
X158241904Y-83719580D01*
X158241904Y-83719580D02*
X158289523Y-83624342D01*
X158289523Y-83624342D02*
X158289523Y-83386247D01*
X158289523Y-83386247D02*
X158241904Y-83291009D01*
X158241904Y-83291009D02*
X158194285Y-83243390D01*
X158194285Y-83243390D02*
X158099047Y-83195771D01*
X158099047Y-83195771D02*
X157908571Y-83195771D01*
X157908571Y-83195771D02*
X157813333Y-83243390D01*
X157813333Y-83243390D02*
X157765714Y-83291009D01*
X157765714Y-83291009D02*
X157718095Y-83386247D01*
X104799580Y-65506666D02*
X104847200Y-65554285D01*
X104847200Y-65554285D02*
X104894819Y-65697142D01*
X104894819Y-65697142D02*
X104894819Y-65792380D01*
X104894819Y-65792380D02*
X104847200Y-65935237D01*
X104847200Y-65935237D02*
X104751961Y-66030475D01*
X104751961Y-66030475D02*
X104656723Y-66078094D01*
X104656723Y-66078094D02*
X104466247Y-66125713D01*
X104466247Y-66125713D02*
X104323390Y-66125713D01*
X104323390Y-66125713D02*
X104132914Y-66078094D01*
X104132914Y-66078094D02*
X104037676Y-66030475D01*
X104037676Y-66030475D02*
X103942438Y-65935237D01*
X103942438Y-65935237D02*
X103894819Y-65792380D01*
X103894819Y-65792380D02*
X103894819Y-65697142D01*
X103894819Y-65697142D02*
X103942438Y-65554285D01*
X103942438Y-65554285D02*
X103990057Y-65506666D01*
X104894819Y-64554285D02*
X104894819Y-65125713D01*
X104894819Y-64839999D02*
X103894819Y-64839999D01*
X103894819Y-64839999D02*
X104037676Y-64935237D01*
X104037676Y-64935237D02*
X104132914Y-65030475D01*
X104132914Y-65030475D02*
X104180533Y-65125713D01*
X93999580Y-104610476D02*
X94047200Y-104658095D01*
X94047200Y-104658095D02*
X94094819Y-104800952D01*
X94094819Y-104800952D02*
X94094819Y-104896190D01*
X94094819Y-104896190D02*
X94047200Y-105039047D01*
X94047200Y-105039047D02*
X93951961Y-105134285D01*
X93951961Y-105134285D02*
X93856723Y-105181904D01*
X93856723Y-105181904D02*
X93666247Y-105229523D01*
X93666247Y-105229523D02*
X93523390Y-105229523D01*
X93523390Y-105229523D02*
X93332914Y-105181904D01*
X93332914Y-105181904D02*
X93237676Y-105134285D01*
X93237676Y-105134285D02*
X93142438Y-105039047D01*
X93142438Y-105039047D02*
X93094819Y-104896190D01*
X93094819Y-104896190D02*
X93094819Y-104800952D01*
X93094819Y-104800952D02*
X93142438Y-104658095D01*
X93142438Y-104658095D02*
X93190057Y-104610476D01*
X94094819Y-104181904D02*
X93094819Y-104181904D01*
X93094819Y-104181904D02*
X94094819Y-103610476D01*
X94094819Y-103610476D02*
X93094819Y-103610476D01*
X94094819Y-102610476D02*
X94094819Y-103181904D01*
X94094819Y-102896190D02*
X93094819Y-102896190D01*
X93094819Y-102896190D02*
X93237676Y-102991428D01*
X93237676Y-102991428D02*
X93332914Y-103086666D01*
X93332914Y-103086666D02*
X93380533Y-103181904D01*
X111664761Y-83910057D02*
X111569523Y-83862438D01*
X111569523Y-83862438D02*
X111474285Y-83767200D01*
X111474285Y-83767200D02*
X111331428Y-83624342D01*
X111331428Y-83624342D02*
X111236190Y-83576723D01*
X111236190Y-83576723D02*
X111140952Y-83576723D01*
X111188571Y-83814819D02*
X111093333Y-83767200D01*
X111093333Y-83767200D02*
X110998095Y-83671961D01*
X110998095Y-83671961D02*
X110950476Y-83481485D01*
X110950476Y-83481485D02*
X110950476Y-83148152D01*
X110950476Y-83148152D02*
X110998095Y-82957676D01*
X110998095Y-82957676D02*
X111093333Y-82862438D01*
X111093333Y-82862438D02*
X111188571Y-82814819D01*
X111188571Y-82814819D02*
X111379047Y-82814819D01*
X111379047Y-82814819D02*
X111474285Y-82862438D01*
X111474285Y-82862438D02*
X111569523Y-82957676D01*
X111569523Y-82957676D02*
X111617142Y-83148152D01*
X111617142Y-83148152D02*
X111617142Y-83481485D01*
X111617142Y-83481485D02*
X111569523Y-83671961D01*
X111569523Y-83671961D02*
X111474285Y-83767200D01*
X111474285Y-83767200D02*
X111379047Y-83814819D01*
X111379047Y-83814819D02*
X111188571Y-83814819D01*
X111998095Y-82910057D02*
X112045714Y-82862438D01*
X112045714Y-82862438D02*
X112140952Y-82814819D01*
X112140952Y-82814819D02*
X112379047Y-82814819D01*
X112379047Y-82814819D02*
X112474285Y-82862438D01*
X112474285Y-82862438D02*
X112521904Y-82910057D01*
X112521904Y-82910057D02*
X112569523Y-83005295D01*
X112569523Y-83005295D02*
X112569523Y-83100533D01*
X112569523Y-83100533D02*
X112521904Y-83243390D01*
X112521904Y-83243390D02*
X111950476Y-83814819D01*
X111950476Y-83814819D02*
X112569523Y-83814819D01*
X106413333Y-90624819D02*
X106080000Y-90148628D01*
X105841905Y-90624819D02*
X105841905Y-89624819D01*
X105841905Y-89624819D02*
X106222857Y-89624819D01*
X106222857Y-89624819D02*
X106318095Y-89672438D01*
X106318095Y-89672438D02*
X106365714Y-89720057D01*
X106365714Y-89720057D02*
X106413333Y-89815295D01*
X106413333Y-89815295D02*
X106413333Y-89958152D01*
X106413333Y-89958152D02*
X106365714Y-90053390D01*
X106365714Y-90053390D02*
X106318095Y-90101009D01*
X106318095Y-90101009D02*
X106222857Y-90148628D01*
X106222857Y-90148628D02*
X105841905Y-90148628D01*
X107270476Y-89958152D02*
X107270476Y-90624819D01*
X107032381Y-89577200D02*
X106794286Y-90291485D01*
X106794286Y-90291485D02*
X107413333Y-90291485D01*
X156413333Y-90624819D02*
X156080000Y-90148628D01*
X155841905Y-90624819D02*
X155841905Y-89624819D01*
X155841905Y-89624819D02*
X156222857Y-89624819D01*
X156222857Y-89624819D02*
X156318095Y-89672438D01*
X156318095Y-89672438D02*
X156365714Y-89720057D01*
X156365714Y-89720057D02*
X156413333Y-89815295D01*
X156413333Y-89815295D02*
X156413333Y-89958152D01*
X156413333Y-89958152D02*
X156365714Y-90053390D01*
X156365714Y-90053390D02*
X156318095Y-90101009D01*
X156318095Y-90101009D02*
X156222857Y-90148628D01*
X156222857Y-90148628D02*
X155841905Y-90148628D01*
X156984762Y-90053390D02*
X156889524Y-90005771D01*
X156889524Y-90005771D02*
X156841905Y-89958152D01*
X156841905Y-89958152D02*
X156794286Y-89862914D01*
X156794286Y-89862914D02*
X156794286Y-89815295D01*
X156794286Y-89815295D02*
X156841905Y-89720057D01*
X156841905Y-89720057D02*
X156889524Y-89672438D01*
X156889524Y-89672438D02*
X156984762Y-89624819D01*
X156984762Y-89624819D02*
X157175238Y-89624819D01*
X157175238Y-89624819D02*
X157270476Y-89672438D01*
X157270476Y-89672438D02*
X157318095Y-89720057D01*
X157318095Y-89720057D02*
X157365714Y-89815295D01*
X157365714Y-89815295D02*
X157365714Y-89862914D01*
X157365714Y-89862914D02*
X157318095Y-89958152D01*
X157318095Y-89958152D02*
X157270476Y-90005771D01*
X157270476Y-90005771D02*
X157175238Y-90053390D01*
X157175238Y-90053390D02*
X156984762Y-90053390D01*
X156984762Y-90053390D02*
X156889524Y-90101009D01*
X156889524Y-90101009D02*
X156841905Y-90148628D01*
X156841905Y-90148628D02*
X156794286Y-90243866D01*
X156794286Y-90243866D02*
X156794286Y-90434342D01*
X156794286Y-90434342D02*
X156841905Y-90529580D01*
X156841905Y-90529580D02*
X156889524Y-90577200D01*
X156889524Y-90577200D02*
X156984762Y-90624819D01*
X156984762Y-90624819D02*
X157175238Y-90624819D01*
X157175238Y-90624819D02*
X157270476Y-90577200D01*
X157270476Y-90577200D02*
X157318095Y-90529580D01*
X157318095Y-90529580D02*
X157365714Y-90434342D01*
X157365714Y-90434342D02*
X157365714Y-90243866D01*
X157365714Y-90243866D02*
X157318095Y-90148628D01*
X157318095Y-90148628D02*
X157270476Y-90101009D01*
X157270476Y-90101009D02*
X157175238Y-90053390D01*
X145954761Y-83910057D02*
X145859523Y-83862438D01*
X145859523Y-83862438D02*
X145764285Y-83767200D01*
X145764285Y-83767200D02*
X145621428Y-83624342D01*
X145621428Y-83624342D02*
X145526190Y-83576723D01*
X145526190Y-83576723D02*
X145430952Y-83576723D01*
X145478571Y-83814819D02*
X145383333Y-83767200D01*
X145383333Y-83767200D02*
X145288095Y-83671961D01*
X145288095Y-83671961D02*
X145240476Y-83481485D01*
X145240476Y-83481485D02*
X145240476Y-83148152D01*
X145240476Y-83148152D02*
X145288095Y-82957676D01*
X145288095Y-82957676D02*
X145383333Y-82862438D01*
X145383333Y-82862438D02*
X145478571Y-82814819D01*
X145478571Y-82814819D02*
X145669047Y-82814819D01*
X145669047Y-82814819D02*
X145764285Y-82862438D01*
X145764285Y-82862438D02*
X145859523Y-82957676D01*
X145859523Y-82957676D02*
X145907142Y-83148152D01*
X145907142Y-83148152D02*
X145907142Y-83481485D01*
X145907142Y-83481485D02*
X145859523Y-83671961D01*
X145859523Y-83671961D02*
X145764285Y-83767200D01*
X145764285Y-83767200D02*
X145669047Y-83814819D01*
X145669047Y-83814819D02*
X145478571Y-83814819D01*
X146811904Y-82814819D02*
X146335714Y-82814819D01*
X146335714Y-82814819D02*
X146288095Y-83291009D01*
X146288095Y-83291009D02*
X146335714Y-83243390D01*
X146335714Y-83243390D02*
X146430952Y-83195771D01*
X146430952Y-83195771D02*
X146669047Y-83195771D01*
X146669047Y-83195771D02*
X146764285Y-83243390D01*
X146764285Y-83243390D02*
X146811904Y-83291009D01*
X146811904Y-83291009D02*
X146859523Y-83386247D01*
X146859523Y-83386247D02*
X146859523Y-83624342D01*
X146859523Y-83624342D02*
X146811904Y-83719580D01*
X146811904Y-83719580D02*
X146764285Y-83767200D01*
X146764285Y-83767200D02*
X146669047Y-83814819D01*
X146669047Y-83814819D02*
X146430952Y-83814819D01*
X146430952Y-83814819D02*
X146335714Y-83767200D01*
X146335714Y-83767200D02*
X146288095Y-83719580D01*
X91683333Y-78624819D02*
X91350000Y-78148628D01*
X91111905Y-78624819D02*
X91111905Y-77624819D01*
X91111905Y-77624819D02*
X91492857Y-77624819D01*
X91492857Y-77624819D02*
X91588095Y-77672438D01*
X91588095Y-77672438D02*
X91635714Y-77720057D01*
X91635714Y-77720057D02*
X91683333Y-77815295D01*
X91683333Y-77815295D02*
X91683333Y-77958152D01*
X91683333Y-77958152D02*
X91635714Y-78053390D01*
X91635714Y-78053390D02*
X91588095Y-78101009D01*
X91588095Y-78101009D02*
X91492857Y-78148628D01*
X91492857Y-78148628D02*
X91111905Y-78148628D01*
X92635714Y-78624819D02*
X92064286Y-78624819D01*
X92350000Y-78624819D02*
X92350000Y-77624819D01*
X92350000Y-77624819D02*
X92254762Y-77767676D01*
X92254762Y-77767676D02*
X92159524Y-77862914D01*
X92159524Y-77862914D02*
X92064286Y-77910533D01*
X118873333Y-90624819D02*
X118540000Y-90148628D01*
X118301905Y-90624819D02*
X118301905Y-89624819D01*
X118301905Y-89624819D02*
X118682857Y-89624819D01*
X118682857Y-89624819D02*
X118778095Y-89672438D01*
X118778095Y-89672438D02*
X118825714Y-89720057D01*
X118825714Y-89720057D02*
X118873333Y-89815295D01*
X118873333Y-89815295D02*
X118873333Y-89958152D01*
X118873333Y-89958152D02*
X118825714Y-90053390D01*
X118825714Y-90053390D02*
X118778095Y-90101009D01*
X118778095Y-90101009D02*
X118682857Y-90148628D01*
X118682857Y-90148628D02*
X118301905Y-90148628D01*
X119778095Y-89624819D02*
X119301905Y-89624819D01*
X119301905Y-89624819D02*
X119254286Y-90101009D01*
X119254286Y-90101009D02*
X119301905Y-90053390D01*
X119301905Y-90053390D02*
X119397143Y-90005771D01*
X119397143Y-90005771D02*
X119635238Y-90005771D01*
X119635238Y-90005771D02*
X119730476Y-90053390D01*
X119730476Y-90053390D02*
X119778095Y-90101009D01*
X119778095Y-90101009D02*
X119825714Y-90196247D01*
X119825714Y-90196247D02*
X119825714Y-90434342D01*
X119825714Y-90434342D02*
X119778095Y-90529580D01*
X119778095Y-90529580D02*
X119730476Y-90577200D01*
X119730476Y-90577200D02*
X119635238Y-90624819D01*
X119635238Y-90624819D02*
X119397143Y-90624819D01*
X119397143Y-90624819D02*
X119301905Y-90577200D01*
X119301905Y-90577200D02*
X119254286Y-90529580D01*
X134524761Y-83910057D02*
X134429523Y-83862438D01*
X134429523Y-83862438D02*
X134334285Y-83767200D01*
X134334285Y-83767200D02*
X134191428Y-83624342D01*
X134191428Y-83624342D02*
X134096190Y-83576723D01*
X134096190Y-83576723D02*
X134000952Y-83576723D01*
X134048571Y-83814819D02*
X133953333Y-83767200D01*
X133953333Y-83767200D02*
X133858095Y-83671961D01*
X133858095Y-83671961D02*
X133810476Y-83481485D01*
X133810476Y-83481485D02*
X133810476Y-83148152D01*
X133810476Y-83148152D02*
X133858095Y-82957676D01*
X133858095Y-82957676D02*
X133953333Y-82862438D01*
X133953333Y-82862438D02*
X134048571Y-82814819D01*
X134048571Y-82814819D02*
X134239047Y-82814819D01*
X134239047Y-82814819D02*
X134334285Y-82862438D01*
X134334285Y-82862438D02*
X134429523Y-82957676D01*
X134429523Y-82957676D02*
X134477142Y-83148152D01*
X134477142Y-83148152D02*
X134477142Y-83481485D01*
X134477142Y-83481485D02*
X134429523Y-83671961D01*
X134429523Y-83671961D02*
X134334285Y-83767200D01*
X134334285Y-83767200D02*
X134239047Y-83814819D01*
X134239047Y-83814819D02*
X134048571Y-83814819D01*
X135334285Y-83148152D02*
X135334285Y-83814819D01*
X135096190Y-82767200D02*
X134858095Y-83481485D01*
X134858095Y-83481485D02*
X135477142Y-83481485D01*
X101129523Y-97399580D02*
X101081904Y-97447200D01*
X101081904Y-97447200D02*
X100939047Y-97494819D01*
X100939047Y-97494819D02*
X100843809Y-97494819D01*
X100843809Y-97494819D02*
X100700952Y-97447200D01*
X100700952Y-97447200D02*
X100605714Y-97351961D01*
X100605714Y-97351961D02*
X100558095Y-97256723D01*
X100558095Y-97256723D02*
X100510476Y-97066247D01*
X100510476Y-97066247D02*
X100510476Y-96923390D01*
X100510476Y-96923390D02*
X100558095Y-96732914D01*
X100558095Y-96732914D02*
X100605714Y-96637676D01*
X100605714Y-96637676D02*
X100700952Y-96542438D01*
X100700952Y-96542438D02*
X100843809Y-96494819D01*
X100843809Y-96494819D02*
X100939047Y-96494819D01*
X100939047Y-96494819D02*
X101081904Y-96542438D01*
X101081904Y-96542438D02*
X101129523Y-96590057D01*
X101558095Y-97494819D02*
X101558095Y-96494819D01*
X101558095Y-96494819D02*
X102129523Y-97494819D01*
X102129523Y-97494819D02*
X102129523Y-96494819D01*
X102558095Y-96590057D02*
X102605714Y-96542438D01*
X102605714Y-96542438D02*
X102700952Y-96494819D01*
X102700952Y-96494819D02*
X102939047Y-96494819D01*
X102939047Y-96494819D02*
X103034285Y-96542438D01*
X103034285Y-96542438D02*
X103081904Y-96590057D01*
X103081904Y-96590057D02*
X103129523Y-96685295D01*
X103129523Y-96685295D02*
X103129523Y-96780533D01*
X103129523Y-96780533D02*
X103081904Y-96923390D01*
X103081904Y-96923390D02*
X102510476Y-97494819D01*
X102510476Y-97494819D02*
X103129523Y-97494819D01*
X154029523Y-97399580D02*
X153981904Y-97447200D01*
X153981904Y-97447200D02*
X153839047Y-97494819D01*
X153839047Y-97494819D02*
X153743809Y-97494819D01*
X153743809Y-97494819D02*
X153600952Y-97447200D01*
X153600952Y-97447200D02*
X153505714Y-97351961D01*
X153505714Y-97351961D02*
X153458095Y-97256723D01*
X153458095Y-97256723D02*
X153410476Y-97066247D01*
X153410476Y-97066247D02*
X153410476Y-96923390D01*
X153410476Y-96923390D02*
X153458095Y-96732914D01*
X153458095Y-96732914D02*
X153505714Y-96637676D01*
X153505714Y-96637676D02*
X153600952Y-96542438D01*
X153600952Y-96542438D02*
X153743809Y-96494819D01*
X153743809Y-96494819D02*
X153839047Y-96494819D01*
X153839047Y-96494819D02*
X153981904Y-96542438D01*
X153981904Y-96542438D02*
X154029523Y-96590057D01*
X154458095Y-97494819D02*
X154458095Y-96494819D01*
X154458095Y-96494819D02*
X155029523Y-97494819D01*
X155029523Y-97494819D02*
X155029523Y-96494819D01*
X155981904Y-96494819D02*
X155505714Y-96494819D01*
X155505714Y-96494819D02*
X155458095Y-96971009D01*
X155458095Y-96971009D02*
X155505714Y-96923390D01*
X155505714Y-96923390D02*
X155600952Y-96875771D01*
X155600952Y-96875771D02*
X155839047Y-96875771D01*
X155839047Y-96875771D02*
X155934285Y-96923390D01*
X155934285Y-96923390D02*
X155981904Y-96971009D01*
X155981904Y-96971009D02*
X156029523Y-97066247D01*
X156029523Y-97066247D02*
X156029523Y-97304342D01*
X156029523Y-97304342D02*
X155981904Y-97399580D01*
X155981904Y-97399580D02*
X155934285Y-97447200D01*
X155934285Y-97447200D02*
X155839047Y-97494819D01*
X155839047Y-97494819D02*
X155600952Y-97494819D01*
X155600952Y-97494819D02*
X155505714Y-97447200D01*
X155505714Y-97447200D02*
X155458095Y-97399580D01*
X123094761Y-83910057D02*
X122999523Y-83862438D01*
X122999523Y-83862438D02*
X122904285Y-83767200D01*
X122904285Y-83767200D02*
X122761428Y-83624342D01*
X122761428Y-83624342D02*
X122666190Y-83576723D01*
X122666190Y-83576723D02*
X122570952Y-83576723D01*
X122618571Y-83814819D02*
X122523333Y-83767200D01*
X122523333Y-83767200D02*
X122428095Y-83671961D01*
X122428095Y-83671961D02*
X122380476Y-83481485D01*
X122380476Y-83481485D02*
X122380476Y-83148152D01*
X122380476Y-83148152D02*
X122428095Y-82957676D01*
X122428095Y-82957676D02*
X122523333Y-82862438D01*
X122523333Y-82862438D02*
X122618571Y-82814819D01*
X122618571Y-82814819D02*
X122809047Y-82814819D01*
X122809047Y-82814819D02*
X122904285Y-82862438D01*
X122904285Y-82862438D02*
X122999523Y-82957676D01*
X122999523Y-82957676D02*
X123047142Y-83148152D01*
X123047142Y-83148152D02*
X123047142Y-83481485D01*
X123047142Y-83481485D02*
X122999523Y-83671961D01*
X122999523Y-83671961D02*
X122904285Y-83767200D01*
X122904285Y-83767200D02*
X122809047Y-83814819D01*
X122809047Y-83814819D02*
X122618571Y-83814819D01*
X123380476Y-82814819D02*
X123999523Y-82814819D01*
X123999523Y-82814819D02*
X123666190Y-83195771D01*
X123666190Y-83195771D02*
X123809047Y-83195771D01*
X123809047Y-83195771D02*
X123904285Y-83243390D01*
X123904285Y-83243390D02*
X123951904Y-83291009D01*
X123951904Y-83291009D02*
X123999523Y-83386247D01*
X123999523Y-83386247D02*
X123999523Y-83624342D01*
X123999523Y-83624342D02*
X123951904Y-83719580D01*
X123951904Y-83719580D02*
X123904285Y-83767200D01*
X123904285Y-83767200D02*
X123809047Y-83814819D01*
X123809047Y-83814819D02*
X123523333Y-83814819D01*
X123523333Y-83814819D02*
X123428095Y-83767200D01*
X123428095Y-83767200D02*
X123380476Y-83719580D01*
X100234761Y-83910057D02*
X100139523Y-83862438D01*
X100139523Y-83862438D02*
X100044285Y-83767200D01*
X100044285Y-83767200D02*
X99901428Y-83624342D01*
X99901428Y-83624342D02*
X99806190Y-83576723D01*
X99806190Y-83576723D02*
X99710952Y-83576723D01*
X99758571Y-83814819D02*
X99663333Y-83767200D01*
X99663333Y-83767200D02*
X99568095Y-83671961D01*
X99568095Y-83671961D02*
X99520476Y-83481485D01*
X99520476Y-83481485D02*
X99520476Y-83148152D01*
X99520476Y-83148152D02*
X99568095Y-82957676D01*
X99568095Y-82957676D02*
X99663333Y-82862438D01*
X99663333Y-82862438D02*
X99758571Y-82814819D01*
X99758571Y-82814819D02*
X99949047Y-82814819D01*
X99949047Y-82814819D02*
X100044285Y-82862438D01*
X100044285Y-82862438D02*
X100139523Y-82957676D01*
X100139523Y-82957676D02*
X100187142Y-83148152D01*
X100187142Y-83148152D02*
X100187142Y-83481485D01*
X100187142Y-83481485D02*
X100139523Y-83671961D01*
X100139523Y-83671961D02*
X100044285Y-83767200D01*
X100044285Y-83767200D02*
X99949047Y-83814819D01*
X99949047Y-83814819D02*
X99758571Y-83814819D01*
X101139523Y-83814819D02*
X100568095Y-83814819D01*
X100853809Y-83814819D02*
X100853809Y-82814819D01*
X100853809Y-82814819D02*
X100758571Y-82957676D01*
X100758571Y-82957676D02*
X100663333Y-83052914D01*
X100663333Y-83052914D02*
X100568095Y-83100533D01*
X105579104Y-74374285D02*
X105579104Y-73898095D01*
X105864819Y-74469523D02*
X104864819Y-74136190D01*
X104864819Y-74136190D02*
X105864819Y-73802857D01*
X105864819Y-72945714D02*
X105864819Y-73517142D01*
X105864819Y-73231428D02*
X104864819Y-73231428D01*
X104864819Y-73231428D02*
X105007676Y-73326666D01*
X105007676Y-73326666D02*
X105102914Y-73421904D01*
X105102914Y-73421904D02*
X105150533Y-73517142D01*
X145504819Y-74921904D02*
X146314342Y-74921904D01*
X146314342Y-74921904D02*
X146409580Y-74874285D01*
X146409580Y-74874285D02*
X146457200Y-74826666D01*
X146457200Y-74826666D02*
X146504819Y-74731428D01*
X146504819Y-74731428D02*
X146504819Y-74540952D01*
X146504819Y-74540952D02*
X146457200Y-74445714D01*
X146457200Y-74445714D02*
X146409580Y-74398095D01*
X146409580Y-74398095D02*
X146314342Y-74350476D01*
X146314342Y-74350476D02*
X145504819Y-74350476D01*
X146457200Y-73921904D02*
X146504819Y-73779047D01*
X146504819Y-73779047D02*
X146504819Y-73540952D01*
X146504819Y-73540952D02*
X146457200Y-73445714D01*
X146457200Y-73445714D02*
X146409580Y-73398095D01*
X146409580Y-73398095D02*
X146314342Y-73350476D01*
X146314342Y-73350476D02*
X146219104Y-73350476D01*
X146219104Y-73350476D02*
X146123866Y-73398095D01*
X146123866Y-73398095D02*
X146076247Y-73445714D01*
X146076247Y-73445714D02*
X146028628Y-73540952D01*
X146028628Y-73540952D02*
X145981009Y-73731428D01*
X145981009Y-73731428D02*
X145933390Y-73826666D01*
X145933390Y-73826666D02*
X145885771Y-73874285D01*
X145885771Y-73874285D02*
X145790533Y-73921904D01*
X145790533Y-73921904D02*
X145695295Y-73921904D01*
X145695295Y-73921904D02*
X145600057Y-73874285D01*
X145600057Y-73874285D02*
X145552438Y-73826666D01*
X145552438Y-73826666D02*
X145504819Y-73731428D01*
X145504819Y-73731428D02*
X145504819Y-73493333D01*
X145504819Y-73493333D02*
X145552438Y-73350476D01*
X145981009Y-72588571D02*
X146028628Y-72445714D01*
X146028628Y-72445714D02*
X146076247Y-72398095D01*
X146076247Y-72398095D02*
X146171485Y-72350476D01*
X146171485Y-72350476D02*
X146314342Y-72350476D01*
X146314342Y-72350476D02*
X146409580Y-72398095D01*
X146409580Y-72398095D02*
X146457200Y-72445714D01*
X146457200Y-72445714D02*
X146504819Y-72540952D01*
X146504819Y-72540952D02*
X146504819Y-72921904D01*
X146504819Y-72921904D02*
X145504819Y-72921904D01*
X145504819Y-72921904D02*
X145504819Y-72588571D01*
X145504819Y-72588571D02*
X145552438Y-72493333D01*
X145552438Y-72493333D02*
X145600057Y-72445714D01*
X145600057Y-72445714D02*
X145695295Y-72398095D01*
X145695295Y-72398095D02*
X145790533Y-72398095D01*
X145790533Y-72398095D02*
X145885771Y-72445714D01*
X145885771Y-72445714D02*
X145933390Y-72493333D01*
X145933390Y-72493333D02*
X145981009Y-72588571D01*
X145981009Y-72588571D02*
X145981009Y-72921904D01*
X131373333Y-90624819D02*
X131040000Y-90148628D01*
X130801905Y-90624819D02*
X130801905Y-89624819D01*
X130801905Y-89624819D02*
X131182857Y-89624819D01*
X131182857Y-89624819D02*
X131278095Y-89672438D01*
X131278095Y-89672438D02*
X131325714Y-89720057D01*
X131325714Y-89720057D02*
X131373333Y-89815295D01*
X131373333Y-89815295D02*
X131373333Y-89958152D01*
X131373333Y-89958152D02*
X131325714Y-90053390D01*
X131325714Y-90053390D02*
X131278095Y-90101009D01*
X131278095Y-90101009D02*
X131182857Y-90148628D01*
X131182857Y-90148628D02*
X130801905Y-90148628D01*
X132230476Y-89624819D02*
X132040000Y-89624819D01*
X132040000Y-89624819D02*
X131944762Y-89672438D01*
X131944762Y-89672438D02*
X131897143Y-89720057D01*
X131897143Y-89720057D02*
X131801905Y-89862914D01*
X131801905Y-89862914D02*
X131754286Y-90053390D01*
X131754286Y-90053390D02*
X131754286Y-90434342D01*
X131754286Y-90434342D02*
X131801905Y-90529580D01*
X131801905Y-90529580D02*
X131849524Y-90577200D01*
X131849524Y-90577200D02*
X131944762Y-90624819D01*
X131944762Y-90624819D02*
X132135238Y-90624819D01*
X132135238Y-90624819D02*
X132230476Y-90577200D01*
X132230476Y-90577200D02*
X132278095Y-90529580D01*
X132278095Y-90529580D02*
X132325714Y-90434342D01*
X132325714Y-90434342D02*
X132325714Y-90196247D01*
X132325714Y-90196247D02*
X132278095Y-90101009D01*
X132278095Y-90101009D02*
X132230476Y-90053390D01*
X132230476Y-90053390D02*
X132135238Y-90005771D01*
X132135238Y-90005771D02*
X131944762Y-90005771D01*
X131944762Y-90005771D02*
X131849524Y-90053390D01*
X131849524Y-90053390D02*
X131801905Y-90101009D01*
X131801905Y-90101009D02*
X131754286Y-90196247D01*
X116564819Y-58178333D02*
X117279104Y-58178333D01*
X117279104Y-58178333D02*
X117421961Y-58225952D01*
X117421961Y-58225952D02*
X117517200Y-58321190D01*
X117517200Y-58321190D02*
X117564819Y-58464047D01*
X117564819Y-58464047D02*
X117564819Y-58559285D01*
X117564819Y-57178333D02*
X117564819Y-57749761D01*
X117564819Y-57464047D02*
X116564819Y-57464047D01*
X116564819Y-57464047D02*
X116707676Y-57559285D01*
X116707676Y-57559285D02*
X116802914Y-57654523D01*
X116802914Y-57654523D02*
X116850533Y-57749761D01*
D12*
%TO.C,R7*%
X142160000Y-91170000D02*
X146000000Y-91170000D01*
X142160000Y-93010000D02*
X146000000Y-93010000D01*
%TO.C,R3*%
X92120000Y-91170000D02*
X95960000Y-91170000D01*
X92120000Y-93010000D02*
X95960000Y-93010000D01*
%TO.C,CN4*%
X130070000Y-112810000D02*
X130070000Y-113330000D01*
X130070000Y-113330000D02*
X144690000Y-113330000D01*
X130720000Y-97850000D02*
X130720000Y-101180000D01*
X130720000Y-97850000D02*
X144040000Y-97850000D01*
X130720000Y-112810000D02*
X130070000Y-112810000D01*
X130720000Y-112810000D02*
X130720000Y-104700000D01*
X132980000Y-97630000D02*
X134780000Y-97630000D01*
X144040000Y-97850000D02*
X144040000Y-101180000D01*
X144040000Y-104700000D02*
X144040000Y-112810000D01*
X144690000Y-112810000D02*
X144040000Y-112810000D01*
X144690000Y-113330000D02*
X144690000Y-112810000D01*
%TO.C,CN6*%
X163600000Y-108760000D02*
X163600000Y-106960000D01*
X163820000Y-97700000D02*
X167150000Y-97700000D01*
X163820000Y-111020000D02*
X163820000Y-97700000D01*
X163820000Y-111020000D02*
X167150000Y-111020000D01*
X170670000Y-97700000D02*
X178780000Y-97700000D01*
X178780000Y-97050000D02*
X178780000Y-97700000D01*
X178780000Y-111020000D02*
X170670000Y-111020000D01*
X178780000Y-111020000D02*
X178780000Y-111670000D01*
X178780000Y-111670000D02*
X179300000Y-111670000D01*
X179300000Y-97050000D02*
X178780000Y-97050000D01*
X179300000Y-111670000D02*
X179300000Y-97050000D01*
%TO.C,REF\u002A\u002A*%
X87790000Y-72590000D02*
X87790000Y-74090000D01*
X89040000Y-76590000D02*
X93540000Y-76590000D01*
X93540000Y-70090000D02*
X89040000Y-70090000D01*
X94790000Y-74090000D02*
X94790000Y-72590000D01*
%TO.C,R2*%
X156170000Y-75590000D02*
X157120000Y-75590000D01*
X157120000Y-74670000D02*
X157120000Y-76510000D01*
X157120000Y-76510000D02*
X160960000Y-76510000D01*
X160960000Y-74670000D02*
X157120000Y-74670000D01*
X160960000Y-76510000D02*
X160960000Y-74670000D01*
X161910000Y-75590000D02*
X160960000Y-75590000D01*
%TO.C,D1*%
X98710000Y-92354000D02*
X98710000Y-92510000D01*
X98710000Y-94670000D02*
X98710000Y-94826000D01*
X98710000Y-92354484D02*
G75*
G02*
X101942335Y-92511392I1560000J-1235516D01*
G01*
X99229039Y-92510000D02*
G75*
G02*
X101311130Y-92510163I1040961J-1080000D01*
G01*
X101311130Y-94669837D02*
G75*
G02*
X99229039Y-94670000I-1041130J1079837D01*
G01*
X101942335Y-94668608D02*
G75*
G02*
X98710000Y-94825516I-1672335J1078608D01*
G01*
%TO.C,D6*%
X161250000Y-92354000D02*
X161250000Y-92510000D01*
X161250000Y-94670000D02*
X161250000Y-94826000D01*
X161250000Y-92354484D02*
G75*
G02*
X164482335Y-92511392I1560000J-1235516D01*
G01*
X161769039Y-92510000D02*
G75*
G02*
X163851130Y-92510163I1040961J-1080000D01*
G01*
X163851130Y-94669837D02*
G75*
G02*
X161769039Y-94670000I-1041130J1079837D01*
G01*
X164482335Y-94668608D02*
G75*
G02*
X161250000Y-94825516I-1672335J1078608D01*
G01*
%TO.C,D5*%
X148750000Y-92354000D02*
X148750000Y-92510000D01*
X148750000Y-94670000D02*
X148750000Y-94826000D01*
X148750000Y-92354484D02*
G75*
G02*
X151982335Y-92511392I1560000J-1235516D01*
G01*
X149269039Y-92510000D02*
G75*
G02*
X151351130Y-92510163I1040961J-1080000D01*
G01*
X151351130Y-94669837D02*
G75*
G02*
X149269039Y-94670000I-1041130J1079837D01*
G01*
X151982335Y-94668608D02*
G75*
G02*
X148750000Y-94825516I-1672335J1078608D01*
G01*
%TO.C,CN3*%
X112230000Y-112810000D02*
X112230000Y-113330000D01*
X112230000Y-113330000D02*
X126850000Y-113330000D01*
X112880000Y-97850000D02*
X112880000Y-101180000D01*
X112880000Y-97850000D02*
X126200000Y-97850000D01*
X112880000Y-112810000D02*
X112230000Y-112810000D01*
X112880000Y-112810000D02*
X112880000Y-104700000D01*
X115140000Y-97630000D02*
X116940000Y-97630000D01*
X126200000Y-97850000D02*
X126200000Y-101180000D01*
X126200000Y-104700000D02*
X126200000Y-112810000D01*
X126850000Y-112810000D02*
X126200000Y-112810000D01*
X126850000Y-113330000D02*
X126850000Y-112810000D01*
%TO.C,Q6*%
X152360000Y-84360000D02*
X152360000Y-89001000D01*
X152360000Y-84360000D02*
X162600000Y-84360000D01*
X152360000Y-85870000D02*
X162600000Y-85870000D01*
X152360000Y-89001000D02*
X162600000Y-89001000D01*
X155630000Y-84360000D02*
X155630000Y-85870000D01*
X159331000Y-84360000D02*
X159331000Y-85870000D01*
X162600000Y-84360000D02*
X162600000Y-89001000D01*
%TO.C,C1*%
X99000000Y-65580000D02*
X96818000Y-65580000D01*
X99000000Y-65620000D02*
X96822000Y-65620000D01*
X99000000Y-65660000D02*
X96825000Y-65660000D01*
X99000000Y-65700000D02*
X96829000Y-65700000D01*
X99000000Y-65740000D02*
X96834000Y-65740000D01*
X99000000Y-65780000D02*
X96839000Y-65780000D01*
X99000000Y-65820000D02*
X96845000Y-65820000D01*
X99000000Y-65860000D02*
X96851000Y-65860000D01*
X99000000Y-65900000D02*
X96858000Y-65900000D01*
X99000000Y-65940000D02*
X96865000Y-65940000D01*
X99000000Y-65980000D02*
X96873000Y-65980000D01*
X99000000Y-66020000D02*
X96881000Y-66020000D01*
X99000000Y-66061000D02*
X96890000Y-66061000D01*
X99000000Y-66101000D02*
X96899000Y-66101000D01*
X99000000Y-66141000D02*
X96909000Y-66141000D01*
X99000000Y-66181000D02*
X96919000Y-66181000D01*
X99000000Y-66221000D02*
X96930000Y-66221000D01*
X99000000Y-66261000D02*
X96942000Y-66261000D01*
X99000000Y-66301000D02*
X96954000Y-66301000D01*
X99000000Y-66341000D02*
X96966000Y-66341000D01*
X99000000Y-66381000D02*
X96979000Y-66381000D01*
X99000000Y-66421000D02*
X96993000Y-66421000D01*
X99000000Y-66461000D02*
X97007000Y-66461000D01*
X99000000Y-66501000D02*
X97022000Y-66501000D01*
X99000000Y-66541000D02*
X97038000Y-66541000D01*
X99000000Y-66581000D02*
X97054000Y-66581000D01*
X99000000Y-66621000D02*
X97070000Y-66621000D01*
X99000000Y-66661000D02*
X97088000Y-66661000D01*
X99000000Y-66701000D02*
X97106000Y-66701000D01*
X99000000Y-66741000D02*
X97124000Y-66741000D01*
X99000000Y-66781000D02*
X97144000Y-66781000D01*
X99000000Y-66821000D02*
X97164000Y-66821000D01*
X99000000Y-66861000D02*
X97184000Y-66861000D01*
X99000000Y-66901000D02*
X97206000Y-66901000D01*
X99000000Y-66941000D02*
X97228000Y-66941000D01*
X99000000Y-66981000D02*
X97250000Y-66981000D01*
X99000000Y-67021000D02*
X97274000Y-67021000D01*
X99000000Y-67061000D02*
X97298000Y-67061000D01*
X99000000Y-67101000D02*
X97324000Y-67101000D01*
X99000000Y-67141000D02*
X97350000Y-67141000D01*
X99000000Y-67181000D02*
X97376000Y-67181000D01*
X99000000Y-67221000D02*
X97404000Y-67221000D01*
X99000000Y-67261000D02*
X97433000Y-67261000D01*
X99000000Y-67301000D02*
X97462000Y-67301000D01*
X99000000Y-67341000D02*
X97492000Y-67341000D01*
X99000000Y-67381000D02*
X97524000Y-67381000D01*
X99000000Y-67421000D02*
X97556000Y-67421000D01*
X99000000Y-67461000D02*
X97590000Y-67461000D01*
X99000000Y-67501000D02*
X97624000Y-67501000D01*
X99000000Y-67541000D02*
X97660000Y-67541000D01*
X99000000Y-67581000D02*
X97697000Y-67581000D01*
X99000000Y-67621000D02*
X97735000Y-67621000D01*
X100442000Y-68581000D02*
X99638000Y-68581000D01*
X100673000Y-68541000D02*
X99407000Y-68541000D01*
X100842000Y-68501000D02*
X99238000Y-68501000D01*
X100980000Y-68461000D02*
X99100000Y-68461000D01*
X101099000Y-68421000D02*
X98981000Y-68421000D01*
X101205000Y-68381000D02*
X98875000Y-68381000D01*
X101302000Y-68341000D02*
X98778000Y-68341000D01*
X101390000Y-68301000D02*
X98690000Y-68301000D01*
X101472000Y-68261000D02*
X98608000Y-68261000D01*
X101549000Y-68221000D02*
X98531000Y-68221000D01*
X101621000Y-68181000D02*
X98459000Y-68181000D01*
X101690000Y-68141000D02*
X98390000Y-68141000D01*
X101754000Y-68101000D02*
X98326000Y-68101000D01*
X101816000Y-68061000D02*
X98264000Y-68061000D01*
X101874000Y-68021000D02*
X98206000Y-68021000D01*
X101879000Y-61839759D02*
X101879000Y-62469759D01*
X101930000Y-67981000D02*
X98150000Y-67981000D01*
X101984000Y-67941000D02*
X98096000Y-67941000D01*
X102035000Y-67901000D02*
X98045000Y-67901000D01*
X102084000Y-67861000D02*
X97996000Y-67861000D01*
X102132000Y-67821000D02*
X97948000Y-67821000D01*
X102177000Y-67781000D02*
X97903000Y-67781000D01*
X102194000Y-62154759D02*
X101564000Y-62154759D01*
X102222000Y-67741000D02*
X97858000Y-67741000D01*
X102264000Y-67701000D02*
X97816000Y-67701000D01*
X102305000Y-67661000D02*
X97775000Y-67661000D01*
X102345000Y-67621000D02*
X101080000Y-67621000D01*
X102383000Y-67581000D02*
X101080000Y-67581000D01*
X102420000Y-67541000D02*
X101080000Y-67541000D01*
X102456000Y-67501000D02*
X101080000Y-67501000D01*
X102490000Y-67461000D02*
X101080000Y-67461000D01*
X102524000Y-67421000D02*
X101080000Y-67421000D01*
X102556000Y-67381000D02*
X101080000Y-67381000D01*
X102588000Y-67341000D02*
X101080000Y-67341000D01*
X102618000Y-67301000D02*
X101080000Y-67301000D01*
X102647000Y-67261000D02*
X101080000Y-67261000D01*
X102676000Y-67221000D02*
X101080000Y-67221000D01*
X102704000Y-67181000D02*
X101080000Y-67181000D01*
X102730000Y-67141000D02*
X101080000Y-67141000D01*
X102756000Y-67101000D02*
X101080000Y-67101000D01*
X102782000Y-67061000D02*
X101080000Y-67061000D01*
X102806000Y-67021000D02*
X101080000Y-67021000D01*
X102830000Y-66981000D02*
X101080000Y-66981000D01*
X102852000Y-66941000D02*
X101080000Y-66941000D01*
X102874000Y-66901000D02*
X101080000Y-66901000D01*
X102896000Y-66861000D02*
X101080000Y-66861000D01*
X102916000Y-66821000D02*
X101080000Y-66821000D01*
X102936000Y-66781000D02*
X101080000Y-66781000D01*
X102956000Y-66741000D02*
X101080000Y-66741000D01*
X102974000Y-66701000D02*
X101080000Y-66701000D01*
X102992000Y-66661000D02*
X101080000Y-66661000D01*
X103010000Y-66621000D02*
X101080000Y-66621000D01*
X103026000Y-66581000D02*
X101080000Y-66581000D01*
X103042000Y-66541000D02*
X101080000Y-66541000D01*
X103058000Y-66501000D02*
X101080000Y-66501000D01*
X103073000Y-66461000D02*
X101080000Y-66461000D01*
X103087000Y-66421000D02*
X101080000Y-66421000D01*
X103101000Y-66381000D02*
X101080000Y-66381000D01*
X103114000Y-66341000D02*
X101080000Y-66341000D01*
X103126000Y-66301000D02*
X101080000Y-66301000D01*
X103138000Y-66261000D02*
X101080000Y-66261000D01*
X103150000Y-66221000D02*
X101080000Y-66221000D01*
X103161000Y-66181000D02*
X101080000Y-66181000D01*
X103171000Y-66141000D02*
X101080000Y-66141000D01*
X103181000Y-66101000D02*
X101080000Y-66101000D01*
X103190000Y-66061000D02*
X101080000Y-66061000D01*
X103199000Y-66020000D02*
X101080000Y-66020000D01*
X103207000Y-65980000D02*
X101080000Y-65980000D01*
X103215000Y-65940000D02*
X101080000Y-65940000D01*
X103222000Y-65900000D02*
X101080000Y-65900000D01*
X103229000Y-65860000D02*
X101080000Y-65860000D01*
X103235000Y-65820000D02*
X101080000Y-65820000D01*
X103241000Y-65780000D02*
X101080000Y-65780000D01*
X103246000Y-65740000D02*
X101080000Y-65740000D01*
X103251000Y-65700000D02*
X101080000Y-65700000D01*
X103255000Y-65660000D02*
X101080000Y-65660000D01*
X103258000Y-65620000D02*
X101080000Y-65620000D01*
X103262000Y-65580000D02*
X101080000Y-65580000D01*
X103264000Y-65540000D02*
X96816000Y-65540000D01*
X103267000Y-65500000D02*
X96813000Y-65500000D01*
X103268000Y-65460000D02*
X96812000Y-65460000D01*
X103270000Y-65340000D02*
X96810000Y-65340000D01*
X103270000Y-65380000D02*
X96810000Y-65380000D01*
X103270000Y-65420000D02*
X96810000Y-65420000D01*
X103310000Y-65340000D02*
G75*
G02*
X96770000Y-65340000I-3270000J0D01*
G01*
X96770000Y-65340000D02*
G75*
G02*
X103310000Y-65340000I3270000J0D01*
G01*
%TO.C,CN1*%
X77350000Y-96610000D02*
X77350000Y-111230000D01*
X77350000Y-111230000D02*
X77870000Y-111230000D01*
X77870000Y-96610000D02*
X77350000Y-96610000D01*
X77870000Y-97260000D02*
X77870000Y-96610000D01*
X77870000Y-97260000D02*
X85980000Y-97260000D01*
X77870000Y-111230000D02*
X77870000Y-110580000D01*
X85980000Y-110580000D02*
X77870000Y-110580000D01*
X92830000Y-97260000D02*
X89500000Y-97260000D01*
X92830000Y-97260000D02*
X92830000Y-110580000D01*
X92830000Y-110580000D02*
X89500000Y-110580000D01*
X93050000Y-99520000D02*
X93050000Y-101320000D01*
%TO.C,Q2*%
X106640000Y-84360000D02*
X106640000Y-89001000D01*
X106640000Y-84360000D02*
X116880000Y-84360000D01*
X106640000Y-85870000D02*
X116880000Y-85870000D01*
X106640000Y-89001000D02*
X116880000Y-89001000D01*
X109910000Y-84360000D02*
X109910000Y-85870000D01*
X113611000Y-84360000D02*
X113611000Y-85870000D01*
X116880000Y-84360000D02*
X116880000Y-89001000D01*
%TO.C,R4*%
X104660000Y-91170000D02*
X108500000Y-91170000D01*
X104660000Y-93010000D02*
X108500000Y-93010000D01*
%TO.C,R8*%
X154660000Y-91170000D02*
X158500000Y-91170000D01*
X154660000Y-93010000D02*
X158500000Y-93010000D01*
%TO.C,D4*%
X136250000Y-92354000D02*
X136250000Y-92510000D01*
X136250000Y-94670000D02*
X136250000Y-94826000D01*
X136250000Y-92354484D02*
G75*
G02*
X139482335Y-92511392I1560000J-1235516D01*
G01*
X136769039Y-92510000D02*
G75*
G02*
X138851130Y-92510163I1040961J-1080000D01*
G01*
X138851130Y-94669837D02*
G75*
G02*
X136769039Y-94670000I-1041130J1079837D01*
G01*
X139482335Y-94668608D02*
G75*
G02*
X136250000Y-94825516I-1672335J1078608D01*
G01*
%TO.C,D3*%
X123710000Y-92354000D02*
X123710000Y-92510000D01*
X123710000Y-94670000D02*
X123710000Y-94826000D01*
X123710000Y-92354484D02*
G75*
G02*
X126942335Y-92511392I1560000J-1235516D01*
G01*
X124229039Y-92510000D02*
G75*
G02*
X126311130Y-92510163I1040961J-1080000D01*
G01*
X126311130Y-94669837D02*
G75*
G02*
X124229039Y-94670000I-1041130J1079837D01*
G01*
X126942335Y-94668608D02*
G75*
G02*
X123710000Y-94825516I-1672335J1078608D01*
G01*
%TO.C,Q5*%
X140930000Y-84360000D02*
X140930000Y-89001000D01*
X140930000Y-84360000D02*
X151170000Y-84360000D01*
X140930000Y-85870000D02*
X151170000Y-85870000D01*
X140930000Y-89001000D02*
X151170000Y-89001000D01*
X144200000Y-84360000D02*
X144200000Y-85870000D01*
X147901000Y-84360000D02*
X147901000Y-85870000D01*
X151170000Y-84360000D02*
X151170000Y-89001000D01*
%TO.C,R1*%
X88980000Y-80090000D02*
X89930000Y-80090000D01*
X89930000Y-79170000D02*
X89930000Y-81010000D01*
X89930000Y-81010000D02*
X93770000Y-81010000D01*
X93770000Y-79170000D02*
X89930000Y-79170000D01*
X93770000Y-81010000D02*
X93770000Y-79170000D01*
X94720000Y-80090000D02*
X93770000Y-80090000D01*
%TO.C,R5*%
X117120000Y-91170000D02*
X120960000Y-91170000D01*
X117120000Y-93010000D02*
X120960000Y-93010000D01*
%TO.C,Q4*%
X129500000Y-84360000D02*
X129500000Y-89001000D01*
X129500000Y-84360000D02*
X139740000Y-84360000D01*
X129500000Y-85870000D02*
X139740000Y-85870000D01*
X129500000Y-89001000D02*
X139740000Y-89001000D01*
X132770000Y-84360000D02*
X132770000Y-85870000D01*
X136471000Y-84360000D02*
X136471000Y-85870000D01*
X139740000Y-84360000D02*
X139740000Y-89001000D01*
%TO.C,CN2*%
X94510000Y-112810000D02*
X94510000Y-113330000D01*
X94510000Y-113330000D02*
X109130000Y-113330000D01*
X95160000Y-97850000D02*
X95160000Y-101180000D01*
X95160000Y-97850000D02*
X108480000Y-97850000D01*
X95160000Y-112810000D02*
X94510000Y-112810000D01*
X95160000Y-112810000D02*
X95160000Y-104700000D01*
X97420000Y-97630000D02*
X99220000Y-97630000D01*
X108480000Y-97850000D02*
X108480000Y-101180000D01*
X108480000Y-104700000D02*
X108480000Y-112810000D01*
X109130000Y-112810000D02*
X108480000Y-112810000D01*
X109130000Y-113330000D02*
X109130000Y-112810000D01*
%TO.C,CN5*%
X147410000Y-112810000D02*
X147410000Y-113330000D01*
X147410000Y-113330000D02*
X162030000Y-113330000D01*
X148060000Y-97850000D02*
X148060000Y-101180000D01*
X148060000Y-97850000D02*
X161380000Y-97850000D01*
X148060000Y-112810000D02*
X147410000Y-112810000D01*
X148060000Y-112810000D02*
X148060000Y-104700000D01*
X150320000Y-97630000D02*
X152120000Y-97630000D01*
X161380000Y-97850000D02*
X161380000Y-101180000D01*
X161380000Y-104700000D02*
X161380000Y-112810000D01*
X162030000Y-112810000D02*
X161380000Y-112810000D01*
X162030000Y-113330000D02*
X162030000Y-112810000D01*
%TO.C,Q3*%
X118070000Y-84360000D02*
X118070000Y-89001000D01*
X118070000Y-84360000D02*
X128310000Y-84360000D01*
X118070000Y-85870000D02*
X128310000Y-85870000D01*
X118070000Y-89001000D02*
X128310000Y-89001000D01*
X121340000Y-84360000D02*
X121340000Y-85870000D01*
X125041000Y-84360000D02*
X125041000Y-85870000D01*
X128310000Y-84360000D02*
X128310000Y-89001000D01*
%TO.C,Q1*%
X95210000Y-84360000D02*
X95210000Y-89001000D01*
X95210000Y-84360000D02*
X105450000Y-84360000D01*
X95210000Y-85870000D02*
X105450000Y-85870000D01*
X95210000Y-89001000D02*
X105450000Y-89001000D01*
X98480000Y-84360000D02*
X98480000Y-85870000D01*
X102181000Y-84360000D02*
X102181000Y-85870000D01*
X105450000Y-84360000D02*
X105450000Y-89001000D01*
%TO.C,A1*%
X106550000Y-64640000D02*
X106550000Y-82680000D01*
X106550000Y-82680000D02*
X109220000Y-82680000D01*
X109220000Y-67310000D02*
X109220000Y-64640000D01*
X109220000Y-67310000D02*
X147320000Y-67310000D01*
X109220000Y-80010000D02*
X109220000Y-82680000D01*
X111760000Y-80010000D02*
X109220000Y-80010000D01*
X111760000Y-80010000D02*
X111760000Y-82680000D01*
X111760000Y-80010000D02*
X147320000Y-80010000D01*
X111760000Y-82680000D02*
X149990000Y-82680000D01*
X142110000Y-69720000D02*
X152530000Y-69720000D01*
X142110000Y-77600000D02*
X142110000Y-69720000D01*
X147320000Y-67310000D02*
X147320000Y-64640000D01*
X147320000Y-80010000D02*
X147320000Y-82680000D01*
X149990000Y-64640000D02*
X106550000Y-64640000D01*
X149990000Y-64640000D02*
X149990000Y-69720000D01*
X149990000Y-82680000D02*
X149990000Y-77600000D01*
X152530000Y-69720000D02*
X152530000Y-77600000D01*
X152530000Y-77600000D02*
X142110000Y-77600000D01*
%TO.C,R6*%
X129620000Y-91170000D02*
X133460000Y-91170000D01*
X129620000Y-93010000D02*
X133460000Y-93010000D01*
%TO.C,REF\u002A\u002A*%
X167210000Y-71760000D02*
X168540000Y-71760000D01*
X167210000Y-73090000D02*
X167210000Y-71760000D01*
X167210000Y-74360000D02*
X167210000Y-76960000D01*
X167210000Y-74360000D02*
X169870000Y-74360000D01*
X167210000Y-76960000D02*
X169870000Y-76960000D01*
X169870000Y-74360000D02*
X169870000Y-76960000D01*
%TO.C,J1*%
X118050000Y-58130000D02*
X118050000Y-60790000D01*
X118050000Y-60790000D02*
X138490000Y-60790000D01*
X118110000Y-63500000D02*
X118110000Y-62230000D01*
X119000000Y-52130000D02*
X119760000Y-52130000D01*
X119000000Y-58130000D02*
X119000000Y-52130000D01*
X119000000Y-61120000D02*
X119000000Y-60790000D01*
X119060000Y-58130000D02*
X119060000Y-52130000D01*
X119180000Y-58130000D02*
X119180000Y-52130000D01*
X119300000Y-58130000D02*
X119300000Y-52130000D01*
X119380000Y-63500000D02*
X118110000Y-63500000D01*
X119420000Y-58130000D02*
X119420000Y-52130000D01*
X119540000Y-58130000D02*
X119540000Y-52130000D01*
X119660000Y-58130000D02*
X119660000Y-52130000D01*
X119760000Y-52130000D02*
X119760000Y-58130000D01*
X119760000Y-61120000D02*
X119760000Y-60790000D01*
X120650000Y-60790000D02*
X120650000Y-58130000D01*
X121540000Y-52130000D02*
X122300000Y-52130000D01*
X121540000Y-58130000D02*
X121540000Y-52130000D01*
X121540000Y-61187071D02*
X121540000Y-60790000D01*
X122300000Y-52130000D02*
X122300000Y-58130000D01*
X122300000Y-61187071D02*
X122300000Y-60790000D01*
X123190000Y-60790000D02*
X123190000Y-58130000D01*
X124080000Y-52130000D02*
X124840000Y-52130000D01*
X124080000Y-58130000D02*
X124080000Y-52130000D01*
X124080000Y-61187071D02*
X124080000Y-60790000D01*
X124840000Y-52130000D02*
X124840000Y-58130000D01*
X124840000Y-61187071D02*
X124840000Y-60790000D01*
X125730000Y-60790000D02*
X125730000Y-58130000D01*
X126620000Y-52130000D02*
X127380000Y-52130000D01*
X126620000Y-58130000D02*
X126620000Y-52130000D01*
X126620000Y-61187071D02*
X126620000Y-60790000D01*
X127380000Y-52130000D02*
X127380000Y-58130000D01*
X127380000Y-61187071D02*
X127380000Y-60790000D01*
X128270000Y-60790000D02*
X128270000Y-58130000D01*
X129160000Y-52130000D02*
X129920000Y-52130000D01*
X129160000Y-58130000D02*
X129160000Y-52130000D01*
X129160000Y-61187071D02*
X129160000Y-60790000D01*
X129920000Y-52130000D02*
X129920000Y-58130000D01*
X129920000Y-61187071D02*
X129920000Y-60790000D01*
X130810000Y-60790000D02*
X130810000Y-58130000D01*
X131700000Y-52130000D02*
X132460000Y-52130000D01*
X131700000Y-58130000D02*
X131700000Y-52130000D01*
X131700000Y-61187071D02*
X131700000Y-60790000D01*
X132460000Y-52130000D02*
X132460000Y-58130000D01*
X132460000Y-61187071D02*
X132460000Y-60790000D01*
X133350000Y-60790000D02*
X133350000Y-58130000D01*
X134240000Y-52130000D02*
X135000000Y-52130000D01*
X134240000Y-58130000D02*
X134240000Y-52130000D01*
X134240000Y-61187071D02*
X134240000Y-60790000D01*
X135000000Y-52130000D02*
X135000000Y-58130000D01*
X135000000Y-61187071D02*
X135000000Y-60790000D01*
X135890000Y-60790000D02*
X135890000Y-58130000D01*
X136780000Y-52130000D02*
X137540000Y-52130000D01*
X136780000Y-58130000D02*
X136780000Y-52130000D01*
X136780000Y-61187071D02*
X136780000Y-60790000D01*
X137540000Y-52130000D02*
X137540000Y-58130000D01*
X137540000Y-61187071D02*
X137540000Y-60790000D01*
X138490000Y-58130000D02*
X118050000Y-58130000D01*
X138490000Y-60790000D02*
X138490000Y-58130000D01*
%TO.C,D2*%
X111210000Y-92354000D02*
X111210000Y-92510000D01*
X111210000Y-94670000D02*
X111210000Y-94826000D01*
X111210000Y-92354484D02*
G75*
G02*
X114442335Y-92511392I1560000J-1235516D01*
G01*
X111729039Y-92510000D02*
G75*
G02*
X113811130Y-92510163I1040961J-1080000D01*
G01*
X113811130Y-94669837D02*
G75*
G02*
X111729039Y-94670000I-1041130J1079837D01*
G01*
X114442335Y-94668608D02*
G75*
G02*
X111210000Y-94825516I-1672335J1078608D01*
G01*
%TD*%
M02*
