%TF.GenerationSoftware,KiCad,Pcbnew,9.0.0*%
%TF.CreationDate,2025-03-22T14:56:06+10:00*%
%TF.ProjectId,ngmarquee.kicad_pcb_to220_1.0_m3,6e676d61-7271-4756-9565-2e6b69636164,rev?*%
%TF.SameCoordinates,Original*%
%TF.FileFunction,Legend,Top*%
%TF.FilePolarity,Positive*%
%FSLAX46Y46*%
G04 Gerber Fmt 4.6, Leading zero omitted, Abs format (unit mm)*
G04 Created by KiCad (PCBNEW 9.0.0) date 2025-03-22 14:56:06*
%MOMM*%
%LPD*%
G01*
G04 APERTURE LIST*
%ADD10C,0.100000*%
%ADD11C,0.150000*%
%ADD12C,0.300000*%
%ADD13C,0.120000*%
G04 APERTURE END LIST*
D10*
X114405789Y-99198940D02*
X114405789Y-98398940D01*
X114405789Y-98398940D02*
X114710551Y-98398940D01*
X114710551Y-98398940D02*
X114786741Y-98437035D01*
X114786741Y-98437035D02*
X114824836Y-98475130D01*
X114824836Y-98475130D02*
X114862932Y-98551321D01*
X114862932Y-98551321D02*
X114862932Y-98665606D01*
X114862932Y-98665606D02*
X114824836Y-98741797D01*
X114824836Y-98741797D02*
X114786741Y-98779892D01*
X114786741Y-98779892D02*
X114710551Y-98817987D01*
X114710551Y-98817987D02*
X114405789Y-98817987D01*
X115548646Y-99198940D02*
X115548646Y-98779892D01*
X115548646Y-98779892D02*
X115510551Y-98703702D01*
X115510551Y-98703702D02*
X115434360Y-98665606D01*
X115434360Y-98665606D02*
X115281979Y-98665606D01*
X115281979Y-98665606D02*
X115205789Y-98703702D01*
X115548646Y-99160845D02*
X115472455Y-99198940D01*
X115472455Y-99198940D02*
X115281979Y-99198940D01*
X115281979Y-99198940D02*
X115205789Y-99160845D01*
X115205789Y-99160845D02*
X115167693Y-99084654D01*
X115167693Y-99084654D02*
X115167693Y-99008464D01*
X115167693Y-99008464D02*
X115205789Y-98932273D01*
X115205789Y-98932273D02*
X115281979Y-98894178D01*
X115281979Y-98894178D02*
X115472455Y-98894178D01*
X115472455Y-98894178D02*
X115548646Y-98856083D01*
X115929599Y-98665606D02*
X115929599Y-99198940D01*
X115929599Y-98741797D02*
X115967694Y-98703702D01*
X115967694Y-98703702D02*
X116043884Y-98665606D01*
X116043884Y-98665606D02*
X116158170Y-98665606D01*
X116158170Y-98665606D02*
X116234361Y-98703702D01*
X116234361Y-98703702D02*
X116272456Y-98779892D01*
X116272456Y-98779892D02*
X116272456Y-99198940D01*
X116958171Y-99160845D02*
X116881980Y-99198940D01*
X116881980Y-99198940D02*
X116729599Y-99198940D01*
X116729599Y-99198940D02*
X116653409Y-99160845D01*
X116653409Y-99160845D02*
X116615313Y-99084654D01*
X116615313Y-99084654D02*
X116615313Y-98779892D01*
X116615313Y-98779892D02*
X116653409Y-98703702D01*
X116653409Y-98703702D02*
X116729599Y-98665606D01*
X116729599Y-98665606D02*
X116881980Y-98665606D01*
X116881980Y-98665606D02*
X116958171Y-98703702D01*
X116958171Y-98703702D02*
X116996266Y-98779892D01*
X116996266Y-98779892D02*
X116996266Y-98856083D01*
X116996266Y-98856083D02*
X116615313Y-98932273D01*
X117453408Y-99198940D02*
X117377218Y-99160845D01*
X117377218Y-99160845D02*
X117339123Y-99084654D01*
X117339123Y-99084654D02*
X117339123Y-98398940D01*
X118786742Y-99198940D02*
X118329599Y-99198940D01*
X118558171Y-99198940D02*
X118558171Y-98398940D01*
X118558171Y-98398940D02*
X118481980Y-98513225D01*
X118481980Y-98513225D02*
X118405790Y-98589416D01*
X118405790Y-98589416D02*
X118329599Y-98627511D01*
X115015313Y-100182133D02*
X115624837Y-100182133D01*
X115320075Y-100486895D02*
X115320075Y-99877371D01*
X117834361Y-100182133D02*
X118443885Y-100182133D01*
D11*
X135376779Y-91459819D02*
X135376779Y-90459819D01*
X135376779Y-90459819D02*
X135614874Y-90459819D01*
X135614874Y-90459819D02*
X135757731Y-90507438D01*
X135757731Y-90507438D02*
X135852969Y-90602676D01*
X135852969Y-90602676D02*
X135900588Y-90697914D01*
X135900588Y-90697914D02*
X135948207Y-90888390D01*
X135948207Y-90888390D02*
X135948207Y-91031247D01*
X135948207Y-91031247D02*
X135900588Y-91221723D01*
X135900588Y-91221723D02*
X135852969Y-91316961D01*
X135852969Y-91316961D02*
X135757731Y-91412200D01*
X135757731Y-91412200D02*
X135614874Y-91459819D01*
X135614874Y-91459819D02*
X135376779Y-91459819D01*
X136805350Y-90793152D02*
X136805350Y-91459819D01*
X136567255Y-90412200D02*
X136329160Y-91126485D01*
X136329160Y-91126485D02*
X136948207Y-91126485D01*
X97329160Y-81055057D02*
X97376779Y-81007438D01*
X97376779Y-81007438D02*
X97472017Y-80959819D01*
X97472017Y-80959819D02*
X97710112Y-80959819D01*
X97710112Y-80959819D02*
X97805350Y-81007438D01*
X97805350Y-81007438D02*
X97852969Y-81055057D01*
X97852969Y-81055057D02*
X97900588Y-81150295D01*
X97900588Y-81150295D02*
X97900588Y-81245533D01*
X97900588Y-81245533D02*
X97852969Y-81388390D01*
X97852969Y-81388390D02*
X97281541Y-81959819D01*
X97281541Y-81959819D02*
X97900588Y-81959819D01*
X98519636Y-80959819D02*
X98614874Y-80959819D01*
X98614874Y-80959819D02*
X98710112Y-81007438D01*
X98710112Y-81007438D02*
X98757731Y-81055057D01*
X98757731Y-81055057D02*
X98805350Y-81150295D01*
X98805350Y-81150295D02*
X98852969Y-81340771D01*
X98852969Y-81340771D02*
X98852969Y-81578866D01*
X98852969Y-81578866D02*
X98805350Y-81769342D01*
X98805350Y-81769342D02*
X98757731Y-81864580D01*
X98757731Y-81864580D02*
X98710112Y-81912200D01*
X98710112Y-81912200D02*
X98614874Y-81959819D01*
X98614874Y-81959819D02*
X98519636Y-81959819D01*
X98519636Y-81959819D02*
X98424398Y-81912200D01*
X98424398Y-81912200D02*
X98376779Y-81864580D01*
X98376779Y-81864580D02*
X98329160Y-81769342D01*
X98329160Y-81769342D02*
X98281541Y-81578866D01*
X98281541Y-81578866D02*
X98281541Y-81340771D01*
X98281541Y-81340771D02*
X98329160Y-81150295D01*
X98329160Y-81150295D02*
X98376779Y-81055057D01*
X98376779Y-81055057D02*
X98424398Y-81007438D01*
X98424398Y-81007438D02*
X98519636Y-80959819D01*
X99281541Y-81959819D02*
X99281541Y-80959819D01*
X99376779Y-81578866D02*
X99662493Y-81959819D01*
X99662493Y-81293152D02*
X99281541Y-81674104D01*
D10*
X124905789Y-99198940D02*
X124905789Y-98398940D01*
X124905789Y-98398940D02*
X125210551Y-98398940D01*
X125210551Y-98398940D02*
X125286741Y-98437035D01*
X125286741Y-98437035D02*
X125324836Y-98475130D01*
X125324836Y-98475130D02*
X125362932Y-98551321D01*
X125362932Y-98551321D02*
X125362932Y-98665606D01*
X125362932Y-98665606D02*
X125324836Y-98741797D01*
X125324836Y-98741797D02*
X125286741Y-98779892D01*
X125286741Y-98779892D02*
X125210551Y-98817987D01*
X125210551Y-98817987D02*
X124905789Y-98817987D01*
X126048646Y-99198940D02*
X126048646Y-98779892D01*
X126048646Y-98779892D02*
X126010551Y-98703702D01*
X126010551Y-98703702D02*
X125934360Y-98665606D01*
X125934360Y-98665606D02*
X125781979Y-98665606D01*
X125781979Y-98665606D02*
X125705789Y-98703702D01*
X126048646Y-99160845D02*
X125972455Y-99198940D01*
X125972455Y-99198940D02*
X125781979Y-99198940D01*
X125781979Y-99198940D02*
X125705789Y-99160845D01*
X125705789Y-99160845D02*
X125667693Y-99084654D01*
X125667693Y-99084654D02*
X125667693Y-99008464D01*
X125667693Y-99008464D02*
X125705789Y-98932273D01*
X125705789Y-98932273D02*
X125781979Y-98894178D01*
X125781979Y-98894178D02*
X125972455Y-98894178D01*
X125972455Y-98894178D02*
X126048646Y-98856083D01*
X126429599Y-98665606D02*
X126429599Y-99198940D01*
X126429599Y-98741797D02*
X126467694Y-98703702D01*
X126467694Y-98703702D02*
X126543884Y-98665606D01*
X126543884Y-98665606D02*
X126658170Y-98665606D01*
X126658170Y-98665606D02*
X126734361Y-98703702D01*
X126734361Y-98703702D02*
X126772456Y-98779892D01*
X126772456Y-98779892D02*
X126772456Y-99198940D01*
X127458171Y-99160845D02*
X127381980Y-99198940D01*
X127381980Y-99198940D02*
X127229599Y-99198940D01*
X127229599Y-99198940D02*
X127153409Y-99160845D01*
X127153409Y-99160845D02*
X127115313Y-99084654D01*
X127115313Y-99084654D02*
X127115313Y-98779892D01*
X127115313Y-98779892D02*
X127153409Y-98703702D01*
X127153409Y-98703702D02*
X127229599Y-98665606D01*
X127229599Y-98665606D02*
X127381980Y-98665606D01*
X127381980Y-98665606D02*
X127458171Y-98703702D01*
X127458171Y-98703702D02*
X127496266Y-98779892D01*
X127496266Y-98779892D02*
X127496266Y-98856083D01*
X127496266Y-98856083D02*
X127115313Y-98932273D01*
X127953408Y-99198940D02*
X127877218Y-99160845D01*
X127877218Y-99160845D02*
X127839123Y-99084654D01*
X127839123Y-99084654D02*
X127839123Y-98398940D01*
X128791504Y-98398940D02*
X129286742Y-98398940D01*
X129286742Y-98398940D02*
X129020076Y-98703702D01*
X129020076Y-98703702D02*
X129134361Y-98703702D01*
X129134361Y-98703702D02*
X129210552Y-98741797D01*
X129210552Y-98741797D02*
X129248647Y-98779892D01*
X129248647Y-98779892D02*
X129286742Y-98856083D01*
X129286742Y-98856083D02*
X129286742Y-99046559D01*
X129286742Y-99046559D02*
X129248647Y-99122749D01*
X129248647Y-99122749D02*
X129210552Y-99160845D01*
X129210552Y-99160845D02*
X129134361Y-99198940D01*
X129134361Y-99198940D02*
X128905790Y-99198940D01*
X128905790Y-99198940D02*
X128829599Y-99160845D01*
X128829599Y-99160845D02*
X128791504Y-99122749D01*
X125515313Y-100182133D02*
X126124837Y-100182133D01*
X125820075Y-100486895D02*
X125820075Y-99877371D01*
X128334361Y-100182133D02*
X128943885Y-100182133D01*
D12*
X120594510Y-93819400D02*
X121737368Y-93819400D01*
X121165939Y-94390828D02*
X121165939Y-93247971D01*
X125014510Y-62030828D02*
X125014510Y-60530828D01*
X125728796Y-61030828D02*
X125728796Y-62030828D01*
X125728796Y-61173685D02*
X125800225Y-61102257D01*
X125800225Y-61102257D02*
X125943082Y-61030828D01*
X125943082Y-61030828D02*
X126157368Y-61030828D01*
X126157368Y-61030828D02*
X126300225Y-61102257D01*
X126300225Y-61102257D02*
X126371654Y-61245114D01*
X126371654Y-61245114D02*
X126371654Y-62030828D01*
X127085939Y-61030828D02*
X127085939Y-62530828D01*
X127085939Y-61102257D02*
X127228797Y-61030828D01*
X127228797Y-61030828D02*
X127514511Y-61030828D01*
X127514511Y-61030828D02*
X127657368Y-61102257D01*
X127657368Y-61102257D02*
X127728797Y-61173685D01*
X127728797Y-61173685D02*
X127800225Y-61316542D01*
X127800225Y-61316542D02*
X127800225Y-61745114D01*
X127800225Y-61745114D02*
X127728797Y-61887971D01*
X127728797Y-61887971D02*
X127657368Y-61959400D01*
X127657368Y-61959400D02*
X127514511Y-62030828D01*
X127514511Y-62030828D02*
X127228797Y-62030828D01*
X127228797Y-62030828D02*
X127085939Y-61959400D01*
X129085940Y-61030828D02*
X129085940Y-62030828D01*
X128443082Y-61030828D02*
X128443082Y-61816542D01*
X128443082Y-61816542D02*
X128514511Y-61959400D01*
X128514511Y-61959400D02*
X128657368Y-62030828D01*
X128657368Y-62030828D02*
X128871654Y-62030828D01*
X128871654Y-62030828D02*
X129014511Y-61959400D01*
X129014511Y-61959400D02*
X129085940Y-61887971D01*
X129585940Y-61030828D02*
X130157368Y-61030828D01*
X129800225Y-60530828D02*
X129800225Y-61816542D01*
X129800225Y-61816542D02*
X129871654Y-61959400D01*
X129871654Y-61959400D02*
X130014511Y-62030828D01*
X130014511Y-62030828D02*
X130157368Y-62030828D01*
X138880225Y-61462257D02*
X138737368Y-61390828D01*
X138737368Y-61390828D02*
X138523082Y-61390828D01*
X138523082Y-61390828D02*
X138308796Y-61462257D01*
X138308796Y-61462257D02*
X138165939Y-61605114D01*
X138165939Y-61605114D02*
X138094510Y-61747971D01*
X138094510Y-61747971D02*
X138023082Y-62033685D01*
X138023082Y-62033685D02*
X138023082Y-62247971D01*
X138023082Y-62247971D02*
X138094510Y-62533685D01*
X138094510Y-62533685D02*
X138165939Y-62676542D01*
X138165939Y-62676542D02*
X138308796Y-62819400D01*
X138308796Y-62819400D02*
X138523082Y-62890828D01*
X138523082Y-62890828D02*
X138665939Y-62890828D01*
X138665939Y-62890828D02*
X138880225Y-62819400D01*
X138880225Y-62819400D02*
X138951653Y-62747971D01*
X138951653Y-62747971D02*
X138951653Y-62247971D01*
X138951653Y-62247971D02*
X138665939Y-62247971D01*
X139594510Y-62890828D02*
X139594510Y-61390828D01*
X139594510Y-61390828D02*
X140451653Y-62890828D01*
X140451653Y-62890828D02*
X140451653Y-61390828D01*
X141165939Y-62890828D02*
X141165939Y-61390828D01*
X141165939Y-61390828D02*
X141523082Y-61390828D01*
X141523082Y-61390828D02*
X141737368Y-61462257D01*
X141737368Y-61462257D02*
X141880225Y-61605114D01*
X141880225Y-61605114D02*
X141951654Y-61747971D01*
X141951654Y-61747971D02*
X142023082Y-62033685D01*
X142023082Y-62033685D02*
X142023082Y-62247971D01*
X142023082Y-62247971D02*
X141951654Y-62533685D01*
X141951654Y-62533685D02*
X141880225Y-62676542D01*
X141880225Y-62676542D02*
X141737368Y-62819400D01*
X141737368Y-62819400D02*
X141523082Y-62890828D01*
X141523082Y-62890828D02*
X141165939Y-62890828D01*
D11*
X158376779Y-91459819D02*
X158376779Y-90459819D01*
X158376779Y-90459819D02*
X158614874Y-90459819D01*
X158614874Y-90459819D02*
X158757731Y-90507438D01*
X158757731Y-90507438D02*
X158852969Y-90602676D01*
X158852969Y-90602676D02*
X158900588Y-90697914D01*
X158900588Y-90697914D02*
X158948207Y-90888390D01*
X158948207Y-90888390D02*
X158948207Y-91031247D01*
X158948207Y-91031247D02*
X158900588Y-91221723D01*
X158900588Y-91221723D02*
X158852969Y-91316961D01*
X158852969Y-91316961D02*
X158757731Y-91412200D01*
X158757731Y-91412200D02*
X158614874Y-91459819D01*
X158614874Y-91459819D02*
X158376779Y-91459819D01*
X159805350Y-90459819D02*
X159614874Y-90459819D01*
X159614874Y-90459819D02*
X159519636Y-90507438D01*
X159519636Y-90507438D02*
X159472017Y-90555057D01*
X159472017Y-90555057D02*
X159376779Y-90697914D01*
X159376779Y-90697914D02*
X159329160Y-90888390D01*
X159329160Y-90888390D02*
X159329160Y-91269342D01*
X159329160Y-91269342D02*
X159376779Y-91364580D01*
X159376779Y-91364580D02*
X159424398Y-91412200D01*
X159424398Y-91412200D02*
X159519636Y-91459819D01*
X159519636Y-91459819D02*
X159710112Y-91459819D01*
X159710112Y-91459819D02*
X159805350Y-91412200D01*
X159805350Y-91412200D02*
X159852969Y-91364580D01*
X159852969Y-91364580D02*
X159900588Y-91269342D01*
X159900588Y-91269342D02*
X159900588Y-91031247D01*
X159900588Y-91031247D02*
X159852969Y-90936009D01*
X159852969Y-90936009D02*
X159805350Y-90888390D01*
X159805350Y-90888390D02*
X159710112Y-90840771D01*
X159710112Y-90840771D02*
X159519636Y-90840771D01*
X159519636Y-90840771D02*
X159424398Y-90888390D01*
X159424398Y-90888390D02*
X159376779Y-90936009D01*
X159376779Y-90936009D02*
X159329160Y-91031247D01*
X100876779Y-91459819D02*
X100876779Y-90459819D01*
X100876779Y-90459819D02*
X101114874Y-90459819D01*
X101114874Y-90459819D02*
X101257731Y-90507438D01*
X101257731Y-90507438D02*
X101352969Y-90602676D01*
X101352969Y-90602676D02*
X101400588Y-90697914D01*
X101400588Y-90697914D02*
X101448207Y-90888390D01*
X101448207Y-90888390D02*
X101448207Y-91031247D01*
X101448207Y-91031247D02*
X101400588Y-91221723D01*
X101400588Y-91221723D02*
X101352969Y-91316961D01*
X101352969Y-91316961D02*
X101257731Y-91412200D01*
X101257731Y-91412200D02*
X101114874Y-91459819D01*
X101114874Y-91459819D02*
X100876779Y-91459819D01*
X102400588Y-91459819D02*
X101829160Y-91459819D01*
X102114874Y-91459819D02*
X102114874Y-90459819D01*
X102114874Y-90459819D02*
X102019636Y-90602676D01*
X102019636Y-90602676D02*
X101924398Y-90697914D01*
X101924398Y-90697914D02*
X101829160Y-90745533D01*
D10*
X134905789Y-99198940D02*
X134905789Y-98398940D01*
X134905789Y-98398940D02*
X135210551Y-98398940D01*
X135210551Y-98398940D02*
X135286741Y-98437035D01*
X135286741Y-98437035D02*
X135324836Y-98475130D01*
X135324836Y-98475130D02*
X135362932Y-98551321D01*
X135362932Y-98551321D02*
X135362932Y-98665606D01*
X135362932Y-98665606D02*
X135324836Y-98741797D01*
X135324836Y-98741797D02*
X135286741Y-98779892D01*
X135286741Y-98779892D02*
X135210551Y-98817987D01*
X135210551Y-98817987D02*
X134905789Y-98817987D01*
X136048646Y-99198940D02*
X136048646Y-98779892D01*
X136048646Y-98779892D02*
X136010551Y-98703702D01*
X136010551Y-98703702D02*
X135934360Y-98665606D01*
X135934360Y-98665606D02*
X135781979Y-98665606D01*
X135781979Y-98665606D02*
X135705789Y-98703702D01*
X136048646Y-99160845D02*
X135972455Y-99198940D01*
X135972455Y-99198940D02*
X135781979Y-99198940D01*
X135781979Y-99198940D02*
X135705789Y-99160845D01*
X135705789Y-99160845D02*
X135667693Y-99084654D01*
X135667693Y-99084654D02*
X135667693Y-99008464D01*
X135667693Y-99008464D02*
X135705789Y-98932273D01*
X135705789Y-98932273D02*
X135781979Y-98894178D01*
X135781979Y-98894178D02*
X135972455Y-98894178D01*
X135972455Y-98894178D02*
X136048646Y-98856083D01*
X136429599Y-98665606D02*
X136429599Y-99198940D01*
X136429599Y-98741797D02*
X136467694Y-98703702D01*
X136467694Y-98703702D02*
X136543884Y-98665606D01*
X136543884Y-98665606D02*
X136658170Y-98665606D01*
X136658170Y-98665606D02*
X136734361Y-98703702D01*
X136734361Y-98703702D02*
X136772456Y-98779892D01*
X136772456Y-98779892D02*
X136772456Y-99198940D01*
X137458171Y-99160845D02*
X137381980Y-99198940D01*
X137381980Y-99198940D02*
X137229599Y-99198940D01*
X137229599Y-99198940D02*
X137153409Y-99160845D01*
X137153409Y-99160845D02*
X137115313Y-99084654D01*
X137115313Y-99084654D02*
X137115313Y-98779892D01*
X137115313Y-98779892D02*
X137153409Y-98703702D01*
X137153409Y-98703702D02*
X137229599Y-98665606D01*
X137229599Y-98665606D02*
X137381980Y-98665606D01*
X137381980Y-98665606D02*
X137458171Y-98703702D01*
X137458171Y-98703702D02*
X137496266Y-98779892D01*
X137496266Y-98779892D02*
X137496266Y-98856083D01*
X137496266Y-98856083D02*
X137115313Y-98932273D01*
X137953408Y-99198940D02*
X137877218Y-99160845D01*
X137877218Y-99160845D02*
X137839123Y-99084654D01*
X137839123Y-99084654D02*
X137839123Y-98398940D01*
X139248647Y-98398940D02*
X138867695Y-98398940D01*
X138867695Y-98398940D02*
X138829599Y-98779892D01*
X138829599Y-98779892D02*
X138867695Y-98741797D01*
X138867695Y-98741797D02*
X138943885Y-98703702D01*
X138943885Y-98703702D02*
X139134361Y-98703702D01*
X139134361Y-98703702D02*
X139210552Y-98741797D01*
X139210552Y-98741797D02*
X139248647Y-98779892D01*
X139248647Y-98779892D02*
X139286742Y-98856083D01*
X139286742Y-98856083D02*
X139286742Y-99046559D01*
X139286742Y-99046559D02*
X139248647Y-99122749D01*
X139248647Y-99122749D02*
X139210552Y-99160845D01*
X139210552Y-99160845D02*
X139134361Y-99198940D01*
X139134361Y-99198940D02*
X138943885Y-99198940D01*
X138943885Y-99198940D02*
X138867695Y-99160845D01*
X138867695Y-99160845D02*
X138829599Y-99122749D01*
X135515313Y-100182133D02*
X136124837Y-100182133D01*
X135820075Y-100486895D02*
X135820075Y-99877371D01*
X138334361Y-100182133D02*
X138943885Y-100182133D01*
X129905789Y-99198940D02*
X129905789Y-98398940D01*
X129905789Y-98398940D02*
X130210551Y-98398940D01*
X130210551Y-98398940D02*
X130286741Y-98437035D01*
X130286741Y-98437035D02*
X130324836Y-98475130D01*
X130324836Y-98475130D02*
X130362932Y-98551321D01*
X130362932Y-98551321D02*
X130362932Y-98665606D01*
X130362932Y-98665606D02*
X130324836Y-98741797D01*
X130324836Y-98741797D02*
X130286741Y-98779892D01*
X130286741Y-98779892D02*
X130210551Y-98817987D01*
X130210551Y-98817987D02*
X129905789Y-98817987D01*
X131048646Y-99198940D02*
X131048646Y-98779892D01*
X131048646Y-98779892D02*
X131010551Y-98703702D01*
X131010551Y-98703702D02*
X130934360Y-98665606D01*
X130934360Y-98665606D02*
X130781979Y-98665606D01*
X130781979Y-98665606D02*
X130705789Y-98703702D01*
X131048646Y-99160845D02*
X130972455Y-99198940D01*
X130972455Y-99198940D02*
X130781979Y-99198940D01*
X130781979Y-99198940D02*
X130705789Y-99160845D01*
X130705789Y-99160845D02*
X130667693Y-99084654D01*
X130667693Y-99084654D02*
X130667693Y-99008464D01*
X130667693Y-99008464D02*
X130705789Y-98932273D01*
X130705789Y-98932273D02*
X130781979Y-98894178D01*
X130781979Y-98894178D02*
X130972455Y-98894178D01*
X130972455Y-98894178D02*
X131048646Y-98856083D01*
X131429599Y-98665606D02*
X131429599Y-99198940D01*
X131429599Y-98741797D02*
X131467694Y-98703702D01*
X131467694Y-98703702D02*
X131543884Y-98665606D01*
X131543884Y-98665606D02*
X131658170Y-98665606D01*
X131658170Y-98665606D02*
X131734361Y-98703702D01*
X131734361Y-98703702D02*
X131772456Y-98779892D01*
X131772456Y-98779892D02*
X131772456Y-99198940D01*
X132458171Y-99160845D02*
X132381980Y-99198940D01*
X132381980Y-99198940D02*
X132229599Y-99198940D01*
X132229599Y-99198940D02*
X132153409Y-99160845D01*
X132153409Y-99160845D02*
X132115313Y-99084654D01*
X132115313Y-99084654D02*
X132115313Y-98779892D01*
X132115313Y-98779892D02*
X132153409Y-98703702D01*
X132153409Y-98703702D02*
X132229599Y-98665606D01*
X132229599Y-98665606D02*
X132381980Y-98665606D01*
X132381980Y-98665606D02*
X132458171Y-98703702D01*
X132458171Y-98703702D02*
X132496266Y-98779892D01*
X132496266Y-98779892D02*
X132496266Y-98856083D01*
X132496266Y-98856083D02*
X132115313Y-98932273D01*
X132953408Y-99198940D02*
X132877218Y-99160845D01*
X132877218Y-99160845D02*
X132839123Y-99084654D01*
X132839123Y-99084654D02*
X132839123Y-98398940D01*
X134210552Y-98665606D02*
X134210552Y-99198940D01*
X134020076Y-98360845D02*
X133829599Y-98932273D01*
X133829599Y-98932273D02*
X134324838Y-98932273D01*
X130515313Y-100182133D02*
X131124837Y-100182133D01*
X130820075Y-100486895D02*
X130820075Y-99877371D01*
X133334361Y-100182133D02*
X133943885Y-100182133D01*
D12*
X108504510Y-102670828D02*
X108504510Y-101170828D01*
X108504510Y-101170828D02*
X109075939Y-101170828D01*
X109075939Y-101170828D02*
X109218796Y-101242257D01*
X109218796Y-101242257D02*
X109290225Y-101313685D01*
X109290225Y-101313685D02*
X109361653Y-101456542D01*
X109361653Y-101456542D02*
X109361653Y-101670828D01*
X109361653Y-101670828D02*
X109290225Y-101813685D01*
X109290225Y-101813685D02*
X109218796Y-101885114D01*
X109218796Y-101885114D02*
X109075939Y-101956542D01*
X109075939Y-101956542D02*
X108504510Y-101956542D01*
X110790225Y-102670828D02*
X109933082Y-102670828D01*
X110361653Y-102670828D02*
X110361653Y-101170828D01*
X110361653Y-101170828D02*
X110218796Y-101385114D01*
X110218796Y-101385114D02*
X110075939Y-101527971D01*
X110075939Y-101527971D02*
X109933082Y-101599400D01*
D10*
X166415312Y-78302755D02*
X166081979Y-77826564D01*
X165843884Y-78302755D02*
X165843884Y-77302755D01*
X165843884Y-77302755D02*
X166224836Y-77302755D01*
X166224836Y-77302755D02*
X166320074Y-77350374D01*
X166320074Y-77350374D02*
X166367693Y-77397993D01*
X166367693Y-77397993D02*
X166415312Y-77493231D01*
X166415312Y-77493231D02*
X166415312Y-77636088D01*
X166415312Y-77636088D02*
X166367693Y-77731326D01*
X166367693Y-77731326D02*
X166320074Y-77778945D01*
X166320074Y-77778945D02*
X166224836Y-77826564D01*
X166224836Y-77826564D02*
X165843884Y-77826564D01*
X166224836Y-79865080D02*
X166129598Y-79912699D01*
X166129598Y-79912699D02*
X165939122Y-79912699D01*
X165939122Y-79912699D02*
X165843884Y-79865080D01*
X165843884Y-79865080D02*
X165796265Y-79769841D01*
X165796265Y-79769841D02*
X165796265Y-79388889D01*
X165796265Y-79388889D02*
X165843884Y-79293651D01*
X165843884Y-79293651D02*
X165939122Y-79246032D01*
X165939122Y-79246032D02*
X166129598Y-79246032D01*
X166129598Y-79246032D02*
X166224836Y-79293651D01*
X166224836Y-79293651D02*
X166272455Y-79388889D01*
X166272455Y-79388889D02*
X166272455Y-79484127D01*
X166272455Y-79484127D02*
X165796265Y-79579365D01*
X165748646Y-80855976D02*
X165986741Y-81522643D01*
X165986741Y-81522643D02*
X166224836Y-80855976D01*
X166367693Y-84742531D02*
X165796265Y-84742531D01*
X166081979Y-84742531D02*
X166081979Y-83742531D01*
X166081979Y-83742531D02*
X165986741Y-83885388D01*
X165986741Y-83885388D02*
X165891503Y-83980626D01*
X165891503Y-83980626D02*
X165796265Y-84028245D01*
X165843884Y-86257236D02*
X165891503Y-86304856D01*
X165891503Y-86304856D02*
X165843884Y-86352475D01*
X165843884Y-86352475D02*
X165796265Y-86304856D01*
X165796265Y-86304856D02*
X165843884Y-86257236D01*
X165843884Y-86257236D02*
X165843884Y-86352475D01*
X166034360Y-86962419D02*
X166129598Y-86962419D01*
X166129598Y-86962419D02*
X166224836Y-87010038D01*
X166224836Y-87010038D02*
X166272455Y-87057657D01*
X166272455Y-87057657D02*
X166320074Y-87152895D01*
X166320074Y-87152895D02*
X166367693Y-87343371D01*
X166367693Y-87343371D02*
X166367693Y-87581466D01*
X166367693Y-87581466D02*
X166320074Y-87771942D01*
X166320074Y-87771942D02*
X166272455Y-87867180D01*
X166272455Y-87867180D02*
X166224836Y-87914800D01*
X166224836Y-87914800D02*
X166129598Y-87962419D01*
X166129598Y-87962419D02*
X166034360Y-87962419D01*
X166034360Y-87962419D02*
X165939122Y-87914800D01*
X165939122Y-87914800D02*
X165891503Y-87867180D01*
X165891503Y-87867180D02*
X165843884Y-87771942D01*
X165843884Y-87771942D02*
X165796265Y-87581466D01*
X165796265Y-87581466D02*
X165796265Y-87343371D01*
X165796265Y-87343371D02*
X165843884Y-87152895D01*
X165843884Y-87152895D02*
X165891503Y-87057657D01*
X165891503Y-87057657D02*
X165939122Y-87010038D01*
X165939122Y-87010038D02*
X166034360Y-86962419D01*
X139905789Y-99198940D02*
X139905789Y-98398940D01*
X139905789Y-98398940D02*
X140210551Y-98398940D01*
X140210551Y-98398940D02*
X140286741Y-98437035D01*
X140286741Y-98437035D02*
X140324836Y-98475130D01*
X140324836Y-98475130D02*
X140362932Y-98551321D01*
X140362932Y-98551321D02*
X140362932Y-98665606D01*
X140362932Y-98665606D02*
X140324836Y-98741797D01*
X140324836Y-98741797D02*
X140286741Y-98779892D01*
X140286741Y-98779892D02*
X140210551Y-98817987D01*
X140210551Y-98817987D02*
X139905789Y-98817987D01*
X141048646Y-99198940D02*
X141048646Y-98779892D01*
X141048646Y-98779892D02*
X141010551Y-98703702D01*
X141010551Y-98703702D02*
X140934360Y-98665606D01*
X140934360Y-98665606D02*
X140781979Y-98665606D01*
X140781979Y-98665606D02*
X140705789Y-98703702D01*
X141048646Y-99160845D02*
X140972455Y-99198940D01*
X140972455Y-99198940D02*
X140781979Y-99198940D01*
X140781979Y-99198940D02*
X140705789Y-99160845D01*
X140705789Y-99160845D02*
X140667693Y-99084654D01*
X140667693Y-99084654D02*
X140667693Y-99008464D01*
X140667693Y-99008464D02*
X140705789Y-98932273D01*
X140705789Y-98932273D02*
X140781979Y-98894178D01*
X140781979Y-98894178D02*
X140972455Y-98894178D01*
X140972455Y-98894178D02*
X141048646Y-98856083D01*
X141429599Y-98665606D02*
X141429599Y-99198940D01*
X141429599Y-98741797D02*
X141467694Y-98703702D01*
X141467694Y-98703702D02*
X141543884Y-98665606D01*
X141543884Y-98665606D02*
X141658170Y-98665606D01*
X141658170Y-98665606D02*
X141734361Y-98703702D01*
X141734361Y-98703702D02*
X141772456Y-98779892D01*
X141772456Y-98779892D02*
X141772456Y-99198940D01*
X142458171Y-99160845D02*
X142381980Y-99198940D01*
X142381980Y-99198940D02*
X142229599Y-99198940D01*
X142229599Y-99198940D02*
X142153409Y-99160845D01*
X142153409Y-99160845D02*
X142115313Y-99084654D01*
X142115313Y-99084654D02*
X142115313Y-98779892D01*
X142115313Y-98779892D02*
X142153409Y-98703702D01*
X142153409Y-98703702D02*
X142229599Y-98665606D01*
X142229599Y-98665606D02*
X142381980Y-98665606D01*
X142381980Y-98665606D02*
X142458171Y-98703702D01*
X142458171Y-98703702D02*
X142496266Y-98779892D01*
X142496266Y-98779892D02*
X142496266Y-98856083D01*
X142496266Y-98856083D02*
X142115313Y-98932273D01*
X142953408Y-99198940D02*
X142877218Y-99160845D01*
X142877218Y-99160845D02*
X142839123Y-99084654D01*
X142839123Y-99084654D02*
X142839123Y-98398940D01*
X144210552Y-98398940D02*
X144058171Y-98398940D01*
X144058171Y-98398940D02*
X143981980Y-98437035D01*
X143981980Y-98437035D02*
X143943885Y-98475130D01*
X143943885Y-98475130D02*
X143867695Y-98589416D01*
X143867695Y-98589416D02*
X143829599Y-98741797D01*
X143829599Y-98741797D02*
X143829599Y-99046559D01*
X143829599Y-99046559D02*
X143867695Y-99122749D01*
X143867695Y-99122749D02*
X143905790Y-99160845D01*
X143905790Y-99160845D02*
X143981980Y-99198940D01*
X143981980Y-99198940D02*
X144134361Y-99198940D01*
X144134361Y-99198940D02*
X144210552Y-99160845D01*
X144210552Y-99160845D02*
X144248647Y-99122749D01*
X144248647Y-99122749D02*
X144286742Y-99046559D01*
X144286742Y-99046559D02*
X144286742Y-98856083D01*
X144286742Y-98856083D02*
X144248647Y-98779892D01*
X144248647Y-98779892D02*
X144210552Y-98741797D01*
X144210552Y-98741797D02*
X144134361Y-98703702D01*
X144134361Y-98703702D02*
X143981980Y-98703702D01*
X143981980Y-98703702D02*
X143905790Y-98741797D01*
X143905790Y-98741797D02*
X143867695Y-98779892D01*
X143867695Y-98779892D02*
X143829599Y-98856083D01*
X140515313Y-100182133D02*
X141124837Y-100182133D01*
X140820075Y-100486895D02*
X140820075Y-99877371D01*
X143334361Y-100182133D02*
X143943885Y-100182133D01*
D11*
X112376779Y-91459819D02*
X112376779Y-90459819D01*
X112376779Y-90459819D02*
X112614874Y-90459819D01*
X112614874Y-90459819D02*
X112757731Y-90507438D01*
X112757731Y-90507438D02*
X112852969Y-90602676D01*
X112852969Y-90602676D02*
X112900588Y-90697914D01*
X112900588Y-90697914D02*
X112948207Y-90888390D01*
X112948207Y-90888390D02*
X112948207Y-91031247D01*
X112948207Y-91031247D02*
X112900588Y-91221723D01*
X112900588Y-91221723D02*
X112852969Y-91316961D01*
X112852969Y-91316961D02*
X112757731Y-91412200D01*
X112757731Y-91412200D02*
X112614874Y-91459819D01*
X112614874Y-91459819D02*
X112376779Y-91459819D01*
X113329160Y-90555057D02*
X113376779Y-90507438D01*
X113376779Y-90507438D02*
X113472017Y-90459819D01*
X113472017Y-90459819D02*
X113710112Y-90459819D01*
X113710112Y-90459819D02*
X113805350Y-90507438D01*
X113805350Y-90507438D02*
X113852969Y-90555057D01*
X113852969Y-90555057D02*
X113900588Y-90650295D01*
X113900588Y-90650295D02*
X113900588Y-90745533D01*
X113900588Y-90745533D02*
X113852969Y-90888390D01*
X113852969Y-90888390D02*
X113281541Y-91459819D01*
X113281541Y-91459819D02*
X113900588Y-91459819D01*
D12*
X113584510Y-60760828D02*
X113584510Y-59260828D01*
X113584510Y-59260828D02*
X114155939Y-59260828D01*
X114155939Y-59260828D02*
X114298796Y-59332257D01*
X114298796Y-59332257D02*
X114370225Y-59403685D01*
X114370225Y-59403685D02*
X114441653Y-59546542D01*
X114441653Y-59546542D02*
X114441653Y-59760828D01*
X114441653Y-59760828D02*
X114370225Y-59903685D01*
X114370225Y-59903685D02*
X114298796Y-59975114D01*
X114298796Y-59975114D02*
X114155939Y-60046542D01*
X114155939Y-60046542D02*
X113584510Y-60046542D01*
X115870225Y-60760828D02*
X115013082Y-60760828D01*
X115441653Y-60760828D02*
X115441653Y-59260828D01*
X115441653Y-59260828D02*
X115298796Y-59475114D01*
X115298796Y-59475114D02*
X115155939Y-59617971D01*
X115155939Y-59617971D02*
X115013082Y-59689400D01*
X146604510Y-102670828D02*
X146604510Y-101170828D01*
X146604510Y-101170828D02*
X147175939Y-101170828D01*
X147175939Y-101170828D02*
X147318796Y-101242257D01*
X147318796Y-101242257D02*
X147390225Y-101313685D01*
X147390225Y-101313685D02*
X147461653Y-101456542D01*
X147461653Y-101456542D02*
X147461653Y-101670828D01*
X147461653Y-101670828D02*
X147390225Y-101813685D01*
X147390225Y-101813685D02*
X147318796Y-101885114D01*
X147318796Y-101885114D02*
X147175939Y-101956542D01*
X147175939Y-101956542D02*
X146604510Y-101956542D01*
X148890225Y-102670828D02*
X148033082Y-102670828D01*
X148461653Y-102670828D02*
X148461653Y-101170828D01*
X148461653Y-101170828D02*
X148318796Y-101385114D01*
X148318796Y-101385114D02*
X148175939Y-101527971D01*
X148175939Y-101527971D02*
X148033082Y-101599400D01*
X149461653Y-101313685D02*
X149533081Y-101242257D01*
X149533081Y-101242257D02*
X149675939Y-101170828D01*
X149675939Y-101170828D02*
X150033081Y-101170828D01*
X150033081Y-101170828D02*
X150175939Y-101242257D01*
X150175939Y-101242257D02*
X150247367Y-101313685D01*
X150247367Y-101313685D02*
X150318796Y-101456542D01*
X150318796Y-101456542D02*
X150318796Y-101599400D01*
X150318796Y-101599400D02*
X150247367Y-101813685D01*
X150247367Y-101813685D02*
X149390224Y-102670828D01*
X149390224Y-102670828D02*
X150318796Y-102670828D01*
X112880225Y-61390828D02*
X113380225Y-62890828D01*
X113380225Y-62890828D02*
X113880225Y-61390828D01*
X115023082Y-62819400D02*
X114880224Y-62890828D01*
X114880224Y-62890828D02*
X114594510Y-62890828D01*
X114594510Y-62890828D02*
X114451653Y-62819400D01*
X114451653Y-62819400D02*
X114380224Y-62747971D01*
X114380224Y-62747971D02*
X114308796Y-62605114D01*
X114308796Y-62605114D02*
X114308796Y-62176542D01*
X114308796Y-62176542D02*
X114380224Y-62033685D01*
X114380224Y-62033685D02*
X114451653Y-61962257D01*
X114451653Y-61962257D02*
X114594510Y-61890828D01*
X114594510Y-61890828D02*
X114880224Y-61890828D01*
X114880224Y-61890828D02*
X115023082Y-61962257D01*
X116308796Y-62819400D02*
X116165938Y-62890828D01*
X116165938Y-62890828D02*
X115880224Y-62890828D01*
X115880224Y-62890828D02*
X115737367Y-62819400D01*
X115737367Y-62819400D02*
X115665938Y-62747971D01*
X115665938Y-62747971D02*
X115594510Y-62605114D01*
X115594510Y-62605114D02*
X115594510Y-62176542D01*
X115594510Y-62176542D02*
X115665938Y-62033685D01*
X115665938Y-62033685D02*
X115737367Y-61962257D01*
X115737367Y-61962257D02*
X115880224Y-61890828D01*
X115880224Y-61890828D02*
X116165938Y-61890828D01*
X116165938Y-61890828D02*
X116308796Y-61962257D01*
X154594510Y-93819400D02*
X155737368Y-93819400D01*
X155165939Y-94390828D02*
X155165939Y-93247971D01*
D10*
X119405789Y-99198940D02*
X119405789Y-98398940D01*
X119405789Y-98398940D02*
X119710551Y-98398940D01*
X119710551Y-98398940D02*
X119786741Y-98437035D01*
X119786741Y-98437035D02*
X119824836Y-98475130D01*
X119824836Y-98475130D02*
X119862932Y-98551321D01*
X119862932Y-98551321D02*
X119862932Y-98665606D01*
X119862932Y-98665606D02*
X119824836Y-98741797D01*
X119824836Y-98741797D02*
X119786741Y-98779892D01*
X119786741Y-98779892D02*
X119710551Y-98817987D01*
X119710551Y-98817987D02*
X119405789Y-98817987D01*
X120548646Y-99198940D02*
X120548646Y-98779892D01*
X120548646Y-98779892D02*
X120510551Y-98703702D01*
X120510551Y-98703702D02*
X120434360Y-98665606D01*
X120434360Y-98665606D02*
X120281979Y-98665606D01*
X120281979Y-98665606D02*
X120205789Y-98703702D01*
X120548646Y-99160845D02*
X120472455Y-99198940D01*
X120472455Y-99198940D02*
X120281979Y-99198940D01*
X120281979Y-99198940D02*
X120205789Y-99160845D01*
X120205789Y-99160845D02*
X120167693Y-99084654D01*
X120167693Y-99084654D02*
X120167693Y-99008464D01*
X120167693Y-99008464D02*
X120205789Y-98932273D01*
X120205789Y-98932273D02*
X120281979Y-98894178D01*
X120281979Y-98894178D02*
X120472455Y-98894178D01*
X120472455Y-98894178D02*
X120548646Y-98856083D01*
X120929599Y-98665606D02*
X120929599Y-99198940D01*
X120929599Y-98741797D02*
X120967694Y-98703702D01*
X120967694Y-98703702D02*
X121043884Y-98665606D01*
X121043884Y-98665606D02*
X121158170Y-98665606D01*
X121158170Y-98665606D02*
X121234361Y-98703702D01*
X121234361Y-98703702D02*
X121272456Y-98779892D01*
X121272456Y-98779892D02*
X121272456Y-99198940D01*
X121958171Y-99160845D02*
X121881980Y-99198940D01*
X121881980Y-99198940D02*
X121729599Y-99198940D01*
X121729599Y-99198940D02*
X121653409Y-99160845D01*
X121653409Y-99160845D02*
X121615313Y-99084654D01*
X121615313Y-99084654D02*
X121615313Y-98779892D01*
X121615313Y-98779892D02*
X121653409Y-98703702D01*
X121653409Y-98703702D02*
X121729599Y-98665606D01*
X121729599Y-98665606D02*
X121881980Y-98665606D01*
X121881980Y-98665606D02*
X121958171Y-98703702D01*
X121958171Y-98703702D02*
X121996266Y-98779892D01*
X121996266Y-98779892D02*
X121996266Y-98856083D01*
X121996266Y-98856083D02*
X121615313Y-98932273D01*
X122453408Y-99198940D02*
X122377218Y-99160845D01*
X122377218Y-99160845D02*
X122339123Y-99084654D01*
X122339123Y-99084654D02*
X122339123Y-98398940D01*
X123329599Y-98475130D02*
X123367695Y-98437035D01*
X123367695Y-98437035D02*
X123443885Y-98398940D01*
X123443885Y-98398940D02*
X123634361Y-98398940D01*
X123634361Y-98398940D02*
X123710552Y-98437035D01*
X123710552Y-98437035D02*
X123748647Y-98475130D01*
X123748647Y-98475130D02*
X123786742Y-98551321D01*
X123786742Y-98551321D02*
X123786742Y-98627511D01*
X123786742Y-98627511D02*
X123748647Y-98741797D01*
X123748647Y-98741797D02*
X123291504Y-99198940D01*
X123291504Y-99198940D02*
X123786742Y-99198940D01*
X120015313Y-100182133D02*
X120624837Y-100182133D01*
X120320075Y-100486895D02*
X120320075Y-99877371D01*
X122834361Y-100182133D02*
X123443885Y-100182133D01*
D11*
X146876779Y-91459819D02*
X146876779Y-90459819D01*
X146876779Y-90459819D02*
X147114874Y-90459819D01*
X147114874Y-90459819D02*
X147257731Y-90507438D01*
X147257731Y-90507438D02*
X147352969Y-90602676D01*
X147352969Y-90602676D02*
X147400588Y-90697914D01*
X147400588Y-90697914D02*
X147448207Y-90888390D01*
X147448207Y-90888390D02*
X147448207Y-91031247D01*
X147448207Y-91031247D02*
X147400588Y-91221723D01*
X147400588Y-91221723D02*
X147352969Y-91316961D01*
X147352969Y-91316961D02*
X147257731Y-91412200D01*
X147257731Y-91412200D02*
X147114874Y-91459819D01*
X147114874Y-91459819D02*
X146876779Y-91459819D01*
X148352969Y-90459819D02*
X147876779Y-90459819D01*
X147876779Y-90459819D02*
X147829160Y-90936009D01*
X147829160Y-90936009D02*
X147876779Y-90888390D01*
X147876779Y-90888390D02*
X147972017Y-90840771D01*
X147972017Y-90840771D02*
X148210112Y-90840771D01*
X148210112Y-90840771D02*
X148305350Y-90888390D01*
X148305350Y-90888390D02*
X148352969Y-90936009D01*
X148352969Y-90936009D02*
X148400588Y-91031247D01*
X148400588Y-91031247D02*
X148400588Y-91269342D01*
X148400588Y-91269342D02*
X148352969Y-91364580D01*
X148352969Y-91364580D02*
X148305350Y-91412200D01*
X148305350Y-91412200D02*
X148210112Y-91459819D01*
X148210112Y-91459819D02*
X147972017Y-91459819D01*
X147972017Y-91459819D02*
X147876779Y-91412200D01*
X147876779Y-91412200D02*
X147829160Y-91364580D01*
X153210112Y-68936009D02*
X153352969Y-68983628D01*
X153352969Y-68983628D02*
X153400588Y-69031247D01*
X153400588Y-69031247D02*
X153448207Y-69126485D01*
X153448207Y-69126485D02*
X153448207Y-69269342D01*
X153448207Y-69269342D02*
X153400588Y-69364580D01*
X153400588Y-69364580D02*
X153352969Y-69412200D01*
X153352969Y-69412200D02*
X153257731Y-69459819D01*
X153257731Y-69459819D02*
X152876779Y-69459819D01*
X152876779Y-69459819D02*
X152876779Y-68459819D01*
X152876779Y-68459819D02*
X153210112Y-68459819D01*
X153210112Y-68459819D02*
X153305350Y-68507438D01*
X153305350Y-68507438D02*
X153352969Y-68555057D01*
X153352969Y-68555057D02*
X153400588Y-68650295D01*
X153400588Y-68650295D02*
X153400588Y-68745533D01*
X153400588Y-68745533D02*
X153352969Y-68840771D01*
X153352969Y-68840771D02*
X153305350Y-68888390D01*
X153305350Y-68888390D02*
X153210112Y-68936009D01*
X153210112Y-68936009D02*
X152876779Y-68936009D01*
X154305350Y-68793152D02*
X154305350Y-69459819D01*
X153876779Y-68793152D02*
X153876779Y-69316961D01*
X153876779Y-69316961D02*
X153924398Y-69412200D01*
X153924398Y-69412200D02*
X154019636Y-69459819D01*
X154019636Y-69459819D02*
X154162493Y-69459819D01*
X154162493Y-69459819D02*
X154257731Y-69412200D01*
X154257731Y-69412200D02*
X154305350Y-69364580D01*
X154638684Y-68793152D02*
X155019636Y-68793152D01*
X154781541Y-68459819D02*
X154781541Y-69316961D01*
X154781541Y-69316961D02*
X154829160Y-69412200D01*
X154829160Y-69412200D02*
X154924398Y-69459819D01*
X154924398Y-69459819D02*
X155019636Y-69459819D01*
X155210113Y-68793152D02*
X155591065Y-68793152D01*
X155352970Y-68459819D02*
X155352970Y-69316961D01*
X155352970Y-69316961D02*
X155400589Y-69412200D01*
X155400589Y-69412200D02*
X155495827Y-69459819D01*
X155495827Y-69459819D02*
X155591065Y-69459819D01*
X156067256Y-69459819D02*
X155972018Y-69412200D01*
X155972018Y-69412200D02*
X155924399Y-69364580D01*
X155924399Y-69364580D02*
X155876780Y-69269342D01*
X155876780Y-69269342D02*
X155876780Y-68983628D01*
X155876780Y-68983628D02*
X155924399Y-68888390D01*
X155924399Y-68888390D02*
X155972018Y-68840771D01*
X155972018Y-68840771D02*
X156067256Y-68793152D01*
X156067256Y-68793152D02*
X156210113Y-68793152D01*
X156210113Y-68793152D02*
X156305351Y-68840771D01*
X156305351Y-68840771D02*
X156352970Y-68888390D01*
X156352970Y-68888390D02*
X156400589Y-68983628D01*
X156400589Y-68983628D02*
X156400589Y-69269342D01*
X156400589Y-69269342D02*
X156352970Y-69364580D01*
X156352970Y-69364580D02*
X156305351Y-69412200D01*
X156305351Y-69412200D02*
X156210113Y-69459819D01*
X156210113Y-69459819D02*
X156067256Y-69459819D01*
X156829161Y-68793152D02*
X156829161Y-69459819D01*
X156829161Y-68888390D02*
X156876780Y-68840771D01*
X156876780Y-68840771D02*
X156972018Y-68793152D01*
X156972018Y-68793152D02*
X157114875Y-68793152D01*
X157114875Y-68793152D02*
X157210113Y-68840771D01*
X157210113Y-68840771D02*
X157257732Y-68936009D01*
X157257732Y-68936009D02*
X157257732Y-69459819D01*
X158495828Y-69459819D02*
X158495828Y-68459819D01*
X158495828Y-68936009D02*
X159067256Y-68936009D01*
X159067256Y-69459819D02*
X159067256Y-68459819D01*
X159924399Y-69412200D02*
X159829161Y-69459819D01*
X159829161Y-69459819D02*
X159638685Y-69459819D01*
X159638685Y-69459819D02*
X159543447Y-69412200D01*
X159543447Y-69412200D02*
X159495828Y-69316961D01*
X159495828Y-69316961D02*
X159495828Y-68936009D01*
X159495828Y-68936009D02*
X159543447Y-68840771D01*
X159543447Y-68840771D02*
X159638685Y-68793152D01*
X159638685Y-68793152D02*
X159829161Y-68793152D01*
X159829161Y-68793152D02*
X159924399Y-68840771D01*
X159924399Y-68840771D02*
X159972018Y-68936009D01*
X159972018Y-68936009D02*
X159972018Y-69031247D01*
X159972018Y-69031247D02*
X159495828Y-69126485D01*
X160829161Y-69459819D02*
X160829161Y-68936009D01*
X160829161Y-68936009D02*
X160781542Y-68840771D01*
X160781542Y-68840771D02*
X160686304Y-68793152D01*
X160686304Y-68793152D02*
X160495828Y-68793152D01*
X160495828Y-68793152D02*
X160400590Y-68840771D01*
X160829161Y-69412200D02*
X160733923Y-69459819D01*
X160733923Y-69459819D02*
X160495828Y-69459819D01*
X160495828Y-69459819D02*
X160400590Y-69412200D01*
X160400590Y-69412200D02*
X160352971Y-69316961D01*
X160352971Y-69316961D02*
X160352971Y-69221723D01*
X160352971Y-69221723D02*
X160400590Y-69126485D01*
X160400590Y-69126485D02*
X160495828Y-69078866D01*
X160495828Y-69078866D02*
X160733923Y-69078866D01*
X160733923Y-69078866D02*
X160829161Y-69031247D01*
X161733923Y-69459819D02*
X161733923Y-68459819D01*
X161733923Y-69412200D02*
X161638685Y-69459819D01*
X161638685Y-69459819D02*
X161448209Y-69459819D01*
X161448209Y-69459819D02*
X161352971Y-69412200D01*
X161352971Y-69412200D02*
X161305352Y-69364580D01*
X161305352Y-69364580D02*
X161257733Y-69269342D01*
X161257733Y-69269342D02*
X161257733Y-68983628D01*
X161257733Y-68983628D02*
X161305352Y-68888390D01*
X161305352Y-68888390D02*
X161352971Y-68840771D01*
X161352971Y-68840771D02*
X161448209Y-68793152D01*
X161448209Y-68793152D02*
X161638685Y-68793152D01*
X161638685Y-68793152D02*
X161733923Y-68840771D01*
X162591066Y-69412200D02*
X162495828Y-69459819D01*
X162495828Y-69459819D02*
X162305352Y-69459819D01*
X162305352Y-69459819D02*
X162210114Y-69412200D01*
X162210114Y-69412200D02*
X162162495Y-69316961D01*
X162162495Y-69316961D02*
X162162495Y-68936009D01*
X162162495Y-68936009D02*
X162210114Y-68840771D01*
X162210114Y-68840771D02*
X162305352Y-68793152D01*
X162305352Y-68793152D02*
X162495828Y-68793152D01*
X162495828Y-68793152D02*
X162591066Y-68840771D01*
X162591066Y-68840771D02*
X162638685Y-68936009D01*
X162638685Y-68936009D02*
X162638685Y-69031247D01*
X162638685Y-69031247D02*
X162162495Y-69126485D01*
X163067257Y-69459819D02*
X163067257Y-68793152D01*
X163067257Y-68983628D02*
X163114876Y-68888390D01*
X163114876Y-68888390D02*
X163162495Y-68840771D01*
X163162495Y-68840771D02*
X163257733Y-68793152D01*
X163257733Y-68793152D02*
X163352971Y-68793152D01*
X123876779Y-91459819D02*
X123876779Y-90459819D01*
X123876779Y-90459819D02*
X124114874Y-90459819D01*
X124114874Y-90459819D02*
X124257731Y-90507438D01*
X124257731Y-90507438D02*
X124352969Y-90602676D01*
X124352969Y-90602676D02*
X124400588Y-90697914D01*
X124400588Y-90697914D02*
X124448207Y-90888390D01*
X124448207Y-90888390D02*
X124448207Y-91031247D01*
X124448207Y-91031247D02*
X124400588Y-91221723D01*
X124400588Y-91221723D02*
X124352969Y-91316961D01*
X124352969Y-91316961D02*
X124257731Y-91412200D01*
X124257731Y-91412200D02*
X124114874Y-91459819D01*
X124114874Y-91459819D02*
X123876779Y-91459819D01*
X124781541Y-90459819D02*
X125400588Y-90459819D01*
X125400588Y-90459819D02*
X125067255Y-90840771D01*
X125067255Y-90840771D02*
X125210112Y-90840771D01*
X125210112Y-90840771D02*
X125305350Y-90888390D01*
X125305350Y-90888390D02*
X125352969Y-90936009D01*
X125352969Y-90936009D02*
X125400588Y-91031247D01*
X125400588Y-91031247D02*
X125400588Y-91269342D01*
X125400588Y-91269342D02*
X125352969Y-91364580D01*
X125352969Y-91364580D02*
X125305350Y-91412200D01*
X125305350Y-91412200D02*
X125210112Y-91459819D01*
X125210112Y-91459819D02*
X124924398Y-91459819D01*
X124924398Y-91459819D02*
X124829160Y-91412200D01*
X124829160Y-91412200D02*
X124781541Y-91364580D01*
D12*
X109094510Y-93819400D02*
X110237368Y-93819400D01*
X109665939Y-94390828D02*
X109665939Y-93247971D01*
X132094510Y-93819400D02*
X133237368Y-93819400D01*
X132665939Y-94390828D02*
X132665939Y-93247971D01*
X138984510Y-60760828D02*
X138984510Y-59260828D01*
X138984510Y-59260828D02*
X139555939Y-59260828D01*
X139555939Y-59260828D02*
X139698796Y-59332257D01*
X139698796Y-59332257D02*
X139770225Y-59403685D01*
X139770225Y-59403685D02*
X139841653Y-59546542D01*
X139841653Y-59546542D02*
X139841653Y-59760828D01*
X139841653Y-59760828D02*
X139770225Y-59903685D01*
X139770225Y-59903685D02*
X139698796Y-59975114D01*
X139698796Y-59975114D02*
X139555939Y-60046542D01*
X139555939Y-60046542D02*
X138984510Y-60046542D01*
X140698796Y-59903685D02*
X140555939Y-59832257D01*
X140555939Y-59832257D02*
X140484510Y-59760828D01*
X140484510Y-59760828D02*
X140413082Y-59617971D01*
X140413082Y-59617971D02*
X140413082Y-59546542D01*
X140413082Y-59546542D02*
X140484510Y-59403685D01*
X140484510Y-59403685D02*
X140555939Y-59332257D01*
X140555939Y-59332257D02*
X140698796Y-59260828D01*
X140698796Y-59260828D02*
X140984510Y-59260828D01*
X140984510Y-59260828D02*
X141127368Y-59332257D01*
X141127368Y-59332257D02*
X141198796Y-59403685D01*
X141198796Y-59403685D02*
X141270225Y-59546542D01*
X141270225Y-59546542D02*
X141270225Y-59617971D01*
X141270225Y-59617971D02*
X141198796Y-59760828D01*
X141198796Y-59760828D02*
X141127368Y-59832257D01*
X141127368Y-59832257D02*
X140984510Y-59903685D01*
X140984510Y-59903685D02*
X140698796Y-59903685D01*
X140698796Y-59903685D02*
X140555939Y-59975114D01*
X140555939Y-59975114D02*
X140484510Y-60046542D01*
X140484510Y-60046542D02*
X140413082Y-60189400D01*
X140413082Y-60189400D02*
X140413082Y-60475114D01*
X140413082Y-60475114D02*
X140484510Y-60617971D01*
X140484510Y-60617971D02*
X140555939Y-60689400D01*
X140555939Y-60689400D02*
X140698796Y-60760828D01*
X140698796Y-60760828D02*
X140984510Y-60760828D01*
X140984510Y-60760828D02*
X141127368Y-60689400D01*
X141127368Y-60689400D02*
X141198796Y-60617971D01*
X141198796Y-60617971D02*
X141270225Y-60475114D01*
X141270225Y-60475114D02*
X141270225Y-60189400D01*
X141270225Y-60189400D02*
X141198796Y-60046542D01*
X141198796Y-60046542D02*
X141127368Y-59975114D01*
X141127368Y-59975114D02*
X140984510Y-59903685D01*
X97594510Y-93819400D02*
X98737368Y-93819400D01*
X98165939Y-94390828D02*
X98165939Y-93247971D01*
D11*
X93376779Y-67959819D02*
X93376779Y-66959819D01*
X93376779Y-66959819D02*
X93710112Y-67674104D01*
X93710112Y-67674104D02*
X94043445Y-66959819D01*
X94043445Y-66959819D02*
X94043445Y-67959819D01*
X94948207Y-67959819D02*
X94948207Y-67436009D01*
X94948207Y-67436009D02*
X94900588Y-67340771D01*
X94900588Y-67340771D02*
X94805350Y-67293152D01*
X94805350Y-67293152D02*
X94614874Y-67293152D01*
X94614874Y-67293152D02*
X94519636Y-67340771D01*
X94948207Y-67912200D02*
X94852969Y-67959819D01*
X94852969Y-67959819D02*
X94614874Y-67959819D01*
X94614874Y-67959819D02*
X94519636Y-67912200D01*
X94519636Y-67912200D02*
X94472017Y-67816961D01*
X94472017Y-67816961D02*
X94472017Y-67721723D01*
X94472017Y-67721723D02*
X94519636Y-67626485D01*
X94519636Y-67626485D02*
X94614874Y-67578866D01*
X94614874Y-67578866D02*
X94852969Y-67578866D01*
X94852969Y-67578866D02*
X94948207Y-67531247D01*
X95424398Y-67293152D02*
X95424398Y-67959819D01*
X95424398Y-67388390D02*
X95472017Y-67340771D01*
X95472017Y-67340771D02*
X95567255Y-67293152D01*
X95567255Y-67293152D02*
X95710112Y-67293152D01*
X95710112Y-67293152D02*
X95805350Y-67340771D01*
X95805350Y-67340771D02*
X95852969Y-67436009D01*
X95852969Y-67436009D02*
X95852969Y-67959819D01*
X96757731Y-67293152D02*
X96757731Y-67959819D01*
X96329160Y-67293152D02*
X96329160Y-67816961D01*
X96329160Y-67816961D02*
X96376779Y-67912200D01*
X96376779Y-67912200D02*
X96472017Y-67959819D01*
X96472017Y-67959819D02*
X96614874Y-67959819D01*
X96614874Y-67959819D02*
X96710112Y-67912200D01*
X96710112Y-67912200D02*
X96757731Y-67864580D01*
X97662493Y-67959819D02*
X97662493Y-67436009D01*
X97662493Y-67436009D02*
X97614874Y-67340771D01*
X97614874Y-67340771D02*
X97519636Y-67293152D01*
X97519636Y-67293152D02*
X97329160Y-67293152D01*
X97329160Y-67293152D02*
X97233922Y-67340771D01*
X97662493Y-67912200D02*
X97567255Y-67959819D01*
X97567255Y-67959819D02*
X97329160Y-67959819D01*
X97329160Y-67959819D02*
X97233922Y-67912200D01*
X97233922Y-67912200D02*
X97186303Y-67816961D01*
X97186303Y-67816961D02*
X97186303Y-67721723D01*
X97186303Y-67721723D02*
X97233922Y-67626485D01*
X97233922Y-67626485D02*
X97329160Y-67578866D01*
X97329160Y-67578866D02*
X97567255Y-67578866D01*
X97567255Y-67578866D02*
X97662493Y-67531247D01*
X98281541Y-67959819D02*
X98186303Y-67912200D01*
X98186303Y-67912200D02*
X98138684Y-67816961D01*
X98138684Y-67816961D02*
X98138684Y-66959819D01*
X99376780Y-67912200D02*
X99519637Y-67959819D01*
X99519637Y-67959819D02*
X99757732Y-67959819D01*
X99757732Y-67959819D02*
X99852970Y-67912200D01*
X99852970Y-67912200D02*
X99900589Y-67864580D01*
X99900589Y-67864580D02*
X99948208Y-67769342D01*
X99948208Y-67769342D02*
X99948208Y-67674104D01*
X99948208Y-67674104D02*
X99900589Y-67578866D01*
X99900589Y-67578866D02*
X99852970Y-67531247D01*
X99852970Y-67531247D02*
X99757732Y-67483628D01*
X99757732Y-67483628D02*
X99567256Y-67436009D01*
X99567256Y-67436009D02*
X99472018Y-67388390D01*
X99472018Y-67388390D02*
X99424399Y-67340771D01*
X99424399Y-67340771D02*
X99376780Y-67245533D01*
X99376780Y-67245533D02*
X99376780Y-67150295D01*
X99376780Y-67150295D02*
X99424399Y-67055057D01*
X99424399Y-67055057D02*
X99472018Y-67007438D01*
X99472018Y-67007438D02*
X99567256Y-66959819D01*
X99567256Y-66959819D02*
X99805351Y-66959819D01*
X99805351Y-66959819D02*
X99948208Y-67007438D01*
X100281542Y-67293152D02*
X100472018Y-67959819D01*
X100472018Y-67959819D02*
X100662494Y-67483628D01*
X100662494Y-67483628D02*
X100852970Y-67959819D01*
X100852970Y-67959819D02*
X101043446Y-67293152D01*
X101424399Y-67959819D02*
X101424399Y-67293152D01*
X101424399Y-66959819D02*
X101376780Y-67007438D01*
X101376780Y-67007438D02*
X101424399Y-67055057D01*
X101424399Y-67055057D02*
X101472018Y-67007438D01*
X101472018Y-67007438D02*
X101424399Y-66959819D01*
X101424399Y-66959819D02*
X101424399Y-67055057D01*
X101757732Y-67293152D02*
X102138684Y-67293152D01*
X101900589Y-66959819D02*
X101900589Y-67816961D01*
X101900589Y-67816961D02*
X101948208Y-67912200D01*
X101948208Y-67912200D02*
X102043446Y-67959819D01*
X102043446Y-67959819D02*
X102138684Y-67959819D01*
X102900589Y-67912200D02*
X102805351Y-67959819D01*
X102805351Y-67959819D02*
X102614875Y-67959819D01*
X102614875Y-67959819D02*
X102519637Y-67912200D01*
X102519637Y-67912200D02*
X102472018Y-67864580D01*
X102472018Y-67864580D02*
X102424399Y-67769342D01*
X102424399Y-67769342D02*
X102424399Y-67483628D01*
X102424399Y-67483628D02*
X102472018Y-67388390D01*
X102472018Y-67388390D02*
X102519637Y-67340771D01*
X102519637Y-67340771D02*
X102614875Y-67293152D01*
X102614875Y-67293152D02*
X102805351Y-67293152D01*
X102805351Y-67293152D02*
X102900589Y-67340771D01*
X103329161Y-67959819D02*
X103329161Y-66959819D01*
X103757732Y-67959819D02*
X103757732Y-67436009D01*
X103757732Y-67436009D02*
X103710113Y-67340771D01*
X103710113Y-67340771D02*
X103614875Y-67293152D01*
X103614875Y-67293152D02*
X103472018Y-67293152D01*
X103472018Y-67293152D02*
X103376780Y-67340771D01*
X103376780Y-67340771D02*
X103329161Y-67388390D01*
D12*
X160594510Y-72319400D02*
X161737368Y-72319400D01*
X161165939Y-72890828D02*
X161165939Y-71747971D01*
X143094510Y-93819400D02*
X144237368Y-93819400D01*
X143665939Y-94390828D02*
X143665939Y-93247971D01*
D10*
X89203884Y-64653595D02*
X89203884Y-63653595D01*
X89203884Y-63653595D02*
X89775312Y-64653595D01*
X89775312Y-64653595D02*
X89775312Y-63653595D01*
X89584836Y-66215920D02*
X89489598Y-66263539D01*
X89489598Y-66263539D02*
X89299122Y-66263539D01*
X89299122Y-66263539D02*
X89203884Y-66215920D01*
X89203884Y-66215920D02*
X89156265Y-66120681D01*
X89156265Y-66120681D02*
X89156265Y-65739729D01*
X89156265Y-65739729D02*
X89203884Y-65644491D01*
X89203884Y-65644491D02*
X89299122Y-65596872D01*
X89299122Y-65596872D02*
X89489598Y-65596872D01*
X89489598Y-65596872D02*
X89584836Y-65644491D01*
X89584836Y-65644491D02*
X89632455Y-65739729D01*
X89632455Y-65739729D02*
X89632455Y-65834967D01*
X89632455Y-65834967D02*
X89156265Y-65930205D01*
X89346741Y-67873483D02*
X89251503Y-67825864D01*
X89251503Y-67825864D02*
X89203884Y-67778244D01*
X89203884Y-67778244D02*
X89156265Y-67683006D01*
X89156265Y-67683006D02*
X89156265Y-67397292D01*
X89156265Y-67397292D02*
X89203884Y-67302054D01*
X89203884Y-67302054D02*
X89251503Y-67254435D01*
X89251503Y-67254435D02*
X89346741Y-67206816D01*
X89346741Y-67206816D02*
X89489598Y-67206816D01*
X89489598Y-67206816D02*
X89584836Y-67254435D01*
X89584836Y-67254435D02*
X89632455Y-67302054D01*
X89632455Y-67302054D02*
X89680074Y-67397292D01*
X89680074Y-67397292D02*
X89680074Y-67683006D01*
X89680074Y-67683006D02*
X89632455Y-67778244D01*
X89632455Y-67778244D02*
X89584836Y-67825864D01*
X89584836Y-67825864D02*
X89489598Y-67873483D01*
X89489598Y-67873483D02*
X89346741Y-67873483D01*
X89727693Y-70140990D02*
X89632455Y-70093371D01*
X89632455Y-70093371D02*
X89489598Y-70093371D01*
X89489598Y-70093371D02*
X89346741Y-70140990D01*
X89346741Y-70140990D02*
X89251503Y-70236228D01*
X89251503Y-70236228D02*
X89203884Y-70331466D01*
X89203884Y-70331466D02*
X89156265Y-70521942D01*
X89156265Y-70521942D02*
X89156265Y-70664799D01*
X89156265Y-70664799D02*
X89203884Y-70855275D01*
X89203884Y-70855275D02*
X89251503Y-70950513D01*
X89251503Y-70950513D02*
X89346741Y-71045752D01*
X89346741Y-71045752D02*
X89489598Y-71093371D01*
X89489598Y-71093371D02*
X89584836Y-71093371D01*
X89584836Y-71093371D02*
X89727693Y-71045752D01*
X89727693Y-71045752D02*
X89775312Y-70998132D01*
X89775312Y-70998132D02*
X89775312Y-70664799D01*
X89775312Y-70664799D02*
X89584836Y-70664799D01*
X89584836Y-72655696D02*
X89489598Y-72703315D01*
X89489598Y-72703315D02*
X89299122Y-72703315D01*
X89299122Y-72703315D02*
X89203884Y-72655696D01*
X89203884Y-72655696D02*
X89156265Y-72560457D01*
X89156265Y-72560457D02*
X89156265Y-72179505D01*
X89156265Y-72179505D02*
X89203884Y-72084267D01*
X89203884Y-72084267D02*
X89299122Y-72036648D01*
X89299122Y-72036648D02*
X89489598Y-72036648D01*
X89489598Y-72036648D02*
X89584836Y-72084267D01*
X89584836Y-72084267D02*
X89632455Y-72179505D01*
X89632455Y-72179505D02*
X89632455Y-72274743D01*
X89632455Y-72274743D02*
X89156265Y-72369981D01*
X89346741Y-74313259D02*
X89251503Y-74265640D01*
X89251503Y-74265640D02*
X89203884Y-74218020D01*
X89203884Y-74218020D02*
X89156265Y-74122782D01*
X89156265Y-74122782D02*
X89156265Y-73837068D01*
X89156265Y-73837068D02*
X89203884Y-73741830D01*
X89203884Y-73741830D02*
X89251503Y-73694211D01*
X89251503Y-73694211D02*
X89346741Y-73646592D01*
X89346741Y-73646592D02*
X89489598Y-73646592D01*
X89489598Y-73646592D02*
X89584836Y-73694211D01*
X89584836Y-73694211D02*
X89632455Y-73741830D01*
X89632455Y-73741830D02*
X89680074Y-73837068D01*
X89680074Y-73837068D02*
X89680074Y-74122782D01*
X89680074Y-74122782D02*
X89632455Y-74218020D01*
X89632455Y-74218020D02*
X89584836Y-74265640D01*
X89584836Y-74265640D02*
X89489598Y-74313259D01*
X89489598Y-74313259D02*
X89346741Y-74313259D01*
X89203884Y-77533147D02*
X89203884Y-76533147D01*
X89203884Y-76533147D02*
X89537217Y-77247432D01*
X89537217Y-77247432D02*
X89870550Y-76533147D01*
X89870550Y-76533147D02*
X89870550Y-77533147D01*
X89632455Y-79143091D02*
X89632455Y-78619281D01*
X89632455Y-78619281D02*
X89584836Y-78524043D01*
X89584836Y-78524043D02*
X89489598Y-78476424D01*
X89489598Y-78476424D02*
X89299122Y-78476424D01*
X89299122Y-78476424D02*
X89203884Y-78524043D01*
X89632455Y-79095472D02*
X89537217Y-79143091D01*
X89537217Y-79143091D02*
X89299122Y-79143091D01*
X89299122Y-79143091D02*
X89203884Y-79095472D01*
X89203884Y-79095472D02*
X89156265Y-79000233D01*
X89156265Y-79000233D02*
X89156265Y-78904995D01*
X89156265Y-78904995D02*
X89203884Y-78809757D01*
X89203884Y-78809757D02*
X89299122Y-78762138D01*
X89299122Y-78762138D02*
X89537217Y-78762138D01*
X89537217Y-78762138D02*
X89632455Y-78714519D01*
X89203884Y-80753035D02*
X89203884Y-80086368D01*
X89203884Y-80276844D02*
X89251503Y-80181606D01*
X89251503Y-80181606D02*
X89299122Y-80133987D01*
X89299122Y-80133987D02*
X89394360Y-80086368D01*
X89394360Y-80086368D02*
X89489598Y-80086368D01*
X89632455Y-81696312D02*
X89632455Y-82696312D01*
X89632455Y-82315360D02*
X89537217Y-82362979D01*
X89537217Y-82362979D02*
X89346741Y-82362979D01*
X89346741Y-82362979D02*
X89251503Y-82315360D01*
X89251503Y-82315360D02*
X89203884Y-82267740D01*
X89203884Y-82267740D02*
X89156265Y-82172502D01*
X89156265Y-82172502D02*
X89156265Y-81886788D01*
X89156265Y-81886788D02*
X89203884Y-81791550D01*
X89203884Y-81791550D02*
X89251503Y-81743931D01*
X89251503Y-81743931D02*
X89346741Y-81696312D01*
X89346741Y-81696312D02*
X89537217Y-81696312D01*
X89537217Y-81696312D02*
X89632455Y-81743931D01*
X89632455Y-83306256D02*
X89632455Y-83972923D01*
X89203884Y-83306256D02*
X89203884Y-83830065D01*
X89203884Y-83830065D02*
X89251503Y-83925304D01*
X89251503Y-83925304D02*
X89346741Y-83972923D01*
X89346741Y-83972923D02*
X89489598Y-83972923D01*
X89489598Y-83972923D02*
X89584836Y-83925304D01*
X89584836Y-83925304D02*
X89632455Y-83877684D01*
X89584836Y-85535248D02*
X89489598Y-85582867D01*
X89489598Y-85582867D02*
X89299122Y-85582867D01*
X89299122Y-85582867D02*
X89203884Y-85535248D01*
X89203884Y-85535248D02*
X89156265Y-85440009D01*
X89156265Y-85440009D02*
X89156265Y-85059057D01*
X89156265Y-85059057D02*
X89203884Y-84963819D01*
X89203884Y-84963819D02*
X89299122Y-84916200D01*
X89299122Y-84916200D02*
X89489598Y-84916200D01*
X89489598Y-84916200D02*
X89584836Y-84963819D01*
X89584836Y-84963819D02*
X89632455Y-85059057D01*
X89632455Y-85059057D02*
X89632455Y-85154295D01*
X89632455Y-85154295D02*
X89156265Y-85249533D01*
X89584836Y-87145192D02*
X89489598Y-87192811D01*
X89489598Y-87192811D02*
X89299122Y-87192811D01*
X89299122Y-87192811D02*
X89203884Y-87145192D01*
X89203884Y-87145192D02*
X89156265Y-87049953D01*
X89156265Y-87049953D02*
X89156265Y-86669001D01*
X89156265Y-86669001D02*
X89203884Y-86573763D01*
X89203884Y-86573763D02*
X89299122Y-86526144D01*
X89299122Y-86526144D02*
X89489598Y-86526144D01*
X89489598Y-86526144D02*
X89584836Y-86573763D01*
X89584836Y-86573763D02*
X89632455Y-86669001D01*
X89632455Y-86669001D02*
X89632455Y-86764239D01*
X89632455Y-86764239D02*
X89156265Y-86859477D01*
X89203884Y-90412699D02*
X89203884Y-89412699D01*
X89203884Y-89412699D02*
X89441979Y-89412699D01*
X89441979Y-89412699D02*
X89584836Y-89460318D01*
X89584836Y-89460318D02*
X89680074Y-89555556D01*
X89680074Y-89555556D02*
X89727693Y-89650794D01*
X89727693Y-89650794D02*
X89775312Y-89841270D01*
X89775312Y-89841270D02*
X89775312Y-89984127D01*
X89775312Y-89984127D02*
X89727693Y-90174603D01*
X89727693Y-90174603D02*
X89680074Y-90269841D01*
X89680074Y-90269841D02*
X89584836Y-90365080D01*
X89584836Y-90365080D02*
X89441979Y-90412699D01*
X89441979Y-90412699D02*
X89203884Y-90412699D01*
X89203884Y-92022643D02*
X89203884Y-91355976D01*
X89203884Y-91546452D02*
X89251503Y-91451214D01*
X89251503Y-91451214D02*
X89299122Y-91403595D01*
X89299122Y-91403595D02*
X89394360Y-91355976D01*
X89394360Y-91355976D02*
X89489598Y-91355976D01*
X89203884Y-93632587D02*
X89203884Y-92965920D01*
X89203884Y-92632587D02*
X89156265Y-92680206D01*
X89156265Y-92680206D02*
X89203884Y-92727825D01*
X89203884Y-92727825D02*
X89251503Y-92680206D01*
X89251503Y-92680206D02*
X89203884Y-92632587D01*
X89203884Y-92632587D02*
X89203884Y-92727825D01*
X89108646Y-94575864D02*
X89346741Y-95242531D01*
X89346741Y-95242531D02*
X89584836Y-94575864D01*
X89584836Y-96804856D02*
X89489598Y-96852475D01*
X89489598Y-96852475D02*
X89299122Y-96852475D01*
X89299122Y-96852475D02*
X89203884Y-96804856D01*
X89203884Y-96804856D02*
X89156265Y-96709617D01*
X89156265Y-96709617D02*
X89156265Y-96328665D01*
X89156265Y-96328665D02*
X89203884Y-96233427D01*
X89203884Y-96233427D02*
X89299122Y-96185808D01*
X89299122Y-96185808D02*
X89489598Y-96185808D01*
X89489598Y-96185808D02*
X89584836Y-96233427D01*
X89584836Y-96233427D02*
X89632455Y-96328665D01*
X89632455Y-96328665D02*
X89632455Y-96423903D01*
X89632455Y-96423903D02*
X89156265Y-96519141D01*
X89203884Y-98462419D02*
X89203884Y-97795752D01*
X89203884Y-97986228D02*
X89251503Y-97890990D01*
X89251503Y-97890990D02*
X89299122Y-97843371D01*
X89299122Y-97843371D02*
X89394360Y-97795752D01*
X89394360Y-97795752D02*
X89489598Y-97795752D01*
D11*
X98183333Y-77174819D02*
X97850000Y-76698628D01*
X97611905Y-77174819D02*
X97611905Y-76174819D01*
X97611905Y-76174819D02*
X97992857Y-76174819D01*
X97992857Y-76174819D02*
X98088095Y-76222438D01*
X98088095Y-76222438D02*
X98135714Y-76270057D01*
X98135714Y-76270057D02*
X98183333Y-76365295D01*
X98183333Y-76365295D02*
X98183333Y-76508152D01*
X98183333Y-76508152D02*
X98135714Y-76603390D01*
X98135714Y-76603390D02*
X98088095Y-76651009D01*
X98088095Y-76651009D02*
X97992857Y-76698628D01*
X97992857Y-76698628D02*
X97611905Y-76698628D01*
X99135714Y-77174819D02*
X98564286Y-77174819D01*
X98850000Y-77174819D02*
X98850000Y-76174819D01*
X98850000Y-76174819D02*
X98754762Y-76317676D01*
X98754762Y-76317676D02*
X98659524Y-76412914D01*
X98659524Y-76412914D02*
X98564286Y-76460533D01*
X157384761Y-83910057D02*
X157289523Y-83862438D01*
X157289523Y-83862438D02*
X157194285Y-83767200D01*
X157194285Y-83767200D02*
X157051428Y-83624342D01*
X157051428Y-83624342D02*
X156956190Y-83576723D01*
X156956190Y-83576723D02*
X156860952Y-83576723D01*
X156908571Y-83814819D02*
X156813333Y-83767200D01*
X156813333Y-83767200D02*
X156718095Y-83671961D01*
X156718095Y-83671961D02*
X156670476Y-83481485D01*
X156670476Y-83481485D02*
X156670476Y-83148152D01*
X156670476Y-83148152D02*
X156718095Y-82957676D01*
X156718095Y-82957676D02*
X156813333Y-82862438D01*
X156813333Y-82862438D02*
X156908571Y-82814819D01*
X156908571Y-82814819D02*
X157099047Y-82814819D01*
X157099047Y-82814819D02*
X157194285Y-82862438D01*
X157194285Y-82862438D02*
X157289523Y-82957676D01*
X157289523Y-82957676D02*
X157337142Y-83148152D01*
X157337142Y-83148152D02*
X157337142Y-83481485D01*
X157337142Y-83481485D02*
X157289523Y-83671961D01*
X157289523Y-83671961D02*
X157194285Y-83767200D01*
X157194285Y-83767200D02*
X157099047Y-83814819D01*
X157099047Y-83814819D02*
X156908571Y-83814819D01*
X158194285Y-82814819D02*
X158003809Y-82814819D01*
X158003809Y-82814819D02*
X157908571Y-82862438D01*
X157908571Y-82862438D02*
X157860952Y-82910057D01*
X157860952Y-82910057D02*
X157765714Y-83052914D01*
X157765714Y-83052914D02*
X157718095Y-83243390D01*
X157718095Y-83243390D02*
X157718095Y-83624342D01*
X157718095Y-83624342D02*
X157765714Y-83719580D01*
X157765714Y-83719580D02*
X157813333Y-83767200D01*
X157813333Y-83767200D02*
X157908571Y-83814819D01*
X157908571Y-83814819D02*
X158099047Y-83814819D01*
X158099047Y-83814819D02*
X158194285Y-83767200D01*
X158194285Y-83767200D02*
X158241904Y-83719580D01*
X158241904Y-83719580D02*
X158289523Y-83624342D01*
X158289523Y-83624342D02*
X158289523Y-83386247D01*
X158289523Y-83386247D02*
X158241904Y-83291009D01*
X158241904Y-83291009D02*
X158194285Y-83243390D01*
X158194285Y-83243390D02*
X158099047Y-83195771D01*
X158099047Y-83195771D02*
X157908571Y-83195771D01*
X157908571Y-83195771D02*
X157813333Y-83243390D01*
X157813333Y-83243390D02*
X157765714Y-83291009D01*
X157765714Y-83291009D02*
X157718095Y-83386247D01*
X111664761Y-83910057D02*
X111569523Y-83862438D01*
X111569523Y-83862438D02*
X111474285Y-83767200D01*
X111474285Y-83767200D02*
X111331428Y-83624342D01*
X111331428Y-83624342D02*
X111236190Y-83576723D01*
X111236190Y-83576723D02*
X111140952Y-83576723D01*
X111188571Y-83814819D02*
X111093333Y-83767200D01*
X111093333Y-83767200D02*
X110998095Y-83671961D01*
X110998095Y-83671961D02*
X110950476Y-83481485D01*
X110950476Y-83481485D02*
X110950476Y-83148152D01*
X110950476Y-83148152D02*
X110998095Y-82957676D01*
X110998095Y-82957676D02*
X111093333Y-82862438D01*
X111093333Y-82862438D02*
X111188571Y-82814819D01*
X111188571Y-82814819D02*
X111379047Y-82814819D01*
X111379047Y-82814819D02*
X111474285Y-82862438D01*
X111474285Y-82862438D02*
X111569523Y-82957676D01*
X111569523Y-82957676D02*
X111617142Y-83148152D01*
X111617142Y-83148152D02*
X111617142Y-83481485D01*
X111617142Y-83481485D02*
X111569523Y-83671961D01*
X111569523Y-83671961D02*
X111474285Y-83767200D01*
X111474285Y-83767200D02*
X111379047Y-83814819D01*
X111379047Y-83814819D02*
X111188571Y-83814819D01*
X111998095Y-82910057D02*
X112045714Y-82862438D01*
X112045714Y-82862438D02*
X112140952Y-82814819D01*
X112140952Y-82814819D02*
X112379047Y-82814819D01*
X112379047Y-82814819D02*
X112474285Y-82862438D01*
X112474285Y-82862438D02*
X112521904Y-82910057D01*
X112521904Y-82910057D02*
X112569523Y-83005295D01*
X112569523Y-83005295D02*
X112569523Y-83100533D01*
X112569523Y-83100533D02*
X112521904Y-83243390D01*
X112521904Y-83243390D02*
X111950476Y-83814819D01*
X111950476Y-83814819D02*
X112569523Y-83814819D01*
X145954761Y-83910057D02*
X145859523Y-83862438D01*
X145859523Y-83862438D02*
X145764285Y-83767200D01*
X145764285Y-83767200D02*
X145621428Y-83624342D01*
X145621428Y-83624342D02*
X145526190Y-83576723D01*
X145526190Y-83576723D02*
X145430952Y-83576723D01*
X145478571Y-83814819D02*
X145383333Y-83767200D01*
X145383333Y-83767200D02*
X145288095Y-83671961D01*
X145288095Y-83671961D02*
X145240476Y-83481485D01*
X145240476Y-83481485D02*
X145240476Y-83148152D01*
X145240476Y-83148152D02*
X145288095Y-82957676D01*
X145288095Y-82957676D02*
X145383333Y-82862438D01*
X145383333Y-82862438D02*
X145478571Y-82814819D01*
X145478571Y-82814819D02*
X145669047Y-82814819D01*
X145669047Y-82814819D02*
X145764285Y-82862438D01*
X145764285Y-82862438D02*
X145859523Y-82957676D01*
X145859523Y-82957676D02*
X145907142Y-83148152D01*
X145907142Y-83148152D02*
X145907142Y-83481485D01*
X145907142Y-83481485D02*
X145859523Y-83671961D01*
X145859523Y-83671961D02*
X145764285Y-83767200D01*
X145764285Y-83767200D02*
X145669047Y-83814819D01*
X145669047Y-83814819D02*
X145478571Y-83814819D01*
X146811904Y-82814819D02*
X146335714Y-82814819D01*
X146335714Y-82814819D02*
X146288095Y-83291009D01*
X146288095Y-83291009D02*
X146335714Y-83243390D01*
X146335714Y-83243390D02*
X146430952Y-83195771D01*
X146430952Y-83195771D02*
X146669047Y-83195771D01*
X146669047Y-83195771D02*
X146764285Y-83243390D01*
X146764285Y-83243390D02*
X146811904Y-83291009D01*
X146811904Y-83291009D02*
X146859523Y-83386247D01*
X146859523Y-83386247D02*
X146859523Y-83624342D01*
X146859523Y-83624342D02*
X146811904Y-83719580D01*
X146811904Y-83719580D02*
X146764285Y-83767200D01*
X146764285Y-83767200D02*
X146669047Y-83814819D01*
X146669047Y-83814819D02*
X146430952Y-83814819D01*
X146430952Y-83814819D02*
X146335714Y-83767200D01*
X146335714Y-83767200D02*
X146288095Y-83719580D01*
X134524761Y-83910057D02*
X134429523Y-83862438D01*
X134429523Y-83862438D02*
X134334285Y-83767200D01*
X134334285Y-83767200D02*
X134191428Y-83624342D01*
X134191428Y-83624342D02*
X134096190Y-83576723D01*
X134096190Y-83576723D02*
X134000952Y-83576723D01*
X134048571Y-83814819D02*
X133953333Y-83767200D01*
X133953333Y-83767200D02*
X133858095Y-83671961D01*
X133858095Y-83671961D02*
X133810476Y-83481485D01*
X133810476Y-83481485D02*
X133810476Y-83148152D01*
X133810476Y-83148152D02*
X133858095Y-82957676D01*
X133858095Y-82957676D02*
X133953333Y-82862438D01*
X133953333Y-82862438D02*
X134048571Y-82814819D01*
X134048571Y-82814819D02*
X134239047Y-82814819D01*
X134239047Y-82814819D02*
X134334285Y-82862438D01*
X134334285Y-82862438D02*
X134429523Y-82957676D01*
X134429523Y-82957676D02*
X134477142Y-83148152D01*
X134477142Y-83148152D02*
X134477142Y-83481485D01*
X134477142Y-83481485D02*
X134429523Y-83671961D01*
X134429523Y-83671961D02*
X134334285Y-83767200D01*
X134334285Y-83767200D02*
X134239047Y-83814819D01*
X134239047Y-83814819D02*
X134048571Y-83814819D01*
X135334285Y-83148152D02*
X135334285Y-83814819D01*
X135096190Y-82767200D02*
X134858095Y-83481485D01*
X134858095Y-83481485D02*
X135477142Y-83481485D01*
X123094761Y-83910057D02*
X122999523Y-83862438D01*
X122999523Y-83862438D02*
X122904285Y-83767200D01*
X122904285Y-83767200D02*
X122761428Y-83624342D01*
X122761428Y-83624342D02*
X122666190Y-83576723D01*
X122666190Y-83576723D02*
X122570952Y-83576723D01*
X122618571Y-83814819D02*
X122523333Y-83767200D01*
X122523333Y-83767200D02*
X122428095Y-83671961D01*
X122428095Y-83671961D02*
X122380476Y-83481485D01*
X122380476Y-83481485D02*
X122380476Y-83148152D01*
X122380476Y-83148152D02*
X122428095Y-82957676D01*
X122428095Y-82957676D02*
X122523333Y-82862438D01*
X122523333Y-82862438D02*
X122618571Y-82814819D01*
X122618571Y-82814819D02*
X122809047Y-82814819D01*
X122809047Y-82814819D02*
X122904285Y-82862438D01*
X122904285Y-82862438D02*
X122999523Y-82957676D01*
X122999523Y-82957676D02*
X123047142Y-83148152D01*
X123047142Y-83148152D02*
X123047142Y-83481485D01*
X123047142Y-83481485D02*
X122999523Y-83671961D01*
X122999523Y-83671961D02*
X122904285Y-83767200D01*
X122904285Y-83767200D02*
X122809047Y-83814819D01*
X122809047Y-83814819D02*
X122618571Y-83814819D01*
X123380476Y-82814819D02*
X123999523Y-82814819D01*
X123999523Y-82814819D02*
X123666190Y-83195771D01*
X123666190Y-83195771D02*
X123809047Y-83195771D01*
X123809047Y-83195771D02*
X123904285Y-83243390D01*
X123904285Y-83243390D02*
X123951904Y-83291009D01*
X123951904Y-83291009D02*
X123999523Y-83386247D01*
X123999523Y-83386247D02*
X123999523Y-83624342D01*
X123999523Y-83624342D02*
X123951904Y-83719580D01*
X123951904Y-83719580D02*
X123904285Y-83767200D01*
X123904285Y-83767200D02*
X123809047Y-83814819D01*
X123809047Y-83814819D02*
X123523333Y-83814819D01*
X123523333Y-83814819D02*
X123428095Y-83767200D01*
X123428095Y-83767200D02*
X123380476Y-83719580D01*
X100234761Y-83910057D02*
X100139523Y-83862438D01*
X100139523Y-83862438D02*
X100044285Y-83767200D01*
X100044285Y-83767200D02*
X99901428Y-83624342D01*
X99901428Y-83624342D02*
X99806190Y-83576723D01*
X99806190Y-83576723D02*
X99710952Y-83576723D01*
X99758571Y-83814819D02*
X99663333Y-83767200D01*
X99663333Y-83767200D02*
X99568095Y-83671961D01*
X99568095Y-83671961D02*
X99520476Y-83481485D01*
X99520476Y-83481485D02*
X99520476Y-83148152D01*
X99520476Y-83148152D02*
X99568095Y-82957676D01*
X99568095Y-82957676D02*
X99663333Y-82862438D01*
X99663333Y-82862438D02*
X99758571Y-82814819D01*
X99758571Y-82814819D02*
X99949047Y-82814819D01*
X99949047Y-82814819D02*
X100044285Y-82862438D01*
X100044285Y-82862438D02*
X100139523Y-82957676D01*
X100139523Y-82957676D02*
X100187142Y-83148152D01*
X100187142Y-83148152D02*
X100187142Y-83481485D01*
X100187142Y-83481485D02*
X100139523Y-83671961D01*
X100139523Y-83671961D02*
X100044285Y-83767200D01*
X100044285Y-83767200D02*
X99949047Y-83814819D01*
X99949047Y-83814819D02*
X99758571Y-83814819D01*
X101139523Y-83814819D02*
X100568095Y-83814819D01*
X100853809Y-83814819D02*
X100853809Y-82814819D01*
X100853809Y-82814819D02*
X100758571Y-82957676D01*
X100758571Y-82957676D02*
X100663333Y-83052914D01*
X100663333Y-83052914D02*
X100568095Y-83100533D01*
X104309104Y-73424285D02*
X104309104Y-72948095D01*
X104594819Y-73519523D02*
X103594819Y-73186190D01*
X103594819Y-73186190D02*
X104594819Y-72852857D01*
X104594819Y-71995714D02*
X104594819Y-72567142D01*
X104594819Y-72281428D02*
X103594819Y-72281428D01*
X103594819Y-72281428D02*
X103737676Y-72376666D01*
X103737676Y-72376666D02*
X103832914Y-72471904D01*
X103832914Y-72471904D02*
X103880533Y-72567142D01*
X144234819Y-73971904D02*
X145044342Y-73971904D01*
X145044342Y-73971904D02*
X145139580Y-73924285D01*
X145139580Y-73924285D02*
X145187200Y-73876666D01*
X145187200Y-73876666D02*
X145234819Y-73781428D01*
X145234819Y-73781428D02*
X145234819Y-73590952D01*
X145234819Y-73590952D02*
X145187200Y-73495714D01*
X145187200Y-73495714D02*
X145139580Y-73448095D01*
X145139580Y-73448095D02*
X145044342Y-73400476D01*
X145044342Y-73400476D02*
X144234819Y-73400476D01*
X145187200Y-72971904D02*
X145234819Y-72829047D01*
X145234819Y-72829047D02*
X145234819Y-72590952D01*
X145234819Y-72590952D02*
X145187200Y-72495714D01*
X145187200Y-72495714D02*
X145139580Y-72448095D01*
X145139580Y-72448095D02*
X145044342Y-72400476D01*
X145044342Y-72400476D02*
X144949104Y-72400476D01*
X144949104Y-72400476D02*
X144853866Y-72448095D01*
X144853866Y-72448095D02*
X144806247Y-72495714D01*
X144806247Y-72495714D02*
X144758628Y-72590952D01*
X144758628Y-72590952D02*
X144711009Y-72781428D01*
X144711009Y-72781428D02*
X144663390Y-72876666D01*
X144663390Y-72876666D02*
X144615771Y-72924285D01*
X144615771Y-72924285D02*
X144520533Y-72971904D01*
X144520533Y-72971904D02*
X144425295Y-72971904D01*
X144425295Y-72971904D02*
X144330057Y-72924285D01*
X144330057Y-72924285D02*
X144282438Y-72876666D01*
X144282438Y-72876666D02*
X144234819Y-72781428D01*
X144234819Y-72781428D02*
X144234819Y-72543333D01*
X144234819Y-72543333D02*
X144282438Y-72400476D01*
X144711009Y-71638571D02*
X144758628Y-71495714D01*
X144758628Y-71495714D02*
X144806247Y-71448095D01*
X144806247Y-71448095D02*
X144901485Y-71400476D01*
X144901485Y-71400476D02*
X145044342Y-71400476D01*
X145044342Y-71400476D02*
X145139580Y-71448095D01*
X145139580Y-71448095D02*
X145187200Y-71495714D01*
X145187200Y-71495714D02*
X145234819Y-71590952D01*
X145234819Y-71590952D02*
X145234819Y-71971904D01*
X145234819Y-71971904D02*
X144234819Y-71971904D01*
X144234819Y-71971904D02*
X144234819Y-71638571D01*
X144234819Y-71638571D02*
X144282438Y-71543333D01*
X144282438Y-71543333D02*
X144330057Y-71495714D01*
X144330057Y-71495714D02*
X144425295Y-71448095D01*
X144425295Y-71448095D02*
X144520533Y-71448095D01*
X144520533Y-71448095D02*
X144615771Y-71495714D01*
X144615771Y-71495714D02*
X144663390Y-71543333D01*
X144663390Y-71543333D02*
X144711009Y-71638571D01*
X144711009Y-71638571D02*
X144711009Y-71971904D01*
X115294819Y-55638333D02*
X116009104Y-55638333D01*
X116009104Y-55638333D02*
X116151961Y-55685952D01*
X116151961Y-55685952D02*
X116247200Y-55781190D01*
X116247200Y-55781190D02*
X116294819Y-55924047D01*
X116294819Y-55924047D02*
X116294819Y-56019285D01*
X116294819Y-54638333D02*
X116294819Y-55209761D01*
X116294819Y-54924047D02*
X115294819Y-54924047D01*
X115294819Y-54924047D02*
X115437676Y-55019285D01*
X115437676Y-55019285D02*
X115532914Y-55114523D01*
X115532914Y-55114523D02*
X115580533Y-55209761D01*
D13*
%TO.C,D1*%
X100040000Y-92744000D02*
X100040000Y-92900000D01*
X100040000Y-95060000D02*
X100040000Y-95216000D01*
X100040000Y-92744484D02*
G75*
G02*
X103272335Y-92901392I1560000J-1235516D01*
G01*
X100559039Y-92900000D02*
G75*
G02*
X102641130Y-92900163I1040961J-1080000D01*
G01*
X102641130Y-95059837D02*
G75*
G02*
X100559039Y-95060000I-1041130J1079837D01*
G01*
X103272335Y-95058608D02*
G75*
G02*
X100040000Y-95215516I-1672335J1078608D01*
G01*
%TO.C,R1*%
X95080000Y-77720000D02*
X101620000Y-77720000D01*
X95080000Y-78050000D02*
X95080000Y-77720000D01*
X95080000Y-80130000D02*
X95080000Y-80460000D01*
X95080000Y-80460000D02*
X101620000Y-80460000D01*
X101620000Y-77720000D02*
X101620000Y-78050000D01*
X101620000Y-80460000D02*
X101620000Y-80130000D01*
%TO.C,D6*%
X157190000Y-92744000D02*
X157190000Y-92900000D01*
X157190000Y-95060000D02*
X157190000Y-95216000D01*
X157190000Y-92744484D02*
G75*
G02*
X160422335Y-92901392I1560000J-1235516D01*
G01*
X157709039Y-92900000D02*
G75*
G02*
X159791130Y-92900163I1040961J-1080000D01*
G01*
X159791130Y-95059837D02*
G75*
G02*
X157709039Y-95060000I-1041130J1079837D01*
G01*
X160422335Y-95058608D02*
G75*
G02*
X157190000Y-95215516I-1672335J1078608D01*
G01*
%TO.C,D5*%
X145760000Y-92744000D02*
X145760000Y-92900000D01*
X145760000Y-95060000D02*
X145760000Y-95216000D01*
X145760000Y-92744484D02*
G75*
G02*
X148992335Y-92901392I1560000J-1235516D01*
G01*
X146279039Y-92900000D02*
G75*
G02*
X148361130Y-92900163I1040961J-1080000D01*
G01*
X148361130Y-95059837D02*
G75*
G02*
X146279039Y-95060000I-1041130J1079837D01*
G01*
X148992335Y-95058608D02*
G75*
G02*
X145760000Y-95215516I-1672335J1078608D01*
G01*
%TO.C,Q6*%
X152360000Y-84360000D02*
X152360000Y-89001000D01*
X152360000Y-84360000D02*
X162600000Y-84360000D01*
X152360000Y-85870000D02*
X162600000Y-85870000D01*
X152360000Y-89001000D02*
X162600000Y-89001000D01*
X155630000Y-84360000D02*
X155630000Y-85870000D01*
X159331000Y-84360000D02*
X159331000Y-85870000D01*
X162600000Y-84360000D02*
X162600000Y-89001000D01*
%TO.C,REF\u002A\u002A*%
X156710000Y-70760000D02*
X158040000Y-70760000D01*
X156710000Y-72090000D02*
X156710000Y-70760000D01*
X156710000Y-73360000D02*
X156710000Y-75960000D01*
X156710000Y-73360000D02*
X159370000Y-73360000D01*
X156710000Y-75960000D02*
X159370000Y-75960000D01*
X159370000Y-73360000D02*
X159370000Y-75960000D01*
%TO.C,Q2*%
X106640000Y-84360000D02*
X106640000Y-89001000D01*
X106640000Y-84360000D02*
X116880000Y-84360000D01*
X106640000Y-85870000D02*
X116880000Y-85870000D01*
X106640000Y-89001000D02*
X116880000Y-89001000D01*
X109910000Y-84360000D02*
X109910000Y-85870000D01*
X113611000Y-84360000D02*
X113611000Y-85870000D01*
X116880000Y-84360000D02*
X116880000Y-89001000D01*
%TO.C,REF\u002A\u002A*%
X94790000Y-71590000D02*
X94790000Y-73090000D01*
X96040000Y-75590000D02*
X100540000Y-75590000D01*
X100540000Y-69090000D02*
X96040000Y-69090000D01*
X101790000Y-73090000D02*
X101790000Y-71590000D01*
%TO.C,D4*%
X134330000Y-92744000D02*
X134330000Y-92900000D01*
X134330000Y-95060000D02*
X134330000Y-95216000D01*
X134330000Y-92744484D02*
G75*
G02*
X137562335Y-92901392I1560000J-1235516D01*
G01*
X134849039Y-92900000D02*
G75*
G02*
X136931130Y-92900163I1040961J-1080000D01*
G01*
X136931130Y-95059837D02*
G75*
G02*
X134849039Y-95060000I-1041130J1079837D01*
G01*
X137562335Y-95058608D02*
G75*
G02*
X134330000Y-95215516I-1672335J1078608D01*
G01*
%TO.C,D3*%
X122900000Y-92744000D02*
X122900000Y-92900000D01*
X122900000Y-95060000D02*
X122900000Y-95216000D01*
X122900000Y-92744484D02*
G75*
G02*
X126132335Y-92901392I1560000J-1235516D01*
G01*
X123419039Y-92900000D02*
G75*
G02*
X125501130Y-92900163I1040961J-1080000D01*
G01*
X125501130Y-95059837D02*
G75*
G02*
X123419039Y-95060000I-1041130J1079837D01*
G01*
X126132335Y-95058608D02*
G75*
G02*
X122900000Y-95215516I-1672335J1078608D01*
G01*
%TO.C,Q5*%
X140930000Y-84360000D02*
X140930000Y-89001000D01*
X140930000Y-84360000D02*
X151170000Y-84360000D01*
X140930000Y-85870000D02*
X151170000Y-85870000D01*
X140930000Y-89001000D02*
X151170000Y-89001000D01*
X144200000Y-84360000D02*
X144200000Y-85870000D01*
X147901000Y-84360000D02*
X147901000Y-85870000D01*
X151170000Y-84360000D02*
X151170000Y-89001000D01*
%TO.C,Q4*%
X129500000Y-84360000D02*
X129500000Y-89001000D01*
X129500000Y-84360000D02*
X139740000Y-84360000D01*
X129500000Y-85870000D02*
X139740000Y-85870000D01*
X129500000Y-89001000D02*
X139740000Y-89001000D01*
X132770000Y-84360000D02*
X132770000Y-85870000D01*
X136471000Y-84360000D02*
X136471000Y-85870000D01*
X139740000Y-84360000D02*
X139740000Y-89001000D01*
%TO.C,Q3*%
X118070000Y-84360000D02*
X118070000Y-89001000D01*
X118070000Y-84360000D02*
X128310000Y-84360000D01*
X118070000Y-85870000D02*
X128310000Y-85870000D01*
X118070000Y-89001000D02*
X128310000Y-89001000D01*
X121340000Y-84360000D02*
X121340000Y-85870000D01*
X125041000Y-84360000D02*
X125041000Y-85870000D01*
X128310000Y-84360000D02*
X128310000Y-89001000D01*
%TO.C,Q1*%
X95210000Y-84360000D02*
X95210000Y-89001000D01*
X95210000Y-84360000D02*
X105450000Y-84360000D01*
X95210000Y-85870000D02*
X105450000Y-85870000D01*
X95210000Y-89001000D02*
X105450000Y-89001000D01*
X98480000Y-84360000D02*
X98480000Y-85870000D01*
X102181000Y-84360000D02*
X102181000Y-85870000D01*
X105450000Y-84360000D02*
X105450000Y-89001000D01*
%TO.C,A1*%
X105280000Y-63690000D02*
X105280000Y-81730000D01*
X105280000Y-81730000D02*
X107950000Y-81730000D01*
X107950000Y-66360000D02*
X107950000Y-63690000D01*
X107950000Y-66360000D02*
X146050000Y-66360000D01*
X107950000Y-79060000D02*
X107950000Y-81730000D01*
X110490000Y-79060000D02*
X107950000Y-79060000D01*
X110490000Y-79060000D02*
X110490000Y-81730000D01*
X110490000Y-79060000D02*
X146050000Y-79060000D01*
X110490000Y-81730000D02*
X148720000Y-81730000D01*
X140840000Y-68770000D02*
X151260000Y-68770000D01*
X140840000Y-76650000D02*
X140840000Y-68770000D01*
X146050000Y-66360000D02*
X146050000Y-63690000D01*
X146050000Y-79060000D02*
X146050000Y-81730000D01*
X148720000Y-63690000D02*
X105280000Y-63690000D01*
X148720000Y-63690000D02*
X148720000Y-68770000D01*
X148720000Y-81730000D02*
X148720000Y-76650000D01*
X151260000Y-68770000D02*
X151260000Y-76650000D01*
X151260000Y-76650000D02*
X140840000Y-76650000D01*
%TO.C,J1*%
X116780000Y-55590000D02*
X116780000Y-58250000D01*
X116780000Y-58250000D02*
X137220000Y-58250000D01*
X116840000Y-60960000D02*
X116840000Y-59690000D01*
X117730000Y-49590000D02*
X118490000Y-49590000D01*
X117730000Y-55590000D02*
X117730000Y-49590000D01*
X117730000Y-58580000D02*
X117730000Y-58250000D01*
X117790000Y-55590000D02*
X117790000Y-49590000D01*
X117910000Y-55590000D02*
X117910000Y-49590000D01*
X118030000Y-55590000D02*
X118030000Y-49590000D01*
X118110000Y-60960000D02*
X116840000Y-60960000D01*
X118150000Y-55590000D02*
X118150000Y-49590000D01*
X118270000Y-55590000D02*
X118270000Y-49590000D01*
X118390000Y-55590000D02*
X118390000Y-49590000D01*
X118490000Y-49590000D02*
X118490000Y-55590000D01*
X118490000Y-58580000D02*
X118490000Y-58250000D01*
X119380000Y-58250000D02*
X119380000Y-55590000D01*
X120270000Y-49590000D02*
X121030000Y-49590000D01*
X120270000Y-55590000D02*
X120270000Y-49590000D01*
X120270000Y-58647071D02*
X120270000Y-58250000D01*
X121030000Y-49590000D02*
X121030000Y-55590000D01*
X121030000Y-58647071D02*
X121030000Y-58250000D01*
X121920000Y-58250000D02*
X121920000Y-55590000D01*
X122810000Y-49590000D02*
X123570000Y-49590000D01*
X122810000Y-55590000D02*
X122810000Y-49590000D01*
X122810000Y-58647071D02*
X122810000Y-58250000D01*
X123570000Y-49590000D02*
X123570000Y-55590000D01*
X123570000Y-58647071D02*
X123570000Y-58250000D01*
X124460000Y-58250000D02*
X124460000Y-55590000D01*
X125350000Y-49590000D02*
X126110000Y-49590000D01*
X125350000Y-55590000D02*
X125350000Y-49590000D01*
X125350000Y-58647071D02*
X125350000Y-58250000D01*
X126110000Y-49590000D02*
X126110000Y-55590000D01*
X126110000Y-58647071D02*
X126110000Y-58250000D01*
X127000000Y-58250000D02*
X127000000Y-55590000D01*
X127890000Y-49590000D02*
X128650000Y-49590000D01*
X127890000Y-55590000D02*
X127890000Y-49590000D01*
X127890000Y-58647071D02*
X127890000Y-58250000D01*
X128650000Y-49590000D02*
X128650000Y-55590000D01*
X128650000Y-58647071D02*
X128650000Y-58250000D01*
X129540000Y-58250000D02*
X129540000Y-55590000D01*
X130430000Y-49590000D02*
X131190000Y-49590000D01*
X130430000Y-55590000D02*
X130430000Y-49590000D01*
X130430000Y-58647071D02*
X130430000Y-58250000D01*
X131190000Y-49590000D02*
X131190000Y-55590000D01*
X131190000Y-58647071D02*
X131190000Y-58250000D01*
X132080000Y-58250000D02*
X132080000Y-55590000D01*
X132970000Y-49590000D02*
X133730000Y-49590000D01*
X132970000Y-55590000D02*
X132970000Y-49590000D01*
X132970000Y-58647071D02*
X132970000Y-58250000D01*
X133730000Y-49590000D02*
X133730000Y-55590000D01*
X133730000Y-58647071D02*
X133730000Y-58250000D01*
X134620000Y-58250000D02*
X134620000Y-55590000D01*
X135510000Y-49590000D02*
X136270000Y-49590000D01*
X135510000Y-55590000D02*
X135510000Y-49590000D01*
X135510000Y-58647071D02*
X135510000Y-58250000D01*
X136270000Y-49590000D02*
X136270000Y-55590000D01*
X136270000Y-58647071D02*
X136270000Y-58250000D01*
X137220000Y-55590000D02*
X116780000Y-55590000D01*
X137220000Y-58250000D02*
X137220000Y-55590000D01*
%TO.C,D2*%
X111470000Y-92744000D02*
X111470000Y-92900000D01*
X111470000Y-95060000D02*
X111470000Y-95216000D01*
X111470000Y-92744484D02*
G75*
G02*
X114702335Y-92901392I1560000J-1235516D01*
G01*
X111989039Y-92900000D02*
G75*
G02*
X114071130Y-92900163I1040961J-1080000D01*
G01*
X114071130Y-95059837D02*
G75*
G02*
X111989039Y-95060000I-1041130J1079837D01*
G01*
X114702335Y-95058608D02*
G75*
G02*
X111470000Y-95215516I-1672335J1078608D01*
G01*
%TD*%
M02*
