M48
; DRILL file {KiCad 9.0.0} date 2025-03-22T14:07:57+1000
; FORMAT={-:-/ absolute / metric / decimal}
; #@! TF.CreationDate,2025-03-22T14:07:57+10:00
; #@! TF.GenerationSoftware,Kicad,Pcbnew,9.0.0
; #@! TF.FileFunction,Plated,1,2,PTH
FMAT,2
METRIC
; #@! TA.AperFunction,Plated,PTH,ComponentDrill
T1C0.800
; #@! TA.AperFunction,Plated,PTH,ComponentDrill
T2C0.900
; #@! TA.AperFunction,Plated,PTH,ComponentDrill
T3C1.000
; #@! TA.AperFunction,Plated,PTH,ComponentDrill
T4C1.100
%
G90
G05
T1
X94.54Y-79.09
X102.16Y-79.09
T2
X100.33Y-93.98
X102.87Y-93.98
X111.76Y-93.98
X114.3Y-93.98
X123.19Y-93.98
X125.73Y-93.98
X134.62Y-93.98
X137.16Y-93.98
X146.05Y-93.98
X148.59Y-93.98
X157.48Y-93.98
X160.02Y-93.98
T3
X109.22Y-65.09
X109.22Y-80.33
X111.76Y-65.09
X111.76Y-80.33
X114.3Y-65.09
X114.3Y-80.33
X115.57Y-101.6
X116.84Y-65.09
X116.84Y-80.33
X118.11Y-59.69
X118.11Y-101.6
X119.38Y-65.09
X119.38Y-80.33
X120.65Y-59.69
X120.65Y-101.6
X121.92Y-65.09
X121.92Y-80.33
X123.19Y-59.69
X123.19Y-101.6
X124.46Y-65.09
X124.46Y-80.33
X125.73Y-59.69
X125.73Y-101.6
X127.0Y-65.09
X127.0Y-80.33
X128.27Y-59.69
X128.27Y-101.6
X129.54Y-65.09
X129.54Y-80.33
X130.81Y-59.69
X130.81Y-101.6
X132.08Y-65.09
X132.08Y-80.33
X133.35Y-59.69
X133.35Y-101.6
X134.62Y-65.09
X134.62Y-80.33
X135.89Y-59.69
X135.89Y-101.6
X137.16Y-65.09
X137.16Y-80.33
X138.43Y-101.6
X139.7Y-65.09
X139.7Y-80.33
X140.97Y-101.6
X142.24Y-65.09
X142.24Y-80.33
X143.51Y-101.6
X144.78Y-65.09
X144.78Y-80.33
X158.04Y-72.09
X158.04Y-74.63
T4
X95.04Y-70.09
X95.04Y-74.59
X97.79Y-87.63
X100.33Y-87.63
X101.54Y-70.09
X101.54Y-74.59
X102.87Y-87.63
X109.22Y-87.63
X111.76Y-87.63
X114.3Y-87.63
X120.65Y-87.63
X123.19Y-87.63
X125.73Y-87.63
X132.08Y-87.63
X134.62Y-87.63
X137.16Y-87.63
X143.51Y-87.63
X146.05Y-87.63
X148.59Y-87.63
X154.94Y-87.63
X157.48Y-87.63
X160.02Y-87.63
M30
