%TF.GenerationSoftware,KiCad,Pcbnew,9.0.0*%
%TF.CreationDate,2025-03-22T14:07:59+10:00*%
%TF.ProjectId,ngmarquee.kicad_pcb_to220_1.0_m3,6e676d61-7271-4756-9565-2e6b69636164,rev?*%
%TF.SameCoordinates,Original*%
%TF.FileFunction,Copper,L1,Top*%
%TF.FilePolarity,Positive*%
%FSLAX46Y46*%
G04 Gerber Fmt 4.6, Leading zero omitted, Abs format (unit mm)*
G04 Created by KiCad (PCBNEW 9.0.0) date 2025-03-22 14:07:59*
%MOMM*%
%LPD*%
G01*
G04 APERTURE LIST*
%TA.AperFunction,ComponentPad*%
%ADD10R,1.800000X1.800000*%
%TD*%
%TA.AperFunction,ComponentPad*%
%ADD11C,1.800000*%
%TD*%
%TA.AperFunction,ComponentPad*%
%ADD12C,1.600000*%
%TD*%
%TA.AperFunction,ComponentPad*%
%ADD13O,1.600000X1.600000*%
%TD*%
%TA.AperFunction,ComponentPad*%
%ADD14R,1.905000X2.000000*%
%TD*%
%TA.AperFunction,ComponentPad*%
%ADD15O,1.905000X2.000000*%
%TD*%
%TA.AperFunction,ComponentPad*%
%ADD16R,1.700000X1.700000*%
%TD*%
%TA.AperFunction,ComponentPad*%
%ADD17O,1.700000X1.700000*%
%TD*%
%TA.AperFunction,ComponentPad*%
%ADD18C,2.000000*%
%TD*%
%TA.AperFunction,ComponentPad*%
%ADD19R,1.600000X1.600000*%
%TD*%
%TA.AperFunction,Conductor*%
%ADD20C,0.250000*%
%TD*%
G04 APERTURE END LIST*
D10*
%TO.P,D1,1*%
%TO.N,N/C*%
X100330000Y-93980000D03*
D11*
%TO.P,D1,2*%
X102870000Y-93980000D03*
%TD*%
D12*
%TO.P,R1,1*%
%TO.N,N/C*%
X94540000Y-79090000D03*
D13*
%TO.P,R1,2*%
X102160000Y-79090000D03*
%TD*%
D10*
%TO.P,D6,1*%
%TO.N,N/C*%
X157480000Y-93980000D03*
D11*
%TO.P,D6,2*%
X160020000Y-93980000D03*
%TD*%
D10*
%TO.P,D5,1*%
%TO.N,N/C*%
X146050000Y-93980000D03*
D11*
%TO.P,D5,2*%
X148590000Y-93980000D03*
%TD*%
D14*
%TO.P,Q6,1*%
%TO.N,N/C*%
X154940000Y-87630000D03*
D15*
%TO.P,Q6,2*%
X157480000Y-87630000D03*
%TO.P,Q6,3*%
X160020000Y-87630000D03*
%TD*%
D16*
%TO.P,REF\u002A\u002A,1*%
%TO.N,N/C*%
X158040000Y-72090000D03*
D17*
%TO.P,REF\u002A\u002A,2*%
X158040000Y-74630000D03*
%TD*%
D14*
%TO.P,Q2,1*%
%TO.N,N/C*%
X109220000Y-87630000D03*
D15*
%TO.P,Q2,2*%
X111760000Y-87630000D03*
%TO.P,Q2,3*%
X114300000Y-87630000D03*
%TD*%
D18*
%TO.P,REF\u002A\u002A,1*%
%TO.N,N/C*%
X95040000Y-70090000D03*
X101540000Y-70090000D03*
%TO.P,REF\u002A\u002A,2*%
X95040000Y-74590000D03*
X101540000Y-74590000D03*
%TD*%
D10*
%TO.P,D4,1*%
%TO.N,N/C*%
X134620000Y-93980000D03*
D11*
%TO.P,D4,2*%
X137160000Y-93980000D03*
%TD*%
D10*
%TO.P,D3,1*%
%TO.N,N/C*%
X123190000Y-93980000D03*
D11*
%TO.P,D3,2*%
X125730000Y-93980000D03*
%TD*%
D14*
%TO.P,Q5,1*%
%TO.N,N/C*%
X143510000Y-87630000D03*
D15*
%TO.P,Q5,2*%
X146050000Y-87630000D03*
%TO.P,Q5,3*%
X148590000Y-87630000D03*
%TD*%
D14*
%TO.P,Q4,1*%
%TO.N,N/C*%
X132080000Y-87630000D03*
D15*
%TO.P,Q4,2*%
X134620000Y-87630000D03*
%TO.P,Q4,3*%
X137160000Y-87630000D03*
%TD*%
D14*
%TO.P,Q3,1*%
%TO.N,N/C*%
X120650000Y-87630000D03*
D15*
%TO.P,Q3,2*%
X123190000Y-87630000D03*
%TO.P,Q3,3*%
X125730000Y-87630000D03*
%TD*%
D14*
%TO.P,Q1,1*%
%TO.N,N/C*%
X97790000Y-87630000D03*
D15*
%TO.P,Q1,2*%
X100330000Y-87630000D03*
%TO.P,Q1,3*%
X102870000Y-87630000D03*
%TD*%
D13*
%TO.P,A1,3V3 Out*%
%TO.N,N/C*%
X142240000Y-65090000D03*
%TO.P,A1,5V Out*%
X116840000Y-65090000D03*
%TO.P,A1,A0*%
X137160000Y-65090000D03*
%TO.P,A1,A1*%
X134620000Y-65090000D03*
%TO.P,A1,A2*%
X132080000Y-65090000D03*
%TO.P,A1,A3*%
X129540000Y-65090000D03*
%TO.P,A1,A4*%
X127000000Y-65090000D03*
%TO.P,A1,A5*%
X124460000Y-65090000D03*
%TO.P,A1,A6*%
X121920000Y-65090000D03*
%TO.P,A1,A7*%
X119380000Y-65090000D03*
%TO.P,A1,D2*%
X119380000Y-80330000D03*
%TO.P,A1,D3*%
X121920000Y-80330000D03*
%TO.P,A1,D4*%
X124460000Y-80330000D03*
%TO.P,A1,D5*%
X127000000Y-80330000D03*
%TO.P,A1,D6*%
X129540000Y-80330000D03*
%TO.P,A1,D7*%
X132080000Y-80330000D03*
%TO.P,A1,D8*%
X134620000Y-80330000D03*
%TO.P,A1,D9*%
X137160000Y-80330000D03*
%TO.P,A1,D10*%
X139700000Y-80330000D03*
%TO.P,A1,D11*%
X142240000Y-80330000D03*
%TO.P,A1,D12*%
X144780000Y-80330000D03*
%TO.P,A1,D13*%
X144780000Y-65090000D03*
%TO.P,A1,GND*%
X116840000Y-80330000D03*
X111760000Y-65090000D03*
%TO.P,A1,REF*%
X139700000Y-65090000D03*
%TO.P,A1,RST*%
X114300000Y-80330000D03*
X114300000Y-65090000D03*
%TO.P,A1,RX0*%
X111760000Y-80330000D03*
D19*
%TO.P,A1,TX1*%
X109220000Y-80330000D03*
D13*
%TO.P,A1,Vin*%
X109220000Y-65090000D03*
%TD*%
D16*
%TO.P,J1,1*%
%TO.N,N/C*%
X118110000Y-59690000D03*
D17*
%TO.P,J1,2*%
X120650000Y-59690000D03*
%TO.P,J1,3*%
X123190000Y-59690000D03*
%TO.P,J1,4*%
X125730000Y-59690000D03*
%TO.P,J1,5*%
X128270000Y-59690000D03*
%TO.P,J1,6*%
X130810000Y-59690000D03*
%TO.P,J1,7*%
X133350000Y-59690000D03*
%TO.P,J1,8*%
X135890000Y-59690000D03*
%TD*%
D10*
%TO.P,D2,1*%
%TO.N,N/C*%
X111760000Y-93980000D03*
D11*
%TO.P,D2,2*%
X114300000Y-93980000D03*
%TD*%
D16*
%TO.P,J2,1*%
%TO.N,N/C*%
X115570000Y-101600000D03*
D17*
%TO.P,J2,2*%
X118110000Y-101600000D03*
%TO.P,J2,3*%
X120650000Y-101600000D03*
%TO.P,J2,4*%
X123190000Y-101600000D03*
%TO.P,J2,5*%
X125730000Y-101600000D03*
%TO.P,J2,6*%
X128270000Y-101600000D03*
%TO.P,J2,7*%
X130810000Y-101600000D03*
%TO.P,J2,8*%
X133350000Y-101600000D03*
%TO.P,J2,9*%
X135890000Y-101600000D03*
%TO.P,J2,10*%
X138430000Y-101600000D03*
%TO.P,J2,11*%
X140970000Y-101600000D03*
%TO.P,J2,12*%
X143510000Y-101600000D03*
%TD*%
D20*
%TO.N,*%
X134620000Y-84010000D02*
X134540000Y-84090000D01*
X109040000Y-70090000D02*
X109220000Y-70090000D01*
X102870000Y-93980000D02*
X102870000Y-99920000D01*
X158040000Y-72090000D02*
X109040000Y-72090000D01*
X114300000Y-99060000D02*
X123010000Y-99060000D01*
X111760000Y-87630000D02*
X111760000Y-91440000D01*
X97790000Y-82340000D02*
X97790000Y-87630000D01*
X132540000Y-85090000D02*
X132080000Y-85550000D01*
X125730000Y-93980000D02*
X125730000Y-99060000D01*
X157480000Y-91440000D02*
X160020000Y-93980000D01*
X154940000Y-84690000D02*
X154940000Y-87630000D01*
X100330000Y-87630000D02*
X100330000Y-91440000D01*
X118040000Y-100090000D02*
X118040000Y-101530000D01*
X102870000Y-99920000D02*
X103040000Y-100090000D01*
X114300000Y-93980000D02*
X114300000Y-99060000D01*
X109220000Y-70090000D02*
X109220000Y-65090000D01*
X143540000Y-85590000D02*
X143510000Y-85620000D01*
X123190000Y-99240000D02*
X123190000Y-101600000D01*
X137160000Y-97790000D02*
X133350000Y-101600000D01*
X125730000Y-99060000D02*
X128270000Y-101600000D01*
X109220000Y-83410000D02*
X109220000Y-87630000D01*
X111760000Y-91440000D02*
X114300000Y-93980000D01*
X155040000Y-84090000D02*
X155040000Y-84590000D01*
X140040000Y-85090000D02*
X143540000Y-85090000D01*
X142240000Y-80330000D02*
X142240000Y-83790000D01*
X132040000Y-83090000D02*
X109540000Y-83090000D01*
X137160000Y-84970000D02*
X137040000Y-85090000D01*
X134620000Y-87630000D02*
X134620000Y-91440000D01*
X109540000Y-83090000D02*
X109220000Y-83410000D01*
X121040000Y-84090000D02*
X120650000Y-84480000D01*
X95040000Y-78590000D02*
X94540000Y-79090000D01*
X148590000Y-99040000D02*
X140990000Y-99040000D01*
X103040000Y-100090000D02*
X118040000Y-100090000D01*
X143510000Y-85620000D02*
X143510000Y-87630000D01*
X137040000Y-85090000D02*
X132540000Y-85090000D01*
X144780000Y-74830000D02*
X144780000Y-75090000D01*
X143540000Y-85090000D02*
X143540000Y-85590000D01*
X157480000Y-87630000D02*
X157480000Y-91440000D01*
X144820000Y-75130000D02*
X144780000Y-75090000D01*
X132080000Y-85550000D02*
X132080000Y-87630000D01*
X146050000Y-87630000D02*
X146050000Y-91440000D01*
X129540000Y-82090000D02*
X98040000Y-82090000D01*
X109040000Y-72090000D02*
X109040000Y-70090000D01*
X144540000Y-74590000D02*
X144780000Y-74830000D01*
X123190000Y-87630000D02*
X123190000Y-91440000D01*
X144780000Y-100330000D02*
X143510000Y-101600000D01*
X144980000Y-74630000D02*
X144780000Y-74830000D01*
X101540000Y-74590000D02*
X144540000Y-74590000D01*
X139700000Y-80330000D02*
X139700000Y-84750000D01*
X98040000Y-82090000D02*
X97790000Y-82340000D01*
X137160000Y-93980000D02*
X137160000Y-97790000D01*
X144780000Y-75090000D02*
X144780000Y-80330000D01*
X148590000Y-99040000D02*
X148590000Y-99060000D01*
X123190000Y-91440000D02*
X125730000Y-93980000D01*
X134540000Y-84090000D02*
X121040000Y-84090000D01*
X132080000Y-83050000D02*
X132040000Y-83090000D01*
X101540000Y-70090000D02*
X109040000Y-70090000D01*
X137160000Y-80330000D02*
X137160000Y-84970000D01*
X148590000Y-93980000D02*
X148590000Y-99040000D01*
X139700000Y-84750000D02*
X140040000Y-85090000D01*
X160020000Y-100330000D02*
X144780000Y-100330000D01*
X123010000Y-99060000D02*
X123190000Y-99240000D01*
X142240000Y-83790000D02*
X142540000Y-84090000D01*
X146050000Y-91440000D02*
X148590000Y-93980000D01*
X160020000Y-93980000D02*
X160020000Y-100330000D01*
X120650000Y-84480000D02*
X120650000Y-87630000D01*
X100330000Y-91440000D02*
X102870000Y-93980000D01*
X140990000Y-99040000D02*
X138430000Y-101600000D01*
X158040000Y-74630000D02*
X144980000Y-74630000D01*
X134620000Y-80330000D02*
X134620000Y-84010000D01*
X134620000Y-91440000D02*
X137160000Y-93980000D01*
X132080000Y-80330000D02*
X132080000Y-83050000D01*
X129540000Y-80330000D02*
X129540000Y-82090000D01*
X118040000Y-101530000D02*
X118110000Y-101600000D01*
X142540000Y-84090000D02*
X155040000Y-84090000D01*
X155040000Y-84590000D02*
X154940000Y-84690000D01*
%TD*%
M02*
