%TF.GenerationSoftware,KiCad,Pcbnew,9.0.0*%
%TF.CreationDate,2025-03-22T13:55:08+10:00*%
%TF.ProjectId,ngmarquee.kicad_pcb_to220_usb_switch_1.01_m3,6e676d61-7271-4756-9565-2e6b69636164,rev?*%
%TF.SameCoordinates,Original*%
%TF.FileFunction,Legend,Top*%
%TF.FilePolarity,Positive*%
%FSLAX46Y46*%
G04 Gerber Fmt 4.6, Leading zero omitted, Abs format (unit mm)*
G04 Created by KiCad (PCBNEW 9.0.0) date 2025-03-22 13:55:08*
%MOMM*%
%LPD*%
G01*
G04 APERTURE LIST*
%ADD10C,0.150000*%
%ADD11C,0.300000*%
%ADD12C,0.200000*%
%ADD13C,0.100000*%
%ADD14C,0.120000*%
G04 APERTURE END LIST*
D10*
X135376779Y-91459819D02*
X135376779Y-90459819D01*
X135376779Y-90459819D02*
X135614874Y-90459819D01*
X135614874Y-90459819D02*
X135757731Y-90507438D01*
X135757731Y-90507438D02*
X135852969Y-90602676D01*
X135852969Y-90602676D02*
X135900588Y-90697914D01*
X135900588Y-90697914D02*
X135948207Y-90888390D01*
X135948207Y-90888390D02*
X135948207Y-91031247D01*
X135948207Y-91031247D02*
X135900588Y-91221723D01*
X135900588Y-91221723D02*
X135852969Y-91316961D01*
X135852969Y-91316961D02*
X135757731Y-91412200D01*
X135757731Y-91412200D02*
X135614874Y-91459819D01*
X135614874Y-91459819D02*
X135376779Y-91459819D01*
X136805350Y-90793152D02*
X136805350Y-91459819D01*
X136567255Y-90412200D02*
X136329160Y-91126485D01*
X136329160Y-91126485D02*
X136948207Y-91126485D01*
X146876779Y-91459819D02*
X146876779Y-90459819D01*
X146876779Y-90459819D02*
X147114874Y-90459819D01*
X147114874Y-90459819D02*
X147257731Y-90507438D01*
X147257731Y-90507438D02*
X147352969Y-90602676D01*
X147352969Y-90602676D02*
X147400588Y-90697914D01*
X147400588Y-90697914D02*
X147448207Y-90888390D01*
X147448207Y-90888390D02*
X147448207Y-91031247D01*
X147448207Y-91031247D02*
X147400588Y-91221723D01*
X147400588Y-91221723D02*
X147352969Y-91316961D01*
X147352969Y-91316961D02*
X147257731Y-91412200D01*
X147257731Y-91412200D02*
X147114874Y-91459819D01*
X147114874Y-91459819D02*
X146876779Y-91459819D01*
X148352969Y-90459819D02*
X147876779Y-90459819D01*
X147876779Y-90459819D02*
X147829160Y-90936009D01*
X147829160Y-90936009D02*
X147876779Y-90888390D01*
X147876779Y-90888390D02*
X147972017Y-90840771D01*
X147972017Y-90840771D02*
X148210112Y-90840771D01*
X148210112Y-90840771D02*
X148305350Y-90888390D01*
X148305350Y-90888390D02*
X148352969Y-90936009D01*
X148352969Y-90936009D02*
X148400588Y-91031247D01*
X148400588Y-91031247D02*
X148400588Y-91269342D01*
X148400588Y-91269342D02*
X148352969Y-91364580D01*
X148352969Y-91364580D02*
X148305350Y-91412200D01*
X148305350Y-91412200D02*
X148210112Y-91459819D01*
X148210112Y-91459819D02*
X147972017Y-91459819D01*
X147972017Y-91459819D02*
X147876779Y-91412200D01*
X147876779Y-91412200D02*
X147829160Y-91364580D01*
D11*
X171094510Y-72819400D02*
X172237368Y-72819400D01*
X171665939Y-73390828D02*
X171665939Y-72247971D01*
X97594510Y-93819400D02*
X98737368Y-93819400D01*
X98165939Y-94390828D02*
X98165939Y-93247971D01*
X120594510Y-93819400D02*
X121737368Y-93819400D01*
X121165939Y-94390828D02*
X121165939Y-93247971D01*
D10*
X86376779Y-67959819D02*
X86376779Y-66959819D01*
X86376779Y-66959819D02*
X86710112Y-67674104D01*
X86710112Y-67674104D02*
X87043445Y-66959819D01*
X87043445Y-66959819D02*
X87043445Y-67959819D01*
X87948207Y-67959819D02*
X87948207Y-67436009D01*
X87948207Y-67436009D02*
X87900588Y-67340771D01*
X87900588Y-67340771D02*
X87805350Y-67293152D01*
X87805350Y-67293152D02*
X87614874Y-67293152D01*
X87614874Y-67293152D02*
X87519636Y-67340771D01*
X87948207Y-67912200D02*
X87852969Y-67959819D01*
X87852969Y-67959819D02*
X87614874Y-67959819D01*
X87614874Y-67959819D02*
X87519636Y-67912200D01*
X87519636Y-67912200D02*
X87472017Y-67816961D01*
X87472017Y-67816961D02*
X87472017Y-67721723D01*
X87472017Y-67721723D02*
X87519636Y-67626485D01*
X87519636Y-67626485D02*
X87614874Y-67578866D01*
X87614874Y-67578866D02*
X87852969Y-67578866D01*
X87852969Y-67578866D02*
X87948207Y-67531247D01*
X88424398Y-67293152D02*
X88424398Y-67959819D01*
X88424398Y-67388390D02*
X88472017Y-67340771D01*
X88472017Y-67340771D02*
X88567255Y-67293152D01*
X88567255Y-67293152D02*
X88710112Y-67293152D01*
X88710112Y-67293152D02*
X88805350Y-67340771D01*
X88805350Y-67340771D02*
X88852969Y-67436009D01*
X88852969Y-67436009D02*
X88852969Y-67959819D01*
X89757731Y-67293152D02*
X89757731Y-67959819D01*
X89329160Y-67293152D02*
X89329160Y-67816961D01*
X89329160Y-67816961D02*
X89376779Y-67912200D01*
X89376779Y-67912200D02*
X89472017Y-67959819D01*
X89472017Y-67959819D02*
X89614874Y-67959819D01*
X89614874Y-67959819D02*
X89710112Y-67912200D01*
X89710112Y-67912200D02*
X89757731Y-67864580D01*
X90662493Y-67959819D02*
X90662493Y-67436009D01*
X90662493Y-67436009D02*
X90614874Y-67340771D01*
X90614874Y-67340771D02*
X90519636Y-67293152D01*
X90519636Y-67293152D02*
X90329160Y-67293152D01*
X90329160Y-67293152D02*
X90233922Y-67340771D01*
X90662493Y-67912200D02*
X90567255Y-67959819D01*
X90567255Y-67959819D02*
X90329160Y-67959819D01*
X90329160Y-67959819D02*
X90233922Y-67912200D01*
X90233922Y-67912200D02*
X90186303Y-67816961D01*
X90186303Y-67816961D02*
X90186303Y-67721723D01*
X90186303Y-67721723D02*
X90233922Y-67626485D01*
X90233922Y-67626485D02*
X90329160Y-67578866D01*
X90329160Y-67578866D02*
X90567255Y-67578866D01*
X90567255Y-67578866D02*
X90662493Y-67531247D01*
X91281541Y-67959819D02*
X91186303Y-67912200D01*
X91186303Y-67912200D02*
X91138684Y-67816961D01*
X91138684Y-67816961D02*
X91138684Y-66959819D01*
X92376780Y-67912200D02*
X92519637Y-67959819D01*
X92519637Y-67959819D02*
X92757732Y-67959819D01*
X92757732Y-67959819D02*
X92852970Y-67912200D01*
X92852970Y-67912200D02*
X92900589Y-67864580D01*
X92900589Y-67864580D02*
X92948208Y-67769342D01*
X92948208Y-67769342D02*
X92948208Y-67674104D01*
X92948208Y-67674104D02*
X92900589Y-67578866D01*
X92900589Y-67578866D02*
X92852970Y-67531247D01*
X92852970Y-67531247D02*
X92757732Y-67483628D01*
X92757732Y-67483628D02*
X92567256Y-67436009D01*
X92567256Y-67436009D02*
X92472018Y-67388390D01*
X92472018Y-67388390D02*
X92424399Y-67340771D01*
X92424399Y-67340771D02*
X92376780Y-67245533D01*
X92376780Y-67245533D02*
X92376780Y-67150295D01*
X92376780Y-67150295D02*
X92424399Y-67055057D01*
X92424399Y-67055057D02*
X92472018Y-67007438D01*
X92472018Y-67007438D02*
X92567256Y-66959819D01*
X92567256Y-66959819D02*
X92805351Y-66959819D01*
X92805351Y-66959819D02*
X92948208Y-67007438D01*
X93281542Y-67293152D02*
X93472018Y-67959819D01*
X93472018Y-67959819D02*
X93662494Y-67483628D01*
X93662494Y-67483628D02*
X93852970Y-67959819D01*
X93852970Y-67959819D02*
X94043446Y-67293152D01*
X94424399Y-67959819D02*
X94424399Y-67293152D01*
X94424399Y-66959819D02*
X94376780Y-67007438D01*
X94376780Y-67007438D02*
X94424399Y-67055057D01*
X94424399Y-67055057D02*
X94472018Y-67007438D01*
X94472018Y-67007438D02*
X94424399Y-66959819D01*
X94424399Y-66959819D02*
X94424399Y-67055057D01*
X94757732Y-67293152D02*
X95138684Y-67293152D01*
X94900589Y-66959819D02*
X94900589Y-67816961D01*
X94900589Y-67816961D02*
X94948208Y-67912200D01*
X94948208Y-67912200D02*
X95043446Y-67959819D01*
X95043446Y-67959819D02*
X95138684Y-67959819D01*
X95900589Y-67912200D02*
X95805351Y-67959819D01*
X95805351Y-67959819D02*
X95614875Y-67959819D01*
X95614875Y-67959819D02*
X95519637Y-67912200D01*
X95519637Y-67912200D02*
X95472018Y-67864580D01*
X95472018Y-67864580D02*
X95424399Y-67769342D01*
X95424399Y-67769342D02*
X95424399Y-67483628D01*
X95424399Y-67483628D02*
X95472018Y-67388390D01*
X95472018Y-67388390D02*
X95519637Y-67340771D01*
X95519637Y-67340771D02*
X95614875Y-67293152D01*
X95614875Y-67293152D02*
X95805351Y-67293152D01*
X95805351Y-67293152D02*
X95900589Y-67340771D01*
X96329161Y-67959819D02*
X96329161Y-66959819D01*
X96757732Y-67959819D02*
X96757732Y-67436009D01*
X96757732Y-67436009D02*
X96710113Y-67340771D01*
X96710113Y-67340771D02*
X96614875Y-67293152D01*
X96614875Y-67293152D02*
X96472018Y-67293152D01*
X96472018Y-67293152D02*
X96376780Y-67340771D01*
X96376780Y-67340771D02*
X96329161Y-67388390D01*
X100876779Y-91459819D02*
X100876779Y-90459819D01*
X100876779Y-90459819D02*
X101114874Y-90459819D01*
X101114874Y-90459819D02*
X101257731Y-90507438D01*
X101257731Y-90507438D02*
X101352969Y-90602676D01*
X101352969Y-90602676D02*
X101400588Y-90697914D01*
X101400588Y-90697914D02*
X101448207Y-90888390D01*
X101448207Y-90888390D02*
X101448207Y-91031247D01*
X101448207Y-91031247D02*
X101400588Y-91221723D01*
X101400588Y-91221723D02*
X101352969Y-91316961D01*
X101352969Y-91316961D02*
X101257731Y-91412200D01*
X101257731Y-91412200D02*
X101114874Y-91459819D01*
X101114874Y-91459819D02*
X100876779Y-91459819D01*
X102400588Y-91459819D02*
X101829160Y-91459819D01*
X102114874Y-91459819D02*
X102114874Y-90459819D01*
X102114874Y-90459819D02*
X102019636Y-90602676D01*
X102019636Y-90602676D02*
X101924398Y-90697914D01*
X101924398Y-90697914D02*
X101829160Y-90745533D01*
D12*
X90362054Y-82052457D02*
X90409673Y-82004838D01*
X90409673Y-82004838D02*
X90504911Y-81957219D01*
X90504911Y-81957219D02*
X90743006Y-81957219D01*
X90743006Y-81957219D02*
X90838244Y-82004838D01*
X90838244Y-82004838D02*
X90885863Y-82052457D01*
X90885863Y-82052457D02*
X90933482Y-82147695D01*
X90933482Y-82147695D02*
X90933482Y-82242933D01*
X90933482Y-82242933D02*
X90885863Y-82385790D01*
X90885863Y-82385790D02*
X90314435Y-82957219D01*
X90314435Y-82957219D02*
X90933482Y-82957219D01*
X91552530Y-81957219D02*
X91647768Y-81957219D01*
X91647768Y-81957219D02*
X91743006Y-82004838D01*
X91743006Y-82004838D02*
X91790625Y-82052457D01*
X91790625Y-82052457D02*
X91838244Y-82147695D01*
X91838244Y-82147695D02*
X91885863Y-82338171D01*
X91885863Y-82338171D02*
X91885863Y-82576266D01*
X91885863Y-82576266D02*
X91838244Y-82766742D01*
X91838244Y-82766742D02*
X91790625Y-82861980D01*
X91790625Y-82861980D02*
X91743006Y-82909600D01*
X91743006Y-82909600D02*
X91647768Y-82957219D01*
X91647768Y-82957219D02*
X91552530Y-82957219D01*
X91552530Y-82957219D02*
X91457292Y-82909600D01*
X91457292Y-82909600D02*
X91409673Y-82861980D01*
X91409673Y-82861980D02*
X91362054Y-82766742D01*
X91362054Y-82766742D02*
X91314435Y-82576266D01*
X91314435Y-82576266D02*
X91314435Y-82338171D01*
X91314435Y-82338171D02*
X91362054Y-82147695D01*
X91362054Y-82147695D02*
X91409673Y-82052457D01*
X91409673Y-82052457D02*
X91457292Y-82004838D01*
X91457292Y-82004838D02*
X91552530Y-81957219D01*
X92314435Y-82957219D02*
X92314435Y-81957219D01*
X92409673Y-82576266D02*
X92695387Y-82957219D01*
X92695387Y-82290552D02*
X92314435Y-82671504D01*
D11*
X141524510Y-62030828D02*
X141524510Y-60530828D01*
X141524510Y-60530828D02*
X142095939Y-60530828D01*
X142095939Y-60530828D02*
X142238796Y-60602257D01*
X142238796Y-60602257D02*
X142310225Y-60673685D01*
X142310225Y-60673685D02*
X142381653Y-60816542D01*
X142381653Y-60816542D02*
X142381653Y-61030828D01*
X142381653Y-61030828D02*
X142310225Y-61173685D01*
X142310225Y-61173685D02*
X142238796Y-61245114D01*
X142238796Y-61245114D02*
X142095939Y-61316542D01*
X142095939Y-61316542D02*
X141524510Y-61316542D01*
X143238796Y-61173685D02*
X143095939Y-61102257D01*
X143095939Y-61102257D02*
X143024510Y-61030828D01*
X143024510Y-61030828D02*
X142953082Y-60887971D01*
X142953082Y-60887971D02*
X142953082Y-60816542D01*
X142953082Y-60816542D02*
X143024510Y-60673685D01*
X143024510Y-60673685D02*
X143095939Y-60602257D01*
X143095939Y-60602257D02*
X143238796Y-60530828D01*
X143238796Y-60530828D02*
X143524510Y-60530828D01*
X143524510Y-60530828D02*
X143667368Y-60602257D01*
X143667368Y-60602257D02*
X143738796Y-60673685D01*
X143738796Y-60673685D02*
X143810225Y-60816542D01*
X143810225Y-60816542D02*
X143810225Y-60887971D01*
X143810225Y-60887971D02*
X143738796Y-61030828D01*
X143738796Y-61030828D02*
X143667368Y-61102257D01*
X143667368Y-61102257D02*
X143524510Y-61173685D01*
X143524510Y-61173685D02*
X143238796Y-61173685D01*
X143238796Y-61173685D02*
X143095939Y-61245114D01*
X143095939Y-61245114D02*
X143024510Y-61316542D01*
X143024510Y-61316542D02*
X142953082Y-61459400D01*
X142953082Y-61459400D02*
X142953082Y-61745114D01*
X142953082Y-61745114D02*
X143024510Y-61887971D01*
X143024510Y-61887971D02*
X143095939Y-61959400D01*
X143095939Y-61959400D02*
X143238796Y-62030828D01*
X143238796Y-62030828D02*
X143524510Y-62030828D01*
X143524510Y-62030828D02*
X143667368Y-61959400D01*
X143667368Y-61959400D02*
X143738796Y-61887971D01*
X143738796Y-61887971D02*
X143810225Y-61745114D01*
X143810225Y-61745114D02*
X143810225Y-61459400D01*
X143810225Y-61459400D02*
X143738796Y-61316542D01*
X143738796Y-61316542D02*
X143667368Y-61245114D01*
X143667368Y-61245114D02*
X143524510Y-61173685D01*
X109094510Y-93819400D02*
X110237368Y-93819400D01*
X109665939Y-94390828D02*
X109665939Y-93247971D01*
X141380225Y-62462257D02*
X141237368Y-62390828D01*
X141237368Y-62390828D02*
X141023082Y-62390828D01*
X141023082Y-62390828D02*
X140808796Y-62462257D01*
X140808796Y-62462257D02*
X140665939Y-62605114D01*
X140665939Y-62605114D02*
X140594510Y-62747971D01*
X140594510Y-62747971D02*
X140523082Y-63033685D01*
X140523082Y-63033685D02*
X140523082Y-63247971D01*
X140523082Y-63247971D02*
X140594510Y-63533685D01*
X140594510Y-63533685D02*
X140665939Y-63676542D01*
X140665939Y-63676542D02*
X140808796Y-63819400D01*
X140808796Y-63819400D02*
X141023082Y-63890828D01*
X141023082Y-63890828D02*
X141165939Y-63890828D01*
X141165939Y-63890828D02*
X141380225Y-63819400D01*
X141380225Y-63819400D02*
X141451653Y-63747971D01*
X141451653Y-63747971D02*
X141451653Y-63247971D01*
X141451653Y-63247971D02*
X141165939Y-63247971D01*
X142094510Y-63890828D02*
X142094510Y-62390828D01*
X142094510Y-62390828D02*
X142951653Y-63890828D01*
X142951653Y-63890828D02*
X142951653Y-62390828D01*
X143665939Y-63890828D02*
X143665939Y-62390828D01*
X143665939Y-62390828D02*
X144023082Y-62390828D01*
X144023082Y-62390828D02*
X144237368Y-62462257D01*
X144237368Y-62462257D02*
X144380225Y-62605114D01*
X144380225Y-62605114D02*
X144451654Y-62747971D01*
X144451654Y-62747971D02*
X144523082Y-63033685D01*
X144523082Y-63033685D02*
X144523082Y-63247971D01*
X144523082Y-63247971D02*
X144451654Y-63533685D01*
X144451654Y-63533685D02*
X144380225Y-63676542D01*
X144380225Y-63676542D02*
X144237368Y-63819400D01*
X144237368Y-63819400D02*
X144023082Y-63890828D01*
X144023082Y-63890828D02*
X143665939Y-63890828D01*
D10*
X123876779Y-91459819D02*
X123876779Y-90459819D01*
X123876779Y-90459819D02*
X124114874Y-90459819D01*
X124114874Y-90459819D02*
X124257731Y-90507438D01*
X124257731Y-90507438D02*
X124352969Y-90602676D01*
X124352969Y-90602676D02*
X124400588Y-90697914D01*
X124400588Y-90697914D02*
X124448207Y-90888390D01*
X124448207Y-90888390D02*
X124448207Y-91031247D01*
X124448207Y-91031247D02*
X124400588Y-91221723D01*
X124400588Y-91221723D02*
X124352969Y-91316961D01*
X124352969Y-91316961D02*
X124257731Y-91412200D01*
X124257731Y-91412200D02*
X124114874Y-91459819D01*
X124114874Y-91459819D02*
X123876779Y-91459819D01*
X124781541Y-90459819D02*
X125400588Y-90459819D01*
X125400588Y-90459819D02*
X125067255Y-90840771D01*
X125067255Y-90840771D02*
X125210112Y-90840771D01*
X125210112Y-90840771D02*
X125305350Y-90888390D01*
X125305350Y-90888390D02*
X125352969Y-90936009D01*
X125352969Y-90936009D02*
X125400588Y-91031247D01*
X125400588Y-91031247D02*
X125400588Y-91269342D01*
X125400588Y-91269342D02*
X125352969Y-91364580D01*
X125352969Y-91364580D02*
X125305350Y-91412200D01*
X125305350Y-91412200D02*
X125210112Y-91459819D01*
X125210112Y-91459819D02*
X124924398Y-91459819D01*
X124924398Y-91459819D02*
X124829160Y-91412200D01*
X124829160Y-91412200D02*
X124781541Y-91364580D01*
D11*
X112880225Y-62390828D02*
X113380225Y-63890828D01*
X113380225Y-63890828D02*
X113880225Y-62390828D01*
X115023082Y-63819400D02*
X114880224Y-63890828D01*
X114880224Y-63890828D02*
X114594510Y-63890828D01*
X114594510Y-63890828D02*
X114451653Y-63819400D01*
X114451653Y-63819400D02*
X114380224Y-63747971D01*
X114380224Y-63747971D02*
X114308796Y-63605114D01*
X114308796Y-63605114D02*
X114308796Y-63176542D01*
X114308796Y-63176542D02*
X114380224Y-63033685D01*
X114380224Y-63033685D02*
X114451653Y-62962257D01*
X114451653Y-62962257D02*
X114594510Y-62890828D01*
X114594510Y-62890828D02*
X114880224Y-62890828D01*
X114880224Y-62890828D02*
X115023082Y-62962257D01*
X116308796Y-63819400D02*
X116165938Y-63890828D01*
X116165938Y-63890828D02*
X115880224Y-63890828D01*
X115880224Y-63890828D02*
X115737367Y-63819400D01*
X115737367Y-63819400D02*
X115665938Y-63747971D01*
X115665938Y-63747971D02*
X115594510Y-63605114D01*
X115594510Y-63605114D02*
X115594510Y-63176542D01*
X115594510Y-63176542D02*
X115665938Y-63033685D01*
X115665938Y-63033685D02*
X115737367Y-62962257D01*
X115737367Y-62962257D02*
X115880224Y-62890828D01*
X115880224Y-62890828D02*
X116165938Y-62890828D01*
X116165938Y-62890828D02*
X116308796Y-62962257D01*
D13*
X175343884Y-69753035D02*
X175343884Y-70562558D01*
X175343884Y-70562558D02*
X175391503Y-70657796D01*
X175391503Y-70657796D02*
X175439122Y-70705416D01*
X175439122Y-70705416D02*
X175534360Y-70753035D01*
X175534360Y-70753035D02*
X175724836Y-70753035D01*
X175724836Y-70753035D02*
X175820074Y-70705416D01*
X175820074Y-70705416D02*
X175867693Y-70657796D01*
X175867693Y-70657796D02*
X175915312Y-70562558D01*
X175915312Y-70562558D02*
X175915312Y-69753035D01*
X175296265Y-72315360D02*
X175439122Y-72362979D01*
X175439122Y-72362979D02*
X175677217Y-72362979D01*
X175677217Y-72362979D02*
X175772455Y-72315360D01*
X175772455Y-72315360D02*
X175820074Y-72267740D01*
X175820074Y-72267740D02*
X175867693Y-72172502D01*
X175867693Y-72172502D02*
X175867693Y-72077264D01*
X175867693Y-72077264D02*
X175820074Y-71982026D01*
X175820074Y-71982026D02*
X175772455Y-71934407D01*
X175772455Y-71934407D02*
X175677217Y-71886788D01*
X175677217Y-71886788D02*
X175486741Y-71839169D01*
X175486741Y-71839169D02*
X175391503Y-71791550D01*
X175391503Y-71791550D02*
X175343884Y-71743931D01*
X175343884Y-71743931D02*
X175296265Y-71648693D01*
X175296265Y-71648693D02*
X175296265Y-71553455D01*
X175296265Y-71553455D02*
X175343884Y-71458217D01*
X175343884Y-71458217D02*
X175391503Y-71410598D01*
X175391503Y-71410598D02*
X175486741Y-71362979D01*
X175486741Y-71362979D02*
X175724836Y-71362979D01*
X175724836Y-71362979D02*
X175867693Y-71410598D01*
X175677217Y-73449113D02*
X175820074Y-73496732D01*
X175820074Y-73496732D02*
X175867693Y-73544351D01*
X175867693Y-73544351D02*
X175915312Y-73639589D01*
X175915312Y-73639589D02*
X175915312Y-73782446D01*
X175915312Y-73782446D02*
X175867693Y-73877684D01*
X175867693Y-73877684D02*
X175820074Y-73925304D01*
X175820074Y-73925304D02*
X175724836Y-73972923D01*
X175724836Y-73972923D02*
X175343884Y-73972923D01*
X175343884Y-73972923D02*
X175343884Y-72972923D01*
X175343884Y-72972923D02*
X175677217Y-72972923D01*
X175677217Y-72972923D02*
X175772455Y-73020542D01*
X175772455Y-73020542D02*
X175820074Y-73068161D01*
X175820074Y-73068161D02*
X175867693Y-73163399D01*
X175867693Y-73163399D02*
X175867693Y-73258637D01*
X175867693Y-73258637D02*
X175820074Y-73353875D01*
X175820074Y-73353875D02*
X175772455Y-73401494D01*
X175772455Y-73401494D02*
X175677217Y-73449113D01*
X175677217Y-73449113D02*
X175343884Y-73449113D01*
X175915312Y-77192811D02*
X175581979Y-76716620D01*
X175343884Y-77192811D02*
X175343884Y-76192811D01*
X175343884Y-76192811D02*
X175724836Y-76192811D01*
X175724836Y-76192811D02*
X175820074Y-76240430D01*
X175820074Y-76240430D02*
X175867693Y-76288049D01*
X175867693Y-76288049D02*
X175915312Y-76383287D01*
X175915312Y-76383287D02*
X175915312Y-76526144D01*
X175915312Y-76526144D02*
X175867693Y-76621382D01*
X175867693Y-76621382D02*
X175820074Y-76669001D01*
X175820074Y-76669001D02*
X175724836Y-76716620D01*
X175724836Y-76716620D02*
X175343884Y-76716620D01*
X175724836Y-78755136D02*
X175629598Y-78802755D01*
X175629598Y-78802755D02*
X175439122Y-78802755D01*
X175439122Y-78802755D02*
X175343884Y-78755136D01*
X175343884Y-78755136D02*
X175296265Y-78659897D01*
X175296265Y-78659897D02*
X175296265Y-78278945D01*
X175296265Y-78278945D02*
X175343884Y-78183707D01*
X175343884Y-78183707D02*
X175439122Y-78136088D01*
X175439122Y-78136088D02*
X175629598Y-78136088D01*
X175629598Y-78136088D02*
X175724836Y-78183707D01*
X175724836Y-78183707D02*
X175772455Y-78278945D01*
X175772455Y-78278945D02*
X175772455Y-78374183D01*
X175772455Y-78374183D02*
X175296265Y-78469421D01*
X175248646Y-79746032D02*
X175486741Y-80412699D01*
X175486741Y-80412699D02*
X175724836Y-79746032D01*
X175867693Y-83632587D02*
X175296265Y-83632587D01*
X175581979Y-83632587D02*
X175581979Y-82632587D01*
X175581979Y-82632587D02*
X175486741Y-82775444D01*
X175486741Y-82775444D02*
X175391503Y-82870682D01*
X175391503Y-82870682D02*
X175296265Y-82918301D01*
X175343884Y-85147292D02*
X175391503Y-85194912D01*
X175391503Y-85194912D02*
X175343884Y-85242531D01*
X175343884Y-85242531D02*
X175296265Y-85194912D01*
X175296265Y-85194912D02*
X175343884Y-85147292D01*
X175343884Y-85147292D02*
X175343884Y-85242531D01*
X175534360Y-85852475D02*
X175629598Y-85852475D01*
X175629598Y-85852475D02*
X175724836Y-85900094D01*
X175724836Y-85900094D02*
X175772455Y-85947713D01*
X175772455Y-85947713D02*
X175820074Y-86042951D01*
X175820074Y-86042951D02*
X175867693Y-86233427D01*
X175867693Y-86233427D02*
X175867693Y-86471522D01*
X175867693Y-86471522D02*
X175820074Y-86661998D01*
X175820074Y-86661998D02*
X175772455Y-86757236D01*
X175772455Y-86757236D02*
X175724836Y-86804856D01*
X175724836Y-86804856D02*
X175629598Y-86852475D01*
X175629598Y-86852475D02*
X175534360Y-86852475D01*
X175534360Y-86852475D02*
X175439122Y-86804856D01*
X175439122Y-86804856D02*
X175391503Y-86757236D01*
X175391503Y-86757236D02*
X175343884Y-86661998D01*
X175343884Y-86661998D02*
X175296265Y-86471522D01*
X175296265Y-86471522D02*
X175296265Y-86233427D01*
X175296265Y-86233427D02*
X175343884Y-86042951D01*
X175343884Y-86042951D02*
X175391503Y-85947713D01*
X175391503Y-85947713D02*
X175439122Y-85900094D01*
X175439122Y-85900094D02*
X175534360Y-85852475D01*
X175867693Y-88462419D02*
X175296265Y-88462419D01*
X175581979Y-88462419D02*
X175581979Y-87462419D01*
X175581979Y-87462419D02*
X175486741Y-87605276D01*
X175486741Y-87605276D02*
X175391503Y-87700514D01*
X175391503Y-87700514D02*
X175296265Y-87748133D01*
D11*
X113584510Y-62030828D02*
X113584510Y-60530828D01*
X113584510Y-60530828D02*
X114155939Y-60530828D01*
X114155939Y-60530828D02*
X114298796Y-60602257D01*
X114298796Y-60602257D02*
X114370225Y-60673685D01*
X114370225Y-60673685D02*
X114441653Y-60816542D01*
X114441653Y-60816542D02*
X114441653Y-61030828D01*
X114441653Y-61030828D02*
X114370225Y-61173685D01*
X114370225Y-61173685D02*
X114298796Y-61245114D01*
X114298796Y-61245114D02*
X114155939Y-61316542D01*
X114155939Y-61316542D02*
X113584510Y-61316542D01*
X115870225Y-62030828D02*
X115013082Y-62030828D01*
X115441653Y-62030828D02*
X115441653Y-60530828D01*
X115441653Y-60530828D02*
X115298796Y-60745114D01*
X115298796Y-60745114D02*
X115155939Y-60887971D01*
X115155939Y-60887971D02*
X115013082Y-60959400D01*
D10*
X163710112Y-69936009D02*
X163852969Y-69983628D01*
X163852969Y-69983628D02*
X163900588Y-70031247D01*
X163900588Y-70031247D02*
X163948207Y-70126485D01*
X163948207Y-70126485D02*
X163948207Y-70269342D01*
X163948207Y-70269342D02*
X163900588Y-70364580D01*
X163900588Y-70364580D02*
X163852969Y-70412200D01*
X163852969Y-70412200D02*
X163757731Y-70459819D01*
X163757731Y-70459819D02*
X163376779Y-70459819D01*
X163376779Y-70459819D02*
X163376779Y-69459819D01*
X163376779Y-69459819D02*
X163710112Y-69459819D01*
X163710112Y-69459819D02*
X163805350Y-69507438D01*
X163805350Y-69507438D02*
X163852969Y-69555057D01*
X163852969Y-69555057D02*
X163900588Y-69650295D01*
X163900588Y-69650295D02*
X163900588Y-69745533D01*
X163900588Y-69745533D02*
X163852969Y-69840771D01*
X163852969Y-69840771D02*
X163805350Y-69888390D01*
X163805350Y-69888390D02*
X163710112Y-69936009D01*
X163710112Y-69936009D02*
X163376779Y-69936009D01*
X164805350Y-69793152D02*
X164805350Y-70459819D01*
X164376779Y-69793152D02*
X164376779Y-70316961D01*
X164376779Y-70316961D02*
X164424398Y-70412200D01*
X164424398Y-70412200D02*
X164519636Y-70459819D01*
X164519636Y-70459819D02*
X164662493Y-70459819D01*
X164662493Y-70459819D02*
X164757731Y-70412200D01*
X164757731Y-70412200D02*
X164805350Y-70364580D01*
X165138684Y-69793152D02*
X165519636Y-69793152D01*
X165281541Y-69459819D02*
X165281541Y-70316961D01*
X165281541Y-70316961D02*
X165329160Y-70412200D01*
X165329160Y-70412200D02*
X165424398Y-70459819D01*
X165424398Y-70459819D02*
X165519636Y-70459819D01*
X165710113Y-69793152D02*
X166091065Y-69793152D01*
X165852970Y-69459819D02*
X165852970Y-70316961D01*
X165852970Y-70316961D02*
X165900589Y-70412200D01*
X165900589Y-70412200D02*
X165995827Y-70459819D01*
X165995827Y-70459819D02*
X166091065Y-70459819D01*
X166567256Y-70459819D02*
X166472018Y-70412200D01*
X166472018Y-70412200D02*
X166424399Y-70364580D01*
X166424399Y-70364580D02*
X166376780Y-70269342D01*
X166376780Y-70269342D02*
X166376780Y-69983628D01*
X166376780Y-69983628D02*
X166424399Y-69888390D01*
X166424399Y-69888390D02*
X166472018Y-69840771D01*
X166472018Y-69840771D02*
X166567256Y-69793152D01*
X166567256Y-69793152D02*
X166710113Y-69793152D01*
X166710113Y-69793152D02*
X166805351Y-69840771D01*
X166805351Y-69840771D02*
X166852970Y-69888390D01*
X166852970Y-69888390D02*
X166900589Y-69983628D01*
X166900589Y-69983628D02*
X166900589Y-70269342D01*
X166900589Y-70269342D02*
X166852970Y-70364580D01*
X166852970Y-70364580D02*
X166805351Y-70412200D01*
X166805351Y-70412200D02*
X166710113Y-70459819D01*
X166710113Y-70459819D02*
X166567256Y-70459819D01*
X167329161Y-69793152D02*
X167329161Y-70459819D01*
X167329161Y-69888390D02*
X167376780Y-69840771D01*
X167376780Y-69840771D02*
X167472018Y-69793152D01*
X167472018Y-69793152D02*
X167614875Y-69793152D01*
X167614875Y-69793152D02*
X167710113Y-69840771D01*
X167710113Y-69840771D02*
X167757732Y-69936009D01*
X167757732Y-69936009D02*
X167757732Y-70459819D01*
X168995828Y-70459819D02*
X168995828Y-69459819D01*
X168995828Y-69936009D02*
X169567256Y-69936009D01*
X169567256Y-70459819D02*
X169567256Y-69459819D01*
X170424399Y-70412200D02*
X170329161Y-70459819D01*
X170329161Y-70459819D02*
X170138685Y-70459819D01*
X170138685Y-70459819D02*
X170043447Y-70412200D01*
X170043447Y-70412200D02*
X169995828Y-70316961D01*
X169995828Y-70316961D02*
X169995828Y-69936009D01*
X169995828Y-69936009D02*
X170043447Y-69840771D01*
X170043447Y-69840771D02*
X170138685Y-69793152D01*
X170138685Y-69793152D02*
X170329161Y-69793152D01*
X170329161Y-69793152D02*
X170424399Y-69840771D01*
X170424399Y-69840771D02*
X170472018Y-69936009D01*
X170472018Y-69936009D02*
X170472018Y-70031247D01*
X170472018Y-70031247D02*
X169995828Y-70126485D01*
X171329161Y-70459819D02*
X171329161Y-69936009D01*
X171329161Y-69936009D02*
X171281542Y-69840771D01*
X171281542Y-69840771D02*
X171186304Y-69793152D01*
X171186304Y-69793152D02*
X170995828Y-69793152D01*
X170995828Y-69793152D02*
X170900590Y-69840771D01*
X171329161Y-70412200D02*
X171233923Y-70459819D01*
X171233923Y-70459819D02*
X170995828Y-70459819D01*
X170995828Y-70459819D02*
X170900590Y-70412200D01*
X170900590Y-70412200D02*
X170852971Y-70316961D01*
X170852971Y-70316961D02*
X170852971Y-70221723D01*
X170852971Y-70221723D02*
X170900590Y-70126485D01*
X170900590Y-70126485D02*
X170995828Y-70078866D01*
X170995828Y-70078866D02*
X171233923Y-70078866D01*
X171233923Y-70078866D02*
X171329161Y-70031247D01*
X172233923Y-70459819D02*
X172233923Y-69459819D01*
X172233923Y-70412200D02*
X172138685Y-70459819D01*
X172138685Y-70459819D02*
X171948209Y-70459819D01*
X171948209Y-70459819D02*
X171852971Y-70412200D01*
X171852971Y-70412200D02*
X171805352Y-70364580D01*
X171805352Y-70364580D02*
X171757733Y-70269342D01*
X171757733Y-70269342D02*
X171757733Y-69983628D01*
X171757733Y-69983628D02*
X171805352Y-69888390D01*
X171805352Y-69888390D02*
X171852971Y-69840771D01*
X171852971Y-69840771D02*
X171948209Y-69793152D01*
X171948209Y-69793152D02*
X172138685Y-69793152D01*
X172138685Y-69793152D02*
X172233923Y-69840771D01*
X173091066Y-70412200D02*
X172995828Y-70459819D01*
X172995828Y-70459819D02*
X172805352Y-70459819D01*
X172805352Y-70459819D02*
X172710114Y-70412200D01*
X172710114Y-70412200D02*
X172662495Y-70316961D01*
X172662495Y-70316961D02*
X172662495Y-69936009D01*
X172662495Y-69936009D02*
X172710114Y-69840771D01*
X172710114Y-69840771D02*
X172805352Y-69793152D01*
X172805352Y-69793152D02*
X172995828Y-69793152D01*
X172995828Y-69793152D02*
X173091066Y-69840771D01*
X173091066Y-69840771D02*
X173138685Y-69936009D01*
X173138685Y-69936009D02*
X173138685Y-70031247D01*
X173138685Y-70031247D02*
X172662495Y-70126485D01*
X173567257Y-70459819D02*
X173567257Y-69793152D01*
X173567257Y-69983628D02*
X173614876Y-69888390D01*
X173614876Y-69888390D02*
X173662495Y-69840771D01*
X173662495Y-69840771D02*
X173757733Y-69793152D01*
X173757733Y-69793152D02*
X173852971Y-69793152D01*
D11*
X154594510Y-93819400D02*
X155737368Y-93819400D01*
X155165939Y-94390828D02*
X155165939Y-93247971D01*
X125014510Y-64570828D02*
X125014510Y-63070828D01*
X125728796Y-63570828D02*
X125728796Y-64570828D01*
X125728796Y-63713685D02*
X125800225Y-63642257D01*
X125800225Y-63642257D02*
X125943082Y-63570828D01*
X125943082Y-63570828D02*
X126157368Y-63570828D01*
X126157368Y-63570828D02*
X126300225Y-63642257D01*
X126300225Y-63642257D02*
X126371654Y-63785114D01*
X126371654Y-63785114D02*
X126371654Y-64570828D01*
X127085939Y-63570828D02*
X127085939Y-65070828D01*
X127085939Y-63642257D02*
X127228797Y-63570828D01*
X127228797Y-63570828D02*
X127514511Y-63570828D01*
X127514511Y-63570828D02*
X127657368Y-63642257D01*
X127657368Y-63642257D02*
X127728797Y-63713685D01*
X127728797Y-63713685D02*
X127800225Y-63856542D01*
X127800225Y-63856542D02*
X127800225Y-64285114D01*
X127800225Y-64285114D02*
X127728797Y-64427971D01*
X127728797Y-64427971D02*
X127657368Y-64499400D01*
X127657368Y-64499400D02*
X127514511Y-64570828D01*
X127514511Y-64570828D02*
X127228797Y-64570828D01*
X127228797Y-64570828D02*
X127085939Y-64499400D01*
X129085940Y-63570828D02*
X129085940Y-64570828D01*
X128443082Y-63570828D02*
X128443082Y-64356542D01*
X128443082Y-64356542D02*
X128514511Y-64499400D01*
X128514511Y-64499400D02*
X128657368Y-64570828D01*
X128657368Y-64570828D02*
X128871654Y-64570828D01*
X128871654Y-64570828D02*
X129014511Y-64499400D01*
X129014511Y-64499400D02*
X129085940Y-64427971D01*
X129585940Y-63570828D02*
X130157368Y-63570828D01*
X129800225Y-63070828D02*
X129800225Y-64356542D01*
X129800225Y-64356542D02*
X129871654Y-64499400D01*
X129871654Y-64499400D02*
X130014511Y-64570828D01*
X130014511Y-64570828D02*
X130157368Y-64570828D01*
X143094510Y-93819400D02*
X144237368Y-93819400D01*
X143665939Y-94390828D02*
X143665939Y-93247971D01*
D10*
X158376779Y-91459819D02*
X158376779Y-90459819D01*
X158376779Y-90459819D02*
X158614874Y-90459819D01*
X158614874Y-90459819D02*
X158757731Y-90507438D01*
X158757731Y-90507438D02*
X158852969Y-90602676D01*
X158852969Y-90602676D02*
X158900588Y-90697914D01*
X158900588Y-90697914D02*
X158948207Y-90888390D01*
X158948207Y-90888390D02*
X158948207Y-91031247D01*
X158948207Y-91031247D02*
X158900588Y-91221723D01*
X158900588Y-91221723D02*
X158852969Y-91316961D01*
X158852969Y-91316961D02*
X158757731Y-91412200D01*
X158757731Y-91412200D02*
X158614874Y-91459819D01*
X158614874Y-91459819D02*
X158376779Y-91459819D01*
X159805350Y-90459819D02*
X159614874Y-90459819D01*
X159614874Y-90459819D02*
X159519636Y-90507438D01*
X159519636Y-90507438D02*
X159472017Y-90555057D01*
X159472017Y-90555057D02*
X159376779Y-90697914D01*
X159376779Y-90697914D02*
X159329160Y-90888390D01*
X159329160Y-90888390D02*
X159329160Y-91269342D01*
X159329160Y-91269342D02*
X159376779Y-91364580D01*
X159376779Y-91364580D02*
X159424398Y-91412200D01*
X159424398Y-91412200D02*
X159519636Y-91459819D01*
X159519636Y-91459819D02*
X159710112Y-91459819D01*
X159710112Y-91459819D02*
X159805350Y-91412200D01*
X159805350Y-91412200D02*
X159852969Y-91364580D01*
X159852969Y-91364580D02*
X159900588Y-91269342D01*
X159900588Y-91269342D02*
X159900588Y-91031247D01*
X159900588Y-91031247D02*
X159852969Y-90936009D01*
X159852969Y-90936009D02*
X159805350Y-90888390D01*
X159805350Y-90888390D02*
X159710112Y-90840771D01*
X159710112Y-90840771D02*
X159519636Y-90840771D01*
X159519636Y-90840771D02*
X159424398Y-90888390D01*
X159424398Y-90888390D02*
X159376779Y-90936009D01*
X159376779Y-90936009D02*
X159329160Y-91031247D01*
D11*
X132094510Y-93819400D02*
X133237368Y-93819400D01*
X132665939Y-94390828D02*
X132665939Y-93247971D01*
D13*
X80343884Y-61653595D02*
X80343884Y-60653595D01*
X80343884Y-60653595D02*
X80915312Y-61653595D01*
X80915312Y-61653595D02*
X80915312Y-60653595D01*
X80724836Y-63215920D02*
X80629598Y-63263539D01*
X80629598Y-63263539D02*
X80439122Y-63263539D01*
X80439122Y-63263539D02*
X80343884Y-63215920D01*
X80343884Y-63215920D02*
X80296265Y-63120681D01*
X80296265Y-63120681D02*
X80296265Y-62739729D01*
X80296265Y-62739729D02*
X80343884Y-62644491D01*
X80343884Y-62644491D02*
X80439122Y-62596872D01*
X80439122Y-62596872D02*
X80629598Y-62596872D01*
X80629598Y-62596872D02*
X80724836Y-62644491D01*
X80724836Y-62644491D02*
X80772455Y-62739729D01*
X80772455Y-62739729D02*
X80772455Y-62834967D01*
X80772455Y-62834967D02*
X80296265Y-62930205D01*
X80486741Y-64873483D02*
X80391503Y-64825864D01*
X80391503Y-64825864D02*
X80343884Y-64778244D01*
X80343884Y-64778244D02*
X80296265Y-64683006D01*
X80296265Y-64683006D02*
X80296265Y-64397292D01*
X80296265Y-64397292D02*
X80343884Y-64302054D01*
X80343884Y-64302054D02*
X80391503Y-64254435D01*
X80391503Y-64254435D02*
X80486741Y-64206816D01*
X80486741Y-64206816D02*
X80629598Y-64206816D01*
X80629598Y-64206816D02*
X80724836Y-64254435D01*
X80724836Y-64254435D02*
X80772455Y-64302054D01*
X80772455Y-64302054D02*
X80820074Y-64397292D01*
X80820074Y-64397292D02*
X80820074Y-64683006D01*
X80820074Y-64683006D02*
X80772455Y-64778244D01*
X80772455Y-64778244D02*
X80724836Y-64825864D01*
X80724836Y-64825864D02*
X80629598Y-64873483D01*
X80629598Y-64873483D02*
X80486741Y-64873483D01*
X80867693Y-67140990D02*
X80772455Y-67093371D01*
X80772455Y-67093371D02*
X80629598Y-67093371D01*
X80629598Y-67093371D02*
X80486741Y-67140990D01*
X80486741Y-67140990D02*
X80391503Y-67236228D01*
X80391503Y-67236228D02*
X80343884Y-67331466D01*
X80343884Y-67331466D02*
X80296265Y-67521942D01*
X80296265Y-67521942D02*
X80296265Y-67664799D01*
X80296265Y-67664799D02*
X80343884Y-67855275D01*
X80343884Y-67855275D02*
X80391503Y-67950513D01*
X80391503Y-67950513D02*
X80486741Y-68045752D01*
X80486741Y-68045752D02*
X80629598Y-68093371D01*
X80629598Y-68093371D02*
X80724836Y-68093371D01*
X80724836Y-68093371D02*
X80867693Y-68045752D01*
X80867693Y-68045752D02*
X80915312Y-67998132D01*
X80915312Y-67998132D02*
X80915312Y-67664799D01*
X80915312Y-67664799D02*
X80724836Y-67664799D01*
X80724836Y-69655696D02*
X80629598Y-69703315D01*
X80629598Y-69703315D02*
X80439122Y-69703315D01*
X80439122Y-69703315D02*
X80343884Y-69655696D01*
X80343884Y-69655696D02*
X80296265Y-69560457D01*
X80296265Y-69560457D02*
X80296265Y-69179505D01*
X80296265Y-69179505D02*
X80343884Y-69084267D01*
X80343884Y-69084267D02*
X80439122Y-69036648D01*
X80439122Y-69036648D02*
X80629598Y-69036648D01*
X80629598Y-69036648D02*
X80724836Y-69084267D01*
X80724836Y-69084267D02*
X80772455Y-69179505D01*
X80772455Y-69179505D02*
X80772455Y-69274743D01*
X80772455Y-69274743D02*
X80296265Y-69369981D01*
X80486741Y-71313259D02*
X80391503Y-71265640D01*
X80391503Y-71265640D02*
X80343884Y-71218020D01*
X80343884Y-71218020D02*
X80296265Y-71122782D01*
X80296265Y-71122782D02*
X80296265Y-70837068D01*
X80296265Y-70837068D02*
X80343884Y-70741830D01*
X80343884Y-70741830D02*
X80391503Y-70694211D01*
X80391503Y-70694211D02*
X80486741Y-70646592D01*
X80486741Y-70646592D02*
X80629598Y-70646592D01*
X80629598Y-70646592D02*
X80724836Y-70694211D01*
X80724836Y-70694211D02*
X80772455Y-70741830D01*
X80772455Y-70741830D02*
X80820074Y-70837068D01*
X80820074Y-70837068D02*
X80820074Y-71122782D01*
X80820074Y-71122782D02*
X80772455Y-71218020D01*
X80772455Y-71218020D02*
X80724836Y-71265640D01*
X80724836Y-71265640D02*
X80629598Y-71313259D01*
X80629598Y-71313259D02*
X80486741Y-71313259D01*
X80343884Y-74533147D02*
X80343884Y-73533147D01*
X80343884Y-73533147D02*
X80677217Y-74247432D01*
X80677217Y-74247432D02*
X81010550Y-73533147D01*
X81010550Y-73533147D02*
X81010550Y-74533147D01*
X80772455Y-76143091D02*
X80772455Y-75619281D01*
X80772455Y-75619281D02*
X80724836Y-75524043D01*
X80724836Y-75524043D02*
X80629598Y-75476424D01*
X80629598Y-75476424D02*
X80439122Y-75476424D01*
X80439122Y-75476424D02*
X80343884Y-75524043D01*
X80772455Y-76095472D02*
X80677217Y-76143091D01*
X80677217Y-76143091D02*
X80439122Y-76143091D01*
X80439122Y-76143091D02*
X80343884Y-76095472D01*
X80343884Y-76095472D02*
X80296265Y-76000233D01*
X80296265Y-76000233D02*
X80296265Y-75904995D01*
X80296265Y-75904995D02*
X80343884Y-75809757D01*
X80343884Y-75809757D02*
X80439122Y-75762138D01*
X80439122Y-75762138D02*
X80677217Y-75762138D01*
X80677217Y-75762138D02*
X80772455Y-75714519D01*
X80343884Y-77753035D02*
X80343884Y-77086368D01*
X80343884Y-77276844D02*
X80391503Y-77181606D01*
X80391503Y-77181606D02*
X80439122Y-77133987D01*
X80439122Y-77133987D02*
X80534360Y-77086368D01*
X80534360Y-77086368D02*
X80629598Y-77086368D01*
X80772455Y-78696312D02*
X80772455Y-79696312D01*
X80772455Y-79315360D02*
X80677217Y-79362979D01*
X80677217Y-79362979D02*
X80486741Y-79362979D01*
X80486741Y-79362979D02*
X80391503Y-79315360D01*
X80391503Y-79315360D02*
X80343884Y-79267740D01*
X80343884Y-79267740D02*
X80296265Y-79172502D01*
X80296265Y-79172502D02*
X80296265Y-78886788D01*
X80296265Y-78886788D02*
X80343884Y-78791550D01*
X80343884Y-78791550D02*
X80391503Y-78743931D01*
X80391503Y-78743931D02*
X80486741Y-78696312D01*
X80486741Y-78696312D02*
X80677217Y-78696312D01*
X80677217Y-78696312D02*
X80772455Y-78743931D01*
X80772455Y-80306256D02*
X80772455Y-80972923D01*
X80343884Y-80306256D02*
X80343884Y-80830065D01*
X80343884Y-80830065D02*
X80391503Y-80925304D01*
X80391503Y-80925304D02*
X80486741Y-80972923D01*
X80486741Y-80972923D02*
X80629598Y-80972923D01*
X80629598Y-80972923D02*
X80724836Y-80925304D01*
X80724836Y-80925304D02*
X80772455Y-80877684D01*
X80724836Y-82535248D02*
X80629598Y-82582867D01*
X80629598Y-82582867D02*
X80439122Y-82582867D01*
X80439122Y-82582867D02*
X80343884Y-82535248D01*
X80343884Y-82535248D02*
X80296265Y-82440009D01*
X80296265Y-82440009D02*
X80296265Y-82059057D01*
X80296265Y-82059057D02*
X80343884Y-81963819D01*
X80343884Y-81963819D02*
X80439122Y-81916200D01*
X80439122Y-81916200D02*
X80629598Y-81916200D01*
X80629598Y-81916200D02*
X80724836Y-81963819D01*
X80724836Y-81963819D02*
X80772455Y-82059057D01*
X80772455Y-82059057D02*
X80772455Y-82154295D01*
X80772455Y-82154295D02*
X80296265Y-82249533D01*
X80724836Y-84145192D02*
X80629598Y-84192811D01*
X80629598Y-84192811D02*
X80439122Y-84192811D01*
X80439122Y-84192811D02*
X80343884Y-84145192D01*
X80343884Y-84145192D02*
X80296265Y-84049953D01*
X80296265Y-84049953D02*
X80296265Y-83669001D01*
X80296265Y-83669001D02*
X80343884Y-83573763D01*
X80343884Y-83573763D02*
X80439122Y-83526144D01*
X80439122Y-83526144D02*
X80629598Y-83526144D01*
X80629598Y-83526144D02*
X80724836Y-83573763D01*
X80724836Y-83573763D02*
X80772455Y-83669001D01*
X80772455Y-83669001D02*
X80772455Y-83764239D01*
X80772455Y-83764239D02*
X80296265Y-83859477D01*
X80343884Y-87412699D02*
X80343884Y-86412699D01*
X80343884Y-86412699D02*
X80581979Y-86412699D01*
X80581979Y-86412699D02*
X80724836Y-86460318D01*
X80724836Y-86460318D02*
X80820074Y-86555556D01*
X80820074Y-86555556D02*
X80867693Y-86650794D01*
X80867693Y-86650794D02*
X80915312Y-86841270D01*
X80915312Y-86841270D02*
X80915312Y-86984127D01*
X80915312Y-86984127D02*
X80867693Y-87174603D01*
X80867693Y-87174603D02*
X80820074Y-87269841D01*
X80820074Y-87269841D02*
X80724836Y-87365080D01*
X80724836Y-87365080D02*
X80581979Y-87412699D01*
X80581979Y-87412699D02*
X80343884Y-87412699D01*
X80343884Y-89022643D02*
X80343884Y-88355976D01*
X80343884Y-88546452D02*
X80391503Y-88451214D01*
X80391503Y-88451214D02*
X80439122Y-88403595D01*
X80439122Y-88403595D02*
X80534360Y-88355976D01*
X80534360Y-88355976D02*
X80629598Y-88355976D01*
X80343884Y-90632587D02*
X80343884Y-89965920D01*
X80343884Y-89632587D02*
X80296265Y-89680206D01*
X80296265Y-89680206D02*
X80343884Y-89727825D01*
X80343884Y-89727825D02*
X80391503Y-89680206D01*
X80391503Y-89680206D02*
X80343884Y-89632587D01*
X80343884Y-89632587D02*
X80343884Y-89727825D01*
X80248646Y-91575864D02*
X80486741Y-92242531D01*
X80486741Y-92242531D02*
X80724836Y-91575864D01*
X80724836Y-93804856D02*
X80629598Y-93852475D01*
X80629598Y-93852475D02*
X80439122Y-93852475D01*
X80439122Y-93852475D02*
X80343884Y-93804856D01*
X80343884Y-93804856D02*
X80296265Y-93709617D01*
X80296265Y-93709617D02*
X80296265Y-93328665D01*
X80296265Y-93328665D02*
X80343884Y-93233427D01*
X80343884Y-93233427D02*
X80439122Y-93185808D01*
X80439122Y-93185808D02*
X80629598Y-93185808D01*
X80629598Y-93185808D02*
X80724836Y-93233427D01*
X80724836Y-93233427D02*
X80772455Y-93328665D01*
X80772455Y-93328665D02*
X80772455Y-93423903D01*
X80772455Y-93423903D02*
X80296265Y-93519141D01*
X80343884Y-95462419D02*
X80343884Y-94795752D01*
X80343884Y-94986228D02*
X80391503Y-94890990D01*
X80391503Y-94890990D02*
X80439122Y-94843371D01*
X80439122Y-94843371D02*
X80534360Y-94795752D01*
X80534360Y-94795752D02*
X80629598Y-94795752D01*
D10*
X112376779Y-91459819D02*
X112376779Y-90459819D01*
X112376779Y-90459819D02*
X112614874Y-90459819D01*
X112614874Y-90459819D02*
X112757731Y-90507438D01*
X112757731Y-90507438D02*
X112852969Y-90602676D01*
X112852969Y-90602676D02*
X112900588Y-90697914D01*
X112900588Y-90697914D02*
X112948207Y-90888390D01*
X112948207Y-90888390D02*
X112948207Y-91031247D01*
X112948207Y-91031247D02*
X112900588Y-91221723D01*
X112900588Y-91221723D02*
X112852969Y-91316961D01*
X112852969Y-91316961D02*
X112757731Y-91412200D01*
X112757731Y-91412200D02*
X112614874Y-91459819D01*
X112614874Y-91459819D02*
X112376779Y-91459819D01*
X113329160Y-90555057D02*
X113376779Y-90507438D01*
X113376779Y-90507438D02*
X113472017Y-90459819D01*
X113472017Y-90459819D02*
X113710112Y-90459819D01*
X113710112Y-90459819D02*
X113805350Y-90507438D01*
X113805350Y-90507438D02*
X113852969Y-90555057D01*
X113852969Y-90555057D02*
X113900588Y-90650295D01*
X113900588Y-90650295D02*
X113900588Y-90745533D01*
X113900588Y-90745533D02*
X113852969Y-90888390D01*
X113852969Y-90888390D02*
X113281541Y-91459819D01*
X113281541Y-91459819D02*
X113900588Y-91459819D01*
X136689523Y-97329580D02*
X136641904Y-97377200D01*
X136641904Y-97377200D02*
X136499047Y-97424819D01*
X136499047Y-97424819D02*
X136403809Y-97424819D01*
X136403809Y-97424819D02*
X136260952Y-97377200D01*
X136260952Y-97377200D02*
X136165714Y-97281961D01*
X136165714Y-97281961D02*
X136118095Y-97186723D01*
X136118095Y-97186723D02*
X136070476Y-96996247D01*
X136070476Y-96996247D02*
X136070476Y-96853390D01*
X136070476Y-96853390D02*
X136118095Y-96662914D01*
X136118095Y-96662914D02*
X136165714Y-96567676D01*
X136165714Y-96567676D02*
X136260952Y-96472438D01*
X136260952Y-96472438D02*
X136403809Y-96424819D01*
X136403809Y-96424819D02*
X136499047Y-96424819D01*
X136499047Y-96424819D02*
X136641904Y-96472438D01*
X136641904Y-96472438D02*
X136689523Y-96520057D01*
X137118095Y-97424819D02*
X137118095Y-96424819D01*
X137118095Y-96424819D02*
X137689523Y-97424819D01*
X137689523Y-97424819D02*
X137689523Y-96424819D01*
X138594285Y-96758152D02*
X138594285Y-97424819D01*
X138356190Y-96377200D02*
X138118095Y-97091485D01*
X138118095Y-97091485D02*
X138737142Y-97091485D01*
X163369580Y-105050476D02*
X163417200Y-105098095D01*
X163417200Y-105098095D02*
X163464819Y-105240952D01*
X163464819Y-105240952D02*
X163464819Y-105336190D01*
X163464819Y-105336190D02*
X163417200Y-105479047D01*
X163417200Y-105479047D02*
X163321961Y-105574285D01*
X163321961Y-105574285D02*
X163226723Y-105621904D01*
X163226723Y-105621904D02*
X163036247Y-105669523D01*
X163036247Y-105669523D02*
X162893390Y-105669523D01*
X162893390Y-105669523D02*
X162702914Y-105621904D01*
X162702914Y-105621904D02*
X162607676Y-105574285D01*
X162607676Y-105574285D02*
X162512438Y-105479047D01*
X162512438Y-105479047D02*
X162464819Y-105336190D01*
X162464819Y-105336190D02*
X162464819Y-105240952D01*
X162464819Y-105240952D02*
X162512438Y-105098095D01*
X162512438Y-105098095D02*
X162560057Y-105050476D01*
X163464819Y-104621904D02*
X162464819Y-104621904D01*
X162464819Y-104621904D02*
X163464819Y-104050476D01*
X163464819Y-104050476D02*
X162464819Y-104050476D01*
X162464819Y-103145714D02*
X162464819Y-103336190D01*
X162464819Y-103336190D02*
X162512438Y-103431428D01*
X162512438Y-103431428D02*
X162560057Y-103479047D01*
X162560057Y-103479047D02*
X162702914Y-103574285D01*
X162702914Y-103574285D02*
X162893390Y-103621904D01*
X162893390Y-103621904D02*
X163274342Y-103621904D01*
X163274342Y-103621904D02*
X163369580Y-103574285D01*
X163369580Y-103574285D02*
X163417200Y-103526666D01*
X163417200Y-103526666D02*
X163464819Y-103431428D01*
X163464819Y-103431428D02*
X163464819Y-103240952D01*
X163464819Y-103240952D02*
X163417200Y-103145714D01*
X163417200Y-103145714D02*
X163369580Y-103098095D01*
X163369580Y-103098095D02*
X163274342Y-103050476D01*
X163274342Y-103050476D02*
X163036247Y-103050476D01*
X163036247Y-103050476D02*
X162941009Y-103098095D01*
X162941009Y-103098095D02*
X162893390Y-103145714D01*
X162893390Y-103145714D02*
X162845771Y-103240952D01*
X162845771Y-103240952D02*
X162845771Y-103431428D01*
X162845771Y-103431428D02*
X162893390Y-103526666D01*
X162893390Y-103526666D02*
X162941009Y-103574285D01*
X162941009Y-103574285D02*
X163036247Y-103621904D01*
X91293333Y-78174819D02*
X90960000Y-77698628D01*
X90721905Y-78174819D02*
X90721905Y-77174819D01*
X90721905Y-77174819D02*
X91102857Y-77174819D01*
X91102857Y-77174819D02*
X91198095Y-77222438D01*
X91198095Y-77222438D02*
X91245714Y-77270057D01*
X91245714Y-77270057D02*
X91293333Y-77365295D01*
X91293333Y-77365295D02*
X91293333Y-77508152D01*
X91293333Y-77508152D02*
X91245714Y-77603390D01*
X91245714Y-77603390D02*
X91198095Y-77651009D01*
X91198095Y-77651009D02*
X91102857Y-77698628D01*
X91102857Y-77698628D02*
X90721905Y-77698628D01*
X92245714Y-78174819D02*
X91674286Y-78174819D01*
X91960000Y-78174819D02*
X91960000Y-77174819D01*
X91960000Y-77174819D02*
X91864762Y-77317676D01*
X91864762Y-77317676D02*
X91769524Y-77412914D01*
X91769524Y-77412914D02*
X91674286Y-77460533D01*
X118909523Y-97499580D02*
X118861904Y-97547200D01*
X118861904Y-97547200D02*
X118719047Y-97594819D01*
X118719047Y-97594819D02*
X118623809Y-97594819D01*
X118623809Y-97594819D02*
X118480952Y-97547200D01*
X118480952Y-97547200D02*
X118385714Y-97451961D01*
X118385714Y-97451961D02*
X118338095Y-97356723D01*
X118338095Y-97356723D02*
X118290476Y-97166247D01*
X118290476Y-97166247D02*
X118290476Y-97023390D01*
X118290476Y-97023390D02*
X118338095Y-96832914D01*
X118338095Y-96832914D02*
X118385714Y-96737676D01*
X118385714Y-96737676D02*
X118480952Y-96642438D01*
X118480952Y-96642438D02*
X118623809Y-96594819D01*
X118623809Y-96594819D02*
X118719047Y-96594819D01*
X118719047Y-96594819D02*
X118861904Y-96642438D01*
X118861904Y-96642438D02*
X118909523Y-96690057D01*
X119338095Y-97594819D02*
X119338095Y-96594819D01*
X119338095Y-96594819D02*
X119909523Y-97594819D01*
X119909523Y-97594819D02*
X119909523Y-96594819D01*
X120290476Y-96594819D02*
X120909523Y-96594819D01*
X120909523Y-96594819D02*
X120576190Y-96975771D01*
X120576190Y-96975771D02*
X120719047Y-96975771D01*
X120719047Y-96975771D02*
X120814285Y-97023390D01*
X120814285Y-97023390D02*
X120861904Y-97071009D01*
X120861904Y-97071009D02*
X120909523Y-97166247D01*
X120909523Y-97166247D02*
X120909523Y-97404342D01*
X120909523Y-97404342D02*
X120861904Y-97499580D01*
X120861904Y-97499580D02*
X120814285Y-97547200D01*
X120814285Y-97547200D02*
X120719047Y-97594819D01*
X120719047Y-97594819D02*
X120433333Y-97594819D01*
X120433333Y-97594819D02*
X120338095Y-97547200D01*
X120338095Y-97547200D02*
X120290476Y-97499580D01*
X157384761Y-83910057D02*
X157289523Y-83862438D01*
X157289523Y-83862438D02*
X157194285Y-83767200D01*
X157194285Y-83767200D02*
X157051428Y-83624342D01*
X157051428Y-83624342D02*
X156956190Y-83576723D01*
X156956190Y-83576723D02*
X156860952Y-83576723D01*
X156908571Y-83814819D02*
X156813333Y-83767200D01*
X156813333Y-83767200D02*
X156718095Y-83671961D01*
X156718095Y-83671961D02*
X156670476Y-83481485D01*
X156670476Y-83481485D02*
X156670476Y-83148152D01*
X156670476Y-83148152D02*
X156718095Y-82957676D01*
X156718095Y-82957676D02*
X156813333Y-82862438D01*
X156813333Y-82862438D02*
X156908571Y-82814819D01*
X156908571Y-82814819D02*
X157099047Y-82814819D01*
X157099047Y-82814819D02*
X157194285Y-82862438D01*
X157194285Y-82862438D02*
X157289523Y-82957676D01*
X157289523Y-82957676D02*
X157337142Y-83148152D01*
X157337142Y-83148152D02*
X157337142Y-83481485D01*
X157337142Y-83481485D02*
X157289523Y-83671961D01*
X157289523Y-83671961D02*
X157194285Y-83767200D01*
X157194285Y-83767200D02*
X157099047Y-83814819D01*
X157099047Y-83814819D02*
X156908571Y-83814819D01*
X158194285Y-82814819D02*
X158003809Y-82814819D01*
X158003809Y-82814819D02*
X157908571Y-82862438D01*
X157908571Y-82862438D02*
X157860952Y-82910057D01*
X157860952Y-82910057D02*
X157765714Y-83052914D01*
X157765714Y-83052914D02*
X157718095Y-83243390D01*
X157718095Y-83243390D02*
X157718095Y-83624342D01*
X157718095Y-83624342D02*
X157765714Y-83719580D01*
X157765714Y-83719580D02*
X157813333Y-83767200D01*
X157813333Y-83767200D02*
X157908571Y-83814819D01*
X157908571Y-83814819D02*
X158099047Y-83814819D01*
X158099047Y-83814819D02*
X158194285Y-83767200D01*
X158194285Y-83767200D02*
X158241904Y-83719580D01*
X158241904Y-83719580D02*
X158289523Y-83624342D01*
X158289523Y-83624342D02*
X158289523Y-83386247D01*
X158289523Y-83386247D02*
X158241904Y-83291009D01*
X158241904Y-83291009D02*
X158194285Y-83243390D01*
X158194285Y-83243390D02*
X158099047Y-83195771D01*
X158099047Y-83195771D02*
X157908571Y-83195771D01*
X157908571Y-83195771D02*
X157813333Y-83243390D01*
X157813333Y-83243390D02*
X157765714Y-83291009D01*
X157765714Y-83291009D02*
X157718095Y-83386247D01*
X93999580Y-104610476D02*
X94047200Y-104658095D01*
X94047200Y-104658095D02*
X94094819Y-104800952D01*
X94094819Y-104800952D02*
X94094819Y-104896190D01*
X94094819Y-104896190D02*
X94047200Y-105039047D01*
X94047200Y-105039047D02*
X93951961Y-105134285D01*
X93951961Y-105134285D02*
X93856723Y-105181904D01*
X93856723Y-105181904D02*
X93666247Y-105229523D01*
X93666247Y-105229523D02*
X93523390Y-105229523D01*
X93523390Y-105229523D02*
X93332914Y-105181904D01*
X93332914Y-105181904D02*
X93237676Y-105134285D01*
X93237676Y-105134285D02*
X93142438Y-105039047D01*
X93142438Y-105039047D02*
X93094819Y-104896190D01*
X93094819Y-104896190D02*
X93094819Y-104800952D01*
X93094819Y-104800952D02*
X93142438Y-104658095D01*
X93142438Y-104658095D02*
X93190057Y-104610476D01*
X94094819Y-104181904D02*
X93094819Y-104181904D01*
X93094819Y-104181904D02*
X94094819Y-103610476D01*
X94094819Y-103610476D02*
X93094819Y-103610476D01*
X94094819Y-102610476D02*
X94094819Y-103181904D01*
X94094819Y-102896190D02*
X93094819Y-102896190D01*
X93094819Y-102896190D02*
X93237676Y-102991428D01*
X93237676Y-102991428D02*
X93332914Y-103086666D01*
X93332914Y-103086666D02*
X93380533Y-103181904D01*
X111664761Y-83910057D02*
X111569523Y-83862438D01*
X111569523Y-83862438D02*
X111474285Y-83767200D01*
X111474285Y-83767200D02*
X111331428Y-83624342D01*
X111331428Y-83624342D02*
X111236190Y-83576723D01*
X111236190Y-83576723D02*
X111140952Y-83576723D01*
X111188571Y-83814819D02*
X111093333Y-83767200D01*
X111093333Y-83767200D02*
X110998095Y-83671961D01*
X110998095Y-83671961D02*
X110950476Y-83481485D01*
X110950476Y-83481485D02*
X110950476Y-83148152D01*
X110950476Y-83148152D02*
X110998095Y-82957676D01*
X110998095Y-82957676D02*
X111093333Y-82862438D01*
X111093333Y-82862438D02*
X111188571Y-82814819D01*
X111188571Y-82814819D02*
X111379047Y-82814819D01*
X111379047Y-82814819D02*
X111474285Y-82862438D01*
X111474285Y-82862438D02*
X111569523Y-82957676D01*
X111569523Y-82957676D02*
X111617142Y-83148152D01*
X111617142Y-83148152D02*
X111617142Y-83481485D01*
X111617142Y-83481485D02*
X111569523Y-83671961D01*
X111569523Y-83671961D02*
X111474285Y-83767200D01*
X111474285Y-83767200D02*
X111379047Y-83814819D01*
X111379047Y-83814819D02*
X111188571Y-83814819D01*
X111998095Y-82910057D02*
X112045714Y-82862438D01*
X112045714Y-82862438D02*
X112140952Y-82814819D01*
X112140952Y-82814819D02*
X112379047Y-82814819D01*
X112379047Y-82814819D02*
X112474285Y-82862438D01*
X112474285Y-82862438D02*
X112521904Y-82910057D01*
X112521904Y-82910057D02*
X112569523Y-83005295D01*
X112569523Y-83005295D02*
X112569523Y-83100533D01*
X112569523Y-83100533D02*
X112521904Y-83243390D01*
X112521904Y-83243390D02*
X111950476Y-83814819D01*
X111950476Y-83814819D02*
X112569523Y-83814819D01*
X145954761Y-83910057D02*
X145859523Y-83862438D01*
X145859523Y-83862438D02*
X145764285Y-83767200D01*
X145764285Y-83767200D02*
X145621428Y-83624342D01*
X145621428Y-83624342D02*
X145526190Y-83576723D01*
X145526190Y-83576723D02*
X145430952Y-83576723D01*
X145478571Y-83814819D02*
X145383333Y-83767200D01*
X145383333Y-83767200D02*
X145288095Y-83671961D01*
X145288095Y-83671961D02*
X145240476Y-83481485D01*
X145240476Y-83481485D02*
X145240476Y-83148152D01*
X145240476Y-83148152D02*
X145288095Y-82957676D01*
X145288095Y-82957676D02*
X145383333Y-82862438D01*
X145383333Y-82862438D02*
X145478571Y-82814819D01*
X145478571Y-82814819D02*
X145669047Y-82814819D01*
X145669047Y-82814819D02*
X145764285Y-82862438D01*
X145764285Y-82862438D02*
X145859523Y-82957676D01*
X145859523Y-82957676D02*
X145907142Y-83148152D01*
X145907142Y-83148152D02*
X145907142Y-83481485D01*
X145907142Y-83481485D02*
X145859523Y-83671961D01*
X145859523Y-83671961D02*
X145764285Y-83767200D01*
X145764285Y-83767200D02*
X145669047Y-83814819D01*
X145669047Y-83814819D02*
X145478571Y-83814819D01*
X146811904Y-82814819D02*
X146335714Y-82814819D01*
X146335714Y-82814819D02*
X146288095Y-83291009D01*
X146288095Y-83291009D02*
X146335714Y-83243390D01*
X146335714Y-83243390D02*
X146430952Y-83195771D01*
X146430952Y-83195771D02*
X146669047Y-83195771D01*
X146669047Y-83195771D02*
X146764285Y-83243390D01*
X146764285Y-83243390D02*
X146811904Y-83291009D01*
X146811904Y-83291009D02*
X146859523Y-83386247D01*
X146859523Y-83386247D02*
X146859523Y-83624342D01*
X146859523Y-83624342D02*
X146811904Y-83719580D01*
X146811904Y-83719580D02*
X146764285Y-83767200D01*
X146764285Y-83767200D02*
X146669047Y-83814819D01*
X146669047Y-83814819D02*
X146430952Y-83814819D01*
X146430952Y-83814819D02*
X146335714Y-83767200D01*
X146335714Y-83767200D02*
X146288095Y-83719580D01*
X134524761Y-83910057D02*
X134429523Y-83862438D01*
X134429523Y-83862438D02*
X134334285Y-83767200D01*
X134334285Y-83767200D02*
X134191428Y-83624342D01*
X134191428Y-83624342D02*
X134096190Y-83576723D01*
X134096190Y-83576723D02*
X134000952Y-83576723D01*
X134048571Y-83814819D02*
X133953333Y-83767200D01*
X133953333Y-83767200D02*
X133858095Y-83671961D01*
X133858095Y-83671961D02*
X133810476Y-83481485D01*
X133810476Y-83481485D02*
X133810476Y-83148152D01*
X133810476Y-83148152D02*
X133858095Y-82957676D01*
X133858095Y-82957676D02*
X133953333Y-82862438D01*
X133953333Y-82862438D02*
X134048571Y-82814819D01*
X134048571Y-82814819D02*
X134239047Y-82814819D01*
X134239047Y-82814819D02*
X134334285Y-82862438D01*
X134334285Y-82862438D02*
X134429523Y-82957676D01*
X134429523Y-82957676D02*
X134477142Y-83148152D01*
X134477142Y-83148152D02*
X134477142Y-83481485D01*
X134477142Y-83481485D02*
X134429523Y-83671961D01*
X134429523Y-83671961D02*
X134334285Y-83767200D01*
X134334285Y-83767200D02*
X134239047Y-83814819D01*
X134239047Y-83814819D02*
X134048571Y-83814819D01*
X135334285Y-83148152D02*
X135334285Y-83814819D01*
X135096190Y-82767200D02*
X134858095Y-83481485D01*
X134858095Y-83481485D02*
X135477142Y-83481485D01*
X101129523Y-97499580D02*
X101081904Y-97547200D01*
X101081904Y-97547200D02*
X100939047Y-97594819D01*
X100939047Y-97594819D02*
X100843809Y-97594819D01*
X100843809Y-97594819D02*
X100700952Y-97547200D01*
X100700952Y-97547200D02*
X100605714Y-97451961D01*
X100605714Y-97451961D02*
X100558095Y-97356723D01*
X100558095Y-97356723D02*
X100510476Y-97166247D01*
X100510476Y-97166247D02*
X100510476Y-97023390D01*
X100510476Y-97023390D02*
X100558095Y-96832914D01*
X100558095Y-96832914D02*
X100605714Y-96737676D01*
X100605714Y-96737676D02*
X100700952Y-96642438D01*
X100700952Y-96642438D02*
X100843809Y-96594819D01*
X100843809Y-96594819D02*
X100939047Y-96594819D01*
X100939047Y-96594819D02*
X101081904Y-96642438D01*
X101081904Y-96642438D02*
X101129523Y-96690057D01*
X101558095Y-97594819D02*
X101558095Y-96594819D01*
X101558095Y-96594819D02*
X102129523Y-97594819D01*
X102129523Y-97594819D02*
X102129523Y-96594819D01*
X102558095Y-96690057D02*
X102605714Y-96642438D01*
X102605714Y-96642438D02*
X102700952Y-96594819D01*
X102700952Y-96594819D02*
X102939047Y-96594819D01*
X102939047Y-96594819D02*
X103034285Y-96642438D01*
X103034285Y-96642438D02*
X103081904Y-96690057D01*
X103081904Y-96690057D02*
X103129523Y-96785295D01*
X103129523Y-96785295D02*
X103129523Y-96880533D01*
X103129523Y-96880533D02*
X103081904Y-97023390D01*
X103081904Y-97023390D02*
X102510476Y-97594819D01*
X102510476Y-97594819D02*
X103129523Y-97594819D01*
X154029523Y-97329580D02*
X153981904Y-97377200D01*
X153981904Y-97377200D02*
X153839047Y-97424819D01*
X153839047Y-97424819D02*
X153743809Y-97424819D01*
X153743809Y-97424819D02*
X153600952Y-97377200D01*
X153600952Y-97377200D02*
X153505714Y-97281961D01*
X153505714Y-97281961D02*
X153458095Y-97186723D01*
X153458095Y-97186723D02*
X153410476Y-96996247D01*
X153410476Y-96996247D02*
X153410476Y-96853390D01*
X153410476Y-96853390D02*
X153458095Y-96662914D01*
X153458095Y-96662914D02*
X153505714Y-96567676D01*
X153505714Y-96567676D02*
X153600952Y-96472438D01*
X153600952Y-96472438D02*
X153743809Y-96424819D01*
X153743809Y-96424819D02*
X153839047Y-96424819D01*
X153839047Y-96424819D02*
X153981904Y-96472438D01*
X153981904Y-96472438D02*
X154029523Y-96520057D01*
X154458095Y-97424819D02*
X154458095Y-96424819D01*
X154458095Y-96424819D02*
X155029523Y-97424819D01*
X155029523Y-97424819D02*
X155029523Y-96424819D01*
X155981904Y-96424819D02*
X155505714Y-96424819D01*
X155505714Y-96424819D02*
X155458095Y-96901009D01*
X155458095Y-96901009D02*
X155505714Y-96853390D01*
X155505714Y-96853390D02*
X155600952Y-96805771D01*
X155600952Y-96805771D02*
X155839047Y-96805771D01*
X155839047Y-96805771D02*
X155934285Y-96853390D01*
X155934285Y-96853390D02*
X155981904Y-96901009D01*
X155981904Y-96901009D02*
X156029523Y-96996247D01*
X156029523Y-96996247D02*
X156029523Y-97234342D01*
X156029523Y-97234342D02*
X155981904Y-97329580D01*
X155981904Y-97329580D02*
X155934285Y-97377200D01*
X155934285Y-97377200D02*
X155839047Y-97424819D01*
X155839047Y-97424819D02*
X155600952Y-97424819D01*
X155600952Y-97424819D02*
X155505714Y-97377200D01*
X155505714Y-97377200D02*
X155458095Y-97329580D01*
X123094761Y-83910057D02*
X122999523Y-83862438D01*
X122999523Y-83862438D02*
X122904285Y-83767200D01*
X122904285Y-83767200D02*
X122761428Y-83624342D01*
X122761428Y-83624342D02*
X122666190Y-83576723D01*
X122666190Y-83576723D02*
X122570952Y-83576723D01*
X122618571Y-83814819D02*
X122523333Y-83767200D01*
X122523333Y-83767200D02*
X122428095Y-83671961D01*
X122428095Y-83671961D02*
X122380476Y-83481485D01*
X122380476Y-83481485D02*
X122380476Y-83148152D01*
X122380476Y-83148152D02*
X122428095Y-82957676D01*
X122428095Y-82957676D02*
X122523333Y-82862438D01*
X122523333Y-82862438D02*
X122618571Y-82814819D01*
X122618571Y-82814819D02*
X122809047Y-82814819D01*
X122809047Y-82814819D02*
X122904285Y-82862438D01*
X122904285Y-82862438D02*
X122999523Y-82957676D01*
X122999523Y-82957676D02*
X123047142Y-83148152D01*
X123047142Y-83148152D02*
X123047142Y-83481485D01*
X123047142Y-83481485D02*
X122999523Y-83671961D01*
X122999523Y-83671961D02*
X122904285Y-83767200D01*
X122904285Y-83767200D02*
X122809047Y-83814819D01*
X122809047Y-83814819D02*
X122618571Y-83814819D01*
X123380476Y-82814819D02*
X123999523Y-82814819D01*
X123999523Y-82814819D02*
X123666190Y-83195771D01*
X123666190Y-83195771D02*
X123809047Y-83195771D01*
X123809047Y-83195771D02*
X123904285Y-83243390D01*
X123904285Y-83243390D02*
X123951904Y-83291009D01*
X123951904Y-83291009D02*
X123999523Y-83386247D01*
X123999523Y-83386247D02*
X123999523Y-83624342D01*
X123999523Y-83624342D02*
X123951904Y-83719580D01*
X123951904Y-83719580D02*
X123904285Y-83767200D01*
X123904285Y-83767200D02*
X123809047Y-83814819D01*
X123809047Y-83814819D02*
X123523333Y-83814819D01*
X123523333Y-83814819D02*
X123428095Y-83767200D01*
X123428095Y-83767200D02*
X123380476Y-83719580D01*
X100234761Y-83910057D02*
X100139523Y-83862438D01*
X100139523Y-83862438D02*
X100044285Y-83767200D01*
X100044285Y-83767200D02*
X99901428Y-83624342D01*
X99901428Y-83624342D02*
X99806190Y-83576723D01*
X99806190Y-83576723D02*
X99710952Y-83576723D01*
X99758571Y-83814819D02*
X99663333Y-83767200D01*
X99663333Y-83767200D02*
X99568095Y-83671961D01*
X99568095Y-83671961D02*
X99520476Y-83481485D01*
X99520476Y-83481485D02*
X99520476Y-83148152D01*
X99520476Y-83148152D02*
X99568095Y-82957676D01*
X99568095Y-82957676D02*
X99663333Y-82862438D01*
X99663333Y-82862438D02*
X99758571Y-82814819D01*
X99758571Y-82814819D02*
X99949047Y-82814819D01*
X99949047Y-82814819D02*
X100044285Y-82862438D01*
X100044285Y-82862438D02*
X100139523Y-82957676D01*
X100139523Y-82957676D02*
X100187142Y-83148152D01*
X100187142Y-83148152D02*
X100187142Y-83481485D01*
X100187142Y-83481485D02*
X100139523Y-83671961D01*
X100139523Y-83671961D02*
X100044285Y-83767200D01*
X100044285Y-83767200D02*
X99949047Y-83814819D01*
X99949047Y-83814819D02*
X99758571Y-83814819D01*
X101139523Y-83814819D02*
X100568095Y-83814819D01*
X100853809Y-83814819D02*
X100853809Y-82814819D01*
X100853809Y-82814819D02*
X100758571Y-82957676D01*
X100758571Y-82957676D02*
X100663333Y-83052914D01*
X100663333Y-83052914D02*
X100568095Y-83100533D01*
X105579104Y-74374285D02*
X105579104Y-73898095D01*
X105864819Y-74469523D02*
X104864819Y-74136190D01*
X104864819Y-74136190D02*
X105864819Y-73802857D01*
X105864819Y-72945714D02*
X105864819Y-73517142D01*
X105864819Y-73231428D02*
X104864819Y-73231428D01*
X104864819Y-73231428D02*
X105007676Y-73326666D01*
X105007676Y-73326666D02*
X105102914Y-73421904D01*
X105102914Y-73421904D02*
X105150533Y-73517142D01*
X145504819Y-74921904D02*
X146314342Y-74921904D01*
X146314342Y-74921904D02*
X146409580Y-74874285D01*
X146409580Y-74874285D02*
X146457200Y-74826666D01*
X146457200Y-74826666D02*
X146504819Y-74731428D01*
X146504819Y-74731428D02*
X146504819Y-74540952D01*
X146504819Y-74540952D02*
X146457200Y-74445714D01*
X146457200Y-74445714D02*
X146409580Y-74398095D01*
X146409580Y-74398095D02*
X146314342Y-74350476D01*
X146314342Y-74350476D02*
X145504819Y-74350476D01*
X146457200Y-73921904D02*
X146504819Y-73779047D01*
X146504819Y-73779047D02*
X146504819Y-73540952D01*
X146504819Y-73540952D02*
X146457200Y-73445714D01*
X146457200Y-73445714D02*
X146409580Y-73398095D01*
X146409580Y-73398095D02*
X146314342Y-73350476D01*
X146314342Y-73350476D02*
X146219104Y-73350476D01*
X146219104Y-73350476D02*
X146123866Y-73398095D01*
X146123866Y-73398095D02*
X146076247Y-73445714D01*
X146076247Y-73445714D02*
X146028628Y-73540952D01*
X146028628Y-73540952D02*
X145981009Y-73731428D01*
X145981009Y-73731428D02*
X145933390Y-73826666D01*
X145933390Y-73826666D02*
X145885771Y-73874285D01*
X145885771Y-73874285D02*
X145790533Y-73921904D01*
X145790533Y-73921904D02*
X145695295Y-73921904D01*
X145695295Y-73921904D02*
X145600057Y-73874285D01*
X145600057Y-73874285D02*
X145552438Y-73826666D01*
X145552438Y-73826666D02*
X145504819Y-73731428D01*
X145504819Y-73731428D02*
X145504819Y-73493333D01*
X145504819Y-73493333D02*
X145552438Y-73350476D01*
X145981009Y-72588571D02*
X146028628Y-72445714D01*
X146028628Y-72445714D02*
X146076247Y-72398095D01*
X146076247Y-72398095D02*
X146171485Y-72350476D01*
X146171485Y-72350476D02*
X146314342Y-72350476D01*
X146314342Y-72350476D02*
X146409580Y-72398095D01*
X146409580Y-72398095D02*
X146457200Y-72445714D01*
X146457200Y-72445714D02*
X146504819Y-72540952D01*
X146504819Y-72540952D02*
X146504819Y-72921904D01*
X146504819Y-72921904D02*
X145504819Y-72921904D01*
X145504819Y-72921904D02*
X145504819Y-72588571D01*
X145504819Y-72588571D02*
X145552438Y-72493333D01*
X145552438Y-72493333D02*
X145600057Y-72445714D01*
X145600057Y-72445714D02*
X145695295Y-72398095D01*
X145695295Y-72398095D02*
X145790533Y-72398095D01*
X145790533Y-72398095D02*
X145885771Y-72445714D01*
X145885771Y-72445714D02*
X145933390Y-72493333D01*
X145933390Y-72493333D02*
X145981009Y-72588571D01*
X145981009Y-72588571D02*
X145981009Y-72921904D01*
X116564819Y-58178333D02*
X117279104Y-58178333D01*
X117279104Y-58178333D02*
X117421961Y-58225952D01*
X117421961Y-58225952D02*
X117517200Y-58321190D01*
X117517200Y-58321190D02*
X117564819Y-58464047D01*
X117564819Y-58464047D02*
X117564819Y-58559285D01*
X117564819Y-57178333D02*
X117564819Y-57749761D01*
X117564819Y-57464047D02*
X116564819Y-57464047D01*
X116564819Y-57464047D02*
X116707676Y-57559285D01*
X116707676Y-57559285D02*
X116802914Y-57654523D01*
X116802914Y-57654523D02*
X116850533Y-57749761D01*
D14*
%TO.C,CN4*%
X130070000Y-112740000D02*
X130070000Y-113260000D01*
X130070000Y-113260000D02*
X144690000Y-113260000D01*
X130720000Y-97780000D02*
X130720000Y-101110000D01*
X130720000Y-97780000D02*
X144040000Y-97780000D01*
X130720000Y-112740000D02*
X130070000Y-112740000D01*
X130720000Y-112740000D02*
X130720000Y-104630000D01*
X132980000Y-97560000D02*
X134780000Y-97560000D01*
X144040000Y-97780000D02*
X144040000Y-101110000D01*
X144040000Y-104630000D02*
X144040000Y-112740000D01*
X144690000Y-112740000D02*
X144040000Y-112740000D01*
X144690000Y-113260000D02*
X144690000Y-112740000D01*
%TO.C,CN6*%
X163600000Y-108760000D02*
X163600000Y-106960000D01*
X163820000Y-97700000D02*
X167150000Y-97700000D01*
X163820000Y-111020000D02*
X163820000Y-97700000D01*
X163820000Y-111020000D02*
X167150000Y-111020000D01*
X170670000Y-97700000D02*
X178780000Y-97700000D01*
X178780000Y-97050000D02*
X178780000Y-97700000D01*
X178780000Y-111020000D02*
X170670000Y-111020000D01*
X178780000Y-111020000D02*
X178780000Y-111670000D01*
X178780000Y-111670000D02*
X179300000Y-111670000D01*
X179300000Y-97050000D02*
X178780000Y-97050000D01*
X179300000Y-111670000D02*
X179300000Y-97050000D01*
%TO.C,REF\u002A\u002A*%
X87790000Y-72590000D02*
X87790000Y-74090000D01*
X89040000Y-76590000D02*
X93540000Y-76590000D01*
X93540000Y-70090000D02*
X89040000Y-70090000D01*
X94790000Y-74090000D02*
X94790000Y-72590000D01*
%TO.C,R1*%
X87420000Y-80090000D02*
X88190000Y-80090000D01*
X88190000Y-78720000D02*
X88190000Y-81460000D01*
X88190000Y-81460000D02*
X94730000Y-81460000D01*
X94730000Y-78720000D02*
X88190000Y-78720000D01*
X94730000Y-81460000D02*
X94730000Y-78720000D01*
X95500000Y-80090000D02*
X94730000Y-80090000D01*
%TO.C,D1*%
X100040000Y-92744000D02*
X100040000Y-92900000D01*
X100040000Y-95060000D02*
X100040000Y-95216000D01*
X100040000Y-92744484D02*
G75*
G02*
X103272335Y-92901392I1560000J-1235516D01*
G01*
X100559039Y-92900000D02*
G75*
G02*
X102641130Y-92900163I1040961J-1080000D01*
G01*
X102641130Y-95059837D02*
G75*
G02*
X100559039Y-95060000I-1041130J1079837D01*
G01*
X103272335Y-95058608D02*
G75*
G02*
X100040000Y-95215516I-1672335J1078608D01*
G01*
%TO.C,D6*%
X157190000Y-92744000D02*
X157190000Y-92900000D01*
X157190000Y-95060000D02*
X157190000Y-95216000D01*
X157190000Y-92744484D02*
G75*
G02*
X160422335Y-92901392I1560000J-1235516D01*
G01*
X157709039Y-92900000D02*
G75*
G02*
X159791130Y-92900163I1040961J-1080000D01*
G01*
X159791130Y-95059837D02*
G75*
G02*
X157709039Y-95060000I-1041130J1079837D01*
G01*
X160422335Y-95058608D02*
G75*
G02*
X157190000Y-95215516I-1672335J1078608D01*
G01*
%TO.C,D5*%
X145760000Y-92744000D02*
X145760000Y-92900000D01*
X145760000Y-95060000D02*
X145760000Y-95216000D01*
X145760000Y-92744484D02*
G75*
G02*
X148992335Y-92901392I1560000J-1235516D01*
G01*
X146279039Y-92900000D02*
G75*
G02*
X148361130Y-92900163I1040961J-1080000D01*
G01*
X148361130Y-95059837D02*
G75*
G02*
X146279039Y-95060000I-1041130J1079837D01*
G01*
X148992335Y-95058608D02*
G75*
G02*
X145760000Y-95215516I-1672335J1078608D01*
G01*
%TO.C,CN3*%
X112290000Y-112910000D02*
X112290000Y-113430000D01*
X112290000Y-113430000D02*
X126910000Y-113430000D01*
X112940000Y-97950000D02*
X112940000Y-101280000D01*
X112940000Y-97950000D02*
X126260000Y-97950000D01*
X112940000Y-112910000D02*
X112290000Y-112910000D01*
X112940000Y-112910000D02*
X112940000Y-104800000D01*
X115200000Y-97730000D02*
X117000000Y-97730000D01*
X126260000Y-97950000D02*
X126260000Y-101280000D01*
X126260000Y-104800000D02*
X126260000Y-112910000D01*
X126910000Y-112910000D02*
X126260000Y-112910000D01*
X126910000Y-113430000D02*
X126910000Y-112910000D01*
%TO.C,Q6*%
X152360000Y-84360000D02*
X152360000Y-89001000D01*
X152360000Y-84360000D02*
X162600000Y-84360000D01*
X152360000Y-85870000D02*
X162600000Y-85870000D01*
X152360000Y-89001000D02*
X162600000Y-89001000D01*
X155630000Y-84360000D02*
X155630000Y-85870000D01*
X159331000Y-84360000D02*
X159331000Y-85870000D01*
X162600000Y-84360000D02*
X162600000Y-89001000D01*
%TO.C,CN1*%
X77350000Y-96610000D02*
X77350000Y-111230000D01*
X77350000Y-111230000D02*
X77870000Y-111230000D01*
X77870000Y-96610000D02*
X77350000Y-96610000D01*
X77870000Y-97260000D02*
X77870000Y-96610000D01*
X77870000Y-97260000D02*
X85980000Y-97260000D01*
X77870000Y-111230000D02*
X77870000Y-110580000D01*
X85980000Y-110580000D02*
X77870000Y-110580000D01*
X92830000Y-97260000D02*
X89500000Y-97260000D01*
X92830000Y-97260000D02*
X92830000Y-110580000D01*
X92830000Y-110580000D02*
X89500000Y-110580000D01*
X93050000Y-99520000D02*
X93050000Y-101320000D01*
%TO.C,Q2*%
X106640000Y-84360000D02*
X106640000Y-89001000D01*
X106640000Y-84360000D02*
X116880000Y-84360000D01*
X106640000Y-85870000D02*
X116880000Y-85870000D01*
X106640000Y-89001000D02*
X116880000Y-89001000D01*
X109910000Y-84360000D02*
X109910000Y-85870000D01*
X113611000Y-84360000D02*
X113611000Y-85870000D01*
X116880000Y-84360000D02*
X116880000Y-89001000D01*
%TO.C,D4*%
X134330000Y-92744000D02*
X134330000Y-92900000D01*
X134330000Y-95060000D02*
X134330000Y-95216000D01*
X134330000Y-92744484D02*
G75*
G02*
X137562335Y-92901392I1560000J-1235516D01*
G01*
X134849039Y-92900000D02*
G75*
G02*
X136931130Y-92900163I1040961J-1080000D01*
G01*
X136931130Y-95059837D02*
G75*
G02*
X134849039Y-95060000I-1041130J1079837D01*
G01*
X137562335Y-95058608D02*
G75*
G02*
X134330000Y-95215516I-1672335J1078608D01*
G01*
%TO.C,D3*%
X122900000Y-92744000D02*
X122900000Y-92900000D01*
X122900000Y-95060000D02*
X122900000Y-95216000D01*
X122900000Y-92744484D02*
G75*
G02*
X126132335Y-92901392I1560000J-1235516D01*
G01*
X123419039Y-92900000D02*
G75*
G02*
X125501130Y-92900163I1040961J-1080000D01*
G01*
X125501130Y-95059837D02*
G75*
G02*
X123419039Y-95060000I-1041130J1079837D01*
G01*
X126132335Y-95058608D02*
G75*
G02*
X122900000Y-95215516I-1672335J1078608D01*
G01*
%TO.C,Q5*%
X140930000Y-84360000D02*
X140930000Y-89001000D01*
X140930000Y-84360000D02*
X151170000Y-84360000D01*
X140930000Y-85870000D02*
X151170000Y-85870000D01*
X140930000Y-89001000D02*
X151170000Y-89001000D01*
X144200000Y-84360000D02*
X144200000Y-85870000D01*
X147901000Y-84360000D02*
X147901000Y-85870000D01*
X151170000Y-84360000D02*
X151170000Y-89001000D01*
%TO.C,Q4*%
X129500000Y-84360000D02*
X129500000Y-89001000D01*
X129500000Y-84360000D02*
X139740000Y-84360000D01*
X129500000Y-85870000D02*
X139740000Y-85870000D01*
X129500000Y-89001000D02*
X139740000Y-89001000D01*
X132770000Y-84360000D02*
X132770000Y-85870000D01*
X136471000Y-84360000D02*
X136471000Y-85870000D01*
X139740000Y-84360000D02*
X139740000Y-89001000D01*
%TO.C,CN2*%
X94510000Y-112910000D02*
X94510000Y-113430000D01*
X94510000Y-113430000D02*
X109130000Y-113430000D01*
X95160000Y-97950000D02*
X95160000Y-101280000D01*
X95160000Y-97950000D02*
X108480000Y-97950000D01*
X95160000Y-112910000D02*
X94510000Y-112910000D01*
X95160000Y-112910000D02*
X95160000Y-104800000D01*
X97420000Y-97730000D02*
X99220000Y-97730000D01*
X108480000Y-97950000D02*
X108480000Y-101280000D01*
X108480000Y-104800000D02*
X108480000Y-112910000D01*
X109130000Y-112910000D02*
X108480000Y-112910000D01*
X109130000Y-113430000D02*
X109130000Y-112910000D01*
%TO.C,CN5*%
X147410000Y-112740000D02*
X147410000Y-113260000D01*
X147410000Y-113260000D02*
X162030000Y-113260000D01*
X148060000Y-97780000D02*
X148060000Y-101110000D01*
X148060000Y-97780000D02*
X161380000Y-97780000D01*
X148060000Y-112740000D02*
X147410000Y-112740000D01*
X148060000Y-112740000D02*
X148060000Y-104630000D01*
X150320000Y-97560000D02*
X152120000Y-97560000D01*
X161380000Y-97780000D02*
X161380000Y-101110000D01*
X161380000Y-104630000D02*
X161380000Y-112740000D01*
X162030000Y-112740000D02*
X161380000Y-112740000D01*
X162030000Y-113260000D02*
X162030000Y-112740000D01*
%TO.C,Q3*%
X118070000Y-84360000D02*
X118070000Y-89001000D01*
X118070000Y-84360000D02*
X128310000Y-84360000D01*
X118070000Y-85870000D02*
X128310000Y-85870000D01*
X118070000Y-89001000D02*
X128310000Y-89001000D01*
X121340000Y-84360000D02*
X121340000Y-85870000D01*
X125041000Y-84360000D02*
X125041000Y-85870000D01*
X128310000Y-84360000D02*
X128310000Y-89001000D01*
%TO.C,Q1*%
X95210000Y-84360000D02*
X95210000Y-89001000D01*
X95210000Y-84360000D02*
X105450000Y-84360000D01*
X95210000Y-85870000D02*
X105450000Y-85870000D01*
X95210000Y-89001000D02*
X105450000Y-89001000D01*
X98480000Y-84360000D02*
X98480000Y-85870000D01*
X102181000Y-84360000D02*
X102181000Y-85870000D01*
X105450000Y-84360000D02*
X105450000Y-89001000D01*
%TO.C,A1*%
X106550000Y-64640000D02*
X106550000Y-82680000D01*
X106550000Y-82680000D02*
X109220000Y-82680000D01*
X109220000Y-67310000D02*
X109220000Y-64640000D01*
X109220000Y-67310000D02*
X147320000Y-67310000D01*
X109220000Y-80010000D02*
X109220000Y-82680000D01*
X111760000Y-80010000D02*
X109220000Y-80010000D01*
X111760000Y-80010000D02*
X111760000Y-82680000D01*
X111760000Y-80010000D02*
X147320000Y-80010000D01*
X111760000Y-82680000D02*
X149990000Y-82680000D01*
X142110000Y-69720000D02*
X152530000Y-69720000D01*
X142110000Y-77600000D02*
X142110000Y-69720000D01*
X147320000Y-67310000D02*
X147320000Y-64640000D01*
X147320000Y-80010000D02*
X147320000Y-82680000D01*
X149990000Y-64640000D02*
X106550000Y-64640000D01*
X149990000Y-64640000D02*
X149990000Y-69720000D01*
X149990000Y-82680000D02*
X149990000Y-77600000D01*
X152530000Y-69720000D02*
X152530000Y-77600000D01*
X152530000Y-77600000D02*
X142110000Y-77600000D01*
%TO.C,REF\u002A\u002A*%
X167210000Y-71760000D02*
X168540000Y-71760000D01*
X167210000Y-73090000D02*
X167210000Y-71760000D01*
X167210000Y-74360000D02*
X167210000Y-76960000D01*
X167210000Y-74360000D02*
X169870000Y-74360000D01*
X167210000Y-76960000D02*
X169870000Y-76960000D01*
X169870000Y-74360000D02*
X169870000Y-76960000D01*
%TO.C,J1*%
X118050000Y-58130000D02*
X118050000Y-60790000D01*
X118050000Y-60790000D02*
X138490000Y-60790000D01*
X118110000Y-63500000D02*
X118110000Y-62230000D01*
X119000000Y-52130000D02*
X119760000Y-52130000D01*
X119000000Y-58130000D02*
X119000000Y-52130000D01*
X119000000Y-61120000D02*
X119000000Y-60790000D01*
X119060000Y-58130000D02*
X119060000Y-52130000D01*
X119180000Y-58130000D02*
X119180000Y-52130000D01*
X119300000Y-58130000D02*
X119300000Y-52130000D01*
X119380000Y-63500000D02*
X118110000Y-63500000D01*
X119420000Y-58130000D02*
X119420000Y-52130000D01*
X119540000Y-58130000D02*
X119540000Y-52130000D01*
X119660000Y-58130000D02*
X119660000Y-52130000D01*
X119760000Y-52130000D02*
X119760000Y-58130000D01*
X119760000Y-61120000D02*
X119760000Y-60790000D01*
X120650000Y-60790000D02*
X120650000Y-58130000D01*
X121540000Y-52130000D02*
X122300000Y-52130000D01*
X121540000Y-58130000D02*
X121540000Y-52130000D01*
X121540000Y-61187071D02*
X121540000Y-60790000D01*
X122300000Y-52130000D02*
X122300000Y-58130000D01*
X122300000Y-61187071D02*
X122300000Y-60790000D01*
X123190000Y-60790000D02*
X123190000Y-58130000D01*
X124080000Y-52130000D02*
X124840000Y-52130000D01*
X124080000Y-58130000D02*
X124080000Y-52130000D01*
X124080000Y-61187071D02*
X124080000Y-60790000D01*
X124840000Y-52130000D02*
X124840000Y-58130000D01*
X124840000Y-61187071D02*
X124840000Y-60790000D01*
X125730000Y-60790000D02*
X125730000Y-58130000D01*
X126620000Y-52130000D02*
X127380000Y-52130000D01*
X126620000Y-58130000D02*
X126620000Y-52130000D01*
X126620000Y-61187071D02*
X126620000Y-60790000D01*
X127380000Y-52130000D02*
X127380000Y-58130000D01*
X127380000Y-61187071D02*
X127380000Y-60790000D01*
X128270000Y-60790000D02*
X128270000Y-58130000D01*
X129160000Y-52130000D02*
X129920000Y-52130000D01*
X129160000Y-58130000D02*
X129160000Y-52130000D01*
X129160000Y-61187071D02*
X129160000Y-60790000D01*
X129920000Y-52130000D02*
X129920000Y-58130000D01*
X129920000Y-61187071D02*
X129920000Y-60790000D01*
X130810000Y-60790000D02*
X130810000Y-58130000D01*
X131700000Y-52130000D02*
X132460000Y-52130000D01*
X131700000Y-58130000D02*
X131700000Y-52130000D01*
X131700000Y-61187071D02*
X131700000Y-60790000D01*
X132460000Y-52130000D02*
X132460000Y-58130000D01*
X132460000Y-61187071D02*
X132460000Y-60790000D01*
X133350000Y-60790000D02*
X133350000Y-58130000D01*
X134240000Y-52130000D02*
X135000000Y-52130000D01*
X134240000Y-58130000D02*
X134240000Y-52130000D01*
X134240000Y-61187071D02*
X134240000Y-60790000D01*
X135000000Y-52130000D02*
X135000000Y-58130000D01*
X135000000Y-61187071D02*
X135000000Y-60790000D01*
X135890000Y-60790000D02*
X135890000Y-58130000D01*
X136780000Y-52130000D02*
X137540000Y-52130000D01*
X136780000Y-58130000D02*
X136780000Y-52130000D01*
X136780000Y-61187071D02*
X136780000Y-60790000D01*
X137540000Y-52130000D02*
X137540000Y-58130000D01*
X137540000Y-61187071D02*
X137540000Y-60790000D01*
X138490000Y-58130000D02*
X118050000Y-58130000D01*
X138490000Y-60790000D02*
X138490000Y-58130000D01*
%TO.C,D2*%
X111470000Y-92744000D02*
X111470000Y-92900000D01*
X111470000Y-95060000D02*
X111470000Y-95216000D01*
X111470000Y-92744484D02*
G75*
G02*
X114702335Y-92901392I1560000J-1235516D01*
G01*
X111989039Y-92900000D02*
G75*
G02*
X114071130Y-92900163I1040961J-1080000D01*
G01*
X114071130Y-95059837D02*
G75*
G02*
X111989039Y-95060000I-1041130J1079837D01*
G01*
X114702335Y-95058608D02*
G75*
G02*
X111470000Y-95215516I-1672335J1078608D01*
G01*
%TD*%
M02*
