%TF.GenerationSoftware,KiCad,Pcbnew,9.0.0*%
%TF.CreationDate,2025-03-22T13:55:08+10:00*%
%TF.ProjectId,ngmarquee.kicad_pcb_to220_usb_switch_1.01_m3,6e676d61-7271-4756-9565-2e6b69636164,rev?*%
%TF.SameCoordinates,Original*%
%TF.FileFunction,Copper,L2,Bot*%
%TF.FilePolarity,Positive*%
%FSLAX46Y46*%
G04 Gerber Fmt 4.6, Leading zero omitted, Abs format (unit mm)*
G04 Created by KiCad (PCBNEW 9.0.0) date 2025-03-22 13:55:08*
%MOMM*%
%LPD*%
G01*
G04 APERTURE LIST*
%TA.AperFunction,ComponentPad*%
%ADD10R,1.600000X1.500000*%
%TD*%
%TA.AperFunction,ComponentPad*%
%ADD11C,1.600000*%
%TD*%
%TA.AperFunction,ComponentPad*%
%ADD12C,3.000000*%
%TD*%
%TA.AperFunction,ComponentPad*%
%ADD13R,1.500000X1.600000*%
%TD*%
%TA.AperFunction,ComponentPad*%
%ADD14C,2.000000*%
%TD*%
%TA.AperFunction,ComponentPad*%
%ADD15O,1.600000X1.600000*%
%TD*%
%TA.AperFunction,ComponentPad*%
%ADD16R,1.800000X1.800000*%
%TD*%
%TA.AperFunction,ComponentPad*%
%ADD17C,1.800000*%
%TD*%
%TA.AperFunction,ComponentPad*%
%ADD18C,6.400000*%
%TD*%
%TA.AperFunction,ComponentPad*%
%ADD19R,1.905000X2.000000*%
%TD*%
%TA.AperFunction,ComponentPad*%
%ADD20O,1.905000X2.000000*%
%TD*%
%TA.AperFunction,ComponentPad*%
%ADD21R,1.600000X1.600000*%
%TD*%
%TA.AperFunction,ComponentPad*%
%ADD22R,1.700000X1.700000*%
%TD*%
%TA.AperFunction,ComponentPad*%
%ADD23O,1.700000X1.700000*%
%TD*%
%TA.AperFunction,Conductor*%
%ADD24C,0.250000*%
%TD*%
%TA.AperFunction,Conductor*%
%ADD25C,0.200000*%
%TD*%
G04 APERTURE END LIST*
D10*
%TO.P,CN4,1*%
%TO.N,N/C*%
X133880000Y-100160000D03*
D11*
%TO.P,CN4,2*%
X136380000Y-100160000D03*
%TO.P,CN4,3*%
X138380000Y-100160000D03*
%TO.P,CN4,4*%
X140880000Y-100160000D03*
D12*
%TO.P,CN4,5*%
X130810000Y-102870000D03*
X143950000Y-102870000D03*
%TD*%
D13*
%TO.P,CN6,1*%
%TO.N,N/C*%
X166200000Y-107860000D03*
D11*
%TO.P,CN6,2*%
X166200000Y-105360000D03*
%TO.P,CN6,3*%
X166200000Y-103360000D03*
%TO.P,CN6,4*%
X166200000Y-100860000D03*
D12*
%TO.P,CN6,5*%
X168910000Y-110930000D03*
X168910000Y-97790000D03*
%TD*%
D14*
%TO.P,REF\u002A\u002A,1*%
%TO.N,N/C*%
X88040000Y-71090000D03*
X94540000Y-71090000D03*
%TO.P,REF\u002A\u002A,2*%
X88040000Y-75590000D03*
X94540000Y-75590000D03*
%TD*%
D11*
%TO.P,R1,1*%
%TO.N,N/C*%
X86380000Y-80090000D03*
D15*
%TO.P,R1,2*%
X96540000Y-80090000D03*
%TD*%
D16*
%TO.P,D1,1*%
%TO.N,N/C*%
X100330000Y-93980000D03*
D17*
%TO.P,D1,2*%
X102870000Y-93980000D03*
%TD*%
D18*
%TO.P,REF\u002A\u002A,1*%
%TO.N,N/C*%
X85540000Y-62590000D03*
%TD*%
D16*
%TO.P,D6,1*%
%TO.N,N/C*%
X157480000Y-93980000D03*
D17*
%TO.P,D6,2*%
X160020000Y-93980000D03*
%TD*%
D16*
%TO.P,D5,1*%
%TO.N,N/C*%
X146050000Y-93980000D03*
D17*
%TO.P,D5,2*%
X148590000Y-93980000D03*
%TD*%
D10*
%TO.P,CN3,1*%
%TO.N,N/C*%
X116100000Y-100330000D03*
D11*
%TO.P,CN3,2*%
X118600000Y-100330000D03*
%TO.P,CN3,3*%
X120600000Y-100330000D03*
%TO.P,CN3,4*%
X123100000Y-100330000D03*
D12*
%TO.P,CN3,5*%
X113030000Y-103040000D03*
X126170000Y-103040000D03*
%TD*%
D19*
%TO.P,Q6,1*%
%TO.N,N/C*%
X154940000Y-87630000D03*
D20*
%TO.P,Q6,2*%
X157480000Y-87630000D03*
%TO.P,Q6,3*%
X160020000Y-87630000D03*
%TD*%
D18*
%TO.P,REF\u002A\u002A,1*%
%TO.N,N/C*%
X172540000Y-91590000D03*
%TD*%
D13*
%TO.P,CN1,1*%
%TO.N,N/C*%
X90450000Y-100420000D03*
D11*
%TO.P,CN1,2*%
X90450000Y-102920000D03*
%TO.P,CN1,3*%
X90450000Y-104920000D03*
%TO.P,CN1,4*%
X90450000Y-107420000D03*
D12*
%TO.P,CN1,5*%
X87740000Y-97350000D03*
X87740000Y-110490000D03*
%TD*%
D19*
%TO.P,Q2,1*%
%TO.N,N/C*%
X109220000Y-87630000D03*
D20*
%TO.P,Q2,2*%
X111760000Y-87630000D03*
%TO.P,Q2,3*%
X114300000Y-87630000D03*
%TD*%
D16*
%TO.P,D4,1*%
%TO.N,N/C*%
X134620000Y-93980000D03*
D17*
%TO.P,D4,2*%
X137160000Y-93980000D03*
%TD*%
D16*
%TO.P,D3,1*%
%TO.N,N/C*%
X123190000Y-93980000D03*
D17*
%TO.P,D3,2*%
X125730000Y-93980000D03*
%TD*%
D19*
%TO.P,Q5,1*%
%TO.N,N/C*%
X143510000Y-87630000D03*
D20*
%TO.P,Q5,2*%
X146050000Y-87630000D03*
%TO.P,Q5,3*%
X148590000Y-87630000D03*
%TD*%
D18*
%TO.P,REF\u002A\u002A,1*%
%TO.N,N/C*%
X172540000Y-62590000D03*
%TD*%
D19*
%TO.P,Q4,1*%
%TO.N,N/C*%
X132080000Y-87630000D03*
D20*
%TO.P,Q4,2*%
X134620000Y-87630000D03*
%TO.P,Q4,3*%
X137160000Y-87630000D03*
%TD*%
D10*
%TO.P,CN2,1*%
%TO.N,N/C*%
X98320000Y-100330000D03*
D11*
%TO.P,CN2,2*%
X100820000Y-100330000D03*
%TO.P,CN2,3*%
X102820000Y-100330000D03*
%TO.P,CN2,4*%
X105320000Y-100330000D03*
D12*
%TO.P,CN2,5*%
X95250000Y-103040000D03*
X108390000Y-103040000D03*
%TD*%
D10*
%TO.P,CN5,1*%
%TO.N,N/C*%
X151220000Y-100160000D03*
D11*
%TO.P,CN5,2*%
X153720000Y-100160000D03*
%TO.P,CN5,3*%
X155720000Y-100160000D03*
%TO.P,CN5,4*%
X158220000Y-100160000D03*
D12*
%TO.P,CN5,5*%
X148150000Y-102870000D03*
X161290000Y-102870000D03*
%TD*%
D19*
%TO.P,Q3,1*%
%TO.N,N/C*%
X120650000Y-87630000D03*
D20*
%TO.P,Q3,2*%
X123190000Y-87630000D03*
%TO.P,Q3,3*%
X125730000Y-87630000D03*
%TD*%
D18*
%TO.P,REF\u002A\u002A,1*%
%TO.N,N/C*%
X85540000Y-91590000D03*
%TD*%
D19*
%TO.P,Q1,1*%
%TO.N,N/C*%
X97790000Y-87630000D03*
D20*
%TO.P,Q1,2*%
X100330000Y-87630000D03*
%TO.P,Q1,3*%
X102870000Y-87630000D03*
%TD*%
D15*
%TO.P,A1,3V3 Out*%
%TO.N,N/C*%
X143510000Y-66040000D03*
%TO.P,A1,5V Out*%
X118110000Y-66040000D03*
%TO.P,A1,A0*%
X138430000Y-66040000D03*
%TO.P,A1,A1*%
X135890000Y-66040000D03*
%TO.P,A1,A2*%
X133350000Y-66040000D03*
%TO.P,A1,A3*%
X130810000Y-66040000D03*
%TO.P,A1,A4*%
X128270000Y-66040000D03*
%TO.P,A1,A5*%
X125730000Y-66040000D03*
%TO.P,A1,A6*%
X123190000Y-66040000D03*
%TO.P,A1,A7*%
X120650000Y-66040000D03*
%TO.P,A1,D2*%
X120650000Y-81280000D03*
%TO.P,A1,D3*%
X123190000Y-81280000D03*
%TO.P,A1,D4*%
X125730000Y-81280000D03*
%TO.P,A1,D5*%
X128270000Y-81280000D03*
%TO.P,A1,D6*%
X130810000Y-81280000D03*
%TO.P,A1,D7*%
X133350000Y-81280000D03*
%TO.P,A1,D8*%
X135890000Y-81280000D03*
%TO.P,A1,D9*%
X138430000Y-81280000D03*
%TO.P,A1,D10*%
X140970000Y-81280000D03*
%TO.P,A1,D11*%
X143510000Y-81280000D03*
%TO.P,A1,D12*%
X146050000Y-81280000D03*
%TO.P,A1,D13*%
X146050000Y-66040000D03*
%TO.P,A1,GND*%
X118110000Y-81280000D03*
X113030000Y-66040000D03*
%TO.P,A1,REF*%
X140970000Y-66040000D03*
%TO.P,A1,RST*%
X115570000Y-81280000D03*
X115570000Y-66040000D03*
%TO.P,A1,RX0*%
X113030000Y-81280000D03*
D21*
%TO.P,A1,TX1*%
X110490000Y-81280000D03*
D15*
%TO.P,A1,Vin*%
X110490000Y-66040000D03*
%TD*%
D22*
%TO.P,REF\u002A\u002A,1*%
%TO.N,N/C*%
X168540000Y-73090000D03*
D23*
%TO.P,REF\u002A\u002A,2*%
X168540000Y-75630000D03*
%TD*%
D22*
%TO.P,J1,1*%
%TO.N,N/C*%
X119380000Y-62230000D03*
D23*
%TO.P,J1,2*%
X121920000Y-62230000D03*
%TO.P,J1,3*%
X124460000Y-62230000D03*
%TO.P,J1,4*%
X127000000Y-62230000D03*
%TO.P,J1,5*%
X129540000Y-62230000D03*
%TO.P,J1,6*%
X132080000Y-62230000D03*
%TO.P,J1,7*%
X134620000Y-62230000D03*
%TO.P,J1,8*%
X137160000Y-62230000D03*
%TD*%
D16*
%TO.P,D2,1*%
%TO.N,N/C*%
X111760000Y-93980000D03*
D17*
%TO.P,D2,2*%
X114300000Y-93980000D03*
%TD*%
D24*
%TO.N,*%
X92710000Y-80090000D02*
X92710000Y-68580000D01*
X110490000Y-62230000D02*
X119380000Y-62230000D01*
X137040000Y-90170000D02*
X143510000Y-90170000D01*
X134620000Y-96520000D02*
X134620000Y-93980000D01*
X137160000Y-90050000D02*
X137160000Y-87630000D01*
X114540000Y-90170000D02*
X114300000Y-89930000D01*
X132080000Y-90170000D02*
X137040000Y-90170000D01*
X114300000Y-89930000D02*
X114300000Y-87630000D01*
X110490000Y-96520000D02*
X111760000Y-96520000D01*
X148540000Y-89590000D02*
X148590000Y-89540000D01*
X115570000Y-96520000D02*
X121920000Y-96520000D01*
X160020000Y-90150000D02*
X160020000Y-87630000D01*
X92710000Y-90170000D02*
X92710000Y-80090000D01*
X90170000Y-74090000D02*
X90170000Y-72590000D01*
X121920000Y-62230000D02*
X121920000Y-80010000D01*
X163920000Y-107860000D02*
X166200000Y-107860000D01*
X111760000Y-96520000D02*
X111760000Y-93980000D01*
X156210000Y-96520000D02*
X157480000Y-96520000D01*
X148540000Y-90170000D02*
X154940000Y-90170000D01*
X123190000Y-96520000D02*
X133350000Y-96520000D01*
X137160000Y-53340000D02*
X137175000Y-53325000D01*
X144780000Y-96520000D02*
X146050000Y-96520000D01*
X160040000Y-90170000D02*
X160020000Y-90150000D01*
X116100000Y-97050000D02*
X116100000Y-100330000D01*
X97790000Y-90170000D02*
X103040000Y-90170000D01*
X97790000Y-96520000D02*
X99060000Y-96520000D01*
X124460000Y-62230000D02*
X124460000Y-80010000D01*
X90170000Y-71090000D02*
X90170000Y-62230000D01*
X123190000Y-96520000D02*
X123190000Y-93980000D01*
X127000000Y-62230000D02*
X127000000Y-80010000D01*
X90170000Y-71090000D02*
X88040000Y-71090000D01*
X90170000Y-72590000D02*
X90170000Y-71090000D01*
X163830000Y-96520000D02*
X163830000Y-107950000D01*
X113030000Y-68580000D02*
X113030000Y-66040000D01*
X120650000Y-90170000D02*
X125540000Y-90170000D01*
X103040000Y-90170000D02*
X102870000Y-90000000D01*
X157480000Y-96520000D02*
X157480000Y-93980000D01*
X90450000Y-96800000D02*
X90450000Y-100420000D01*
X121920000Y-96520000D02*
X123190000Y-96520000D01*
X148590000Y-89540000D02*
X148590000Y-87630000D01*
X165100000Y-90170000D02*
X165100000Y-62230000D01*
X102870000Y-90000000D02*
X102870000Y-87630000D01*
X103040000Y-90170000D02*
X109220000Y-90170000D01*
X129540000Y-80010000D02*
X128270000Y-81280000D01*
X121920000Y-80010000D02*
X120650000Y-81280000D01*
X154940000Y-90170000D02*
X160040000Y-90170000D01*
X151130000Y-96520000D02*
X151220000Y-96610000D01*
X109220000Y-90170000D02*
X114540000Y-90170000D01*
X148540000Y-90170000D02*
X148540000Y-89590000D01*
X157480000Y-96520000D02*
X163830000Y-96520000D01*
X97790000Y-96520000D02*
X98320000Y-97050000D01*
X151220000Y-96610000D02*
X151220000Y-100160000D01*
X165100000Y-62230000D02*
X137160000Y-62230000D01*
X100330000Y-96520000D02*
X110490000Y-96520000D01*
X163830000Y-107950000D02*
X163920000Y-107860000D01*
X90170000Y-96520000D02*
X90450000Y-96800000D01*
X137040000Y-90170000D02*
X137160000Y-90050000D01*
X100330000Y-96520000D02*
X100330000Y-93980000D01*
X90170000Y-96520000D02*
X97790000Y-96520000D01*
X110490000Y-62230000D02*
X110490000Y-66040000D01*
X133880000Y-97050000D02*
X133880000Y-100160000D01*
X143510000Y-90170000D02*
X148540000Y-90170000D01*
X129540000Y-62230000D02*
X129540000Y-80010000D01*
X151130000Y-96520000D02*
X156210000Y-96520000D01*
X125540000Y-90170000D02*
X125730000Y-89980000D01*
X92710000Y-68580000D02*
X113030000Y-68580000D01*
X127000000Y-80010000D02*
X125730000Y-81280000D01*
X133350000Y-96520000D02*
X134620000Y-96520000D01*
X111760000Y-96520000D02*
X115570000Y-96520000D01*
X146050000Y-96520000D02*
X146050000Y-93980000D01*
X99060000Y-96520000D02*
X100330000Y-96520000D01*
X125540000Y-90170000D02*
X132080000Y-90170000D01*
D25*
X96540000Y-80090000D02*
X92710000Y-80090000D01*
D24*
X124460000Y-80010000D02*
X123190000Y-81280000D01*
X90170000Y-62230000D02*
X110490000Y-62230000D01*
X90170000Y-96520000D02*
X90170000Y-74090000D01*
X160040000Y-90170000D02*
X165100000Y-90170000D01*
X98320000Y-97050000D02*
X98320000Y-100330000D01*
X134620000Y-96520000D02*
X144780000Y-96520000D01*
X115570000Y-96520000D02*
X116100000Y-97050000D01*
X146050000Y-96520000D02*
X151130000Y-96520000D01*
X92710000Y-90170000D02*
X97790000Y-90170000D01*
X133350000Y-96520000D02*
X133880000Y-97050000D01*
X125730000Y-89980000D02*
X125730000Y-87630000D01*
X114540000Y-90170000D02*
X120650000Y-90170000D01*
%TD*%
M02*
