M48
; DRILL file {KiCad 9.0.0} date 2025-03-22T13:55:05+1000
; FORMAT={-:-/ absolute / metric / decimal}
; #@! TF.CreationDate,2025-03-22T13:55:05+10:00
; #@! TF.GenerationSoftware,Kicad,Pcbnew,9.0.0
; #@! TF.FileFunction,Plated,1,2,PTH
FMAT,2
METRIC
; #@! TA.AperFunction,Plated,PTH,ComponentDrill
T1C0.800
; #@! TA.AperFunction,Plated,PTH,ComponentDrill
T2C0.900
; #@! TA.AperFunction,Plated,PTH,ComponentDrill
T3C0.950
; #@! TA.AperFunction,Plated,PTH,ComponentDrill
T4C1.000
; #@! TA.AperFunction,Plated,PTH,ComponentDrill
T5C1.100
; #@! TA.AperFunction,Plated,PTH,ComponentDrill
T6C2.300
; #@! TA.AperFunction,Plated,PTH,ComponentDrill
T7C3.200
%
G90
G05
T1
X86.38Y-80.09
X96.54Y-80.09
T2
X100.33Y-93.98
X102.87Y-93.98
X111.76Y-93.98
X114.3Y-93.98
X123.19Y-93.98
X125.73Y-93.98
X134.62Y-93.98
X137.16Y-93.98
X146.05Y-93.98
X148.59Y-93.98
X157.48Y-93.98
X160.02Y-93.98
T3
X90.45Y-100.42
X90.45Y-102.92
X90.45Y-104.92
X90.45Y-107.42
X98.32Y-100.33
X100.82Y-100.33
X102.82Y-100.33
X105.32Y-100.33
X116.1Y-100.33
X118.6Y-100.33
X120.6Y-100.33
X123.1Y-100.33
X133.88Y-100.16
X136.38Y-100.16
X138.38Y-100.16
X140.88Y-100.16
X151.22Y-100.16
X153.72Y-100.16
X155.72Y-100.16
X158.22Y-100.16
X166.2Y-100.86
X166.2Y-103.36
X166.2Y-105.36
X166.2Y-107.86
T4
X110.49Y-66.04
X110.49Y-81.28
X113.03Y-66.04
X113.03Y-81.28
X115.57Y-66.04
X115.57Y-81.28
X118.11Y-66.04
X118.11Y-81.28
X119.38Y-62.23
X120.65Y-66.04
X120.65Y-81.28
X121.92Y-62.23
X123.19Y-66.04
X123.19Y-81.28
X124.46Y-62.23
X125.73Y-66.04
X125.73Y-81.28
X127.0Y-62.23
X128.27Y-66.04
X128.27Y-81.28
X129.54Y-62.23
X130.81Y-66.04
X130.81Y-81.28
X132.08Y-62.23
X133.35Y-66.04
X133.35Y-81.28
X134.62Y-62.23
X135.89Y-66.04
X135.89Y-81.28
X137.16Y-62.23
X138.43Y-66.04
X138.43Y-81.28
X140.97Y-66.04
X140.97Y-81.28
X143.51Y-66.04
X143.51Y-81.28
X146.05Y-66.04
X146.05Y-81.28
X168.54Y-73.09
X168.54Y-75.63
T5
X88.04Y-71.09
X88.04Y-75.59
X94.54Y-71.09
X94.54Y-75.59
X97.79Y-87.63
X100.33Y-87.63
X102.87Y-87.63
X109.22Y-87.63
X111.76Y-87.63
X114.3Y-87.63
X120.65Y-87.63
X123.19Y-87.63
X125.73Y-87.63
X132.08Y-87.63
X134.62Y-87.63
X137.16Y-87.63
X143.51Y-87.63
X146.05Y-87.63
X148.59Y-87.63
X154.94Y-87.63
X157.48Y-87.63
X160.02Y-87.63
T6
X87.74Y-97.35
X87.74Y-110.49
X95.25Y-103.04
X108.39Y-103.04
X113.03Y-103.04
X126.17Y-103.04
X130.81Y-102.87
X143.95Y-102.87
X148.15Y-102.87
X161.29Y-102.87
X168.91Y-97.79
X168.91Y-110.93
T7
X85.54Y-62.59
X85.54Y-91.59
X172.54Y-62.59
X172.54Y-91.59
M30
